<?xml version="1.0" standalone="no"?>
<!DOCTYPE svg PUBLIC "-//W3C//DTD SVG 1.1//EN" "http://www.w3.org/Graphics/SVG/1.1/DTD/svg11.dtd" >
<svg xmlns="http://www.w3.org/2000/svg">
<metadata></metadata>
<defs>
<font id="bloxregular" horiz-adv-x="569" >
<font-face units-per-em="1000" ascent="750" descent="-250" />
<missing-glyph horiz-adv-x="500" />
<glyph horiz-adv-x="0" />
<glyph unicode="&#xd;" horiz-adv-x="500" />
<glyph unicode=" "  horiz-adv-x="500" />
<glyph unicode="&#x09;" horiz-adv-x="500" />
<glyph unicode="&#xa0;" horiz-adv-x="500" />
<glyph unicode="!" horiz-adv-x="308" d="M269 50q3 -8 2.5 -19t-2.5 -23l-4 -24t0 -22q-32 -4 -59.5 -3t-64.5 3q-17 14 -35 26.5t-38 23.5q0 16 -1 34t-1 34.5t2 31t10 25.5q18 -3 37.5 -1.5t38.5 3t37.5 0.5t35.5 -8q3 -10 8.5 -20t12 -20t12.5 -20.5t9 -20.5zM111 1q3 -2 7.5 -3.5t5.5 3.5q-1 2 -6.5 2.5 t-6.5 -2.5zM193 20q8 20 7 45.5t-4 47.5q-10 1 -19 7q-9 -4 -20 -5t-21.5 -1t-21 0.5t-19.5 -1.5q-4 -23 -1.5 -48t-0.5 -45q27 -1 49 -2t51 2zM280 597q-2 -18 -1 -39l2 -42t0 -41.5t-7 -37.5q2 -11 2 -26t-1.5 -30.5t-4 -29.5t-5.5 -23q5 -22 4 -45t-3.5 -46t-5.5 -45 t-1 -40q-17 -3 -32.5 0t-26.5 -7q-32 4 -61 5.5t-58 4.5q-5 16 -12 29.5t-21 21.5q-3 17 -3.5 32t1.5 31q-2 4 -5 6t-5 5q-4 24 -2 47t4.5 46t3 45.5t-5.5 45.5q-7 22 -6.5 46.5t3 50t4.5 52t-1 52.5q-2 5 1.5 4.5t5.5 0.5q0 17 -2.5 36.5t-0.5 36.5q25 1 48.5 -0.5 t52.5 -0.5h42t33 -10q6 -4 9.5 -14t10.5 -21q2 -3 6.5 -5.5t6.5 -5.5q5 -8 6 -17t4 -17q6 -12 14 -20t12 -24q-2 -3 -3 -5.5t-2 -5.5zM187 441q-6 19 -6 39.5t2 41.5l4 42t2 42q0 26 -5.5 52.5t-9.5 52.5q-33 4 -56.5 5t-54.5 9q-5 -14 -4 -29l2 -30t-0.5 -29.5t-10.5 -28.5 q1 -32 4 -66.5t6.5 -70.5t5 -72.5t-0.5 -72.5q1 -4 5 -5t3 -6q-4 -22 -0.5 -48.5t7.5 -53.5q28 -6 56.5 -2t48.5 8q-5 33 -5.5 71.5t7.5 73.5q-2 5 -3.5 14.5t-1.5 20.5t1 22t4 20zM211 278q1 9 0.5 14t1.5 16q-7 -2 -7 -13t5 -17zM214 166q5 2 13 0t7 4q-5 -2 -10.5 0 t-9.5 -4zM252 426q-4 8 -0.5 16t-2.5 10q-3 -3 -5 -4l2 -12t6 -10z" />
<glyph unicode="&#x22;" horiz-adv-x="422" d="M333 608q-11 2 -23 2.5t-17 -7.5q-10 4 -16.5 5.5t-13.5 4.5q1 1 1 5t-1 8.5t-2 8.5t-2 4q-2 4 -2 8.5t-5 6.5q-5 17 -5.5 35t-2.5 36q-3 19 -5 36t-2 38q-2 14 -3.5 27.5t6.5 29.5q14 1 27.5 -0.5t27 -3.5t27.5 -2.5t29 1.5q10 -15 13 -34.5t9 -39.5q3 -9 1 -17 t-5 -16.5t-6 -16.5t-2 -17q-1 -5 -3.5 -6t-3.5 -6q-2 -22 -6.5 -46.5t-14.5 -43.5zM346 781q2 -3 0 -3.5t-1 -4.5q6 -2 5 3.5t-4 4.5zM257 835q1 -35 6.5 -69.5t0.5 -64.5q4 -5 5 -13.5t3 -14.5q5 -3 11 -4t17 1q0 4 4 3q3 42 13.5 82t21.5 78q-8 -3 -18.5 -1.5t-22 3.5 t-22 3t-19.5 -3zM135 597q-14 -2 -24 -1t-20 7q-2 6 -7 11.5t-9 13.5q-7 21 -11 48.5t-7.5 56.5t-6.5 57.5t-7 52.5q13 6 27.5 6t29 -1.5t29 -2.5t28.5 4q5 -4 8.5 -8t8.5 -7q-1 -4 -1.5 -8t-2.5 -9q1 -4 3.5 -7t4.5 -6q2 -23 4.5 -43.5t4.5 -39.5q-10 -22 -16.5 -39 t-12 -31.5t-10.5 -27.5t-13 -26zM85 836q-5 -19 -3 -39.5t5 -37.5t0.5 -34.5t-0.5 -30.5q3 -11 8 -24t3 -27q8 -4 13.5 1.5t13.5 7.5q4 40 10 83.5t8 89.5q-15 -2 -29.5 2t-28.5 9z" />
<glyph unicode="#" horiz-adv-x="567" d="M325 351q3 -9 3 -19t-1 -20.5t-1.5 -21.5t1.5 -20q-8 -8 -21 -11t-27 -3.5t-28 1t-25 2.5q-14 16 -14 33t-6 35q-2 8 -7.5 17.5t-1.5 25.5q17 -5 38 -0.5t43 3.5q14 -1 28.5 -6t18.5 -16zM258 280h23t25 2q-3 14 -1.5 24.5t-10.5 13.5q-9 2 -19.5 -4t-19.5 -9 q-2 -8 0.5 -13.5t2.5 -13.5zM524 249q-2 -24 0.5 -44.5t-5.5 -46.5q-17 2 -34 3t-33 2q-5 -38 -8 -71t-11 -62q-14 1 -28 -2t-28 0q-4 1 -5 3t-6 5q-3 2 -7 2.5t-6 2.5q-4 3 -6.5 8t-7.5 9q-6 5 -11 12t-11 13q2 14 2.5 28t-0.5 27q-8 2 -16.5 3t-22.5 -1q-2 -15 -1 -31 l2 -32t-1 -30t-11 -25q-23 -1 -41 -1t-35 3q-8 11 -16.5 22t-22.5 17q-12 20 -10 43.5t1 47.5q-12 -4 -21.5 -1.5t-17.5 8t-17 11t-19 8.5q-1 7 -3 12t-10 5q-3 17 -5.5 38t-0.5 39q4 -1 14 -1t22 0.5t23.5 1t18.5 -0.5q4 2 3.5 -1t-0.5 -5q10 3 7.5 13l-4.5 18 q-10 2 -22.5 5.5t-27.5 -2.5q-11 12 -21 25.5t-24 21.5q2 12 0.5 23t-3.5 22.5t-3.5 23t0.5 25.5q20 6 39 4t39 -2q6 15 8 36t-5 41q5 18 3.5 36.5t-0.5 32.5q22 1 47.5 1t48.5 -5q8 -14 18.5 -29t12.5 -35q1 -4 -1 -7t-2 -7q-1 -13 2.5 -25.5t2.5 -26.5q11 1 18.5 -0.5 t18.5 -0.5q6 16 5.5 32t-2.5 32t-4 32.5t1 34.5q11 -2 22 -1.5t22 1.5t21.5 0.5t20.5 -4.5q6 -3 13.5 -10t14 -17t11 -20.5t5.5 -20.5q2 -15 -0.5 -31.5t2.5 -33.5q12 -4 29.5 -0.5t31.5 1.5q10 -2 16 -6.5t10.5 -11.5t8.5 -14t9 -13q-2 -26 -0.5 -49.5t-7.5 -41.5 q-20 -3 -37 -0.5t-34 -4.5q0 -7 0.5 -13t1.5 -12q14 -1 22 -2.5t22 -2.5q6 -9 16 -13.5t18 -12.5q0 -5 2 -5zM467 212q0 14 4 26.5t3 23.5q-18 3 -37 2.5t-42 3.5q-4 10 -3 20.5t0 21.5q-1 14 -4 28.5t1 28.5q21 3 39 -1.5t44 -0.5q1 14 -2 30t-1 31q-24 3 -56 3 q-9 0 -16.5 -1.5t-14 -1.5t-11.5 3t-8 11q-3 28 -2.5 61.5t-5.5 64.5q-11 2 -24 1t-23 -3q-1 -15 0.5 -32l3 -34t1.5 -34t-4 -30q-25 1 -50 1t-50 -3q-3 5 -8 7t-8 7q1 35 0.5 62.5t-0.5 63.5q-13 2 -28.5 -0.5t-30.5 0.5q-2 -26 -2 -46.5t5 -47.5q-7 -26 -11 -41 q-5 -5 -12 -5t-15 2q-14 -6 -26 -1.5t-25 -1.5q-2 -17 1.5 -34t7.5 -37q12 1 24 1.5t23.5 0t20.5 -3.5t15 -10q5 -21 10 -45t1 -43q-24 0 -44.5 0.5t-43.5 -0.5q2 -11 3.5 -22.5t0.5 -25.5q9 -2 21.5 -1t26 2t27 1t23.5 -4q-3 -1 -3.5 -4t-2.5 -5q5 -24 4.5 -51.5t1.5 -52.5 q13 -2 28.5 2.5t34.5 0.5q2 26 -3.5 48t-1.5 48q9 4 19.5 4.5t22.5 -0.5t23.5 -2.5t22.5 -1.5q7 0 12 1.5t10 -3.5q7 -23 6.5 -47.5t-0.5 -47.5q12 -2 27 -2h23q-2 23 0.5 48.5t-1.5 51.5q5 8 14.5 9.5t21 0.5t23 -1t20.5 6z" />
<glyph unicode="$" horiz-adv-x="418" d="M282 57q5 -20 7 -42.5t3 -43.5q-5 -5 -16 -4.5t-17 4.5q-13 -2 -26 -6t-25 -1q-2 1 -2.5 2.5t-2.5 2.5q-5 3 -11 3.5t-9 2.5q-3 3 -3.5 8.5t-2.5 7.5q-3 3 -6.5 1t-5.5 3q2 20 -2 36.5t-6 33.5q-21 -4 -38 4t-35 13v6.5t2 3.5q-2 1 -5 2t-5 4q-4 23 -3.5 50t-4.5 50 q34 4 69 2t69 3q2 7 0.5 11.5t-1.5 9.5q-20 -1 -37.5 1.5t-37.5 -0.5q-5 -1 -9 -3.5t-8 -1.5q-7 1 -9.5 6.5t-7.5 8.5q-7 5 -15.5 5.5t-16.5 3.5q-1 22 -2.5 42.5t-5.5 40.5q-2 8 -4.5 15t-3.5 15q-4 28 -2.5 57.5t-1.5 58.5q-6 16 -5.5 37t-1.5 39q25 7 50.5 3.5t51.5 -3.5 q-2 23 -5.5 45.5t-1.5 48.5q10 -1 22.5 0.5t25.5 3t25 1.5t21 -4q14 -5 17 -18.5t6 -30.5q5 -4 9 -8t6 -9q-2 -7 -2.5 -14t-2.5 -14q22 -2 42 -3t42 -6q9 -14 13 -31t10 -32q2 -5 5.5 -10t4.5 -11q2 -15 -3.5 -33t-3.5 -36q-5 -7 -10.5 -11t-12.5 -7q-18 4 -34 4.5t-31 0.5 t-30.5 0.5t-33.5 5.5q-5 -2 -6 -7.5t-3 -10.5q27 -5 56 -4.5t56 -0.5l4 -4t5 -4q0 -5 0.5 -7t-1.5 -5q3 -6 5.5 -12.5t2.5 -14.5q10 -15 15 -35t6.5 -42t1.5 -45.5t1 -46.5q0 -18 4.5 -36.5t-4.5 -35.5q-16 -7 -39.5 -10t-38.5 -3zM313 168q-1 3 -3.5 5t-3.5 6q-4 34 -5 77 t1 81q-13 2 -29 0.5t-33 -0.5q-7 1 -15 0.5t-15 0.5q-12 2 -26 3t-23 9q2 20 1.5 44.5t-1.5 44.5q42 3 78 2t83 -5q2 23 4 43.5t-3 40.5q-14 3 -31 1.5t-33 2.5q-2 0 -5 2t-5 2q-4 0 -7 -2t-7 -2q-6 1 -14.5 4t-10.5 11q2 -5 3.5 -3t4.5 3q-3 21 -2.5 41.5t6.5 41.5 q-17 6 -37.5 3t-34.5 -5q-1 -9 -0.5 -21t2.5 -23q2 -7 2.5 -14t1.5 -13q2 -7 5.5 -14.5t-7.5 -12.5q-26 5 -46.5 5t-47.5 2q-2 -22 -1 -42t3 -39.5t3.5 -38t0.5 -37.5q10 -4 9 -12t-2 -17q-2 -17 3 -35t5 -35q18 -1 35 0t33.5 1.5t33 -0.5t33.5 -5q6 -6 5.5 -14.5 t-0.5 -19.5q0 -14 2.5 -28.5t-4.5 -24.5q-35 -1 -65.5 -1h-67.5q5 -20 4.5 -38.5t1.5 -38.5q21 -2 35.5 2.5t30.5 4.5q3 -2 5 -4.5t4 -4.5q-2 -12 3 -28.5t1 -28.5q5 -4 7 -15t1 -19q19 -2 35.5 0.5t35.5 4.5q0 11 -2 22.5t-4 23.5t-3 24t1 25q11 -2 19.5 -0.5t16.5 2.5 q9 0 20 -2t17 6q-2 14 -2.5 24.5t0.5 26.5zM238 419q5 -2 11.5 -1.5t10.5 2.5q-6 0 -12.5 1t-9.5 -2z" />
<glyph unicode="%" horiz-adv-x="671" d="M623 98q0 -5 -2 -10l-4 -10q-1 -14 1.5 -29.5t-5.5 -29.5q-10 -4 -19.5 -3.5t-20.5 -1.5q-8 0 -16 -3.5t-16 -5.5q-18 -2 -36 2t-31 18q-5 0 -9 1.5t-9 2.5q-2 8 -8.5 10.5t-10.5 10.5q-6 9 -6.5 21t-4.5 25q-1 5 1.5 6.5t2.5 4.5q-1 33 1 67t0 60q23 9 46 5.5t45 -3.5 q9 0 18.5 1.5t20 2t20.5 -1.5t19 -8q1 -8 2 -15.5t3 -15.5q4 -13 10.5 -24t7.5 -28q1 -4 -0.5 -7.5t-1.5 -8.5q0 -9 1.5 -17.5t0.5 -15.5zM575 68q4 38 5.5 73.5t1.5 72.5q-13 6 -23.5 3.5t-21.5 -3.5t-21.5 0.5t-22 3t-23.5 2.5t-25 -2q6 -36 3.5 -78t0.5 -79 q31 -1 66 -1.5t60 8.5zM498 171q15 2 30.5 2.5t24.5 -10.5q-2 -9 -2 -20.5t-0.5 -23t-2 -22.5t-5.5 -19q-14 4 -25 6t-24 4q-6 7 -9 19t-4 25t-0.5 25t2.5 20q5 3 8 -0.5t7 -5.5zM534 101q0 8 1.5 15t0.5 15q-5 -1 -7 1t-7 1q2 -8 1 -15t1 -14q2 -2 5.5 -1.5t4.5 -1.5z M133 444q-4 7 -5 19.5t-0.5 25t0.5 24.5t-1 19q12 -2 30.5 3t31.5 2q8 -16 8.5 -39.5t0.5 -43.5q-17 -5 -32.5 -8.5t-32.5 -1.5zM167 498q-3 -12 -0.5 -19.5t16.5 -4.5q-1 8 0 14.5t0 13.5q-5 0 -8.5 -1t-7.5 -3zM85 400q-2 3 -3.5 11t-3 18t-2.5 20t-1 17q0 29 2 55t4 50 q-4 5 -5 15.5t3 16.5q20 -5 41.5 -5t43.5 1.5t42.5 3t38.5 0.5q6 -18 13 -41t9 -49q2 -18 1 -39.5t-1 -39.5v-18t-2 -16q-2 -8 -8.5 -12t-4.5 -13q-25 2 -56 1t-59 -13q-8 7 -14.5 13.5t-16.5 12.5q-6 3 -12.5 4.5t-8.5 6.5zM187 398q3 0 6.5 0.5t5.5 2.5q-3 1 -7 1.5 t-5 -4.5zM92 578q3 -21 2 -41.5t-2.5 -40.5t-1 -40t6.5 -40q35 -4 67 -1t64 4q0 49 2 88t4 75q-37 2 -73 -1t-69 -3zM444 288q-9 -4 -15 -11.5t-11.5 -15.5t-11.5 -15.5t-14 -12.5q-8 -15 -18 -29.5t-24 -23.5q-2 -14 -9 -20.5t-16 -11.5q-8 -21 -20 -37.5t-24.5 -32 t-25.5 -30.5t-23 -33q-11 -3 -21 -2.5t-22 -1.5q-5 -2 -11 -5.5t-12 -2.5q-8 0 -13.5 5t-13.5 6q-9 1 -18 -2t-17 0q-4 2 -6 6.5t-7 8.5q-2 1 -4 0t-3 0q-3 3 -4 7t-5 6q-2 2 -5 0t-5 0q-4 3 -5 8.5t-4 8.5q-5 5 -11.5 6.5t-4.5 11.5q14 11 24 25.5t24 25.5q14 23 31.5 38.5 t30.5 37.5q27 26 51 55t48 59t47.5 59.5t49.5 56.5q24 42 51.5 78.5t56.5 74.5q20 1 43 3.5t45 0.5q8 -1 15.5 -4t13.5 -2q8 1 15.5 2.5t12.5 -7.5q1 -5 -4 -7.5t-3 -6.5q2 -11 0.5 -23t-4 -25.5t-4.5 -26.5t-2 -25q-4 -2 -6.5 -5t-7.5 -4q-15 -26 -33.5 -47t-32.5 -48 q-2 -2 -4 -3t-4 -3q-5 -11 -11.5 -18.5t-13.5 -14.5t-14 -15t-11 -18zM159 70q-3 -5 4 -4t7 3q-5 -1 -6 1t-5 0zM348 292q21 18 36.5 43.5t37.5 41.5q12 17 22.5 37t28.5 29q9 17 20.5 31.5t23 28t22.5 27.5t20 32q-24 6 -46.5 5t-50.5 -3q-25 -29 -46 -54t-41 -59 q-5 0 -6 -4t-6 -4q-5 -18 -14 -30.5t-21 -22.5q-5 -14 -13 -23t-18 -17q-23 -31 -46.5 -61t-50.5 -56q-8 -12 -16.5 -22t-19.5 -17q-20 -31 -44 -56.5t-47 -54.5q35 5 66.5 6t57.5 -6q11 13 21 25.5t22 23.5q2 5 -2 4.5t-3 3.5q6 1 10 6.5t7 11.5t6.5 10.5t8.5 4.5q1 3 -1 4 t-1 3q11 9 23.5 21.5t14.5 27.5q7 4 12.5 11t10 14.5t9 14t11.5 11.5q2 5 2.5 6t-0.5 6z" />
<glyph unicode="&#x26;" horiz-adv-x="380" d="M343 430q-3 -2 -5 -2.5t-4 -3.5q-23 0 -45.5 2t-44.5 0q-9 -2 -18 -6t-17 -6q-8 -1 -14.5 0t-13.5 -1q-6 -7 -5.5 -20.5t2.5 -25.5q7 -2 15.5 -0.5t16.5 1.5q13 -1 18 -4t10 -13q5 -9 12 -17.5t12 -15.5q-2 -7 -1.5 -18t0.5 -22.5t-0.5 -22.5t-4.5 -18q-8 -2 -20.5 -3.5 t-17.5 3.5q-5 -5 -15.5 -4.5t-15.5 -6.5q2 -5 2 -17t2 -21q28 -1 60 -1t54 4q7 -15 15 -28.5t13 -30.5q-4 -20 -5 -41t0 -41q-6 -5 -13.5 -5.5t-15.5 -1t-15 -1.5t-13 -6q-4 -8 -5 -19t-2.5 -22.5t-5 -21t-10.5 -15.5q-13 2 -24 2.5t-25 0.5h-12.5t-11.5 1q-6 2 -5.5 5 t-4.5 8q-2 2 -4.5 2t-4.5 2q-4 4 -7 8.5t-9 6.5q-3 9 -0.5 22.5t0.5 27.5q-8 0 -19 -1.5t-21 1.5q-8 2 -11 9t-9 13q-3 3 -7 4.5t-7 3.5q-2 2 -3.5 6t-3.5 6q-3 3 -5 5.5t-4 4.5q-5 53 -7.5 95t-3.5 92q5 5 9.5 10t9.5 10q-2 4 -7 5.5t-8 5.5q-5 6 -6 16.5t-3 18.5 q-5 21 -3 47t2 45q0 15 -2 29.5t0 28.5q1 11 3 23.5t-2 24.5q9 8 27 5.5t33 -1.5q9 1 16.5 3.5t15.5 0.5q-1 22 -0.5 41.5t-2.5 36.5q6 8 14.5 6t16.5 -3q17 -1 30.5 1.5t25.5 -8.5q3 -11 8 -18.5l10 -15t9 -16.5t5 -21q8 -3 13 -5t13 -2q9 0 17.5 2.5t16 4t14 0t11.5 -9.5 q3 -5 3 -11.5t4 -13.5q2 -6 7.5 -10.5t7.5 -9.5q1 -4 -1 -9t-2 -10q0 -13 1.5 -27.5t-2.5 -26.5zM312 545q-19 -3 -39 -8t-40 -5q-2 0 -3 1.5t-3 1.5q-4 -1 -8 -3t-8 0q-7 2 -8.5 9t-2.5 13q-2 11 -5 23t-2 24q-11 7 -26.5 8.5t-26.5 -2.5q-2 -17 -3.5 -34t3.5 -34 q-6 -5 -19.5 -5t-18.5 2q-11 -8 -25.5 -6t-27.5 4q-4 -33 -2 -63.5t2 -63.5q1 -22 0.5 -40.5t5.5 -32.5q10 -5 16.5 -10.5t11.5 -16.5q-5 -8 -13 -15.5t-13 -16.5q-4 -8 -3 -16t3 -17q5 -35 4.5 -68.5t4.5 -68.5q16 -4 36 -4.5t36 -0.5q11 -14 12 -37t3 -44q9 -2 16.5 -1.5 t15.5 0.5q11 0 19 -3.5t18 1.5q5 21 0 40.5t0 44.5q23 2 38.5 1t35.5 1q-2 19 1 33.5t1 34.5q-9 1 -19 0t-20.5 -1.5t-20 -0.5t-18.5 4q-9 -6 -24.5 -3t-28.5 1q-4 5 -6.5 11.5t-4.5 12.5q3 9 2.5 20.5t-2.5 23t-3.5 22.5t-0.5 19q21 -2 37 0.5t34 6.5q5 14 2 30t1 24 q-8 7 -19 7.5t-23 -1t-23.5 -1.5t-19.5 8q-2 30 -5 57t0 53q17 -3 33.5 1t32.5 4q11 0 21.5 -1.5t21.5 -1.5q17 0 33 2.5t33 -0.5q1 24 2 40.5t2 35.5q-3 0 -3 1z" />
<glyph unicode="'" horiz-adv-x="238" d="M133 596q-15 -2 -25 -0.5t-19 7.5q-2 6 -7 12t-9 14q-5 22 -8 49.5t-5 56.5t-4 57.5t-5 52.5q13 6 27.5 5.5t29 -3t29.5 -4t29 2.5l16 -16q-2 -4 -2.5 -8t-2.5 -9q2 -4 3.5 -6.5t3.5 -6.5q1 -23 3 -43.5t4 -39.5q-11 -21 -18.5 -38t-13.5 -31.5t-12 -27t-14 -24.5z M93 836q-5 -18 -4.5 -39t2.5 -38t-1 -34t-1 -31q2 -11 7 -24t2 -27q8 -4 13 1.5t13 6.5q6 40 14 83t13 88q-16 -1 -30 4z" />
<glyph unicode="(" horiz-adv-x="396" d="M293 552q-5 -17 -17.5 -35t-17.5 -41q-4 -21 -3 -47.5t-3 -51.5q-1 -6 -3 -10.5t-2 -9.5q-1 -11 1.5 -22.5t2.5 -23.5q0 -18 -4.5 -34t5.5 -33q-10 -23 -6 -49t14 -47q15 -19 29.5 -45t30.5 -47q5 -5 5.5 -10t5.5 -12q10 -13 24 -27.5t17 -37.5q-20 -4 -38 -8t-36 -7 t-37.5 -4.5t-41.5 0.5q-2 6 -7 8.5t-6 9.5q-13 5 -24 12t-17 19q-6 0 -9 2.5t-8 3.5q-31 36 -57 77t-57 78q-6 46 -6.5 94.5t1.5 98.5t4 99.5t0 96.5q2 3 6 4.5t9 3.5q13 37 35.5 64.5t51.5 50.5q0 13 7 18.5t8 17.5q10 -4 17 0.5t16 6.5q13 2 27.5 1t29.5 -2t29 -1t28 5 q10 -7 25 -13q0 -23 8 -46.5t14 -40.5q-13 -17 -25 -33.5t-20 -36.5q-6 0 -6 4zM196 698q-5 -2 -10 -3.5t-10 -3.5q-5 0 -7 2t-5 4q-5 -6 -9.5 -12t-5.5 -17q-9 -5 -14.5 -12.5t-10.5 -16t-10.5 -16.5t-13.5 -14q-2 -16 -4.5 -33.5t-10.5 -34.5q-4 -8 -9 -11t-6 -15 q-2 -17 0.5 -34t0.5 -35q-2 -14 -5.5 -27t-4.5 -27q-1 -32 1 -63t1 -61q0 -5 -2.5 -9.5t-2.5 -8.5q-1 -13 2.5 -26t3.5 -26q0 -7 -2 -15t-1 -14q1 -8 6.5 -16t12 -16.5t12.5 -15.5t10 -12q16 -21 30.5 -45t31.5 -39q34 5 67.5 6t68.5 -4q-11 12 -24.5 25t-25.5 18q-1 5 -1 9 v9q-16 19 -26.5 43t-27.5 42q-3 4 -5 -0.5t-7 -2.5q-11 3 -14 14t-9 19q9 7 8 17.5t-2 17.5q-1 15 4 31.5t7 32.5q3 28 0 58.5t9 56.5q0 5 -3 7t-1 9q4 10 4 29.5t-1 35.5q5 29 14.5 53.5t29.5 39.5q6 16 15.5 29.5t20 25.5t21 24.5t18.5 26.5q3 0 2 2q-15 3 -27.5 2 t-25.5 -2.5t-26.5 -2.5t-30.5 2z" />
<glyph unicode=")" horiz-adv-x="411" d="M385 157q-4 -5 -8 -2t-7 5q-20 -24 -33 -52.5t-30 -54.5q-17 -25 -34 -49.5t-33 -50.5q-23 -4 -44 -5t-44 3q-14 -2 -27.5 -6t-29.5 1q-2 5 -2.5 8t1.5 7q-10 5 -17 13.5t-18 13.5q-2 9 -5 16t-9 12q10 13 19 31t19 33q16 25 31.5 51.5t26.5 60.5q12 10 18.5 25.5 t15.5 29.5q-2 18 -3 33.5t-3 37.5q-2 14 -2.5 27.5t-2.5 27.5q-2 18 -5 33.5t-3 32.5q0 25 1.5 51.5t-3.5 51.5q-10 8 -16.5 19.5t-13.5 22.5q-4 2 -7 4t-8 4q-11 18 -31.5 33.5t-36.5 31.5q-11 11 -18 20.5t-2 27.5q28 5 58 8.5t58 -1.5q2 0 6 -2t7 -2q5 0 9 2.5t9 2.5 q10 -1 18 -6.5t17 -2.5q5 -13 14 -20.5t19 -15.5q7 -5 12 -12.5t12 -14.5q5 -5 11 -7.5t10 -7.5q5 -8 9 -16.5t17 -10.5q8 -17 17.5 -34t20.5 -31q-1 -2 0 -6t-2 -3q5 -5 8 -11.5t8 -11.5q8 -74 9 -152t2 -152q0 -5 2.5 -6.5t5.5 -3.5q-1 -4 -4.5 -4t-2.5 -5q1 -8 6 -12 t8 -10zM321 262v-13t2 -11q2 6 3.5 13.5t-5.5 10.5zM190 18q13 22 27 42.5l28 41t27 42t24 46.5q1 28 4 62t2 72q0 16 -0.5 41t-1.5 51q-1 23 -2 47t-2 44q-1 13 0 26.5t-1 24.5q-2 6 -7 11t-6 11h-6t-5 2q-5 5 -7 9.5t-8 4.5q-10 11 -24 30t-26 34q-9 11 -22.5 21.5 t-26.5 0.5q-32 5 -53 4.5t-49 -5.5q2 -9 9 -12.5t13 -8.5q12 -16 27 -27.5t29 -25.5t22.5 -31t21.5 -31q-4 -14 -0.5 -28t4.5 -29q2 -20 -1 -40.5t-1 -41.5q1 -5 3 -10t3 -10t0 -10t-1 -10q2 -12 4.5 -24.5t1.5 -22.5q0 -5 -1.5 -8t-0.5 -7q1 -11 4.5 -24t5 -25t-1.5 -21.5 t-15 -14.5q-5 -14 -10 -25.5t-16 -18.5q-5 -25 -15.5 -44.5t-22.5 -37.5t-23.5 -35.5t-18.5 -37.5q29 2 57.5 -1.5t57.5 -0.5z" />
<glyph unicode="*" horiz-adv-x="304" d="M185 676q-3 -12 -1 -26.5t4 -26.5q-3 -4 -6.5 -3t-6.5 1q-8 -1 -17 -3t-16 1q-9 3 -14 10.5t-13 10.5q-2 8 -3.5 18.5t1.5 20.5q-5 -4 -11.5 -7t-12.5 -8t-9.5 -8.5t-11.5 -2.5q-5 1 -11 5t-6 13q-7 7 -7 20t-4 24q-1 2 0.5 2.5t2.5 1.5q-1 2 -2 3.5t-2 3.5 q10 3 21.5 6.5t19.5 11.5q-13 8 -25 17t-24 17q-1 5 -0.5 9.5t-1.5 8.5q13 7 24.5 14.5t22.5 17.5q8 -2 17.5 -4t17.5 -8q3 14 1.5 27t2.5 26q6 -5 15.5 -4.5t18.5 1.5t16.5 -1t10.5 -12q2 -2 4 -3t4 -3q5 -11 3.5 -17.5t-2.5 -17.5q15 7 31 21q3 3 6 6.5t6 6.5t7 4t9 -3 q1 -8 5 -15t8.5 -14t8 -14.5t3.5 -15.5q0 -9 -4.5 -16.5t-7.5 -15.5q-14 -2 -22.5 -8.5t-17.5 -12.5q3 -7 9 -8.5t13 -6.5q2 -1 3 -2.5t2 -2.5q6 -3 11.5 -3.5t8.5 -4.5q2 -3 1.5 -6t0.5 -5q2 -6 4.5 -11t4.5 -11q-1 -4 -3.5 -6t-5.5 -4q-6 -6 -10 -18t-13 -14t-17 8t-15 17 t-14.5 10t-11.5 9zM225 710q-1 0 -2 -0.5t-3 0.5q-8 5 -17.5 12t-16.5 13q-6 5 -9 9.5t1 9.5q24 5 42 16.5t34 25.5q-2 5 -5 13t-7 13.5t-8.5 6t-9.5 -9.5q-9 -6 -17 -13.5t-20 -10.5q0 -8 -2 -10t-9 -6t-6 -4q-7 0 -9.5 5.5t-3 13.5t0 16.5t0.5 14.5q0 11 -0.5 19.5 t2.5 14.5q-12 -1 -21 0t-20 1q5 -15 3 -33.5t3 -33.5q-8 -6 -16.5 -0.5t-13.5 12.5q-8 0 -11 4t-8 6q-5 -10 -15.5 -13.5t-15.5 -11.5q6 -8 15 -12.5t18 -8.5t17 -9.5t12 -15.5q-13 -5 -24 -12.5t-25 -12.5q2 -10 5 -19t8 -16q7 0 13.5 5t13 9.5t13 7t13.5 -2.5 q3 -11 1 -25.5t0 -25.5q8 1 18.5 2t19.5 0q1 11 -1.5 28t0.5 29q11 1 17.5 -7.5t13.5 -13.5q2 -2 5 -2.5t5 -2.5q5 -5 8.5 -11.5t11.5 -7.5q4 9 9 17t7 19q-3 -1 -6 2.5t-8 5.5z" />
<glyph unicode="+" horiz-adv-x="577" d="M76 184q-6 0 -2 3t6 4q-5 13 -14.5 21.5t-20.5 15.5q-5 18 -1 39t2 41q-1 18 -7 33t-4 29q12 7 29.5 9.5t37.5 3.5t39.5 0.5t35.5 -0.5q-4 25 -4.5 49.5t0 49.5t1.5 50.5t-1 52.5q20 -2 39 -2h40q18 1 32.5 0.5t24.5 -9.5q4 -15 9 -29.5t13 -29.5q6 -10 13.5 -20t7.5 -19 q1 -8 -3.5 -14.5t-6.5 -14.5q-4 -17 -3 -33t-1 -34q13 -6 29.5 -6.5t33.5 1t34 3.5t31 2q5 0 10 -5l8 -8q5 -15 11 -31.5t17 -30.5q6 -9 13 -14.5t8 -18.5q1 -12 -3.5 -25.5t-5.5 -28.5q0 -5 2 -9.5t2 -9.5q0 -6 -4.5 -7t-6.5 -5q-18 -2 -39 -1.5t-43.5 1.5t-44 1t-39.5 -3 q-2 -28 -2.5 -58t1.5 -59q1 -17 1 -31.5t-11 -25.5h-53.5t-51.5 1q-14 12 -25 22t-25 23q-3 29 -6 59t-4 59q-9 6 -22 5t-26.5 -2t-25 0.5t-18.5 12.5q-2 0 -1 -4.5t-6 -2.5zM456 363q-20 -3 -42 -3t-44.5 0.5t-44 1t-40.5 -1.5q-2 6 -7 9.5t-7 9.5q1 25 2 48t1 45t-0.5 44 t-1.5 47q-11 2 -20.5 1t-19 -1.5t-18.5 -0.5t-19 4q4 -18 3 -36.5t-4 -38.5q3 -14 3.5 -29.5t0 -31.5t-0.5 -31.5t2 -30.5q-5 2 -4 -2.5t-3 -3.5q-14 -1 -30 0t-31.5 1.5t-29 -0.5t-23.5 -7q-5 2 -11.5 3.5t-11.5 -0.5q10 -23 12.5 -51.5t0.5 -57.5q29 -8 54.5 -10t53.5 -4 q3 8 9 7t12 -1q3 -21 5.5 -42t0.5 -44q2 -1 3.5 1.5t1.5 -2.5q-2 -16 1 -38t1 -41q18 -5 47.5 -7t50.5 3q-1 45 -6 88.5t-13 85.5q7 5 15 5t16 -1q34 -5 71.5 -11t69.5 -4q-3 31 -3.5 64t-1.5 64z" />
<glyph unicode="," horiz-adv-x="253" d="M78 22q-8 2 -13.5 1t-14.5 1q-5 3 -5.5 8.5t-2.5 10.5q-2 4 -4.5 7t-4.5 8q-2 8 0.5 18t1.5 19q0 3 -2 6t-3 6q0 2 2 4t1 4q-1 11 -5 21.5t1 21.5q17 3 35.5 -1t38.5 -6t39 0t36 -5q14 -37 37 -63q1 -8 2.5 -13.5t3.5 -11.5q-5 -20 -5.5 -38t-6.5 -38q-5 -2 -6 -9t-4 -13 q-1 -2 -3.5 -3.5t-3.5 -3.5q-4 -8 -5.5 -16.5t-5.5 -16.5q-3 -7 -8 -13t-8 -13q-5 -11 -10 -26.5t-18 -18.5q-14 -3 -25 3t-25 8q-9 14 -16 29t-11 34q8 20 15 47t3 52zM165 102q0 4 -1 10t-5 11q-14 -2 -27.5 -1t-26 2t-24.5 1.5t-22 -1.5q1 -18 2 -37.5t3 -39.5 q5 -2 14.5 -2.5t16.5 -4.5q6 -12 6 -27.5t-2.5 -31.5t-6.5 -33t-7 -32q5 -2 9.5 -4t11.5 -2q12 18 23.5 40t20 46.5t13 51t2.5 54.5z" />
<glyph unicode="-" horiz-adv-x="495" d="M36 369q30 0 63.5 1.5t69 3t71.5 2t69 -1.5q14 -1 28 -2.5t27 -0.5q5 0 9.5 2.5t9.5 2.5q11 0 20.5 -5t18.5 -9q0 -10 4 -18.5t9 -16.5t9.5 -15.5t6.5 -16.5q4 -14 1 -29.5t-4 -29.5q1 -6 4 -9.5t3 -10.5q-12 -8 -26 -10t-29.5 -2t-31.5 1.5t-31 0.5q-29 -2 -59.5 -6 t-59.5 -3q-29 2 -55 3.5t-50 -6.5q-15 6 -26 17t-26 18q-7 10 -12.5 21.5t-10.5 22.5q0 27 -0.5 48.5t-1.5 47.5zM388 355q-43 0 -86 -1.5t-85 -2t-81.5 -0.5t-73.5 2q0 -24 4 -43t0 -43q76 -2 155.5 -2t168.5 4q4 20 1.5 40.5t-3.5 45.5z" />
<glyph unicode="." horiz-adv-x="238" d="M183 -15q-26 -15 -53.5 -12t-58.5 4q-3 10 -10.5 18.5t-14.5 16.5t-11 17.5t0 21.5q-4 19 -5 44t5 44q2 8 7 12t3 10q11 0 24.5 -2.5t29.5 -5.5q11 -2 23 0t17 0q1 0 2 -3t0 -3q6 0 13 0.5t13 0t9 -4.5t1 -14q8 -2 10 -9.5t8 -10.5q-2 -11 3 -18t5 -16q1 -10 -4 -15.5 t-8 -14.5q-4 -14 -2 -30t-6 -30zM53 121q-1 -17 0.5 -35t-0.5 -35q16 -9 37.5 -8.5t38.5 2.5q5 20 6 39t12 35q-13 0 -26 4t-25 7t-23 2t-20 -11z" />
<glyph unicode="/" horiz-adv-x="753" d="M278 -72q-24 3 -47 -3t-44 -4q-5 1 -7.5 3.5t-7.5 3.5q-12 3 -25 -2.5t-24 -4.5q-12 9 -22.5 19.5t-20.5 21.5t-21 20.5t-26 16.5q-1 8 -5.5 12.5t-3.5 13.5q0 5 4.5 5t8.5 2q12 30 33.5 57.5t39.5 53.5q6 8 13 15.5t12 15.5q6 9 9.5 20.5t9.5 21.5q4 6 9 11t9 10 q30 46 58.5 92.5t66.5 84.5q12 25 26 47.5t29 43.5t30.5 41.5t30.5 42.5q7 19 17 34.5t21 30.5t22 29.5t19 32.5q8 4 13 10.5t12 11.5q44 -2 92 -1t92 10q1 -5 7 -8.5t11 -8t6 -9.5t-8 -12q-6 -32 -6 -62.5t-10 -59.5q-5 -13 -17.5 -27.5t-23.5 -29.5t-19.5 -31t-16.5 -28 q-20 -32 -40 -59.5t-39 -53.5q-23 -32 -45 -63t-41 -62q-24 -34 -47.5 -67.5t-43.5 -71.5q-5 -3 -8.5 -8t-8.5 -9q-8 -20 -18.5 -38.5t-21 -36.5t-20 -36t-13.5 -38zM526 719q-24 -36 -45.5 -74.5t-43.5 -76t-46 -73t-51 -66.5q-11 -24 -23.5 -47t-29.5 -43q-7 -8 -16 -14 t-15 -14q-8 -10 -12.5 -23t-12.5 -22q-3 -4 -6 -5t-5 -5q-8 -11 -16.5 -24.5t-16.5 -27.5q-14 -23 -27.5 -43.5t-23.5 -45.5q-19 -19 -34.5 -41.5t-30.5 -45.5q32 -11 68 -8.5t72 0.5q16 14 28.5 32.5t24 37.5t23.5 38t27 34q2 17 11 24t15 16q4 5 6 12t5 12q4 5 9 8t9 8 q19 28 36.5 57.5t37.5 58.5q21 29 39.5 58.5t35.5 59.5q4 1 5 5t6 2q21 45 48.5 81.5t56.5 71.5q7 13 15.5 23t19.5 17q0 11 8.5 21.5t13.5 21.5q-37 1 -78.5 -2.5t-86.5 2.5zM321 117q2 10 11.5 17.5t8.5 15.5q-6 -6 -13.5 -16t-6.5 -17zM244 4q1 3 4.5 7t6.5 8t4 7.5 t-1 3.5q0 -4 -3 -7.5t-6 -6.5t-5 -6t0 -6z" />
<glyph unicode="0" horiz-adv-x="597" d="M314 550q10 -24 12.5 -50.5t0.5 -54.5t-6 -55.5t-7 -53.5q4 -33 8 -66.5t-10 -55.5q-23 -6 -47.5 -6t-41.5 16q-2 -3 -1 -8t-7 -5q-5 2 -4 5t-7 -2q2 17 4.5 27.5t-8.5 20.5q1 31 -1.5 54t-2.5 41q-5 2 -5 8.5t3 17.5q0 -1 1 -2t1 -4q3 5 1.5 8t-1.5 4q-2 14 -3.5 31.5 t-7.5 34.5q4 -2 3.5 3.5t-2 13t-3.5 16t-2 13.5q0 7 3 13t3 13q1 10 -0.5 22t7.5 22q37 -2 66.5 -3.5t53.5 -17.5zM554 59q-1 -10 1.5 -19.5t3.5 -18.5t-0.5 -17t-9.5 -15q-100 -6 -202 -12t-202 -9q-6 9 -14 16l-16 14l-16 14t-13 17q-8 2 -11.5 6.5t-11.5 4.5 q-13 14 -12 31t-1 35q-1 6 -4 12t-5 13q-3 22 -1 47t1 48q0 59 2.5 120.5l5 123t3.5 121t-2 114.5q21 8 47.5 7t56.5 -1q28 0 57 5t55 -3q42 6 87 3.5t93 2.5q6 2 8 -1.5t7 -4.5q6 5 14.5 6t14.5 -6q10 -17 16 -32.5t10 -41.5q2 -17 8 -31t12.5 -27t11 -26t4.5 -28 q-1 -9 -4 -18t-5 -20q-1 -10 0 -20t0 -20t-3.5 -19t-2.5 -20q-1 -20 1.5 -40t0.5 -40q-1 -7 1.5 -14t2.5 -14q3 -38 3.5 -80.5t2.5 -84.5q2 -22 4 -41t1 -37zM461 72q0 86 -3 160t-5.5 145t-1.5 142.5t10 151.5q-9 7 -19 8.5t-21 0.5t-23 -3t-26 0q-4 0 -4 0.5v0.5h-1h-5 q-12 1 -31 5t-36 2q-9 -1 -15.5 0t-16.5 2q-10 2 -19 -1t-19 -3q-5 0 -8.5 3t-8.5 4q-9 0 -19 -3.5t-19 -3.5q-13 0 -23 0.5t-19.5 0.5t-19 -1t-21.5 -4q-9 -32 -6 -61t2 -64q0 -28 -1.5 -61.5t1.5 -65.5q2 -14 1 -27.5t0 -27.5q1 -25 -1.5 -51.5t-2.5 -51.5q0 -17 4 -34 t-4 -34q10 -31 9 -63.5t-5 -63.5q96 -7 190.5 -3.5t186.5 1.5zM490 586h5t4 2q-4 1 -4 5.5t-5 3.5v-11zM526 40q4 3 2.5 11t-4.5 10q3 -6 -1 -13.5t3 -7.5z" />
<glyph unicode="1" horiz-adv-x="323" d="M290 -26q-29 3 -61 0.5t-61 -0.5q-11 2 -14 8t-12 16q-5 5 -12 9t-10 9q-8 10 -14.5 20t-21.5 12q-4 39 -3.5 77t2 76t2.5 76t-1 77q-3 51 -6 100.5t8 97.5q-14 4 -28 3t-28 1q-2 35 -6 68.5t-6 71.5q21 3 45 7t48.5 7t48.5 2.5t44 -6.5q5 1 1 4.5t1 3.5 q11 -11 18.5 -27.5t15.5 -34.5q8 -17 17.5 -31t16.5 -29q6 -12 4 -30.5t-2 -39.5q0 -45 2 -95t4.5 -101t4 -101.5t1.5 -96.5q0 -17 -1.5 -36t-2 -38.5t1 -38.5t6.5 -35l-2 -2v-4zM268 68q-1 9 -0.5 18t1 17.5t0.5 14.5t-1 8q-1 -6 -2 -14.5t-1 -16.5t0.5 -15.5t2.5 -11.5z M242 614q-3 -2 -2.5 -7.5t0.5 -10.5q4 1 8 -2q-2 5 -1.5 11.5t-4.5 8.5zM206 152q-1 23 1.5 44.5t2.5 43.5q0 8 -2.5 15.5t-1.5 14.5q0 5 2 7.5t2 6.5q-1 5 -3.5 10t-2.5 10q-2 14 0.5 29t3.5 29q2 42 1.5 88t-5.5 84q-3 20 -2.5 36t2.5 31t3.5 31.5t0.5 37.5q-7 3 -16 6.5 t-18.5 6.5t-19.5 4t-18 -3q-28 -1 -50 -3t-50 -13q4 -20 5 -43.5t3 -46.5q7 -3 17.5 -2t21 1.5t19 -1.5t10.5 -12q1 -5 -2.5 -11.5t-5.5 -14.5q-8 -42 -7 -94.5t3 -95.5q1 -35 0 -71.5t-2 -72.5t-1.5 -70t1.5 -64q21 -9 51.5 -8t56.5 4q2 22 1.5 43t-1.5 43zM192 44 q5 2 9.5 -1t6.5 1q-2 2 -8 3t-8 -3zM106 50q2 -2 4.5 -5t7.5 -3q2 6 -5.5 7.5t-6.5 0.5z" />
<glyph unicode="2" horiz-adv-x="530" d="M65 521q3 0 2 -2t-4 -4t-7 -4t-6 -2q-12 16 -15.5 40t-3 49t3 49.5t1.5 42.5q2 -3 10 -3t12 2q1 -16 0 -38.5t-1.5 -45.5t1 -45.5t7.5 -38.5zM509 75q-4 -12 -4.5 -25.5t0 -27l1 -27t-1.5 -25.5q-19 -5 -39.5 0t-42.5 6q-23 0 -42 1.5t-46 1.5q-9 0 -19 -1.5t-20 -1.5 t-17.5 2t-11.5 9q-34 -2 -67.5 -4t-68.5 4q0 3 -1.5 5.5t-3 4.5t-2 4.5t1.5 6.5q-9 11 -21 17.5t-24 14.5q1 7 -4.5 11.5t-7.5 11.5q-6 16 -4.5 39.5t0.5 48.5q0 15 0.5 34t-0.5 35q0 8 -3 16t-2 14q2 15 15 22.5t21 15.5q36 61 81 111.5t88 104.5q0 14 2 32.5t-9 28.5 q-11 1 -23.5 -0.5t-21.5 2.5q-8 -21 -12 -47t-9 -51q-12 -4 -24 -4t-23.5 1.5t-23.5 2.5t-24 0q-12 11 -23 19.5t-16 22.5q17 8 36 5.5t39 2.5q7 6 8 17t0 23t-1 23t4 17q8 -1 17 3t19 5q16 1 37 -4t36 -4q5 0 9 2.5t9 1.5q13 -3 17 -15t3.5 -27t-2.5 -32t0 -31 q-8 -15 -16.5 -28.5t-23.5 -21.5q-1 -5 -3 -7.5t-2 -7.5q-45 -45 -84 -95t-81 -97q2 -36 -0.5 -72t2.5 -66q2 -9 0 -19.5t0 -16.5q1 -1 5.5 -2t0.5 -6q32 -4 62.5 0t60.5 2q17 -1 31.5 -2.5t30.5 -1.5q37 1 77 -6t79 -13q2 9 3.5 23t3 29t1.5 29t-1 24q-22 -1 -47 -1.5 t-49.5 0t-47 1.5t-38.5 4q-5 -3 -10.5 -3.5t-12.5 -0.5q1 4 2.5 4t3.5 -0.5l4 -1t4 1.5q-5 1 -12.5 3t-15 2.5t-12 -1t-3.5 -6.5q-7 1 -9.5 5.5t-8.5 6.5q3 11 -1 25t-2 32q-3 8 5 6q0 6 -2.5 4.5t-4.5 0.5q35 20 60.5 52t53.5 63q22 24 45.5 51t40.5 59q-3 64 1 120.5 t8 116.5q-25 2 -52 2.5t-50 -2.5q-14 -2 -29 1t-30 2q-8 0 -15 -2.5t-15 -2.5q-11 -1 -22 1.5t-21 2.5q-14 0 -26 -1.5t-23 4.5q-19 1 -36 0t-28 -2q-5 9 -2.5 13.5t9 6.5t14 2.5t13.5 2.5q19 -4 43 -4t48.5 1t48.5 1.5t42 -2.5q35 7 67.5 5t72.5 1q10 -13 17.5 -30.5 t9.5 -37.5q1 -11 4.5 -24.5t7.5 -27t7.5 -24.5t3.5 -18t-3 -13.5t-4 -13.5q-2 -10 0.5 -21t2.5 -22q0 -29 -2.5 -59.5t-0.5 -62.5q-10 -2 -9 5q-22 -23 -41 -47t-36 -52q-12 -8 -22 -17.5t-23 -16.5q-5 -12 -14 -19t-19 -13t-19.5 -12.5t-13.5 -18.5q8 -5 16.5 -6t16.5 0 t16.5 2.5t16.5 1.5q30 0 66.5 -2t74.5 4q13 -27 28 -51.5t33 -45.5zM196 160q1 4 1.5 7t4.5 7q-5 1 -5.5 5t-5.5 4q2 -5 1 -12.5t4 -10.5z" />
<glyph unicode="3" horiz-adv-x="534" d="M508 -12q-8 -9 -17 -12t-19 -2.5t-20 2.5t-19 1q-23 -2 -50 -2.5t-52 -3.5q-30 -4 -63.5 -7.5t-65.5 8.5q-29 -6 -51 0.5t-40.5 18.5t-35 27t-34.5 26q4 20 6.5 46t3 53.5t1 56t0.5 53.5q14 6 29 2t31 -7q6 -2 12.5 -4t12.5 -3q14 -2 28 0.5t25 -2.5q8 -5 14.5 -18 t11.5 -20q8 -10 16 -16.5t11 -16.5q7 7 9 18.5t2 24v25t3 22.5q-2 6 -10 5.5t-16 1.5q-3 9 -9 15l-12 12t-11.5 13t-7.5 17q-3 3 -6.5 4.5t-5.5 5.5q-2 21 1.5 37.5t3.5 37.5q-14 2 -31 -1t-32.5 -3.5t-28.5 4t-19 20.5q-14 8 -23.5 20.5t-18.5 26.5q1 56 0 110t-5 108 q10 17 18.5 18.5t28.5 -3.5q14 -3 36.5 -1t41.5 0q5 -1 9 -3t7 -3q33 -2 67.5 1t68.5 5.5t67 1.5t63 -11q2 -20 14.5 -37t18.5 -39q6 -3 10.5 -8t8.5 -10.5t8.5 -10t11.5 -7.5q-4 -45 -5.5 -87.5t2.5 -85.5q2 -23 0 -47t0 -48q4 -43 0 -91.5t0 -95.5q-9 -5 -5 -17t3 -26 q-2 -12 -2 -33.5t9 -36.5q-4 -8 -3 -14.5t4 -14.5zM406 242q-1 20 -2.5 41t-1.5 42q1 34 4.5 66t-0.5 70q-5 59 -6 111.5t-4 100.5q-19 -1 -37 -1.5t-33 4.5q-26 -9 -53.5 -10t-53.5 0q-8 0 -16 -2.5t-16 -0.5q-14 2 -25.5 6.5t-24.5 3.5q-5 -1 -11 -4t-13 -3 q-17 -1 -32.5 6t-31.5 9q4 -18 2 -33.5t2 -33.5q4 -15 12 -29t9 -28q0 -7 -3 -13t-4 -12q-2 -16 -1 -31t3 -32q5 0 6.5 2.5t7.5 4.5q7 2 15.5 2.5t16.5 1t14.5 2t8.5 6.5q-7 16 -7 40.5t2 38.5q17 6 32.5 1t31.5 -4q11 0 23 2t24 2.5t22.5 -2t18.5 -11.5q0 -11 -2 -24.5 t-3 -27.5t-0.5 -27.5t3.5 -25.5q-6 -11 -13.5 -13.5t-16 -2t-18.5 2t-21 -1.5q1 -23 -3 -47t3 -43q21 1 41.5 2t40.5 -8q0 -18 -2.5 -34t-5 -32.5t-4.5 -33.5t0 -37q-8 -16 -8 -29v-30q-14 -7 -30.5 -3t-33.5 0q-7 -1 -13 -4t-12 -4.5t-11 -0.5t-9 9q3 18 -0.5 37t-2.5 38 q-11 -2 -21 0.5l-20 5t-20.5 3.5t-22.5 -2q2 -21 1 -40t-3 -37.5t-2.5 -36t2.5 -34.5q13 -5 26 -2t26 2q8 0 24 -3t24 -5q2 -1 4 -4t4 -4q28 -7 55.5 -1t57.5 6q28 0 54.5 -3t53.5 5q-6 44 -3.5 89t2.5 88zM210 540q-4 -20 -3.5 -40t-7.5 -38q15 3 24 2t26 0q2 9 2 18.5 t-1 19.5t-0.5 19.5t4.5 18.5q-12 6 -21.5 2.5t-22.5 -2.5z" />
<glyph unicode="4" horiz-adv-x="577" d="M541 220q-20 -6 -39 -7.5t-31 -13.5q2 -45 -6.5 -96t-10.5 -98q1 -8 6 -9t7 -7q-5 -7 -13 -10t-16.5 -4.5t-17 -2t-15.5 -1.5q-19 -9 -39.5 -13.5t-42.5 8.5q-8 30 -22 51.5t-27 45.5q2 15 0.5 27t-3.5 24t-4 25.5t-1 30.5q-13 1 -31 2.5t-38.5 1.5t-41 -3t-38.5 -11 q-14 9 -24 22.5t-29 17.5q-3 11 -7 13l-12 6q-4 15 -5 32.5l-2 35t-3 34t-8 29.5q-3 34 2.5 70.5t5.5 73.5q0 19 -1.5 38.5t-0.5 38.5q0 10 1.5 19.5t2.5 20.5q0 10 -1.5 22.5t-1.5 24t3 20.5t12 14q-2 -8 -2.5 -9t5.5 -4q-3 -28 -1 -57.5t7 -55.5q2 -14 0 -28.5t-1 -29.5 q0 -7 2 -13.5t2 -12.5q2 -35 -3.5 -71.5t-2.5 -74.5q7 -20 6 -43t7 -42q26 0 52.5 3.5t53 6.5t53 2t53.5 -10q1 -27 2.5 -50t3 -45t3 -44.5t3.5 -48.5q10 -7 20.5 -7.5t21.5 0.5t23 2.5t25 -1.5q4 21 4 45.5v50t2 50.5t9 46q2 5 3 8.5t6 6.5q2 5 -0.5 6.5t-0.5 6.5 q14 13 33.5 12t37.5 1q2 33 6.5 66t0.5 62q-6 4 -8 0t-9 -4q-10 4 -19.5 3.5t-18.5 -2.5t-18.5 -5t-18.5 -4q-12 22 -7.5 51t6.5 58q1 10 -0.5 19.5t-1.5 19.5q2 31 5 60t2 55q-15 6 -29 8.5t-27.5 3t-25.5 0.5t-24 2q-2 -23 -5.5 -49.5t-2.5 -52.5q1 -16 3.5 -31.5 t3.5 -32.5q0 -18 -2 -35.5t0 -33.5q2 -11 3.5 -22t-6.5 -22q-26 -8 -52 -6.5t-56 2.5q-3 7 -6.5 13.5t-3.5 17.5q1 60 10 128.5t7 131.5q-12 -7 -28 -3t-33 4q-10 0 -21 -3.5t-20.5 -4.5t-17 2t-9.5 15q32 5 66.5 4t69.5 2q11 -8 17 -21.5t10.5 -28.5l9 -30t12.5 -26 q-2 -7 -1.5 -16t1 -19t-1 -20t-8.5 -18q3 -20 3 -49t7 -51q9 1 15.5 2t14.5 5q-2 66 -0.5 130.5t0.5 124.5q15 7 31.5 7t34.5 -1.5t35.5 -3t33.5 3.5q8 -4 14 -9t14 -8q3 -11 4.5 -19.5t5.5 -18.5q5 -11 13 -18.5t11 -18.5q2 -6 -1 -15.5t-4 -17.5q-1 -5 0.5 -8.5t0.5 -6.5 q-1 -4 -3.5 -7.5t-2.5 -7.5q-3 -24 -1 -47t-6 -44q12 -4 26 -5l28 -2q14 -19 24 -41t22 -42q2 -11 0.5 -25t-5.5 -22q1 -26 0.5 -50t-2.5 -45zM515 239q2 -1 3 1.5t1 6t-0.5 6.5t-1.5 4q1 -6 0 -10zM417 4q-1 -4 -1 -11q5 -1 6.5 1.5t6.5 0.5v6q-4 3 -5.5 2t-6.5 1z" />
<glyph unicode="5" horiz-adv-x="559" d="M495 -14q-5 -6 -10.5 -6.5t-11.5 1t-12.5 4.5t-12.5 3q-5 0 -11 -3t-12 -3q-8 -1 -16.5 1t-17.5 1q-10 -2 -19.5 -4.5t-19.5 -1.5q-31 2 -70.5 0.5t-71.5 -6.5q-7 6 -16 6t-19 -1.5t-21 -4t-21 -2.5q-6 18 -18.5 30t-26 23t-26 23t-18.5 31q-2 3 -6 3.5t-4 4.5 q-4 42 -5 78t-7 81q19 0 35 3t32.5 5t33.5 3t37 -3q3 -9 9 -14t12.5 -9t12 -9t6.5 -15q11 2 23 -1.5t26 1.5q1 17 1 29.5t-0.5 24.5t-0.5 25t2 31q-1 3 -5.5 3t-2.5 5q-39 -8 -73 -6.5t-75 6.5q-6 7 -6 20t4 22q-14 29 -19 65.5t-14 66.5q-5 3 -8.5 8t-4.5 10t1 10t10 7 q2 22 0.5 43.5t-2.5 42.5t-0.5 41t6.5 39q20 5 40 4t41 0q18 1 37 4.5t45 1.5q35 -2 72.5 -5.5t69.5 -0.5q17 2 32.5 7t30.5 5q8 1 11 -2.5t9 0.5q8 -1 9 -8t9 -8q2 -14 9.5 -25t15.5 -22t15 -22.5t9 -25.5q2 -25 -3.5 -49t-6.5 -51q-11 0 -22 2.5t-25 7.5 q-23 -5 -47.5 -5.5t-49 -0.5t-47.5 -1t-43 -5q-1 -5 1.5 -6t0.5 -6q18 -4 35.5 -3t35.5 2.5t35 2.5t34 -2t30.5 -13.5t30.5 -10.5q2 -9 7 -15t10.5 -11t9.5 -12t4 -17q17 -12 17.5 -32t0.5 -41q0 -32 -2.5 -69t-9.5 -65q-3 -9 -3 -19v-20t-1 -19t-6 -17q8 -18 2 -38.5 t-6 -38.5q0 -6 1.5 -12t2.5 -12t-1.5 -10.5t-9.5 -6.5q3 -7 3 -10.5v-11.5zM486 518q5 -1 5 3.5t1 8.5q-8 0 -5 -5t-1 -7zM448 524q4 1 7 0t5.5 -2t5 -1.5t4.5 1.5q-6 1 -11.5 4.5t-10.5 -2.5zM444 702q-50 -14 -101 -13.5t-98 -4.5q-35 -17 -74.5 -19t-73.5 -3 q-7 -13 -9 -26.5t-2 -27.5t1.5 -29t1.5 -31q-1 -57 8 -106t22 -91q13 -2 27 -4.5t30 -3.5q12 0 25.5 1.5t26 2.5t24.5 0t21 -8q1 -17 1.5 -38t0.5 -42.5t-2 -42.5t-6 -37q-11 -4 -23 0.5t-26 5.5q-10 0 -20.5 -2t-21 -3.5t-20.5 0t-17 9.5q0 13 2.5 22t3.5 20q-22 5 -49.5 0 t-51.5 -8q4 -15 5 -31.5t1.5 -34.5t1 -36.5t2.5 -35.5q91 1 178.5 -3t182.5 1q-4 21 -4 43t1.5 44t3 44.5t1.5 43.5q1 25 -3 48.5t-1 46.5q4 27 10 52t0 48q-19 4 -42 1.5t-47 -1.5q-8 0 -16 2t-16 2q-5 -1 -8.5 -3.5t-8.5 -2.5q-2 -1 -5.5 1.5t-6.5 2.5q-9 -1 -18 -4 t-14 -2q-12 1 -17.5 6t-7.5 13.5t-1.5 18.5t-0.5 22q-1 16 -3.5 30t-0.5 25q10 6 21 6.5t22 -1t21.5 -3.5t19.5 -2q29 0 62.5 5t62.5 3q1 0 5 -1t7 -1.5t5 -1t0 1.5q1 32 6 61.5t2 70.5zM438 203q3 -8 0.5 -14t1.5 -12q2 3 3 14t-5 12zM91 59q2 -3 5.5 -3.5t4.5 5.5 q-2 -1 -6.5 0t-3.5 -2z" />
<glyph unicode="6" horiz-adv-x="542" d="M298 170q-14 1 -27.5 0.5l-27 -1t-26.5 1t-26 6.5q-4 12 -4 24t1.5 23t4 21.5t4.5 19.5q8 -3 15.5 -2.5t14.5 2.5t13.5 4t12.5 2q9 0 15.5 -5t18.5 -5q2 -26 5.5 -45.5t5.5 -45.5zM281 440q-5 -4 -6.5 -9.5t-1 -11.5l1 -12t-1.5 -12q10 -4 24.5 -5.5t30 -0.5t31.5 3t28 5 q14 -5 22.5 -15.5t19.5 -21.5q9 -10 19.5 -18t20 -16.5t17.5 -18t12 -21.5q-3 -14 -1.5 -25.5t3.5 -23.5q4 -28 -2 -56t-8 -59q-2 -33 1.5 -68t1.5 -70q-8 -1 -11.5 -5.5t-8.5 -8.5q-74 -9 -148 -8t-147 7q-11 6 -19.5 14l-17 16t-18 15t-21.5 11q-2 3 -3.5 6.5t-1.5 8.5 q-11 1 -12.5 3.5t-10.5 2.5q-3 3 -4.5 7t-6.5 6q-7 26 -12.5 50.5t-2.5 52.5q2 19 0 38t-5 38.5t-6 39.5t-3 40q1 20 -1 39t-4 41q-2 23 0.5 47t5.5 48t5 48.5t-1 47.5q-2 9 -6.5 18t-6.5 17q-2 18 4.5 33.5t4.5 33.5q36 2 67.5 5.5t61 5.5t58.5 2t59 -4q52 10 114 1 q23 15 37 7t25 -25t21 -36.5t25 -26.5q4 -6 3.5 -14.5t-2.5 -18.5t-4 -20.5t-1 -18.5q1 -9 6 -17.5t6 -18.5q1 -9 -3 -18t-10.5 -16t-15 -12t-16.5 -6q-9 -2 -18.5 0t-19.5 1q-9 -2 -17.5 -5.5t-18.5 -5.5q-8 -1 -16 1t-15 1q-16 -2 -37 -9t-43 -3zM419 33q-8 -5 -21 -4.5 t-21 -3.5q5 0 12 -1.5t13.5 -2.5t11.5 0.5t8 6.5q-1 2 -1 3.5t-2 1.5zM166 526q62 11 125.5 19.5t117.5 12.5q-1 15 1 28.5t3 26.5t-0.5 26.5t-7.5 28.5q-11 5 -20 4t-20 -3q-13 -2 -28 1t-30 1q-8 0 -15 -2.5t-14 -2.5q-15 0 -29.5 4.5t-29.5 4.5q-8 0 -15 -1.5t-14 -1.5 q-11 0 -20.5 3.5t-19.5 1.5q-27 -2 -53 -7.5t-48 4.5q-2 -13 -4.5 -23.5t-5.5 -19.5q21 -57 26 -119t5 -119q6 -15 7.5 -33t0.5 -37t-1.5 -39.5t2.5 -40.5q2 -17 8 -33t5 -34q0 -27 -3 -54.5t7 -50.5q23 -5 45.5 -4t43.5 2.5t41 2t38 -5.5q8 -3 14.5 -8t17.5 -7 q24 -3 48.5 0t49.5 6q-1 55 -5 108t-2 104q1 23 5.5 47.5t-6.5 46.5q-42 -2 -86.5 -2.5t-90.5 10.5q-23 -6 -31.5 -0.5t-10 19t0.5 32t0 37.5q-1 11 -4 20t-5 17t-1 15.5t8 14.5zM196 500q-3 -4 -2 -11.5t0 -13.5q5 0 5 4t4 5q-2 1 -2.5 3.5t-0.5 5.5t-0.5 5t-3.5 2z" />
<glyph unicode="7" horiz-adv-x="485" d="M73 470q17 7 36.5 9.5t36.5 5.5q-1 12 -3.5 33.5t7.5 39.5q17 -4 33.5 -1.5t31 4.5t27 0.5t22.5 -12.5q-2 -39 -9 -77t-7 -76q0 -10 2.5 -20t2.5 -20q-1 -11 -4 -21.5t-1 -21.5q1 -8 4 -14t3 -13t-2 -13.5t-3 -13.5q0 -17 2.5 -34.5t0.5 -34.5q-5 -32 -12.5 -63.5 t-12.5 -63.5q23 -3 45 -1t46 -1q10 22 14.5 48.5t6.5 54.5t4 55t7 50q-4 49 1 95.5t10 94t6.5 97.5t-8.5 105q-10 6 -21.5 6.5t-22.5 -0.5t-21 -1.5t-17 4.5q-21 -2 -50 -7t-57 -2q-23 3 -42.5 13t-42.5 12q-8 1 -17.5 0t-18 0t-14.5 5.5t-7 15.5q54 2 106 -4t106 -4 q34 2 69.5 1.5t67.5 -5.5q5 -8 12 -13t15 -10q3 -21 11 -37.5t18 -33t18.5 -33t12.5 -37.5q4 -26 2.5 -54.5t-5.5 -53.5q-2 -10 -2.5 -15t0.5 -16q2 -28 -2 -52.5t-12 -47.5q4 -17 4 -35t-2.5 -37t-4.5 -38.5t-1 -39.5q2 -43 -0.5 -85t-10.5 -81q-6 -2 -12.5 -3.5 t-10.5 -6.5q-12 10 -28.5 13t-35 2.5t-38 -2.5t-35.5 -3q-12 14 -23.5 27t-24.5 25q-11 2 -19 6.5t-13 12.5q21 53 26.5 109t6 113.5t0 115.5t8.5 117q-5 -2 -6 0t-5 2q-9 -10 -9 -23t2 -27t2.5 -27.5t-7.5 -24.5q-10 2 -17.5 -2.5t-18.5 -7.5q-5 -2 -14 -4t-18.5 -3.5 t-18 -2t-11.5 0.5q-12 2 -17 10t-8.5 17.5t-9 17.5t-17.5 11q-3 17 -12.5 38t-14.5 45q-5 20 -7 43t-3.5 46t-2 45t-1.5 41q8 -1 14 -7q0 -17 11 -34t14 -38q2 -17 0.5 -34t6.5 -31q-8 -20 -4 -43.5t13 -39.5zM287 36q5 1 10 0t8.5 -2t6.5 -0.5t5 5.5q-10 -2 -18.5 0 t-11.5 -3z" />
<glyph unicode="8" horiz-adv-x="575" d="M523 221q10 -52 10.5 -104.5t5.5 -107.5q-6 -10 -8 -22q-32 -2 -62.5 -7t-58.5 5q-14 -5 -27 -5.5t-24 7.5q-17 1 -30 -3t-28 -6q-3 0 -7 1.5t-8 0.5q-14 -3 -25.5 -2.5t-28.5 2.5q-15 2 -28.5 3t-30.5 8q-6 2 -13 2.5t-13 3.5q-14 6 -23 11t-29 3q-13 19 -31 34 q-8 76 -10 146.5t-14 142.5q12 14 29 22t32 18q-6 11 -14.5 19t-17.5 15t-17 14.5t-14 18.5q0 28 2 58t4.5 58.5t3 56t-3.5 51.5q2 11 6 18t4 17q39 0 75.5 1t72.5 2t72 1.5t75 -0.5q14 -1 28.5 -0.5t29 -1t27.5 -6t24 -13.5q6 -17 16 -31t20.5 -26.5t21 -26t17.5 -29.5 q-5 -14 -1.5 -27.5t3.5 -26.5q0 -11 -2.5 -20.5t-1.5 -20.5q1 -7 3 -13.5t1 -14.5q-2 -17 -7.5 -33t-0.5 -36q-5 -7 -10 -12.5t-10 -11.5q17 -24 19.5 -61.5t-3.5 -71.5zM454 645q-1 -3 -2.5 -4.5t-1.5 -5.5q10 0 10 4q-5 -2 -3.5 2.5t-2.5 3.5zM105 61q94 9 175.5 9.5 t159.5 6.5q2 41 8 73.5t4 68.5q0 8 -2.5 20t-5 25.5t-3.5 26.5t1 23q-8 7 -17.5 12t-19.5 9.5t-19 10t-15 14.5q5 10 13 17.5t17 13.5t18.5 12t16.5 14q2 37 -0.5 70.5t-5 65t-4 60.5t3.5 58q-5 5 -12.5 6t-11.5 6q-74 -7 -154 2q-22 -6 -43.5 -7.5t-42.5 -1.5t-42 0.5 t-42 -1.5q-15 -25 -17 -52.5t2.5 -57.5t11.5 -61.5t10 -62.5q11 -8 23 -17.5t21 -21t15 -26t5 -32.5q-17 -4 -28 -12t-28 -12q-6 -19 -6 -38.5t2 -40.5q3 -45 2 -90t10 -90zM446 43q2 0 4 -3t4 -5.5t4 -3.5t4 4q-3 0 -5 2t-3.5 4t-3.5 3t-4 -1zM301 283q19 0 24 -11.5 t3 -28.5t-6 -36t-3 -33q3 -7 4.5 -11.5t-2.5 -12.5q-10 2 -29 0t-38.5 -2t-35.5 4.5t-20 19.5q-2 6 0 12t2 15t-2.5 19t-4 20t-0.5 19.5t7 17.5q14 -2 34.5 -3t41.5 3q7 2 13 5t12 3zM297 166q2 11 2.5 22t1.5 19q-4 -2 -6 -8t-2.5 -12.5t0.5 -12.5t4 -8zM258 492 q-5 -2 -15 -4t-21 -3.5t-20.5 0t-13.5 7.5q-6 8 -2.5 20t4.5 22q0 16 -4 33t4 28q27 0 58.5 4t56.5 -6q3 -8 0.5 -16.5t-2.5 -18.5q-1 -11 1 -22.5t3.5 -22t1 -20t-5.5 -16.5q-11 4 -25 5t-20 10zM262 534q2 -9 -2 -16t-2 -12q8 2 13 -1.5t9 -0.5q1 14 -2 28q-5 2 -7.5 2.5 t-8.5 -0.5z" />
<glyph unicode="9" horiz-adv-x="577" d="M541 57q1 -8 4.5 -15.5t-0.5 -16.5q0 -5 -4 -6t-8 -3q-1 -6 1 -10t-1 -6q-17 -2 -33 -3.5t-22 -11.5q-9 6 -16 2t-16 2q-5 -6 -10.5 -8t-11.5 -2t-12 -1t-12 -5q-3 1 -4.5 2.5l-3.5 3.5q-4 -7 -10 -6t-11 -6q-4 2 -3.5 5t1.5 7q-4 -2 -6 -6t-7 -6q-17 -3 -34 0.5t-35 1.5 q-17 -1 -32.5 -6.5t-33.5 -0.5q-3 1 -10.5 5.5t-15.5 9.5t-15 10.5t-10 8.5q-5 6 -3.5 6.5t-3.5 5.5q-8 6 -16.5 14t-23.5 9q-15 10 -21.5 30t-9 43t-3.5 47.5t-5 45.5q69 1 128.5 9t113.5 14q-1 14 -3 24t-4.5 19t-4 19t-2.5 24q-17 0 -37 0.5t-40.5 1t-40.5 -0.5t-36 -5 q-17 14 -38.5 22.5t-35.5 25.5q-3 -4 -7 -2t-7 3q-2 2 -2 6v8q-3 16 -12.5 27t-14.5 24q-9 23 -4 50t6 53q2 34 -1 71t3 68q-2 6 -4.5 12.5t0.5 13.5q29 4 62.5 8.5t68.5 6.5q10 1 19.5 -1.5t19.5 -2.5q29 0 59.5 2.5t59.5 1.5q2 0 5 -2t5 -2q23 0 45 4t41 2q3 -1 6.5 -3 t7.5 -3q12 -2 19.5 -2.5t15.5 -8.5q11 -24 18.5 -48.5t18.5 -45.5q7 -11 12.5 -20.5t6.5 -23.5q2 -24 -3 -49t-4 -54q1 -23 0.5 -44.5t1.5 -48.5q0 -16 3.5 -31t5.5 -32q3 -29 2.5 -57.5t-2.5 -57.5q-1 -23 1.5 -41t4.5 -39q1 -9 0 -18t0 -17zM256 357q5 -1 10.5 0t7.5 6 q-5 -1 -10.5 -1t-7.5 -5zM274 35q2 -2 6.5 -2t6.5 2q-2 0 -8.5 2.5t-4.5 -2.5zM358 67q22 -1 44 -4t42 8q-4 44 -4 91t0.5 95l1 96t-1.5 94q-2 27 -0.5 54.5t2.5 55t1 55.5t-3 56q-42 -2 -80.5 -6.5t-76.5 2.5q-20 -5 -40.5 -3.5t-43.5 3.5q-16 -4 -33 -4.5t-34.5 -1.5 t-34 -2.5t-31.5 -7.5q0 -11 -5.5 -18t-5.5 -17q-1 -2 1 -5.5t2 -7.5q1 -5 -1.5 -9.5t-1.5 -8.5q0 -4 2.5 -7.5t2.5 -6.5q3 -19 1 -39.5t3 -39.5q2 -5 4.5 -7.5t3.5 -7.5q4 -24 3 -50t8 -49q22 2 39.5 3.5t40.5 5.5q19 -8 39 -6.5t40 6.5t39.5 10.5t38.5 5.5q12 -10 10.5 -26 t-0.5 -32q0 -8 2 -14.5t3 -14.5q1 -12 1 -24.5t2 -24.5q5 -21 8.5 -39t-6.5 -34q-51 -5 -112 -11t-116 -16q2 -21 2 -43.5t7 -44.5q19 5 38.5 4t38.5 -5l38 -8t38 -4q21 -1 42.5 1.5t41.5 2.5zM471 355q2 15 2.5 29t-6.5 24v-27.5t4 -25.5zM278 588q13 -5 15 -16t0.5 -24 t-4 -27.5t1.5 -26.5q-12 -7 -28 -9t-32.5 -2t-32 -0.5t-26.5 -4.5q-5 9 -6 21.5t-0.5 26t0.5 26.5t-3 24q11 0 19 8q26 0 50.5 6t45.5 -2zM270 510q1 6 1 13t-5 12q-3 -5 -8 -7t-10.5 -2.5t-11.5 -1t-12 -3.5q2 -6 -0.5 -11t2.5 -6q12 3 22 3.5t22 2.5z" />
<glyph unicode=":" horiz-adv-x="321" d="M60 254q3 3 5 1t7 -1q2 5 3.5 10t5.5 8q6 0 9.5 -2t6.5 -4q29 7 61 0.5t67 -12.5q1 -1 3.5 -4.5t4.5 -6.5t4 -3.5t3 4.5q5 -10 12.5 -19t14 -19.5t10.5 -22t2 -26.5q-2 -12 -7 -23.5t1 -24.5q-3 -9 -4 -20t-5 -19q-10 -3 -16 -10q-13 -1 -23 1t-18 5q-32 -11 -66 -8 t-56 22q0 5 -3 7t-1 8q-13 3 -19 13.5t-7.5 24t-1.5 28t-1 25.5q3 17 5.5 33t2.5 35zM211 237q-29 14 -60.5 14t-63.5 5q-6 -13 -5.5 -27.5t3 -29.5t4 -31.5t-3.5 -33.5q4 -9 12.5 -11t19 -1t22.5 3.5t24 2.5t23.5 -1.5t16.5 7.5q0 15 1 27t2.5 23.5t3 24t1.5 28.5zM249 342 q-15 2 -32 1t-35 -2.5t-36.5 -2.5t-36.5 2q-6 8 -14 13.5t-17 11t-17 11.5t-12 15q-3 20 -3.5 40t0.5 40t1 40t-2 39q7 2 8 7q37 -6 71 -5t74 3q14 -9 23.5 -22.5t25.5 -21.5q8 -23 12.5 -45.5t-5.5 -47.5q-2 -7 2 -8.5t2 -7.5q-5 -6 -6.5 -14t-1.5 -16.5v-16.5t-1 -13z M64 528q4 -31 -0.5 -64t2.5 -66q12 -2 28 -2t32 1.5t31 2.5t26 0q5 31 8 65.5t3 66.5q-19 -3 -36 -2t-33 1.5t-31 0.5t-30 -4z" />
<glyph unicode=";" horiz-adv-x="368" d="M126 86q-11 2 -17.5 0.5t-19.5 1.5q-7 4 -7 11t-3 14q-2 5 -5.5 9.5t-5.5 10.5q-3 11 -0.5 23.5t2.5 24.5q-1 4 -3.5 7.5t-2.5 8.5q0 2 2 5t2 6q-2 14 -7 28t1 28q23 5 47 -1t50 -8q26 -3 51.5 -0.5t47.5 -5.5q16 -48 48 -83q1 -10 3.5 -17.5t4.5 -15.5q-6 -26 -7 -49.5 t-9 -49.5q-7 -4 -8 -12.5t-5 -16.5q-2 -3 -5 -5t-5 -5q-5 -10 -7 -21t-7 -22q-4 -9 -10 -17.5t-11 -17.5q-3 -7 -6.5 -16t-7.5 -17.5t-9.5 -15.5t-13.5 -9q-9 -2 -17 -0.5t-15.5 4.5t-16 6t-17.5 4q-11 18 -20 38t-14 45q11 26 19.5 62t3.5 68zM240 191q0 5 -1.5 13t-6.5 14 q-18 -2 -36 -1t-34.5 2.5t-32 2.5t-28.5 -2q2 -24 3 -50t4 -51q7 -4 19.5 -4.5t21.5 -5.5q7 -16 7 -36t-3 -41.5t-8.5 -43t-8.5 -41.5q7 -2 12.5 -5t14.5 -3q15 24 30 52.5t26.5 61t17.5 67.5t3 71zM279 324q-11 -1 -17 -2.5t-14 -4.5q-17 7 -39.5 5.5t-41.5 0.5 q-11 1 -24 -1.5t-21 -0.5q-11 3 -18 11.5t-13 18t-13 17t-20 9.5q-8 13 -9.5 28.5t-0.5 32t3.5 33t2.5 32.5q0 11 -2.5 21t2.5 19q5 0 9 -1t5 -6q5 2 1 6.5t1 6.5q40 3 77.5 -1.5t73.5 -6.5q19 -15 37 -38q12 -2 20 -10.5t11 -18.5q2 -10 -1 -20.5t-5 -24.5q-2 -13 1 -26 t3 -24q-1 -14 -6 -27.5t-2 -27.5zM252 491q-2 -4 0.5 -5t1.5 -5q7 0 7 4q-2 2 -4.5 3t-4.5 3zM188 522q-33 3 -63 4.5t-53 3.5q2 -36 2 -64.5t-1 -63.5q16 0 30.5 -2t29 -4.5t28.5 -4t29 0.5q7 32 3.5 64t-5.5 66z" />
<glyph unicode="&#x3c;" horiz-adv-x="432" d="M368 322q-7 0 -10.5 -1t-9.5 1q-14 -8 -29.5 -13.5t-30.5 -11t-28 -13.5t-22 -21q11 -13 28 -22.5t31 -21.5q3 -2 5 -6t4 -6q7 -6 15 -9t13 -11q2 -2 3 -6.5t3 -8.5q3 -7 8.5 -11.5t3.5 -13.5q5 -2 8.5 -5.5t5.5 -8.5q-6 -28 -9 -57.5t-12 -58.5q-2 1 -4 -1 q-19 8 -35.5 19t-22.5 33h-12q-26 28 -56.5 50.5t-53.5 53.5q-7 7 -14.5 12.5t-8.5 18.5q-18 5 -30.5 15.5t-22.5 24.5q-11 3 -18 9.5t-13 14.5t-12 16.5t-13 14.5q2 17 11 24.5t21 13.5q2 10 3 14q52 32 98 69t100 66q2 2 3 4.5t3 4.5q15 3 27 8.5t24 12.5q5 -2 9.5 -4 t11.5 -3q2 -12 8.5 -23t12.5 -21.5t10.5 -21t1.5 -23.5q4 -23 0.5 -49.5t-5.5 -47.5zM317 487q-29 -21 -60 -40t-61 -38.5t-58.5 -41t-52.5 -45.5q-18 -6 -23 -19.5t9 -27.5q16 -16 38.5 -30.5t37.5 -29.5q5 -5 7 -11t7 -11q26 -31 57.5 -54.5t54.5 -47.5q10 0 15 -4.5 t13 -6.5q2 29 -1.5 57t-0.5 54q-6 8 -17.5 14.5t-19.5 13.5q-2 2 -2.5 4.5t-2.5 4.5q-6 4 -17.5 8t-19.5 9q-4 3 -10 8t-11 10q-12 10 -25 20.5t-8 28.5q35 21 74.5 37t74.5 36q-1 12 0.5 25.5t3 26.5t1.5 26t-3 24z" />
<glyph unicode="=" horiz-adv-x="502" d="M412 285q-6 -5 -15.5 -7t-20.5 -2.5t-22.5 -1t-21.5 -1.5q-15 -2 -32.5 -4t-30.5 6q-8 0 -15.5 -1.5t-12.5 3.5q-5 -5 -13 -6t-16.5 -0.5l-17 1t-14.5 -2.5q-2 2 -4.5 3t-2.5 5q-5 -1 -12 -3t-13.5 -2t-12 2.5t-6.5 10.5q-9 0 -15.5 2t-12 5t-11 5.5t-12.5 1.5 q-3 7 -2 19q-7 13 -9.5 29t-2.5 33.5t1.5 34.5t3.5 32q72 -4 149.5 -2.5t152.5 0.5q9 -7 10.5 -17.5t6.5 -21.5q4 -9 11 -17.5t12.5 -17.5t6 -19t-7.5 -22q2 -12 1 -21.5t1 -23.5zM379 335q0 -1 -2 -5q3 0 5.5 -3.5t3.5 0.5q-3 0 -3.5 3.5t-3.5 4.5zM354 420q-31 -2 -61 1 t-55 -4q-34 1 -75.5 2t-79.5 -4q2 -25 2.5 -49.5t9.5 -40.5q8 0 15.5 2t15.5 3q29 3 59.5 2t60.5 -2.5t58.5 -1.5t53.5 4q0 23 -1.5 44t-2.5 44zM415 77q-11 2 -21 -1.5t-21 -3.5q-9 0 -17.5 2t-17.5 3q-15 1 -30.5 1t-29.5 2q-10 2 -19.5 1.5t-18.5 0.5q-17 2 -33 -3 t-29 -4q-5 1 -5 3t-5 4q-3 2 -7 0.5t-6 -0.5q-11 5 -20 13t-20 10q-1 9 -5.5 13.5t-11.5 7.5q-2 28 -8.5 53.5t-2.5 53.5q35 -2 70.5 1t71 7t70 6t68.5 -2q5 -2 8.5 -5t9.5 -4q8 -14 17 -27t18 -27q2 -2 -0.5 -10.5t-2.5 -13.5q-1 -19 0 -40t-2 -41zM376 94q5 1 10.5 1 t7.5 5q-11 1 -18 -6zM383 203q0 -10 2 -12h7q-1 6 -9 12zM362 224q-30 4 -62.5 3t-65.5 -4.5t-65 -6.5t-61 -1q-3 -17 2.5 -38.5t6.5 -39.5q65 3 125 5t120 0q2 22 2.5 43t-2.5 39zM299 96h14v5q-4 2 -8.5 1t-5.5 -6z" />
<glyph unicode="&#x3e;" horiz-adv-x="473" d="M164 1q-17 6 -36.5 17t-28.5 29q-9 3 -17 7t-14 10q-4 12 -5.5 27.5t-2 31t-1.5 31t-4 29.5q12 12 27 21t31.5 17t32 15.5t29.5 18.5q-8 10 -20.5 15t-25.5 9t-25.5 9t-20.5 15q-4 10 -10.5 21t-17.5 21q-8 7 -15 11t-9 15q-1 2 0.5 5t1.5 5q0 14 -0.5 30.5t-1.5 33 t-1 31t1 25.5q-1 5 2 2.5t5 -2.5q3 2 0 5.5t2 6.5q18 -4 30.5 -13t28.5 -15q40 -26 84 -46t85 -45q10 -13 24 -22.5t29 -18.5t29 -17.5t26 -20.5q8 -2 12.5 -7t12.5 -7q1 -11 7 -19.5t13 -16t12 -16t3 -18.5q-1 -5 -8.5 -11.5t-12.5 -11.5q-15 -14 -32.5 -25t-30.5 -26h-7 q-20 -24 -45.5 -42.5t-44.5 -43.5q-11 -7 -21.5 -14t-18.5 -17q-14 -3 -21 -12.5t-18 -14.5q-4 -2 -4 -8t-8 -4zM371 292q0 2 1 2.5t1 2.5q-14 8 -25 21q-2 -3 -6.5 1t-9.5 3q-19 18 -45 31.5t-46 36.5q-56 23 -102 50.5t-98 53.5q-4 -29 1 -58t3 -53q31 -14 67 -29t71 -29 q4 -7 13.5 -12t19 -9.5t17 -10.5t8.5 -15q-12 -9 -21 -21.5t-17 -25.5q-30 -14 -56 -31t-56 -27q-7 -20 -4.5 -48t5.5 -50q75 45 147 99t132 118zM264 171l-1.5 -3t-0.5 -4h6q0 7 -4 7zM61 360q3 0 5.5 -5t6.5 0q-2 2 -6 5t-6 0z" />
<glyph unicode="?" horiz-adv-x="473" d="M233 128q7 -5 9.5 -14.5t8.5 -20.5q7 -13 13 -21.5t4 -27.5q0 -7 -3.5 -13.5t-3.5 -13.5q-1 -7 0 -21t1 -27.5t-3.5 -23t-13.5 -8.5q-8 1 -8.5 5t-5.5 9q-16 1 -28.5 0t-22 -0.5t-18 4.5t-17.5 15q-5 8 -12.5 16.5t-12.5 16.5q-5 10 -7.5 18.5t-10.5 15.5q1 34 0 54.5 t4 44.5q21 2 41 -2t39 -4q13 0 27.5 1t19.5 -3zM206 15q1 23 5 49t7 51q-29 2 -49 2.5t-49 5.5q2 -23 2.5 -47t5.5 -45q15 1 24.5 -0.5t18 -4.5t16.5 -6t19 -5zM440 611q4 -21 3 -42.5t-3 -42t-3.5 -40.5t1.5 -39q-11 -63 -10 -121t-1 -118q-40 -4 -79.5 0t-77.5 0 q1 -11 2 -23.5t-2 -22t-10.5 -13t-22.5 4.5q-23 -5 -44 -6.5t-42 12.5q-9 6 -16 15.5t-15 15.5q2 42 -4 84.5t-12 89.5q14 10 32.5 15t38 9t39.5 8t37 11q2 26 1.5 52.5t2.5 54.5q-9 -2 -17.5 -3.5t-15.5 -4.5q-1 -13 0 -27t0.5 -27t-4.5 -23t-14 -15q-12 2 -16 8 q-22 -7 -49.5 -7.5t-49.5 9.5q-17 8 -26 22t-23 19q1 38 -4.5 73.5t-3.5 76.5q1 6 3 12t3 12q2 15 -1.5 30t-0.5 28q16 10 33.5 6.5t36.5 -4.5q35 -1 73.5 -0.5t75.5 -1.5q25 -1 52 -0.5t43 -10.5q10 -1 20.5 -0.5t18.5 -1.5q5 -5 9.5 -10t4.5 -14q16 -6 22 -22t15 -28z M360 419q2 60 9.5 124t8.5 116q-7 4 -16 3.5t-14 -1.5q0 -2 3 -3t5.5 -2t3.5 -2t-2 -4q-6 -1 -10 1t-7.5 5t-7.5 6t-10 5q-10 3 -21 2.5l-22 -1t-21 -0.5t-18 5q-19 -2 -42.5 -1.5t-48 2t-48.5 3.5t-44 4q6 -51 6 -101.5t5 -101.5q26 0 46 1.5t46 0.5q5 23 6.5 45t3.5 45 q32 1 57 0.5t48 -2.5q9 -16 9 -37t-2.5 -43.5t-5 -45.5t0.5 -44q-4 -1 -4 -8q-17 -6 -36 -10.5t-38.5 -8t-38 -8.5t-33.5 -12q-1 -20 2.5 -37.5t7.5 -35t7 -35t0 -37.5q22 2 40.5 1t34.5 -2q-4 42 2 82q33 -1 62.5 -0.5t61.5 -7.5q12 33 12.5 68.5t1.5 71.5z" />
<glyph unicode="@" horiz-adv-x="652" d="M337 363q6 -5 7 -13t0 -17t-3 -19.5t0 -20.5q-6 0 -13.5 -1.5t-15 -1.5t-14 1.5t-10.5 6.5q-2 18 -5.5 33.5t-1.5 31.5q11 1 28 -0.5t28 0.5zM604 435q-1 -20 3.5 -48.5t1.5 -51.5q-2 -13 -5 -24t-2 -22q1 -8 3.5 -15.5t1.5 -15.5q-1 -20 -2.5 -38t-4.5 -38 q-12 -11 -31.5 -15.5t-41 -5.5t-42.5 0.5t-37 1.5q7 -4 16.5 -4.5t19.5 -0.5h20t19 -2q8 -11 21 -28.5t18 -34.5q4 -13 4.5 -34t-1.5 -38q-1 -11 -6.5 -20.5t-0.5 -19.5q-5 -2 -9.5 -5t-9.5 -6q-26 2 -53.5 1t-56 -2.5t-57.5 -1.5t-57 3q-19 2 -37.5 5.5t-38.5 5.5 q-5 0 -11 -0.5t-13 0.5q-7 0 -13.5 2.5t-11.5 2.5q-12 0 -24 -3.5t-22 -1.5q-12 3 -23 15.5t-24 19.5q-8 4 -14.5 4t-13.5 4q-2 4 -4.5 8t-9.5 3q2 8 -3 9.5t-9 4.5q1 12 -1 23.5t-5 23t-5.5 23.5t-0.5 25q1 12 4.5 24t5.5 25q5 38 3.5 82t0.5 86q1 42 -5.5 97t-8.5 105 q4 4 8.5 7t3.5 12q26 1 49.5 9t51.5 7q14 -1 27.5 -4t27.5 -3q11 0 20 0.5t20 -0.5q21 -2 39.5 1.5t41.5 3.5q21 0 38 1t32.5 3t30 3.5t30.5 2.5q27 2 56.5 6.5t52.5 4.5q14 -17 21.5 -38t15.5 -43q6 -16 7 -26t1 -30q1 -5 2.5 -11.5t1.5 -11.5t-2.5 -10.5t-2.5 -11.5z M518 24q-5 2 -5 -2.5v-9.5q5 0 4 5t1 7zM548 221q5 11 5 22.5t-1.5 22.5t-3.5 23t-2 25q0 14 4 28.5t5 30.5q0 8 -1.5 16.5t-0.5 17.5q3 48 -1.5 93t-2.5 94q-24 -1 -53 -4.5t-52 -0.5q-16 -7 -32 -9t-32.5 -2.5t-33.5 -0.5t-33 -2q-6 -1 -11.5 -3.5t-11.5 -3.5 q-3 -1 -6 0.5t-6 1.5q-17 -2 -33.5 -6t-31.5 -3q-14 0 -29.5 3.5t-26.5 5.5q-14 1 -20.5 -1.5t-16.5 -4.5q-5 -1 -9 1t-9 1q-11 -1 -20 -6t-20 -4q-3 -54 1.5 -112t2.5 -120q-1 -24 -3.5 -48t-2.5 -47q0 -8 2.5 -14.5t1.5 -14.5q-2 -20 -8 -38t-4 -38q1 -9 4 -18t4 -19 q1 -6 -0.5 -12t2.5 -12q14 -5 29.5 -4t33.5 0q32 0 63 -3.5t65 -8.5q45 -6 90 0t87 4q18 -2 37 -6t39 2q1 19 4.5 41.5t-1.5 41.5q-18 -2 -46.5 -0.5t-48.5 7.5q-16 -5 -30.5 -4t-25.5 11q-11 -4 -20.5 -3.5t-18.5 3t-17.5 5t-18.5 3.5q-31 -5 -62 -2t-57 6q-8 16 -8.5 36.5 t1.5 43.5q3 61 1.5 125.5t8.5 123.5q48 5 101 5.5t101 1.5q12 0 24.5 2.5t24.5 4.5t23.5 2.5t22.5 -2.5q3 -23 2.5 -47.5t-2 -49.5l-3 -50t0.5 -47q-4 -3 -4.5 -8t-0.5 -9.5t-1 -9t-5 -5.5q-16 4 -31 7.5t-28 -0.5q-5 17 -4 33.5l2 33t1 33.5t-6 34q-13 2 -30 3.5t-28 -3.5 q-22 7 -46.5 6t-44.5 -3q2 -24 1 -46t-2.5 -44.5t-2 -45.5t1.5 -48q78 3 159 -2t155 -10zM202 354q-5 -21 -5.5 -44.5t0 -47l1 -47t-2.5 -45.5q11 -3 26 -2t29 0q5 10 1.5 14.5t-10 7t-13.5 5.5t-8 10v7t2 5q-10 20 -10 49.5t3 54.5q3 29 4.5 55t-1.5 52q-14 -14 -13 -35 t-3 -39zM428 378q1 -8 0 -17.5t-2 -18.5t0.5 -17t8.5 -13q8 35 7.5 66t1.5 74q-10 2 -21 2.5t-26 -0.5q-8 0 -19 -0.5t-21.5 -2t-17.5 -4.5t-7 -9h20t21.5 -1t19.5 -3.5t14 -5.5q1 -6 -0.5 -8t0.5 -6q5 -10 12 -16t9 -20z" />
<glyph unicode="A" horiz-adv-x="697" d="M642 91q5 -26 8 -51.5t8 -50.5q-6 2 -7 -2t-5 -6q-21 7 -41 4t-40 -2q-15 1 -26 4.5t-32 1.5q-6 0 -13 -3.5t-13 -2.5q-5 1 -7 4t-7 6q-4 2 -8 2t-6 2q-19 16 -31.5 40t-30.5 40q0 4 10 4q-2 5 -9 5.5t-11 4.5q-10 33 -12 73t-6 83q-14 -5 -24 -7t-26 -5q2 -59 4 -122.5 t8 -123.5q-14 -6 -34.5 -7.5t-34.5 5.5q-12 1 -26.5 -2.5t-28.5 -7.5t-27.5 -5.5t-23.5 5.5q-6 4 -10.5 13t-11.5 19q-5 7 -13 18.5t-16 24.5t-14.5 25.5t-8.5 23.5q-1 5 1 9t1 9q-2 17 -10.5 31.5t-9.5 34.5q-1 32 -2.5 71t-3.5 76q-1 36 0.5 72t-0.5 70q-2 59 -2 113 t8 100q-2 1 -2.5 3.5t-0.5 4t-0.5 1.5t-2.5 -3q-3 3 -2 9.5t-4 8.5q5 2 9 4t5 8q26 3 54.5 1.5t57.5 -4.5t59 -6.5t60 -4.5q33 -1 64 2.5t60 1.5t54.5 -3.5t43.5 -12.5q8 -17 15 -32.5t17 -29.5q5 -7 11.5 -11t11.5 -11q2 -2 4 -7.5t4 -10.5q8 -11 20.5 -30.5t15.5 -36.5 q2 -6 0 -11t-2 -11q1 -7 3.5 -13.5t2.5 -12.5q1 -7 -1.5 -13.5t-2.5 -14.5q1 -23 6 -49.5t-2 -50.5q3 -4 4.5 -9.5t3.5 -10.5q1 -5 -0.5 -8.5t-3.5 -7.5q8 -30 11 -59t4 -57.5t2 -55.5t5 -53zM146 119q-1 -7 4 -5.5t6 5.5q-3 3 -4 1t-6 -1zM258 342q2 -2 6.5 -1t6.5 3 l-7.5 1.5t-5.5 -3.5zM311 340q-2 5 -0.5 7t3.5 2.5t3 1t0 3.5q-7 -4 -22 -4q1 -5 6 -7t10 -3zM359 288q-6 0 -5.5 -5.5t5.5 -6.5v12zM473 85q2 3 -1.5 8.5t-2.5 11.5q-12 -3 -23.5 -6.5t-20.5 -9.5q4 -2 8.5 -8.5t9.5 -3.5q-2 2 -2.5 5t-1.5 5q3 5 7.5 8t12.5 2q5 -2 7 -6 t7 -6zM401 107q35 6 62.5 13.5t59.5 14.5q-4 19 -4.5 39t-1.5 39t-4.5 36t-13.5 29q1 6 6 7t6 7q-2 46 -2.5 95t-2.5 98t-7.5 98t-17.5 96q-47 0 -95.5 -1t-99 -1t-102 2.5t-104.5 10.5q-2 -5 -2.5 -13t6.5 -9q-4 -20 2 -42q4 -15 4 -28.5t2 -29.5q5 -48 5.5 -96.5t-1 -97 t-4 -96t-2.5 -91.5q9 -7 13.5 -17t10.5 -19q8 -6 18 -2t18 0q7 -3 7 -8.5t5 -9.5q14 4 30 6.5t32 5.5q-3 29 -8 54t-10.5 49t-9.5 48t-4 52q42 11 87 18.5t92 13.5q10 -8 9 -20.5t-1 -23.5q0 -19 3 -37.5t5 -37.5q5 -42 5 -79.5t9 -72.5zM525 601q1 3 4.5 3.5t5.5 2.5 q-3 10 -7.5 18t-8.5 16q2 -10 1.5 -21.5t4.5 -18.5zM551 193q-3 5 -4.5 11t-3.5 11l-2 -10t0 -12h10zM351 579q1 -23 2.5 -44.5t-4.5 -40.5q2 -10 8 -21t-2 -21q-11 -2 -28 -1t-28 5q-7 -3 -16.5 -5t-19 -3t-18.5 1t-15 7q-2 35 -10 69t-6 64q12 2 30.5 2t38.5 -1.5 t38.5 -4.5t29.5 -6zM250 478q2 -3 7 -4t9 2q0 3 -1.5 4t-0.5 4q-10 -4 -14 -6zM262 556q-1 5 0.5 8.5t3.5 6.5q-4 2 -11.5 4.5t-8.5 -2.5q5 -3 6.5 -9.5t9.5 -7.5zM297 571q7 0 5 1t-6.5 1.5t-9 -0.5t-3.5 -4q3 -2 6 0.5t8 1.5zM327 478q-2 8 2 18t-4 14q2 -8 -2.5 -14.5 t-9.5 -13.5l6 -4t8 0z" />
<glyph unicode="B" horiz-adv-x="666" d="M330 308q-2 -12 -0.5 -27t2.5 -30t-1 -28t-11 -21q-17 2 -34.5 -0.5t-34.5 -4.5t-31.5 -1.5t-24.5 8.5q1 22 -7 42t-8 39q1 8 5.5 13t-0.5 12q20 4 37 6.5t33.5 2.5t34 -2.5t38.5 -6.5q-1 -2 0.5 -3t1.5 1zM611 290q1 -35 0 -71.5l-2 -73t-1 -72t3 -68.5 q-11 -16 -24.5 -16.5t-33.5 1.5q-8 1 -14.5 -1t-12.5 -1q-4 0 -7.5 3t-7.5 3q-19 1 -42 -4.5t-41 -3.5q-5 0 -8.5 2t-8.5 2q-19 0 -38 -3t-43 -5q-9 -1 -15.5 -2.5t-11.5 -2t-9.5 2t-9.5 10.5q-11 -5 -24 -6t-26.5 0t-27 1.5t-24.5 -1.5q-5 -2 -7 -4.5t-7 -1.5 q-17 0 -28.5 12t-13.5 31q-10 7 -16.5 18t-12.5 22t-12.5 21.5t-16.5 17.5q-1 25 -2 56.5t-2.5 63.5t-3.5 63t-4 56q-5 59 -10.5 115.5t-2.5 117.5q2 31 2.5 62.5t1.5 64.5q-4 2 -5 1.5t-5 2.5q39 13 90 18t105.5 4.5t107.5 -4t96 -5.5q10 0 20 0.5t19 -0.5t15.5 -5t8.5 -14 q2 2 8 2t8 -2q22 -32 41.5 -66.5t41.5 -66.5q0 -44 -3 -90.5t-1 -94.5q1 -11 1.5 -20.5t-1 -17t-7.5 -13t-18 -9.5q2 -7 7 -11t11.5 -6.5l13 -5t10.5 -6.5zM89 109q0 -7 8 -9q1 7 -4 11q0 -4 -4 -2zM395 46q0 5 -1 8.5t-6 2.5q2 -3 2 -7.5t5 -3.5zM476 152q-2 23 1.5 47.5 t-5.5 48.5q8 23 8 54t4 60q-9 7 -19 11.5t-23 11.5q-8 4 -23.5 10.5t-17.5 14.5q-3 12 5 20t20.5 15t25 13t18.5 15q-1 48 1.5 97t0.5 104q-34 2 -62 4t-63 -1h-26.5h-38h-42h-38.5q-32 1 -66 2.5t-64 -4.5q0 -6 1.5 -9t2.5 -5.5t1.5 -6t0.5 -9.5q0 -32 -5 -67.5t-3 -71.5 q2 -44 7 -89.5t9.5 -91t7.5 -89.5t1 -86q14 -6 30.5 -2.5t34.5 4.5q83 6 164 5t152 -5zM507 552q-1 8 -3.5 14t-6.5 11v-25h10zM505 645q2 3 2.5 11.5t-6.5 7.5q1 -5 0 -11.5t4 -7.5zM582 59q-2 8 -2.5 16.5t2.5 16.5q-8 -4 -8.5 -13.5t-4.5 -17.5q4 -2 7.5 -3.5t5.5 1.5z M582 186q-2 11 1.5 20.5t-5.5 14.5q-2 -8 -2.5 -20t6.5 -15zM353 585q1 -20 -5 -41.5t-1 -41.5q-35 -2 -68.5 -7.5t-68.5 -3.5q-9 6 -17.5 13t-14.5 16q5 15 8 28t1 31q-2 4 -6.5 4.5t-6.5 3.5q0 2 1 3t1 3q44 11 91 6t86 -14z" />
<glyph unicode="C" horiz-adv-x="684" d="M75 676q6 -7 7 -15.5t1 -16.5q0 -12 -5.5 -25.5t-4.5 -25.5q1 -32 -0.5 -65.5t-4 -66.5t-4.5 -65.5t0 -62.5q1 -11 1.5 -22t1.5 -22q2 -24 6.5 -54t7.5 -59q1 -11 0 -22t5 -20q13 2 29 2t33 -0.5t34 -0.5t32 1q10 1 19 5t18 7t17.5 2.5t16.5 -10.5q51 4 107.5 2.5 t103.5 -2.5q4 13 4.5 28t-0.5 31l-2 32t0 31q-11 3 -23.5 3t-25.5 -0.5t-25 0t-22 5.5q-23 -11 -48.5 -8t-57.5 1q-5 -1 -7.5 -3t-7.5 -3q-12 -2 -25 0.5t-25 0.5q-17 -2 -33.5 -6t-33.5 -2q-10 11 -9 26.5t2 29.5q2 23 5 45.5t5 45.5t1.5 45t-2 43t-2 42.5t1.5 43.5 q25 1 47.5 -0.5t44 -4.5t43 -5.5t44.5 -2.5q41 2 80 6.5t81 6.5q6 12 9.5 28.5t3.5 33t-4.5 30t-15.5 20.5q-24 -2 -49.5 -1t-46.5 7q-41 -3 -77.5 -3.5t-72.5 0.5t-73 2.5t-79 0.5q-10 -15 -11.5 -32.5t0 -36t3.5 -36t-1 -32.5q-4 -3 -5.5 -1.5t-5.5 1.5q-8 5 -7 15.5 t1 20.5q0 12 -0.5 28.5t-0.5 33.5t2 33.5t8 29.5q21 -2 44 -0.5t47 4t50 4.5t54 -1q47 -5 95.5 -1t94.5 3q17 -1 35.5 -3t38.5 3q19 -6 23.5 -21t10.5 -32q10 -32 30.5 -59t34.5 -53q-8 -36 -6.5 -66t2.5 -59q-9 -4 -16 -10t-14 -11q-12 -5 -25.5 -1t-25.5 5q-14 0 -26 -4 t-24 -4q-11 1 -23 6t-23 7q-17 2 -33 1t-32 6q-23 -8 -48.5 -7.5t-59.5 -2.5q-11 -32 -9 -62.5t3 -68.5q52 -1 114 0t120 -2q6 0 11.5 -0.5t11.5 2.5q10 -4 15 -14.5t13 -18.5q11 -11 19 -21.5t19 -24.5q8 -11 17 -19.5t11 -25.5q1 -12 -3 -25t-4 -27q1 -15 5.5 -30.5 t4.5 -29.5q-1 -10 -4 -19.5t2 -18.5q-9 -8 -20.5 -11t-25 -3.5t-27.5 0t-28 -0.5q-11 0 -22.5 -3t-22.5 -2q-22 2 -45.5 0.5t-48.5 -3.5q-33 -2 -63.5 -2.5t-59.5 -4.5q-9 -2 -13.5 -2.5t-17.5 -0.5q-9 -1 -18.5 -4.5t-19 -6.5t-19 -4t-18.5 4q-6 3 -7.5 6.5t-7.5 11.5 q-4 5 -9 8.5t-8 7.5q-2 4 -2 8.5t-2 7.5q-4 7 -13.5 15.5t-9.5 19.5q-14 5 -24 13t-20 17q2 11 -3 16t-9 14q2 14 0.5 30.5t-4 33.5t-5 35t-2.5 35q-1 23 0 47.5t3 48.5q3 53 7 106.5t7 107.5q2 32 5.5 62t13.5 57zM103 100q-6 1 -9 -1.5t-9 -0.5q0 -5 2.5 -6.5t5.5 -1 t6 3.5t4 6zM303 699q-3 6 -11 8t-17.5 2.5t-20 -0.5t-18.5 -1q14 -2 31 -6t36 -3zM335 541q-9 -2 -16.5 -1.5t-14 1t-12.5 0.5t-11 -3q11 -8 27.5 -6t26.5 9zM491 518q2 7 5.5 11.5t2.5 14.5q-8 7 -18 7t-16 -1q1 -25 26 -32zM540 265q-9 -1 -13.5 -11t-2.5 -17q0 5 3.5 8 t6.5 6t5 6t1 8zM554 600q5 5 7 14t-8 11q-1 -5 -3.5 -14t4.5 -11z" />
<glyph unicode="D" horiz-adv-x="666" d="M382 548q7 -11 9 -24.5t1.5 -29.5t-1.5 -32.5t0 -31.5q3 -44 0.5 -84.5t-0.5 -89.5q-3 -2 -7 -2.5t-4 -5.5q-11 5 -23.5 -0.5t-24.5 -7.5q-3 0 -7 2.5t-8 1.5q-8 0 -20.5 -4.5t-23.5 -8.5q-5 -2 -7.5 -1.5t-4 2t-3 2.5t-5.5 0q-1 0 -9 0.5t-17.5 1t-17 1.5l-7.5 1 q-6 2 -8.5 15.5t-2.5 29.5t1.5 29.5t3.5 16.5q0 33 2 63l4 60t3.5 62t2.5 69q8 2 8.5 -2t5.5 -5q20 8 36 1.5t33 -11.5q23 -6 45.5 -8t45.5 -10zM228 526q0 10 -1.5 21t-6.5 15v-22t8 -14zM364 278q-1 19 -0.5 34.5t1.5 29.5t2 28.5t1 31.5q-16 9 -28.5 7.5t-30.5 2.5 q-2 -5 1.5 -5t2.5 -5q-2 -3 -6.5 -3t-3.5 -5q-2 -17 -1.5 -36.5t1.5 -36.5q0 -14 -2.5 -29t10.5 -26q13 3 26.5 5.5t26.5 6.5zM604 22q0 -4 1.5 -6t4 -3t4 -3t0.5 -6q-8 -11 -19 -13t-24 -0.5t-27 4.5t-28 3q-7 0 -13 -1.5t-13 -2.5q-10 -1 -21.5 0.5t-25.5 -0.5 q-21 -2 -40.5 -6t-36.5 6q-21 -7 -44.5 -8.5t-46.5 -3.5t-43.5 -6.5t-35.5 -16.5q-18 10 -31 24t-25.5 29t-26 29.5t-31.5 23.5q-3 9 -10.5 14.5t-9.5 13.5q-2 9 1.5 18.5t4.5 18.5q2 20 0 44.5t-2 48.5q0 18 -3.5 37t-8.5 34q-6 22 -5 50t1 52q1 47 6 92t4 90q0 38 -4.5 74 t4.5 71q8 -1 12 -4t8 -7q57 11 122 10.5t134 -8.5q25 -3 49.5 -3.5t48.5 -1.5t47.5 -4t45.5 -11q1 -10 3 -13t-3 -11q3 -5 6 -9.5t6 -9.5q4 -2 9.5 -3t10.5 -3q14 -8 27.5 -28.5t21.5 -38.5q6 -14 13 -23t7 -23q0 -13 -10 -29t-12 -34q-1 -17 4 -36t4 -39q0 -6 -3 -12.5 t-3 -12.5q1 -5 3.5 -10t2.5 -10q0 -7 -2.5 -12.5t-3.5 -13.5q-3 -27 -0.5 -56t0.5 -58q0 -7 2.5 -14t1.5 -14q-1 -17 -5.5 -30t-2.5 -29q2 -9 4.5 -23t1.5 -26q0 -13 -5.5 -25.5t-0.5 -25.5zM100 85q8 3 16 5t11 10q-5 -2 -5.5 -1t-4.5 3q-1 -4 -4 -4.5t-6 -1.5t-5 -3t-2 -8 zM490 142q8 71 8.5 131.5t-4.5 122.5q-5 7 -8 14q7 16 6.5 30.5t-0.5 32.5q0 22 0.5 42t-4.5 31q10 29 6.5 62t-4.5 65q-11 1 -15.5 3t-8 3.5t-9 0.5t-18.5 -5q-24 5 -57.5 9t-69.5 6t-70.5 1.5t-59.5 -4.5q-24 -4 -48.5 -4h-49.5q-2 -22 2 -40t6 -40q1 -27 -1 -55t-4 -55.5 t-3.5 -52.5t0.5 -46q1 -12 -0.5 -24t-1.5 -23q0 -23 4 -43.5t8 -41.5q6 -35 3.5 -72t2.5 -72q7 1 9 -4t6 -8q5 2 2.5 5.5t-4.5 4.5q7 -1 10.5 1.5t9.5 0.5q-2 -2 -3.5 -5.5t3.5 -0.5q2 -3 2.5 -1.5t1 4t1 4.5t3.5 1q5 4 9 1t9 -3q4 -1 2.5 3.5t3.5 2.5q31 4 71 4h82.5 t86.5 2.5t85 11.5zM524 526q-8 2 -9.5 -8.5t3.5 -12.5q1 6 3.5 9.5t2.5 11.5zM524 262q5 11 2.5 19.5t-1.5 24.5q-5 -8 -4 -21.5t3 -22.5zM518 611q10 -1 15 4q-2 11 -6.5 18t-10.5 14q2 -10 1 -19t1 -17zM561 430q-1 6 0.5 7.5t-0.5 6.5q-13 0 -16 -10q5 -1 8 -2t8 -2z" />
<glyph unicode="E" horiz-adv-x="607" d="M50 713q28 10 61 6.5t68 -3.5q23 0 46 3t46 2q9 -1 18 -3.5t18 -3.5q19 -1 35.5 4t33.5 5q15 0 32 -3t31 -5q18 -2 28 -5t22 -8q1 -8 7 -12t13 -8q12 -32 27.5 -62t21.5 -68q1 -5 6.5 -5.5t8.5 -2.5q4 -5 3.5 -11.5t-2 -14l-3 -15t-1.5 -13.5q0 -4 1.5 -11t3.5 -14.5 t2.5 -14.5t-0.5 -12t-4.5 -8.5t-5.5 -7.5q-19 2 -36 4.5t-32 3t-28.5 -3t-26.5 -14.5q-4 -30 -3 -57.5t-1 -60.5q-1 -16 -4 -27t-11 -21q7 -2 11 0.5t8 -0.5q5 -1 6 -6t4 -8q9 1 17.5 -3t16.5 -10t16.5 -12t18.5 -8q11 -25 28 -37q-4 8 0.5 3.5t14.5 -10.5 q-3 -29 -3.5 -64.5t6.5 -67.5q-6 1 -9.5 0t-7.5 -3q-2 -9 -1 -14.5t-4 -10.5q-32 -2 -58 -4.5t-52 -9.5q-10 -2 -18 -5.5t-18 -2.5q-6 1 -11 4t-10 4q-10 1 -20.5 -1t-17.5 10q-19 -6 -37.5 -5.5t-35.5 3.5t-34 6.5t-33 2.5q-14 -1 -27.5 -5.5t-27.5 3.5q-6 1 -6 -4t-2 -7 q-8 -3 -13 2.5t-10 9.5q-8 35 -25.5 60.5t-35.5 50.5q-2 29 -5.5 56t-8.5 56q-4 24 -3.5 49.5t2 52t3 52.5t-0.5 51q-1 13 -1.5 26.5t-0.5 27.5q-1 49 3 97.5t2 93.5l-2 22t7 22zM65 599q-1 -13 2.5 -27t1.5 -28q-2 -23 -0.5 -48t1.5 -50q-1 -18 2 -30.5t4 -27.5 q0 -17 -4 -33t-4 -33q-2 -53 2 -104.5t6 -103.5q37 -8 74.5 -7t74.5 5t73.5 7.5t72.5 0.5q18 -2 35.5 -2.5t35.5 3.5q-2 10 -1 24l2 28t0 27.5t-7 24.5q-8 1 -19.5 2t-22.5 0t-21 -3.5t-16 -7.5q-26 -1 -49 -5.5t-47 2.5q-9 -4 -17 -3.5t-17 -4.5q-8 6 -16 10t-12 12 q-7 13 -3 29t3 34q-1 15 -6 28t-2 26q15 4 29.5 4.5t29 0.5t28 1t26.5 6q6 24 7 46t-6 42q-29 1 -61.5 -1t-58.5 -1q-7 8 -5 16.5t2 18.5q0 13 -1.5 27l-3 28t-1.5 28t4 26q72 3 136 2t132 0q3 20 10 46.5t5 51.5q-12 4 -26.5 5t-24.5 8q-26 -6 -52 -6t-54 -6 q-11 6 -24.5 7.5t-27.5 1t-29 -2.5t-30 -2q-16 0 -32.5 1.5t-32 2t-29.5 -1t-25 -8.5q0 -22 -4.5 -43t-6.5 -43zM138 26q4 8 -1.5 14.5t-8.5 12.5q-1 -2 -2.5 -2t-1.5 -2q4 -5 6.5 -11.5t7.5 -11.5zM161 88q-12 -1 -20 1t-16 -3q8 -4 17 -3t19 5zM217 489q-13 -3 -12 -21 q7 2 8 9t4 12zM249 315q5 0 6.5 3t3.5 5q-5 -1 -5.5 1t-5.5 1q-1 -4 1 -10zM355 107q-19 -2 -37.5 -2t-35.5 -5q20 1 39 0t34 7zM304 329q-5 1 -10.5 -2.5t-1.5 -6.5q2 4 6.5 4t5.5 5zM358 538q-2 -5 -5.5 -7.5t-4.5 -7.5q7 -2 10.5 4t-0.5 11zM362 7q-5 3 -10 2v-6 q9 0 10 4zM394 525q1 -5 -3 -7t-3 -8q5 0 7.5 6t-1.5 9zM489 587q2 19 -2 31.5t-2 30.5q10 13 -1 23q1 -23 -4 -43t-1 -43q0 3 4 1.5t6 -0.5z" />
<glyph unicode="F" horiz-adv-x="549" d="M47 708h91.5h89.5h92.5h100.5q12 -11 21 -25.5t16.5 -29.5t15.5 -30.5t19 -27.5q3 0 5.5 -5.5t5 -13t3 -14t-1.5 -6.5q0 -4 1.5 -6t-0.5 -7q-1 0 -1.5 -5.5t-0.5 -11.5t0.5 -11.5t0.5 -6.5q-2 -30 -4 -51.5t-13 -50.5q-8 -1 -16 -5.5t-17 1.5q-5 0 -4.5 -5.5t-5.5 -3.5 q-6 0 -5 3t3 6q-8 -2 -11.5 -8.5t-7.5 -13.5q-4 -1 -4 1.5t-3 2.5q-3 -4 1.5 -4.5t5.5 -3.5q2 -2 -1 -3t-3 -2q1 -6 4 -18.5t3 -22.5q0 -21 -1 -41t-5 -44q-13 1 -28 -1.5t-31 -5t-31.5 -4t-30.5 0.5q-5 -10 -5.5 -23t0 -27t0 -27.5t-5.5 -24.5q7 -38 7 -80.5t2 -80.5 q0 -8 3 -16t-6 -14q-5 2 -9.5 3.5t-8.5 4.5q0 7 0.5 14t-5.5 8q-9 -1 -7.5 -7.5t-2.5 -12.5q-26 1 -44 -1t-41 3q-7 -2 -10.5 -6t-10.5 -6q-8 7 -18.5 9.5t-17.5 9.5t-10.5 18.5t-9.5 21.5q-7 11 -14.5 18.5t-12.5 18.5q3 6 1 10t3 7q-9 4 -13.5 13t-7 20t-4.5 22.5t-6 21.5 q1 5 4.5 6.5t6.5 3.5q-5 32 -3 63t3 62q0 45 -3.5 87.5t-1.5 86.5q1 49 -1 102.5t2 101.5q-8 14 -6 30t0 33zM174 510v13v11.5t0.5 5.5t3.5 -4q2 5 3.5 10.5t7.5 6.5q29 -1 66.5 1t75.5 6q4 1 5 5t6 4q15 -7 32 -5.5t34 -3.5q0 33 2 62.5t0 55.5q-36 -2 -69 -2t-68 2 q-29 1 -54.5 1h-49.5t-49 -1t-54 -1q1 -9 2 -13.5t2.5 -8.5t3 -8.5t3.5 -13.5q2 -7 -1.5 -12.5t-1.5 -13.5q2 -5 3 -11t2 -11q6 -41 2.5 -89t-1.5 -98q2 -35 5 -70.5t-3 -68.5q3 -41 2.5 -76t7.5 -77q-10 -15 -3 -33q19 3 40 3t40 3q6 32 10.5 65.5t-1.5 65.5q-2 5 -5 10.5 t-4 10.5q-2 8 -2 18.5t1 18.5q1 15 2.5 31t4.5 32q9 6 19 8t20.5 2h21t19.5 2t15 8.5t15 6.5q1 19 0.5 39.5t3.5 37.5q-32 5 -58 5t-57 2q-5 8 -3.5 29t3.5 39zM291 450q-12 0 -19.5 3.5t-13 6.5t-11 2.5t-12.5 -9.5q16 2 31.5 -3t24.5 0zM247 177q1 5 0.5 8t-1.5 7 q-11 -3 -14 -15q4 -3 7 -1t8 1z" />
<glyph unicode="G" horiz-adv-x="699" d="M541 705q15 -20 29.5 -40.5t36.5 -34.5q0 -16 10 -22t17 -15q-5 -37 -3 -76t4 -76q1 -12 2 -25t9 -21q-9 -6 -6.5 -16t1.5 -17q-8 -11 -29.5 -12.5t-40.5 0.5q-6 0 -11.5 0.5t-9.5 5.5q-20 -2 -36.5 -8t-33.5 -8q-15 -2 -24.5 3t-16 13.5t-12.5 19t-14 19.5 q-16 -11 -39 -11.5t-44 1.5q-6 -13 0 -30.5t4 -31.5q27 -3 58 -4.5t61.5 -2.5t60 -2.5t53.5 -2.5q14 -25 30.5 -47t39.5 -38q-4 -12 1 -22.5t6 -23.5q1 -24 0.5 -50t-1 -51.5t1.5 -49.5t9 -43q-2 -11 -4 -19.5t-7 -15.5q-15 -8 -29 -11.5t-37 -1.5q-5 5 -7.5 12t-7.5 12 q-23 0 -52 0.5t-48 11.5q-47 -2 -95.5 -4t-93.5 -5q-14 -1 -27.5 0.5t-26.5 -0.5q-10 -3 -16.5 -5.5t-12 -2.5t-10 4t-11.5 14t-13.5 22t-14.5 22.5t-18 17.5t-24 9q-9 12 -21 18q4 7 2 7t-6 5q-5 66 -8.5 126.5t-6.5 119t-4.5 117t-2.5 118.5q-1 35 -5 62.5t-5 59.5 q6 10 13.5 14t16.5 5.5t20 1t23 1.5q39 5 86 8.5t92 5.5q17 1 32.5 -1.5t31.5 -3.5t32.5 -2.5t33.5 -0.5t33.5 4.5t30.5 2.5q7 -1 13.5 -3t13 -4.5t13 -3t14.5 1.5zM82 603q9 -60 10.5 -125t0.5 -131t-0.5 -131t6.5 -125q21 1 39 0.5t35.5 -2t36 -2.5t40.5 -1q19 0 37.5 4.5 t38.5 5.5q24 1 48.5 -2t48.5 -6t47.5 -4t45.5 5q10 22 11.5 46.5t0 51l-3 53t3.5 52.5q-18 3 -37.5 3h-39t-38 2t-34.5 8q-7 -4 -13 -4.5t-12 0.5t-12.5 1.5t-13.5 -0.5q-6 -5 -6 -13.5t1.5 -18.5t4.5 -21t3 -21q9 -1 21 0.5t23 2.5t21 0.5t16 -4.5q-3 -7 -3 -17t-0.5 -19.5 t-3 -15.5t-10.5 -4q-13 3 -30 4t-35 -1q-17 -2 -33 -6.5t-28 -6.5q-9 5 -16 9.5t-16 3.5q-11 17 -12.5 41.5t-5.5 49.5q-6 35 -9 68.5t-12 63.5q6 4 8 11t2 15t-1.5 17t-1.5 17q-3 1 -8.5 0t-3.5 4q-2 9 10 17q-7 14 -6 36t-4 40q17 6 40.5 9t49.5 4t53 -1t51 -6 q1 -15 7.5 -32t8.5 -36q1 -14 -0.5 -29t9.5 -25q5 -2 6.5 4t3.5 11q20 2 43.5 6t49.5 6q-3 55 -6 105t-1 112q-24 9 -48.5 4t-50.5 -6q-9 0 -18 2t-19 3q-10 0 -20.5 -1.5t-20.5 0.5q-10 1 -19 3.5t-19 2.5q-17 0 -34 -3.5t-34 -2.5q-7 0 -12 1.5t-12 0.5q-8 -1 -16.5 -5 t-16.5 -6q-12 -2 -23.5 -2h-23.5t-23.5 -1.5t-22.5 -6.5q-1 -8 1 -16t4.5 -16t3.5 -15.5t-2 -14.5zM253 200q0 6 -0.5 11.5t-3.5 8.5q2 -5 1.5 -10.5t2.5 -9.5zM300 351q-2 2 -1.5 6.5t-2.5 6.5q0 -5 -2 -9t6 -4zM301 386q0 4 -0.5 7.5t-5.5 3.5q2 -8 6 -11zM397 72 q-15 7 -34 2q4 -11 15.5 -9t18.5 7zM385 427q0 13 -6 15q2 -4 2 -8.5t4 -6.5zM432 56q17 5 34.5 5t31.5 5q-24 -2 -41 -2.5t-32 3.5q3 -1 4 -5t3 -6zM540 660q-1 4 -7 8v-11t-1 -12q5 2 5.5 6t2.5 9zM603 587q-2 0 -6 2q1 -2 -2 -5t2 -4q1 2 4 2t2 5z" />
<glyph unicode="H" horiz-adv-x="659" d="M56 701q2 7 0.5 12.5t0.5 8.5q43 -3 75 -4t72 -1q1 -4 3.5 -5.5t5.5 -3.5q1 -10 6 -17t11 -13.5t13 -13t12 -13.5t8 -16t9 -17q8 -14 18.5 -24.5t15.5 -28.5q-8 -41 -5 -88.5t9 -91.5q10 -2 20 -1t19 2t16.5 -0.5t13.5 -8.5q-2 -9 -7 -12.5t-12.5 -4t-15.5 0t-15 0.5 q-15 0 -30.5 -2t-26.5 6q-5 -4 -11.5 -4t-13.5 1.5t-14.5 2.5t-14.5 0q-2 4 -6 4q-7 19 -5.5 38.5t-0.5 39.5q-2 19 -9 38t-7 42q1 35 -0.5 78t-0.5 84q-2 3 -7 2.5t-10.5 -1t-11 0t-9.5 3.5q-7 -6 -14.5 -7t-16.5 0.5t-19 4.5t-22 3q-4 -2 -7 -2t-6 -5q1 0 8.5 0.5 t6.5 -7.5q-4 -3 -8 -1t-9 2q12 -42 14.5 -85.5t2.5 -91.5q0 -12 -1.5 -24.5t-1.5 -25.5q1 -20 3 -41t3 -41q3 -63 5 -122.5t6 -119.5q0 -5 3.5 -6t5.5 -4q2 -14 4 -26.5t10 -19.5q26 3 49.5 6t51.5 2q-3 41 -6 80.5t5 82.5q21 -2 45.5 -2.5t49.5 -2.5t48.5 -7.5t43.5 -16.5 q-1 -16 -7.5 -29.5t-7.5 -29.5q-2 -19 1 -37.5t5 -35.5q23 2 40 1.5t38 -2.5q5 17 11.5 35t5.5 38q0 12 -5.5 23t3.5 24q-5 15 -7 35.5t-2 42.5t1.5 44.5t4.5 41.5q3 20 6.5 37t2.5 40t-0.5 52.5t1.5 58.5q1 35 -1 60.5t-1 51.5q-15 6 -30 7.5t-30 2l-30 1t-30 2.5 q-1 -39 -3 -74.5t1 -72.5q2 -23 0.5 -44.5t3.5 -44.5q2 -12 6 -23t-2 -24q-12 -3 -17 3t-6.5 16t-2.5 21t-6 17q-5 63 -2.5 122.5t6.5 120.5q5 3 11 3.5t10 4.5q17 -4 36.5 -5.5t39.5 -3t39.5 -5.5t37.5 -13q14 -14 25.5 -31t23.5 -32q8 -9 18.5 -15.5t13.5 -17.5 q3 -9 1 -21.5t-2 -25.5q-1 -58 -3.5 -122t-6.5 -122q-2 -32 -4 -61.5t6 -52.5q-5 -38 -3.5 -75t3.5 -78q0 -5 -4.5 -4.5t-7.5 -1.5q0 -8 0.5 -17t-4.5 -15q-13 -2 -25.5 -0.5t-23.5 -2.5q2 -6 11 -6.5t13 -0.5q11 0 21 3t19 -2q-10 -5 -23 -6t-27 -2q-33 -2 -68 -4t-67 5 q-4 9 -7 18.5t-7 18.5t-9.5 16.5t-14.5 11.5q6 6 4.5 11.5t-6 11t-8.5 12t-2 15.5q-10 3 -15 2t-15 -2q-2 -15 0 -31t4.5 -32.5t4 -31t-2.5 -26.5q-38 -5 -75.5 -8t-83.5 -1q-11 5 -16.5 16t-7.5 25q-12 11 -24 21.5t-22 23t-17 28t-8 35.5q-2 3 -6.5 3.5t-6.5 3.5l-2 88 t-3 89q-2 42 -7 84.5t-5 84.5q-1 38 2.5 74t-1.5 71q-2 21 -7.5 42.5t-3.5 49.5q-1 5 3 6t9 0zM231 460q-1 12 0.5 24.5t-2.5 26.5q-3 0 -6 0.5t-5 0.5q3 -12 6 -28.5t7 -23.5zM259 422q2 3 4 2q2 11 -7 10q0 -4 -0.5 -7.5t3.5 -4.5zM274 388q2 -1 7 -1q1 4 1 7.5t-2 5.5 q-4 0 -6 -4.5t0 -7.5zM427 29q-1 5 1 7.5t1 7.5h-9q1 -5 1.5 -9t5.5 -6zM521 653q0 8 -7 12q1 -4 1 -8.5t6 -3.5zM476 -1q5 4 12.5 3t12.5 3q-9 7 -17.5 6t-7.5 -12zM511 410q2 6 2.5 12.5t-2.5 12.5q-2 -5 -2 -12.5t2 -12.5zM514 133q-3 -5 -2.5 -8t2 -3t2.5 3t-2 8z M530 201q-4 -1 -5 1t-4 2q0 -2 -1.5 -3t-0.5 -3q3 -1 7 -2t4 5z" />
<glyph unicode="I" horiz-adv-x="467" d="M68 699q4 2 10.5 0t11.5 3q5 3 1 7.5t-2 10.5q35 -5 71.5 -14t73.5 -11q8 -8 14.5 -12t20.5 -4q14 -13 26 -27.5t23.5 -29t24.5 -28.5t28 -26q-7 -54 -2.5 -106t12.5 -103l10.5 -73.5t4.5 -73.5q-1 -20 -3.5 -40t-0.5 -40q0 -8 2.5 -16t0.5 -16q-1 -4 -4.5 -6.5 t-5.5 -7.5q-5 -17 0.5 -39t4.5 -39q5 -3 11.5 -5t8.5 -8q-5 -12 -15 -17t-22.5 -5.5t-26.5 1.5t-27 2t-26.5 -2.5t-26.5 -5.5t-24 -4.5t-18 0.5q-9 3 -17.5 12t-16 20.5t-14 23t-13.5 18.5q-21 21 -42 35t-45 25q0 8 -1.5 12.5t-8.5 9.5q-2 84 -3 165.5t-1 163.5 q0 11 2.5 22t1.5 22q0 51 -3.5 102t5.5 104zM98 634q-1 -15 -2 -31.5t-1 -32.5q0 -20 5 -39.5t7 -37.5q3 -53 1 -105t0 -103q1 -26 1.5 -51.5t-4.5 -48.5q3 -3 3 -9.5t-0.5 -14.5t-1 -15.5t2.5 -11.5q18 -8 39 -8.5t43 0.5t43 0.5t38 -8.5q10 17 7.5 36t-3.5 38 q-2 54 -9.5 106.5t-16.5 103.5q-2 11 -4.5 23t-3.5 23q-3 26 -2.5 53t1.5 54t-1.5 53.5t-11.5 52.5q-30 8 -67.5 13.5t-61.5 6.5q5 -6 6 -11t-0.5 -10t-4 -11t-2.5 -15zM296 333q1 4 3 5.5t0 6.5h-7q0 -8 4 -12zM303 289q0 6 4 10t-1 10h-9q1 -5 2 -10.5t4 -9.5zM333 572 q0 5 -3.5 7.5t-7.5 4.5q-1 -3 -3 -5l-4 -4q6 0 10 -1zM306 251q3 3 2 10h-4q0 -2 -1 -2.5t-1 -1.5q2 0 1.5 -3t2.5 -3zM322 -3q-2 10 -10.5 8t-13.5 -6l12.5 -2.5t11.5 0.5zM318 176q1 4 -2.5 4.5t-6.5 1.5v-6h9z" />
<glyph unicode="J" horiz-adv-x="587" d="M228 207q21 2 41.5 3t38.5 6q-3 45 -3 87v85q0 36 3.5 75t3.5 70q0 21 3 40.5t6 39.5t4.5 40.5t-2.5 43.5q2 5 -3.5 5.5t-4.5 5.5q3 5 10.5 5.5t15.5 0t15.5 0t10.5 5.5q26 -5 53.5 -5.5t53.5 -2.5q-4 -5 0 -7.5t7 1.5q4 -2 2 -5t-4 -4q0 -3 3 -3.5t2 -5.5 q16 -8 25.5 -23t16.5 -32t14 -34.5t18 -30.5q2 -6 2.5 -17.5t4.5 -19.5q-4 -7 -7.5 -13.5t-6.5 -14.5q2 -45 3.5 -105t0.5 -120v-27t-0.5 -29.5t-3 -27.5t-6.5 -22q-2 -51 -5 -95t0 -94q-14 -3 -28.5 -3h-29t-27 -1t-22.5 -7q-5 1 -6.5 3.5t-3.5 4.5q-14 -2 -27.5 0t-27.5 2 q-8 1 -15.5 -2.5t-15.5 -4.5q-18 -2 -36.5 -0.5t-37.5 2.5q-18 0 -36 -4t-37 -2q1 -4 -2.5 -9t-8.5 -8q-14 2 -17 13q-17 -3 -35.5 -3t-28.5 -6q-9 2 -12 9t2 14q-3 2 -5.5 5.5t-6.5 5.5q-17 47 -25.5 96.5t-20.5 98.5q-2 6 -4.5 11.5t-4.5 10.5q-4 14 -7 35.5t-3 33.5 q5 10 14 8t17 0q14 2 30.5 7.5t31.5 5.5t31 -5t33 -3q5 -4 7.5 -9t11.5 -5q11 -17 23 -32t18 -37zM55 185q4 -14 5.5 -28t3.5 -27.5t5 -25t11 -19.5q45 4 93.5 8.5t97 6t96 -2t91.5 -14.5q-2 5 -1.5 7.5t-1.5 7.5q-3 1 -4 -0.5t-1.5 -3t-1 -2.5t-1.5 1q0 23 2 45t-3 43 q4 12 4.5 30.5t-1.5 35.5q-2 32 -6.5 64.5t-1.5 66.5q7 77 7.5 151.5t5.5 152.5q-29 -4 -52.5 -2.5t-52.5 -3.5q-5 -10 -3.5 -21t3.5 -21.5t1.5 -20t-9.5 -16.5q0 -100 -5.5 -200t1.5 -204q-6 -5 -13.5 -3t-16.5 1q-17 -1 -34 -5t-30 1q-17 -6 -37 -9.5t-43 -2.5 q-8 7 -8.5 17.5t0 23t1 25.5t-4.5 26q-16 5 -29.5 5t-27 -1.5t-26.5 -4t-27 -1.5q-6 -18 0.5 -36.5t13.5 -43.5zM110 -14q0 4 -1.5 5t-3.5 3q2 -5 -2.5 -7t-0.5 -4q1 2 3.5 1.5t4.5 1.5zM234 81q-8 1 -15 0.5t-13 -2.5q4 -1 13.5 -0.5t14.5 2.5zM305 73q-1 3 4 5t0 5 q-2 -3 -6 -2.5t-5 -3.5q2 -1 3.5 -2t3.5 -2zM477 652q0 2 3 2q-1 7 -6 13q0 -11 3 -15zM474 474q0 6 3 10t3 11q-8 0 -8 -7.5t2 -13.5zM488 425q0 5 -1.5 7.5t-1.5 7.5q-10 -1 -14 4q0 -3 -0.5 -6.5t-0.5 -6.5zM499 135q-4 0 -5.5 -5.5t1.5 -7.5q0 5 2.5 6.5t1.5 6.5z" />
<glyph unicode="K" horiz-adv-x="761" d="M57 716q6 2 9 5t7 6q41 -2 78.5 0t75.5 7q11 -4 16.5 -12t19.5 -9q19 -23 33.5 -49t37.5 -46q-1 -25 -5 -50.5t3 -51.5q23 6 48 11t48 10q15 17 18.5 38.5t5 43.5t5 42.5t18.5 35.5q47 5 85 10t73 -2q5 -6 8.5 -13t8.5 -14q14 -4 21 -12.5t15 -17.5q-2 -5 -1.5 -10.5 t-2.5 -8.5q8 -5 9 -11t9 -10q-5 -12 -5 -25.5v-27.5t-1.5 -28t-8.5 -27q4 -12 4.5 -27t-1 -30.5t-3.5 -30t-2 -26.5q-20 -6 -45 -16t-45 -21q6 -15 20 -24.5t28.5 -18.5t25 -20t10.5 -28q2 -5 5.5 -7t4.5 -7q0 -4 -1 -4.5t-2.5 -0.5h-3.5t-2 -3q3 -10 0.5 -26t6.5 -24 q-5 -47 -6 -89t4 -81q2 -5 5.5 -7.5t5.5 -7.5q-4 -14 -15.5 -18t-28.5 -6q2 6 -3 6.5t-7 4.5q-29 -6 -62 -4t-57 -2q-7 -2 -14 -7t-18 2q-8 4 -11 16t-11 20q-1 1 -6.5 2.5t-5.5 2.5q-2 2 -2 6t-1 7q-3 6 -9 11.5t-11 11.5t-8.5 11.5t-1.5 11.5q-6 2 -9.5 5.5t-8.5 5.5 q-2 26 -1 46.5t-1 43.5q-13 5 -28 8.5t-27 9.5q0 -12 0.5 -26.5t2.5 -28t7 -25.5t14 -19q0 -19 -1 -35.5t-1 -33.5t1.5 -34.5t5.5 -38.5q-3 -5 -11.5 -6t-10.5 -7q-37 -3 -55 9q-22 -2 -46 -3.5t-41 4.5q-10 4 -16.5 11t-12.5 15.5t-12 17.5t-14 15q-17 14 -33 22t-33 16 q4 4 3.5 8t-3 8.5t-6 9t-4.5 9.5q-5 18 -3 40t-3 39q-5 5 -3.5 17t9.5 17q-8 66 -8.5 130t-0.5 128t-2 128.5t-13 132.5zM100 639q2 -24 10 -51.5t10 -51.5q1 -22 -0.5 -44t-2.5 -43.5t0 -42t6 -39.5q-5 -23 -3.5 -47t4 -49t4.5 -50t-1 -50q-2 -19 -6 -38.5t2 -39.5 q23 -5 56.5 -5.5t63.5 -0.5q-1 59 2 117t4 114q6 4 9.5 10t6.5 11.5t8 10.5t14 7q12 -11 27.5 -18.5t32.5 -14l34 -13t31 -15.5q-2 -8 1.5 -11t8 -5.5t9 -4.5t4.5 -8q2 -3 0.5 -4t-3.5 -1.5t-3.5 -1.5t0.5 -4q11 -35 9 -73.5t0 -83.5q29 -5 59 -8.5t59 -4.5q-4 19 -6.5 42 t-3.5 48t-1 49.5t2 46.5q-23 9 -41 21.5t-45 17.5q-2 5 -4 8t-2 8q-13 8 -28 14.5l-30 13t-28.5 14t-23.5 18.5q-8 1 -17 2t-8 10q1 7 11.5 9t22.5 5l49.5 16.5t55.5 16.5q10 3 25.5 7.5t30 10t26.5 11t16 11.5q6 8 8 24.5t2 24.5q0 18 -1 36t-1.5 36.5t1.5 37t9 37.5 q-17 2 -38 -0.5t-39 -7.5q-14 -15 -13 -36t0 -42q-1 -11 -4.5 -21t-8 -19.5t-8 -18.5t-3.5 -17q-4 0 -5 -2.5t-5 -3.5q-15 1 -22 -3t-20 -6q-14 -2 -20.5 -4.5t-16.5 -4.5q-11 -2 -22 -2t-22 -2q-16 -4 -29.5 -12t-26.5 -9q-5 -1 -6 1t-9 4q-5 1 -11.5 -0.5t-8.5 -0.5 q-15 5 -16 15t-1 21q2 50 4 100.5t-13 95.5q-33 -5 -66 -3t-61 1q14 -11 14 -29t2 -37zM264 645q0 2 7 2q-2 6 -5.5 10.5t-7.5 9.5q2 -6 0 -13.5t6 -8.5zM322 191q-1 3 0.5 8t-3.5 5q-1 -3 -2 -7.5t5 -5.5zM414 411q-9 1 -12 -2t-8 -5q8 0 14 1t6 6zM604 73q1 8 -6 8t-12 -3 q7 1 9 -2t9 -3zM629 11h7q2 8 3.5 17.5t-2.5 16.5q-11 -5 -11 -15.5t3 -18.5zM615 678q-6 0 -7.5 -6.5t3.5 -8.5q2 4 5 7t-1 8z" />
<glyph unicode="L" horiz-adv-x="679" d="M215 715q11 -14 16.5 -28.5t17.5 -27.5q3 -4 8 -6t9 -7q6 -5 10 -14t11 -18q5 -8 13 -15.5t10 -14.5t-2 -11.5t-6 -11.5q0 -2 2 -5.5t1 -6.5t-4 -6t-4 -5q-4 -28 5.5 -65.5t17.5 -74.5q4 -17 4.5 -34.5t1 -34.5t1.5 -34.5t6 -34.5q11 -5 24 -3t27 1q17 -1 34.5 -5 t34.5 -4q12 0 25.5 1.5t26.5 1.5t24.5 -2.5t20.5 -9.5q9 1 11.5 1t11.5 -1q14 -20 31.5 -37.5t35.5 -32.5q10 -41 11 -92.5t6 -97.5q-15 -2 -31 -9t-20 -18q-11 -3 -22 -2t-21.5 2.5t-21 1t-22.5 -4.5q-14 8 -30.5 6.5t-38.5 0.5q-30 2 -67 -1.5t-76 -5.5q-16 -1 -31.5 0.5 t-29.5 1.5q-15 -1 -29.5 -5.5t-36.5 1.5q-19 40 -69 62q-11 16 -26.5 28t-32.5 23q-4 75 -3.5 153t-4.5 156q-2 38 -2 76v75.5t-1.5 76t-6.5 78.5q-5 4 -8 12t0 13q19 5 39.5 8t32.5 12q31 -2 61 1t56 -7zM85 499q1 -41 5 -81.5t5 -79.5q2 -32 -1 -64.5t-1 -56.5 q1 -10 -2 -19.5t-3 -20.5q0 -8 3 -16t4 -16q2 -18 -0.5 -36t8.5 -30q35 -1 75.5 0t77.5 0q30 0 61 -1t62 -1q3 4 9 4.5t11 2.5q38 -5 75.5 -4.5t75.5 1.5q-1 18 -6 37t-10.5 38.5t-10.5 39.5t-6 39q-26 1 -46.5 1.5t-38.5 1.5t-37 2t-42 2q-4 -8 0 -24t7 -32.5t1.5 -29.5 t-15.5 -15q-7 -1 -17 3t-17 4q-9 0 -21 -2.5t-25 -4t-25 -1t-20 6.5q-5 29 -4.5 48t6.5 44q-8 15 -6 30t-2 32q-3 17 -11 34t-12 35q-3 19 -1.5 37.5t-0.5 38.5q-1 14 -7 29.5t-6 30.5q0 20 -4 37.5t-6 37.5q-2 15 -1 28t1.5 25t0.5 24t-4 26q-26 -4 -44 -7.5t-50 -3.5 q10 -49 12.5 -89t2.5 -85zM203 645q11 1 6 8t-9 9q-1 -5 2 -8.5t1 -8.5zM256 489q-2 4 -1 4.5t-1 3.5q-13 1 -10 -10q7 -1 12 2zM284 308q2 -1 1 5t-3 7q1 -3 -2.5 -7.5t4.5 -4.5zM325 159q4 6 3.5 12.5t-5.5 8.5q-10 -7 -13 -19q6 1 8 -0.5t7 -1.5zM463 65q-9 -2 -16 -1.5 t-17 -2.5v-5q7 4 17.5 4.5t15.5 4.5zM550 225q-2 -8 1.5 -13.5t-1.5 -10.5q8 1 10 4t0.5 7t-4.5 7.5t-6 5.5zM568 54q2 8 -8 7q0 -7 8 -7z" />
<glyph unicode="M" horiz-adv-x="848" d="M22 715q18 8 36 9t41 3q17 2 34 5t39 1q6 -1 12.5 -4t13.5 -4q15 -2 30 -1t29 -1q7 -1 13 -4.5t12 -5.5q12 -2 24 -0.5t23.5 2.5t22 -1t19.5 -10q-2 -22 7 -38t17 -30q10 9 16 21.5t14 24.5q2 4 5 11t7 14.5t8.5 13t9.5 6.5q9 1 13.5 -6.5t15.5 -8.5q12 -2 31 -2t34 2 q11 1 25 3t28.5 2.5t28 -1t24.5 -8.5q14 6 26.5 1.5t21.5 -11.5q7 -18 13 -36t16 -34q3 -5 7.5 -9.5t7.5 -9.5q9 -16 15.5 -38t14.5 -42q3 -8 5.5 -14.5t4.5 -13t3 -14.5t2 -20q1 -17 3 -40t3 -47.5t1 -48.5t-2 -42q-1 -8 -1 -15v-18q0 -41 -5 -82.5t0 -86.5q-1 -7 4.5 -7 t6.5 -6q-2 -15 -1 -36t-0.5 -37t-7.5 -21.5t-21 9.5q-13 -6 -28 -7t-30.5 -1.5t-30.5 -2.5t-27 -9q-5 -3 -9.5 -8t-10.5 -5q-7 0 -10.5 5t-6 11.5t-4.5 14t-6 13.5q-2 6 -5.5 2t-7.5 2q2 12 0 20t-6 15.5t-7.5 15t-4.5 17.5q-3 3 -8.5 3t-8.5 3q1 30 -2.5 55.5t-7.5 49.5 t-6 48.5t2 51.5q-5 -8 -5 -20.5t-8 -20.5q2 -14 0.5 -22.5t-8.5 -15.5q-14 -1 -28.5 -2.5t-28.5 0.5q-10 2 -17.5 6.5t-16.5 4.5q-11 1 -22 -1.5t-22 5.5q-12 22 -24 43t-28 39q-7 20 -9 45l-4 50q-5 -1 -15 -2t-17 4q4 -18 1.5 -41.5t-1.5 -46.5q0 -11 2.5 -21t4.5 -21 q1 -13 -1 -26t-1 -27q1 -17 4.5 -35t5.5 -36q1 -11 -0.5 -21.5t0.5 -21.5q1 -3 2 -6.5t2 -6.5q1 -10 -1.5 -19.5t-2.5 -17.5q0 -4 2.5 -8t2.5 -8q1 -10 0 -20t2 -21q-35 -13 -78.5 -16t-81.5 -11q-15 10 -25 26.5t-19 34t-19 34t-25 27.5q-3 30 -6 65t-6 71t-5.5 71t-3.5 65 q-7 11 -4 32t1 39q-2 36 -6 70.5t-7.5 69t-6 70.5t-2.5 75zM68 586q2 -39 5 -78t5 -78q1 -33 1 -63.5t2 -61.5q2 -29 5.5 -58t4.5 -57q1 -23 0 -44.5t7 -38.5q32 4 67 0.5t67 1.5q-5 18 -7.5 38.5t-4.5 42t-4 41.5t-6 37q-3 75 -9.5 151t-15.5 145q8 6 16.5 7.5t17.5 2t18 2 t20 6.5q9 -20 25 -33t25 -33q8 -17 14 -32.5t20 -23.5q2 -24 6.5 -48t6.5 -45q2 -8 1.5 -20.5t5.5 -16.5q7 -5 19.5 0t22.5 7q22 6 39.5 7t34.5 -7q0 6 3 7.5t5 4.5q-8 1 -10.5 5.5t-2.5 11t1.5 13.5t1.5 13q0 17 -2 34.5t-3 33.5q10 11 17.5 25t14.5 28t14.5 28t17.5 25 q1 4 -2.5 7t0.5 5q5 2 7.5 5.5t7.5 5.5q5 -10 15 -12.5t19 -10.5q-1 -36 -3 -77t-4.5 -84t-4 -87.5t-1.5 -86.5q0 -19 2.5 -37t5.5 -35.5t5.5 -35.5t1.5 -36q12 1 24 2.5t23 7.5q5 3 7 7t8 5t11 -1.5t10.5 -5t11.5 -4t14 0.5q1 17 -1 30.5t2 25.5q-11 42 -10 86t2 89 q1 30 -2.5 60t-2.5 60q0 31 2 59.5t3 55.5t-0.5 54t-7.5 55q-12 1 -24 -2q-12 9 -33 9.5t-34 2.5q-11 -10 -23.5 -6.5t-25.5 2.5q-5 0 -10 -3t-10 -3q-14 0 -27.5 2.5t-27.5 5.5q-10 -9 -15.5 -13.5t-13.5 -19.5q-3 -5 -6 -12t-7 -14.5t-8.5 -13t-8.5 -6.5q-13 -3 -21.5 7 t-15.5 25t-13.5 31t-13.5 24q-33 -8 -69.5 -6t-73 6t-71 5t-62.5 -9q-1 -27 1 -53t4 -47zM183 95q-8 0 -17 0.5t-15 -4.5q5 -1 16.5 -2.5t15.5 6.5zM219 93q-5 2 -11.5 2t-10.5 -2l12.5 -5t9.5 5zM212 539q0 9 -4 12q-1 -5 -0.5 -7.5t4.5 -4.5zM224 430q3 14 -1 15t1 -15z M269 8h-7v-6q4 0 6.5 0.5t0.5 5.5zM284 434q-1 -5 -4 -8.5t-3 -10.5q7 0 11 8t-4 11zM385 308q-6 2 -6.5 -2t-0.5 -9q5 -1 5 4t2 7zM448 314q6 1 13 0t8 6q-5 -2 -12.5 2t-13.5 0q2 -2 4 -3t1 -5zM618 70q2 2 1.5 5t1.5 5q-5 -2 -11 -3t-9 -5q6 -2 8.5 -1t8.5 -1zM707 450 q-1 7 1 10.5t0 10.5q-3 0 -3.5 -4t-0.5 -8t1 -7t2 -2zM708 613q3 1 6.5 1.5t3.5 3.5q-3 12 -4.5 25t-6.5 24q-1 -14 1 -27t0 -27zM740 399q2 5 0.5 9.5t-3.5 8.5q-2 -5 -4.5 -8.5t-2.5 -10.5q7 -2 10 1z" />
<glyph unicode="N" horiz-adv-x="734" d="M82 718q3 -21 2 -46t-1.5 -51t0 -50.5t6.5 -44.5q2 -8 1.5 -14t1.5 -14q2 -7 -0.5 -13t-3.5 -14q0 -13 3.5 -26t3.5 -25q-2 -35 -6.5 -73.5t2.5 -75.5q2 -5 6 -9t4 -9q-5 -20 -4.5 -40.5t3.5 -41t5.5 -41t1.5 -39.5q6 -4 14 -5t17 -1.5t17 -1t14 -3.5q4 6 3.5 15t4.5 14 q-8 14 -3.5 34t5.5 42q1 32 -2.5 66.5t-9 69t-9.5 68t-2 63.5q31 2 58.5 -7.5t50.5 -19.5q21 -34 42.5 -69.5t41.5 -73.5t37 -79t29 -86q39 5 70.5 1t67.5 -11q4 17 2.5 34.5t3.5 35.5q-9 27 -11 56t-0.5 59t5 61t5.5 62q5 72 5 141.5t3 149.5q-18 -2 -44 -4t-47 -5 q-3 -12 -1.5 -26t2.5 -28t0 -26.5t-7 -22.5q4 -27 0.5 -53.5t-9.5 -52t-10.5 -51t-2.5 -51.5q-30 -5 -59.5 -1.5t-53.5 16.5q-6 16 -4.5 33.5t-4.5 34.5q-8 20 -18 44t-20.5 48t-20.5 45.5t-18 36.5q-4 8 -11.5 13t-15 9.5t-15 9.5t-11.5 13q-17 -2 -31.5 1.5t-30.5 4.5 q-8 0 -22 -2.5t-26.5 -3t-19 4.5t1.5 20q8 8 23 7t29 -1q22 -1 45.5 -3.5t55.5 2.5q5 -6 15.5 -8.5t19.5 -5.5q22 -19 43 -38.5t33 -47.5q7 -10 17 -13.5t18 -12.5q10 -11 14.5 -26t5.5 -32.5t1.5 -36t3.5 -35.5q6 -6 10 -12.5t12 -11.5q13 29 16 60t7 66q1 9 5 18t5 17 q1 14 -0.5 29.5l-3 31t-2.5 30.5t2 29q17 7 36 5t39 -1q24 2 46.5 8.5t42.5 4.5q8 -21 22.5 -35.5t28.5 -33.5q8 -11 18 -22.5t13 -21.5q5 -15 0 -30.5t-5 -32.5q0 -9 2.5 -17.5t1.5 -18.5q-2 -29 -1 -61t3 -61q1 -14 -1.5 -28.5t-1.5 -28.5q4 -63 4.5 -123t-7.5 -120 q-5 -9 -6 -21.5t0.5 -25.5t4.5 -24t7 -18q-14 -11 -36.5 -14.5t-47.5 -2t-47.5 8t-36.5 15.5q-20 -2 -36.5 -6.5t-40.5 -3.5q-14 23 -24 48t-32 41q-9 57 -29.5 103t-45.5 88q-8 -8 -11.5 -17.5t-5.5 -20.5q-1 -6 1 -11.5t2 -11.5q0 -17 -4 -34t-3 -35q4 -46 6.5 -95.5 t7.5 -91.5q-12 -12 -26.5 -10.5t-33.5 0.5q-16 -2 -31 -11t-30 -8q-13 1 -19 10.5t-14 18.5t-19 19.5t-22.5 22t-22 23t-17.5 22.5q-8 78 -16 153t-6 159q0 5 2 9.5t2 9.5q-1 14 -5.5 26.5t-5.5 26.5q-1 15 1.5 30.5t3.5 30.5q1 39 -1 77t2 81q1 11 10.5 29.5t23.5 25.5z M202 173q1 -18 -3.5 -41.5t2.5 -46.5q6 19 5.5 42t-4.5 46zM200 431q-4 -1 -5 1t-6 0q1 -9 -1 -19.5t2 -20.5q7 10 5 20.5t5 18.5zM316 585q0 -14 2 -8.5t0 14.5q-2 0 -3.5 1t-3.5 -2q3 0 3 -2t2 -3zM590 488q1 -5 -0.5 -12.5t3.5 -10.5q0 8 2 13.5t-5 9.5zM596 580 q2 -21 -1.5 -34.5t1.5 -32.5q-1 17 4 35t-4 32zM617 635q1 8 1.5 15t4.5 12q-8 5 -12 12t-12 12q-3 -8 -1 -14.5t5.5 -12.5t7.5 -11.5t6 -12.5z" />
<glyph unicode="O" horiz-adv-x="632" d="M579 487q-2 -14 -0.5 -28t0.5 -28q0 -17 -3.5 -35.5t-4.5 -36.5q0 -8 1.5 -14.5t0.5 -14.5q-1 -14 -4.5 -28t-2.5 -28q0 -4 1 -8.5t0 -8.5q-1 -14 -3.5 -26.5t-3.5 -28.5q-2 -32 -5.5 -53t-4.5 -49q-2 -32 -6 -63.5t-9 -62.5q-5 -4 -10.5 -4t-10.5 1.5l-10 3t-10 1.5 q-7 -1 -14.5 -3.5t-14.5 -2.5q-38 -2 -75 -2h-73.5t-73 -1.5t-73.5 -6.5q-12 9 -23 21.5t-22 24t-24 20.5t-30 12q-5 5 -0.5 8.5t4.5 8.5q-5 9 -13.5 14t-13.5 13q2 42 2 78t-4 81q-1 7 -0.5 14t0.5 15q2 26 1 53t1 56q2 26 5.5 53t4.5 53q1 29 5.5 54.5t-3.5 50.5 q-3 8 -2 16t3 15.5l4 15t2 15.5q-1 14 0.5 26.5t5.5 20t11 9.5t18 -5q1 -6 -1 -19t-4.5 -28.5t-3.5 -30.5t1 -26q2 -6 -2.5 -11t-2.5 -12q2 -11 3 -34t1 -41q0 -26 -2.5 -53.5t-7.5 -53.5q5 -37 4 -75.5t-2 -79.5q-1 -14 3 -28t5 -28q0 -10 -4 -18.5t-6 -18.5q-2 -17 0 -31 t4 -29q35 -7 68 -2.5t66 2.5q8 0 16 -2t16 -2q13 1 25 5.5t26 6.5q19 2 37 0.5t33 5.5q5 -6 13 -6.5t16.5 0t17.5 -0.5t15 -9q1 145 12.5 300.5t28.5 297.5q-42 5 -94.5 4t-103.5 -2q-32 -1 -59 -3t-56 -3q-13 -1 -28 -5t-26 4q-10 -5 -24 2t-19 16q3 7 6.5 9t7.5 1.5t8 -2 t8 -1.5q11 1 27 5.5t33 6.5q28 4 64 3.5t71 -1.5q34 -1 70.5 0.5t65.5 1.5q32 0 52 -1t33 -19q-4 -26 10 -49t25 -49q5 -11 8 -21t8 -18q6 -10 14 -22t7 -30q0 -6 -2.5 -11t-3.5 -11zM145 55q9 0 19.5 -0.5t15.5 4.5q-8 2 -20 0t-15 -4zM474 429q4 0 5 2t3 4q-2 3 -5.5 1 t-2.5 -7zM492 574q2 2 2.5 9t-2.5 9q0 -5 -1.5 -9t1.5 -9zM496 603q5 8 6 16t-6 15q-3 -14 0 -31zM168 243q-1 8 2 17t4 20q2 35 0 78.5t-2 84.5q0 26 1.5 49t12.5 40q20 2 37.5 5t37.5 6q13 2 25.5 7.5t24.5 10t24 5.5t23 -5q-4 -62 -13 -121.5t-14 -122.5q-1 -11 0.5 -21 t1.5 -20q-1 -18 -7 -36t-5 -38q-14 -2 -30.5 -0.5t-35 3.5t-38 3t-37.5 -2q-6 5 -4 11t0 12q-2 5 -4.5 7t-3.5 7zM329 541q-4 -1 -8.5 2t-4.5 -3q7 -1 9 -6l4 -10v17zM302 437q2 -12 -1.5 -20t-10.5 -15q2 -32 4.5 -69t11.5 -63q-2 47 3.5 88t9.5 83q-5 0 -9 -1t-8 -3z M250 522q-4 3 -10 2t-8 -6q14 0 18 4z" />
<glyph unicode="P" horiz-adv-x="577" d="M195 571q32 -1 57 1t54 -3q-4 -33 0.5 -69.5t-0.5 -69.5q-9 -2 -20 -5t-22 -5t-22 -2t-20 4q-14 -7 -28 -8t-21 14q3 15 1.5 33t-4 37.5t-3 39.5t3.5 38q7 4 13 0.5t11 -5.5zM272 518q5 0 7.5 -1.5t4.5 3.5q-5 4 -1.5 9t-4.5 6q-2 -4 -4.5 -7t-1.5 -10zM522 539 q4 -6 8.5 -11t8.5 -10q-1 -63 -6.5 -130t-4.5 -135q-8 -7 -9 -16t-6 -18q-11 -4 -18.5 1t-17.5 7q-8 1 -18.5 -1.5t-22.5 -2.5q-12 1 -23 2.5t-22 -0.5q-15 -2 -28 -4t-30 -5q-15 -3 -30.5 -7t-30.5 7q5 -19 0.5 -38t-1.5 -38q0 -5 2.5 -7.5t4.5 -7.5q2 -7 3.5 -16.5 t2.5 -16.5q1 -15 -2.5 -30t-1.5 -29q1 -4 3.5 -6t2.5 -7q-1 -5 -3.5 -11t-2.5 -11q0 -13 4.5 -25t1.5 -24q-9 0 -18.5 -1t-19 -1t-18 1.5t-14.5 7.5q-19 -7 -37.5 -5t-41.5 2q-5 0 -7 3.5t-6 5.5q-9 1 -11 -3t-10 -1q-7 9 -17 19.5t-15 23.5q-5 17 -5.5 35.5t-5.5 34.5 q-2 5 -5 9.5t-4 9.5q-2 5 -1 11t1 11q-3 38 -6.5 73t-1.5 74q2 49 1.5 99.5t-0.5 101.5t2 101t10 100q0 4 2 13t6 17.5t9.5 13.5t13.5 1l5 -12.5t0 -12.5q7 -11 4.5 -24t-7 -26.5t-9 -26.5t-1.5 -24q-1 -61 -2 -124.5t4 -117.5q-3 -14 -2.5 -31.5t1 -36t0 -36.5t-4.5 -33 q5 -30 7.5 -63t0.5 -61q26 -5 51.5 -7.5t51.5 3.5q-2 37 0.5 78t-2.5 80q-2 19 -7.5 38t2.5 37q54 6 103.5 7.5t108.5 5.5q3 45 3 89.5t1 88t4 86.5t11 86q-8 5 -15 6t-15 -4q-8 3 -17.5 3.5t-18.5 0.5q-24 0 -47 2.5t-51 3.5q-8 0 -17 -2t-17 -2q-9 0 -18 2t-17 2 q-13 0 -28 -1.5t-29.5 -0.5t-26.5 6.5t-20 18.5q8 7 16 5t18 -1q25 1 47.5 7t44.5 -1q30 4 60.5 3.5t61 -3t60.5 -4.5t57 0q3 -14 8 -25.5t13 -19.5q1 -15 7.5 -24t16.5 -16q8 -21 20.5 -39.5t18.5 -46.5zM194 46q8 2 7 10q-2 0 -6 2q-2 -2 -3.5 -5.5t2.5 -6.5zM207 285 q4 1 5 -1t6 -1q1 4 -6 5.5t-5 -3.5zM428 432q-5 -3 -6.5 0.5t-2 7.5t-0.5 6.5t-2 -1.5q2 -11 1 -29.5t3 -34.5q5 11 5.5 24t1.5 27zM423 296q4 15 6.5 32.5t-8.5 28.5q-2 -16 -2 -31.5t-2 -32.5h4.5t1.5 3zM496 537q5 -2 5.5 1t0.5 6q-6 1 -6 -7z" />
<glyph unicode="Q" horiz-adv-x="687" d="M631 139q11 -11 20.5 -18t9.5 -25q0 -10 -4.5 -18.5t-10 -16t-11 -15.5t-8.5 -17q-2 -13 -8 -22t-8 -21q-8 -5 -13 -14.5t-9.5 -19t-11 -17t-16.5 -7.5q-10 -1 -21.5 10t-19.5 19q-11 10 -20 17.5t-17 15.5q-29 -1 -60 -3.5t-62.5 -7.5t-61.5 -12.5t-56 -19.5 q-9 3 -20.5 2.5t-19.5 4.5q2 5 -1 5t-4 2q-4 26 -16 45.5t-27 39.5q-11 15 -22.5 30t-19.5 29q-3 5 -6.5 12.5t-5.5 14.5q-1 5 0 9.5t0 9.5q-1 7 -3 13.5t-4 12.5q-4 29 -2 60.5t-1 64.5q-2 26 -4.5 53.5t-7.5 53.5q-6 38 -13 76.5t-12.5 76.5t-7 76.5t3.5 77.5 q28 3 54 -0.5t54 -2.5q29 0 61 4t65 2q42 -2 77.5 -4t77.5 3q19 2 38.5 6t36.5 -3q1 -26 12 -50.5t25 -49.5q7 -13 11 -26.5t9 -24.5q2 -5 6 -9t6 -9q2 -8 -1 -15.5t-4 -16.5q0 -11 3 -21.5t-4 -19.5q8 -18 4 -32.5t-6 -29.5q-2 -17 -1 -35.5t2.5 -37.5t1 -36t-6.5 -30 q0 -6 1.5 -10t1.5 -9q-5 -8 -6.5 -18.5t-3.5 -20.5q7 -11 12 -22.5t15 -22.5q6 -7 14.5 -11.5t14.5 -10.5q3 -3 5.5 -6.5t5.5 -7.5zM559 537q-3 1 -7 2t-6 -3q3 1 7 -1t6 2zM197 102q6 -1 11 -3.5t13 -1.5q-3 3 -12.5 6t-11.5 -1zM239 36q-2 -3 -0.5 -12t5.5 -5q-4 2 -2.5 9 t-2.5 8zM402 103q2 -4 3.5 -8t8.5 -2q-1 5 -5 6t-7 4zM501 -8q5 1 7 -5t5 -3q-3 2 -5 7.5t-7 0.5zM533 -9q5 -2 6 2t-1 5q0 -2 -5 -2v-5zM557 -58q1 3 2 5.5t-1 4.5q-5 0 -5.5 -3t-2.5 -6q3 1 7 -1zM526 23q14 29 26.5 57.5t26.5 57.5q-23 29 -53.5 49.5t-56.5 46.5 q6 34 3 67t-4 65q-1 42 1 81t4.5 77.5t3.5 77t-2 80.5q-41 1 -76.5 -1t-75.5 2q-45 2 -93 -2.5t-85 -2.5q-13 1 -26.5 0.5t-24.5 1.5q-5 2 -9 0.5t-9 -1.5q-5 -17 -1 -26.5t8 -21.5q4 -14 5 -26t1 -24v-24.5t2 -28.5q2 -12 4.5 -23t4.5 -22q1 -7 -0.5 -14t-0.5 -14 q2 -20 7.5 -41.5t6.5 -44.5q1 -4 0 -8.5t-1 -9.5q0 -14 3 -27.5t4 -27.5q1 -23 -1 -45.5t-3 -43.5t2.5 -39t15.5 -32q32 -8 65 -12.5t65 -11.5q34 3 71.5 6t76.5 -1q8 -9 18 -16t20 -15q11 -9 19 -18t18 -17t20.5 -16t19.5 -12zM497 370q-7 17 -4.5 38.5t0.5 41.5 q-2 -23 -3 -46t1 -43v-1q0 -1 1 -2q-1 1 -1 3q1 4 4 4.5t2 4.5zM362 454q-1 -5 3 -3.5t5 -2.5q1 -8 -4 -11.5t-7 -8.5q-2 -21 -5 -40.5t-5 -39t-1 -39t7 -40.5q-8 -9 -11.5 -5.5t-14.5 6.5q-3 1 -12 2t-19.5 2t-21 1h-16.5q-10 -1 -18 -2.5t-15 -3t-13.5 -1t-12.5 4.5 q-2 3 0 4q-4 43 -3 88t2 91q0 29 -6 57t-3 57q41 2 80.5 3.5t81.5 -5.5q7 -29 7 -56t2 -58zM322 461q1 -4 -1.5 -4.5t-1.5 -3.5q2 -1 3 -2t4 0q-2 2 -2 5t-2 5zM286 296q-2 11 -2 24t-3 22q-2 -11 -1.5 -24.5t6.5 -21.5zM329 284q-4 22 -3.5 41.5t3 37.5t5 35t1.5 35 q-7 -1 -13 0.5t-11.5 3.5t-10.5 3t-11 0q0 -36 2.5 -71.5t10.5 -72.5q8 -2 13.5 -6.5t13.5 -5.5zM336 532q-4 1 -4.5 -0.5t-3.5 -1.5v-7l4 2l4 -1v8z" />
<glyph unicode="R" horiz-adv-x="689" d="M568 283q-2 -13 3.5 -20t10.5 -15q3 -27 4.5 -58l3 -62t3 -61.5t4.5 -56.5q1 -7 -4 -9t-5 -8q-2 -9 1.5 -12.5t0.5 -10.5q-8 -5 -13.5 -4.5t-12.5 5.5q-24 -5 -53 -2.5t-55 -4.5q-16 15 -28 34t-22.5 39t-21.5 39.5t-26 35.5q-8 36 -11 68t-9 66q-14 -2 -25.5 -1.5 t-21.5 -1.5q-9 -39 -4 -79t6 -76q0 -13 -3.5 -26t-2.5 -25q0 -20 4.5 -40t-2.5 -40q-5 -4 -9 -3.5t-8 3t-8.5 5t-8.5 2.5q-7 1 -12.5 -1.5t-11.5 -1.5q-8 0 -16 4t-16 5q-8 0 -13 -2t-11 2q-25 31 -49.5 61.5t-52.5 58.5q2 14 -1 20t-3 22q0 5 -3.5 7t-6.5 5q1 11 -2 24.5 t4 21.5q-8 30 -7 64.5t-1 68.5q-2 46 -1 91t1 88t-1.5 84t-8.5 79q6 4 3 15t3 18q5 2 10.5 1.5t10 -0.5t8 1.5t5.5 6.5q122 2 231 0.5t220 1.5q5 -2 7.5 -7.5t10.5 -5.5q13 -47 37 -84.5t44 -77.5q6 -54 8 -116t2 -119q-18 -3 -39.5 -6t-35.5 -10zM623 315q-5 -2 -12 -1.5 t-6 -7.5q6 5 12.5 0.5t11.5 -0.5q-2 2 -4.5 3.5t-1.5 5.5zM189 197q0 6 -0.5 11t-5.5 7q2 -7 0 -11.5t6 -6.5zM265 219q-2 5 1.5 9.5t-1.5 6.5q-2 -2 -2.5 -8t2.5 -8zM273 -16q2 3 1.5 8t0.5 10h-12q2 -5 4 -9.5t6 -8.5zM336 263q2 2 2.5 7t-6.5 7q2 -5 0.5 -7t-2.5 -6 q4 1 6 -1zM448 -12q2 2 7.5 1t4.5 4q-1 3 -6 2t-8 0q0 -2 1 -3.5t1 -3.5zM488 292q1 5 0 8l-2 6q-7 0 -4.5 -7t6.5 -7zM504 416q0 7 -6 7q-2 -9 6 -7zM428 437q7 8 20 9t27 0t27.5 -1.5t23.5 3.5q-1 29 -2 55.5t-1.5 54t-0.5 57t2 64.5h-11h-15t-15 0.5t-11 3.5 q-50 -2 -99 -1.5t-98.5 1t-100 -1t-102.5 -7.5q5 -145 11 -281t18 -278q13 -11 30.5 -10t37.5 3q4 15 4 30.5t-1.5 31.5t-3.5 32t-3 32q-1 14 1.5 27t0.5 27q-2 16 -5.5 31t-6.5 30t-4 30t4 29q42 1 83.5 3t81.5 -1q5 -5 9 -11t7 -13q-3 -20 -1 -35.5t5.5 -29.5t7.5 -28 t6 -30q2 -18 3.5 -37t3.5 -37t7 -35t14 -32q7 -2 17 0t21 -3q4 3 1.5 6.5t4.5 4.5q7 -5 11.5 -6t9.5 -1t11.5 0.5t15.5 -1.5q-3 39 -5 79.5t-6.5 80.5t-12.5 79t-22 76zM528 421q1 -5 6.5 -4.5t7.5 4.5h-14zM540 634q0 -9 -0.5 -18.5t4.5 -14.5q-1 13 1.5 19.5t-5.5 13.5z M544 583q0 3 1.5 4.5t0.5 6.5q-5 2 -4.5 -4.5t2.5 -6.5zM542 -9q5 0 8.5 0.5t7.5 1.5q-6 6 -11.5 16t-10.5 12q-1 -4 1.5 -7.5t4.5 -7t3 -7t-3 -8.5zM558 31q-5 2 -8 5t-8 5q2 -6 5 -10.5t11 -4.5v5zM550 73q3 -1 5.5 -2.5t8.5 -0.5q0 6 -2 10.5t-10 3.5q0 -3 -2 -4.5 t0 -6.5zM538 670q6 -17 13.5 -30.5t18.5 -20.5q-10 12 -16.5 26t-15.5 25zM418 545q2 -7 -2 -10t-6 -7q2 -7 2 -19.5t-2 -20.5q-22 0 -43 -1t-41 -1q-9 0 -20 1t-19 7q-5 -3 -9.5 -2.5t-9 1.5t-9 1t-8.5 -4q-6 3 -9 5t-5.5 3t-6 0.5t-10.5 -2.5q-7 2 -13.5 3t-14.5 2 q-8 26 -9 54t-6 63q18 -1 30.5 0t23 1.5t21.5 -1.5t26 -9q25 -1 52.5 2t62.5 2q9 -7 11.5 -15.5t3 -17.5t2 -18t8.5 -17zM214 517q0 4 -2 8q-5 2 -4.5 -1.5t0.5 -6.5h6zM390 510q2 6 0.5 10t-0.5 12q-21 11 -43 10.5t-52 0.5q-7 -3 -6.5 -12t-1.5 -15q5 -2 6.5 -5.5 t6.5 -3.5q20 -2 45.5 0t44.5 3z" />
<glyph unicode="S" horiz-adv-x="661" d="M606 -11q-9 -3 -11 -13t-5 -19q-45 0 -93 -1.5t-93 4.5q-5 1 -10.5 3.5t-10.5 2.5t-11.5 -2.5t-11.5 -3.5q-11 -1 -21 2.5t-18 1.5q-11 -1 -22.5 -4.5t-27.5 -2.5q-17 0 -32 -5t-25 -3q-15 2 -28 17t-10 35q-6 9 -15 15.5t-18.5 12t-19.5 11t-17 13.5q-2 8 -5 14t-11 8 q7 8 2.5 12t-8.5 13q7 15 6 31t-4 33t-5.5 34t2.5 34q20 -6 40 -2.5t41 0.5q8 -2 15.5 -5.5t15.5 -4.5q18 -2 36 1t36 3q12 0 23 -3t22.5 -6.5t22.5 -6t23 -1.5q2 2 1.5 8t0.5 11q-5 3 -16 6t-13 2q-5 -2 -7.5 0.5t-6.5 3.5q-3 0 -7.5 -1.5t-7.5 -0.5q-14 1 -35 5.5t-39 3.5 q-8 0 -15.5 -4t-15.5 -2q-11 3 -19.5 13.5t-17.5 16.5q-18 0 -27 10.5t-18 21.5q-5 8 -12 12t-13 10q-1 1 0.5 3.5t-0.5 4.5q-1 0 -3 -0.5t-3 0.5q-5 8 -6 16t-9 13q2 31 -6.5 62.5t-12.5 66.5q-6 54 -2 111.5t5 111.5q41 2 79 0t75.5 -4t75 -2t77.5 6q10 -4 20.5 -4t21 1.5 t20 4t17.5 2.5q19 1 39 -6t37 -2q16 -11 25 -26.5t16.5 -33t15.5 -34t22 -28.5q4 -12 5 -24.5t0.5 -26l-1 -27t1.5 -28.5l7.5 -7.5t4.5 -10.5q-8 -9 -20 -13t-21 -8q5 -24 20 -40t26 -37q-3 -3 -1 -8.5t1 -11.5q0 -21 -3 -44.5t-6 -46.5q-2 -11 -1 -22.5t-1 -22.5 q-2 -8 -4.5 -16t-3.5 -16q-3 -33 1 -67t3 -67q-1 -14 0.5 -26.5t3.5 -26.5zM583 158q-2 8 -0.5 12.5t1.5 10.5q-2 -1 -3.5 -4.5t-2.5 -7.5t0 -7.5t5 -3.5zM567 117q0 -8 -3 -13t3 -10q2 6 3 11.5t-3 11.5zM532 474q-6 2 -6 -5t2 -9q7 -1 6.5 4.5t-2.5 9.5zM491 606 q5 11 6.5 31t-4.5 33q-17 7 -33.5 7.5t-33.5 -1t-34 -4t-34 -2.5q-25 -1 -52 5t-55 8q-15 2 -29.5 -5t-30.5 -5q-28 11 -59 8.5t-57 -0.5q4 -46 4 -86v-86q0 -45 10.5 -86t10.5 -77q66 -2 141.5 -3t147.5 -5q0 -4 1 -4.5t2 0t2 0.5t1 -3q1 -4 0 -5t-3 -1t-4 -0.5t-1 -3.5 q0 -23 -3 -41t-5.5 -34.5t-3 -32.5t3.5 -34q-11 -7 -26 -4.5t-26 8.5q-5 1 -7 -1t-7 -1q-12 7 -25.5 8.5t-27.5 0.5t-28 -2.5t-27 -0.5q-20 2 -39 9t-39 -1q-4 1 -5.5 3.5t-7.5 0.5q-8 -9 -9 -20t0.5 -23t4 -24.5t2.5 -23.5q25 -8 49 -8t51 -2q30 -2 56.5 -1.5t53.5 0.5h55 t60 -1q3 0 4.5 -1.5t2.5 -3t2.5 -3t4.5 -0.5q13 0 20.5 2t19.5 4q2 27 -1 55t-2 52q0 16 4 31.5t3 30.5q-1 14 -3.5 26t-3.5 26q-2 30 0.5 59t4.5 55q-63 2 -133.5 3.5t-141.5 12.5q-2 13 -5.5 27t-6 28.5t-3 29.5t3.5 31q73 0 142.5 1t140.5 7q7 8 6.5 17.5t-5.5 19.5z M474 71q3 1 10.5 2t3.5 6q-1 -2 -4 -2t-5.5 -0.5t-4 -1.5t-0.5 -4zM433 71q4 1 9 -0.5t7 2.5q-4 2 -9 2t-7 -4zM385 526q-1 -2 4.5 -1t6.5 3q-1 2 -7 2.5t-4 -4.5zM360 325q2 -1 2 -6h7q-2 6 1.5 6.5t2.5 5.5q-7 0 -13 -6zM358 301q-5 -2 -3 -11.5t7 -11.5q1 5 2 14t-6 9z M323 73q5 -3 15.5 -2t13.5 6q-8 -1 -15.5 -1.5t-13.5 -2.5zM129 77q2 -4 11.5 -4.5t13.5 2.5q-3 -1 -11.5 2t-13.5 0z" />
<glyph unicode="T" horiz-adv-x="776" d="M735 420q-8 -11 -19.5 -11t-28.5 -1q-11 0 -24.5 -4t-27.5 -6q-8 -1 -18 -0.5t-20 -0.5t-18 -4t-12 -12q0 -21 -2 -41t-4.5 -39.5t-5 -39.5t-3.5 -43q7 -30 8.5 -61.5t1 -63t-1.5 -64t1 -64.5q-14 -2 -27 -7.5t-27 -7.5q-19 -3 -38.5 -1t-39 5t-38.5 6t-37 2 q-9 27 -25 47t-35 37q-5 16 -21 25q-7 51 -10 97t-4.5 90.5t-1.5 90t-1 94.5q-16 2 -30.5 3t-29.5 0q-11 0 -21 -4.5t-19 -3.5q-11 1 -19.5 8.5t-15.5 17.5t-13 21.5t-11 19.5q-8 12 -18 20t-18 18q0 37 -6.5 69.5t-4.5 66.5q-3 0 -2 -4t0 -6q-5 9 -5.5 18.5t-2.5 20.5 q3 3 6 1.5t5 -3.5q-2 8 2 8.5t6 5.5q21 7 43.5 9t45.5 1.5t47 -1.5t48 -1q43 0 90 -2.5t94 -5.5t92 -6t85 -3q8 0 15.5 2t15.5 1q10 -2 18.5 -9.5t18.5 -11.5q-2 -10 0.5 -18.5t6.5 -17t7 -17t2 -17.5q6 -11 14 -17.5t6 -22.5q18 -14 22.5 -32.5t4 -40t-2.5 -45t3 -45.5z M644 619q0 -8 -2 -18q3 -3 5 0.5t6 3.5q3 15 -9 14zM621 674q-17 6 -36 2.5t-37 -1.5q-5 1 -10 3.5t-10 2.5q-9 1 -18.5 -1.5t-19.5 -2.5q-8 0 -15.5 2t-15.5 3q-66 3 -130 0q-46 -2 -88.5 0t-80.5 2q-3 -5 -10 -5.5t-13 -2.5q-11 9 -28.5 10t-34.5 -6q-6 -12 -6.5 -22 t2 -20t6 -20.5t4.5 -23.5q-5 0 -6 -4.5t-0.5 -10.5t1.5 -11.5t1 -8.5q37 2 71.5 2t72.5 2q24 2 43 1.5t25 -20.5q-6 -20 -2.5 -41.5t5.5 -41.5q3 -29 1.5 -57.5t-3 -57.5t-1.5 -58t6 -59q-2 -20 -2 -38t1.5 -36t3 -37.5t3.5 -41.5q19 -3 38.5 -2.5t39.5 2.5t40.5 4.5 t40.5 2.5q1 4 0 11.5t3 12.5q-4 36 -3.5 76t2 81.5t2 83.5t-2.5 84q-2 30 -10 57t-5 54q7 7 11 1.5t12 -5.5q10 1 25 -1t30.5 -3.5t29 0t20.5 9.5q12 -6 26.5 -5t27.5 0q-3 35 -2 68t-4 67zM486 91q-2 -7 0.5 -10.5t1.5 -10.5q-9 -2 -10 -8q1 -4 4.5 -5.5t5.5 -3.5 q0 12 4 22t-6 16zM468 -19q5 -2 13 -3.5t10 5.5q-6 2 -13.5 3.5t-9.5 -5.5zM427 -2q-8 -2 -8 -8q3 -6 12 -6q0 5 -2.5 7t-1.5 7zM359 3q0 -12 6 -14q0 2 4 2q0 12 -10 12zM198 470q8 -1 8.5 4.5t2.5 10.5q-11 -2 -11 -15zM191 533v-13t6 -8q-3 4 -1.5 12t-4.5 9zM136 488 q2 0 2 -4q4 0 4.5 2t-0.5 3.5t-3 2t-3 -3.5zM102 542q0 -2 -6 -2q2 -9 8 -10q2 2 2 7t-4 5z" />
<glyph unicode="U" horiz-adv-x="753" d="M670 10q-25 -14 -53.5 -14t-62.5 -2q-8 0 -15.5 -3t-15.5 -4q-14 -2 -30 -1.5t-32 1.5q-8 0 -17 -2.5t-16 -1.5q-13 1 -23 4t-23 2q-37 -3 -74 -5.5t-72 -16.5q-27 17 -51 33.5t-50 36.5q-14 1 -23 7t-17 14q3 28 -12 39q-8 76 -11.5 150t-7.5 148t-8.5 150t-13.5 157 q2 7 6 6.5t0 8.5q38 7 74.5 2.5t73.5 -4.5q4 0 9.5 1.5t9.5 0.5q10 -2 17.5 -9t14 -16.5t12.5 -19.5t12 -17q7 -8 15.5 -15.5t13.5 -15.5t8 -16t10 -15q-5 -57 -4 -118t4 -124q1 -22 0.5 -43t-4.5 -44q5 -8 5.5 -16.5t2.5 -16.5q27 2 60.5 1t61.5 1q0 60 11 128t20 137 q3 25 1.5 50t-4 50.5t-3.5 51.5t2 52q6 -1 9.5 0.5t6 3t5 3.5t6.5 2q3 -3 2 -4t-2.5 -2t-3 -2.5t-0.5 -4.5q38 -5 69.5 -2.5t68.5 -3.5q16 -35 37 -64.5t42 -59.5q-9 -33 -12 -64t-4 -62.5t-1.5 -64t-3.5 -67.5q-2 -10 -4.5 -18.5t-3.5 -18.5q-1 -8 0.5 -16.5t-0.5 -16.5 q-1 -5 -3 -8.5t-3 -8.5q-3 -26 -0.5 -51.5t0.5 -51.5q-2 -28 -7 -54.5t1 -55.5zM657 533q-5 0 -7.5 -2.5t-4 -5.5t-3.5 -5t-8 0q2 -5 -1 -13t-3 -15v-7v-7t0.5 -3t1.5 6q2 6 2.5 13.5t2.5 13.5q6 3 10.5 1.5t9.5 0.5q2 3 2 11.5t-2 11.5zM655 51q-5 -6 -7.5 -15t9.5 -11 q4 11 1 15t-3 11zM575 242q4 47 12 89l16 84q7 36 10 67.5t3.5 61t-2.5 59.5t-8 63q-31 2 -58 1.5t-56 0.5q-4 -24 -3 -45t3 -41t3.5 -40t0.5 -42q-2 -20 -6 -40.5t-6 -40.5q-2 -42 -6.5 -83t-8.5 -86q2 -8 2 -21.5t-8 -19.5q-3 -2 -13.5 -2.5t-23 -0.5t-24.5 1t-18 1 t-13.5 2t-12.5 1q-8 0 -17 -3.5t-18 -3.5q-24 -2 -45 1.5t-38 5.5q-4 7 -9.5 11t-9.5 11q0 81 -6 164q-3 38 -2.5 73.5t0.5 70t-2 68t-10 68.5q-32 7 -69.5 6.5t-73.5 1.5q6 -26 7.5 -42t6.5 -42q4 -24 12.5 -47.5t10.5 -47.5q0 -6 -1.5 -11.5t-0.5 -11.5q0 -7 2.5 -13 t3.5 -12q1 -24 -1.5 -47.5t-0.5 -44.5q1 -10 3.5 -19t2.5 -19q-1 -11 -3 -21.5t-1 -21.5q0 -8 2.5 -15.5t2.5 -15.5q2 -38 3 -76t11 -75q45 -1 88.5 -3t85.5 -1q41 1 80 6.5t75 3.5q29 -2 59.5 -4.5t59.5 -1.5q4 35 5 67t4 72zM335 80q1 -5 9.5 -6t11.5 2q-7 4 -21 4z M234 665q-3 -8 1.5 -15.5t4.5 -15.5q14 5 9.5 16t-15.5 15zM242 504q-2 -5 -4 -15q6 0 10 -2q1 4 1.5 8.5t2.5 8.5h-10zM211 20q5 -1 7 5t-1 8q-3 -2 -6.5 -5.5t0.5 -7.5zM192 70q4 1 9.5 -0.5t7.5 2.5q-5 1 -9 1t-8 -3zM168 68h13t9 4q-5 -2 -13 0t-9 -4z" />
<glyph unicode="V" horiz-adv-x="801" d="M552 6q0 -4 2 -5.5l4 -3t3.5 -4t1.5 -6.5q-27 -5 -59 -6q-26 -1 -53 3t-48 1q-5 -1 -11.5 -5t-11.5 -5q-11 0 -19.5 7t-18.5 1q-3 4 -7.5 6.5l-9 5t-7.5 6t-4 10.5q-6 7 -15.5 10.5t-17.5 9.5q-1 1 -1.5 5t-2.5 6q-5 5 -12.5 9.5t-12.5 10.5q-5 5 -7 11.5t-7 11.5 q-4 5 -8.5 7t-7.5 6q-5 6 -13 22l-12 24q-6 12 -9 26.5t-6.5 29.5t-9 29.5t-14.5 26.5q-4 36 -15.5 74t-25.5 70q-8 18 -11.5 37.5t-10.5 38.5q-20 54 -36 110t-36 111q11 4 24 5t26 1h26.5t26.5 2q9 2 16.5 5.5t16.5 4.5q25 2 43 -9t33 -26t29.5 -30.5t32.5 -22.5 q2 -19 6.5 -37t9 -35.5t7.5 -33.5t3 -31q11 -29 16 -60l10 -62t12 -60t21 -53q16 2 26 -1.5t9 -20.5q-12 -2 -28.5 -4t-33 -2.5t-31.5 2.5t-24 12q-2 11 -4 17t-8 14q-2 19 -7.5 37t-9.5 43q-5 29 -14 55q-3 10 -8.5 19.5t-7.5 18.5q-2 8 -1 16t-1 16q-1 4 -4 6.5t-5 6.5 q-10 20 -12.5 43.5t-12.5 44.5q-4 9 -10 17t-10 17q-3 9 -2.5 14.5t1 10t-0.5 9.5t-8 11q-19 2 -26 15q-22 -9 -47.5 -5.5t-45.5 3.5q8 -24 16 -45t15.5 -42t14 -44.5t12.5 -53.5q22 -47 36 -100t27.5 -105.5t31.5 -100.5t48 -85q48 -5 89.5 -9.5t86.5 -18.5q15 8 18.5 26 t5.5 37q26 62 51 124.5t48 128.5q5 16 13 30t13 29q3 8 3.5 16t4.5 16q9 20 22 37t24 38q3 6 4 13t4 13q5 9 11 17.5t11 17.5q5 10 8.5 19t8.5 20q6 13 16.5 24t12.5 27q-23 -3 -54.5 -0.5t-58.5 3.5q-11 0 -17 -2.5t-10 -7.5t-8 -12.5t-10 -17.5q-4 -26 -14 -46t-14 -46 q-11 -19 -17.5 -40t-12 -42.5t-11.5 -43t-16 -40.5q-8 -42 -24 -80t-31 -73q-6 20 2.5 39t12.5 39q4 23 8.5 42t11.5 40q14 45 26 92t28 94q5 14 9.5 29t10.5 29q2 5 6 9.5t6 9.5q5 13 8 26.5t15 22.5q22 2 46 1t47.5 -1.5t45.5 0.5t42 7q8 -17 12 -39t7 -44.5t6.5 -44 t11.5 -38.5q2 -5 -1 -14t-7.5 -20t-9.5 -21.5t-7 -16.5q-7 -20 -11 -39t-8 -36q-11 -38 -28 -71t-27 -65q-11 -12 -18 -27.5t-13.5 -31t-14 -31t-18.5 -27.5q-3 -17 -8 -30.5t-10.5 -26.5t-11 -27t-8.5 -31q-8 -8 -12.5 -20t-10.5 -23zM703 429q4 1 8 -1q0 8 2 13t2 13 q-6 -3 -8.5 -10t-3.5 -15zM682 602q10 2 12.5 10.5t7.5 14.5q-7 -5 -11 -12t-9 -13zM691 399q2 -9 7 -10q0 2 3 6t-2 6q0 -2 -3 -2h-5zM586 190q-2 -3 -3.5 -8.5t2.5 -9.5q5 2 6.5 6t4.5 7q-3 2 -5 3t-5 2zM557 333q4 1 10 -1q-5 11 0.5 21.5t6.5 22.5q-9 -7 -10.5 -19.5 t-6.5 -23.5zM521 54q-1 -8 -7.5 -11.5t-4.5 -13.5q13 2 19.5 4.5t10.5 13.5q-5 1 -9 3.5t-9 3.5zM280 487q6 2 7.5 8.5t3.5 12.5q-8 -1 -8.5 -7.5t-2.5 -13.5zM277 418q1 -5 2 -10.5t5 -8.5q-1 6 1 10t1 10q-3 2 -3.5 0t-5.5 -1zM245 537q0 -16 8 -26q7 6 2.5 15t-10.5 11z M240 558q0 -13 5 -17q2 5 5 8.5t2 11.5q-4 3 -5.5 0t-6.5 -3z" />
<glyph unicode="W" horiz-adv-x="927" d="M330 270q-2 70 7 140.5t11 140.5q2 45 1 84.5t6 77.5q26 0 54.5 1t54.5 12q14 -7 14 -25q2 -2 6.5 -2.5t8.5 -1.5q11 -26 27.5 -46.5t30.5 -43.5q-1 -93 4.5 -177t7.5 -169q7 0 17.5 4t22.5 2q-5 82 -11.5 161t5.5 160q1 4 -2.5 3.5t-1.5 4.5q3 25 -2 53t-2 52 q15 8 33 5.5t38 -3.5q25 0 48.5 2t44.5 -8q17 -38 39 -69.5t43 -64.5q0 -5 -3.5 -6t-8 -1.5t-7 -2t0.5 -6.5q1 -3 4 -2t6.5 3t7 3t6.5 -3q7 -6 8 -17t0 -23.5l-2 -25t3 -22.5q-2 -2 -2 -5.5t-3 -4.5q14 -106 18 -214t-1 -220q1 -3 4 -5t5.5 -3.5t3.5 -4t-1 -7.5 q-3 -6 -7.5 -10.5t-8.5 -10.5q-18 0 -27 10q-52 -2 -99 -3t-93 -2.5t-93.5 -5t-101.5 -9.5q-18 -2 -38.5 -2.5t-40.5 -0.5q-35 1 -71.5 0.5t-72.5 -5.5q-26 26 -56 46.5t-53 49.5q-7 1 -11.5 3.5t-9.5 5.5q-8 22 -6.5 44.5t1.5 45.5q-1 12 -4.5 26t-5.5 28q-2 12 0 24.5 t0 24.5q-1 6 -3.5 12t-2.5 12q-1 9 1 18t1 18q-2 26 -2.5 50.5t-2.5 50.5q-1 6 -3.5 12t-3.5 13q-2 15 -1 30t-1 30q-2 21 0 42t4 41q-6 32 -5.5 70t8.5 62q9 2 25.5 1.5t21.5 -2.5q-5 -25 -13.5 -53.5t-12.5 -44.5q4 -8 7 -20t4.5 -24.5t0.5 -24.5t-5 -20q5 -32 5 -65 t3 -70q2 -27 1 -55t0 -54q0 -6 1.5 -10.5t2.5 -10.5q2 -18 0.5 -36t2.5 -35q1 -6 4 -11.5t4 -10.5q1 -11 -0.5 -22.5t-3 -22.5t-1.5 -21.5t6 -20.5q59 0 112.5 3t106 5.5t106 3.5t112.5 -1q53 -2 102 -3.5t93 10.5q7 2 13 -0.5t10 0.5q1 5 -1 5.5t-2 4.5q-2 2 -2.5 0l-1 -4 t-3 -4t-6.5 0q-9 4 -12.5 11t-4 15t0.5 17t1 16q0 38 2.5 79t-2.5 80q-5 43 -5.5 86.5t0.5 87t2.5 88t0.5 90.5q-15 3 -31 3t-33 -1l-34 -2t-34 2q-3 -19 -1 -35t5 -31.5t5 -31.5t0 -35q-5 -54 -4.5 -109.5t14.5 -110.5q-6 -19 -1.5 -34.5t7.5 -36.5q-8 -5 -20 -3.5t-23 3.5 q-10 -5 -23 -10t-27 -7t-26.5 0.5t-21.5 12.5q-11 41 -15 85t-5.5 89.5t-2 91t-3.5 89.5q-2 26 -3 45.5t-14 39.5q-19 -8 -38.5 -6.5t-39.5 -2.5q-5 -65 -7.5 -121.5t-4.5 -111t-3.5 -110t-4.5 -119.5q-26 -5 -52.5 -5.5t-58.5 -2.5q-8 12 -7 25.5t-1 27.5q-5 57 -8.5 108 t-6 101.5t-3 102.5t1.5 111q-13 1 -26 -2t-27 -2q-14 0 -25.5 3t-25.5 3q-10 -1 -20 7t-12 23q17 6 35.5 2.5t38.5 -5.5q26 -2 53.5 2t49.5 -4q17 -27 31.5 -55.5t31.5 -54.5q3 -45 4.5 -86.5t2.5 -81.5t1.5 -80t1.5 -83zM821 15v-8q4 0 7 0.5t6 0.5v5q-3 1 -5.5 2t-7.5 0z M770 625q2 -8 7.5 -17.5t10.5 -8.5q-5 7 -7.5 15t-10.5 11zM786 554q-5 0 -6.5 -6.5t1.5 -9.5q2 4 5.5 7.5t-0.5 8.5zM783 132q1 -5 9 -7q2 5 -2.5 5t-6.5 2zM760 647q1 -6 0.5 -12.5t7.5 -4.5q0 14 -8 17zM682 4q5 1 9 -1t6 3q-3 -1 -8.5 0t-6.5 -2zM539 259q-7 0 -5 -8h7 q0 6 -2 8zM490 613q0 -7 -1 -16.5t4 -13.5q-1 5 0.5 10t2.5 9t0.5 7t-6.5 4zM484 676q-2 -2 1 -7t7 -7v9q-5 -2 -5 1.5t-3 3.5zM248 692q-5 1 -4 -6.5t3 -8.5q1 5 2.5 7.5t-1.5 7.5zM247 630q-1 9 1.5 14.5t1.5 17.5q-5 -3 -5.5 -14.5t2.5 -17.5zM252 276q1 -5 1.5 -10 t5.5 -6q0 6 -1 10.5t-6 5.5zM254 235q0 -10 6 -9q0 4 -0.5 7t-5.5 2zM252 286q-1 14 -0.5 31t-3.5 27q-2 -18 -0.5 -29.5t4.5 -28.5zM228 65q6 -3 15 -5t13 6q-8 -2 -15.5 0.5t-12.5 -1.5z" />
<glyph unicode="X" horiz-adv-x="758" d="M429 85q1 22 -1.5 44.5t-4.5 51.5q-2 15 -2.5 33t-4 32t-12.5 20.5t-28 -0.5q-13 -5 -26.5 -17.5t-16.5 -22.5q-5 -20 -1.5 -40.5t2.5 -34.5q-1 -8 -2.5 -15.5t-2.5 -17.5q-1 -29 -2.5 -58t0.5 -60q-5 -6 -7 -13.5t-5 -14.5q-39 4 -79.5 -0.5t-73.5 -2.5q-6 1 -12.5 7 t-12.5 13.5t-11.5 15t-10.5 12.5q-6 5 -13 8t-14 8q-6 11 -15 19.5t-17 17.5q3 6 2 12t-2.5 12.5t-3 13.5t-0.5 14q0 8 3 14.5t4 14.5q3 31 2.5 60.5t10.5 53.5q-1 17 -5.5 43.5t-2.5 50.5q16 9 36 15.5t33 18.5q-4 9 -12.5 14t-18.5 8.5l-20 7t-17 9.5q-1 23 -6.5 45 t-9.5 44t-4.5 45t7.5 48q-6 10 -7.5 22.5t0.5 26t6.5 26t9.5 21.5q47 1 89.5 1.5t76.5 -8.5q4 3 6.5 6t10.5 3q17 -2 19.5 -11.5t10.5 -20.5q6 -7 16 -12.5t20 -10.5t17.5 -11.5t9.5 -15.5q2 -10 -3.5 -19.5t-7.5 -20.5q-3 -17 0.5 -34.5t1.5 -35.5q20 11 39 22t45 18 q10 10 8.5 24t0.5 32q0 12 3.5 23l7 22t6.5 21.5t3 21.5q15 3 29 11.5t31 12.5q10 2 24 2.5t27 -1t24 -4.5t17 -8q2 -2 6 -3t6 -3q9 -10 13.5 -23t9.5 -23q12 -26 31 -48.5t30 -40.5q-1 -8 -6 -15t-6 -15q-2 -11 3.5 -22t8.5 -23q4 -13 3 -24.5t-1 -24.5q0 -8 4 -16.5 t2 -16.5q-2 -7 -7 -12t-10 -9.5t-9 -10t-3 -13.5q15 -9 21 -26.5t7 -38.5t-0.5 -43.5t-1.5 -42.5q-1 -22 5.5 -43.5t8.5 -38.5q2 -21 0 -40.5t-10 -34.5q1 -12 5 -28t6 -32t-1 -29t-17 -18q-8 -3 -19.5 -3t-24.5 1.5t-25 3t-20 1.5q-16 1 -33.5 -1t-28.5 6q-4 2 -7.5 10 t-8.5 14q-11 12 -21 26t-21 27t-24 24t-29 17zM584 672q-1 -13 -4 -22t-1 -19q5 6 7 20.5t-2 20.5zM574 495q-25 -12 -44.5 -27.5t-42.5 -28.5q15 2 26 9.5t22 16l22 17t26 13.5q-3 2 -3.5 5t-5.5 3v-8zM570 197q-4 22 -3 48t2 51.5t-1 48t-12 39.5q-12 2 -21 6t-18 8.5 t-19 8.5t-23 5q0 7 -3 11t-7.5 7l-9 6t-6.5 8q10 3 17 6t12 6.5t10 8t12 9.5q9 6 20 9.5t17 9.5q11 11 8 30t-4 35q-1 18 1 37t5.5 38.5t6.5 38.5t3 35q-24 -1 -46 -4t-39 -11q-1 -15 -7.5 -27.5t-9.5 -22.5q-4 -11 -4.5 -22.5t-0.5 -22.5v-22t-3 -21q-3 -11 -16.5 -14.5 t-24.5 -7.5q-17 -8 -30.5 -18t-30.5 -16q-2 -5 -4.5 -8t-4.5 -7q-5 0 -8.5 -2.5t-7 -6t-7 -6.5t-9.5 -3q-5 0 -12.5 5t-15 11.5l-15 13t-11.5 9.5q-6 5 -15 6.5t-16 6.5q-3 2 -8 6t-10 8.5t-9 8.5t-4 6q-2 4 0.5 13t2.5 17q-1 24 2 52t-2 51q-14 -1 -28.5 2.5t-29.5 6.5 t-30 3t-28 -8q-3 -22 -1.5 -40t0.5 -46q15 -11 24 -31t5 -43q7 -7 8 -16.5t0 -20t-2 -21.5t2 -20q9 -8 19 -13.5t20 -12t19 -14t14 -17.5q-17 -12 -35.5 -23.5t-41.5 -19.5q-4 -11 -4 -23t1 -24.5t1.5 -26t-1.5 -26.5q-1 -8 -4 -15t-5 -15q-6 -29 -4.5 -58t-8.5 -54 q28 -11 66.5 -12.5t73.5 -1.5q-5 63 0.5 123.5t29.5 104.5q12 1 19 6t13 10t12 9.5t16 5.5q14 1 20.5 -7t13.5 -13q10 -8 22.5 -15.5t25.5 -14.5t24 -14t19 -13q10 -20 14.5 -42.5t5.5 -45.5t1 -47t2 -46q23 -3 47 -5.5t51 -1.5q-1 -3 -3 -4t2 -3q2 -1 8 3.5t11 -2.5 q0 -6 -6.5 -6.5t-10.5 -3.5q5 -1 8.5 -2.5t9.5 1.5q10 30 5.5 62t-11.5 69zM501 72q6 -3 16.5 -4.5t14.5 5.5q-5 0 -15.5 0.5t-15.5 -1.5zM477 73q0 -5 3.5 -5.5t7.5 -1.5q-2 5 3 4t4 2q-3 2 -8 1.5t-10 -0.5zM231 659q6 -1 1.5 -5t1.5 -5q2 5 8 8t9 8q-1 1 -1 4 q-5 -2 -10.5 -4t-8.5 -6zM227 547q4 -2 5 -5.5t6 -4.5q-2 8 2 14q-6 -2 -8.5 -0.5t-4.5 -3.5zM249 94q2 -3 0.5 -8.5t4.5 -4.5q-1 4 -1.5 7.5t-3.5 5.5zM245 137q3 0 3 -2.5t2 -2.5q-1 4 -2 8.5t-1.5 6.5t-1 0.5t-0.5 -10.5zM145 72q2 -4 12 -4.5t15 1.5q-8 0 -13 2.5 t-14 0.5z" />
<glyph unicode="Y" horiz-adv-x="636" d="M587 367q-17 -11 -36.5 -9.5t-38.5 -0.5q-6 -1 -11.5 -3.5t-11.5 -4.5q-19 -2 -39 -2t-40 -8q-3 -20 -1.5 -42t4.5 -44.5t5.5 -46.5t1.5 -48q0 -11 -3 -22.5t-5 -22.5q-2 -20 -3 -41.5t0 -45.5q0 -12 2.5 -24.5t-5.5 -23.5q7 -18 -3 -29q-19 1 -34.5 2t-30 1t-29 0.5 t-32.5 1.5q-8 11 -18.5 18.5t-21.5 15.5q-10 8 -21.5 15t-16.5 21q-1 5 2.5 5.5t8.5 0.5q-9 12 -10.5 26t-0.5 29.5t3 31.5t0 30q-1 7 -4 13t-5 12q-14 62 -12.5 124.5t11.5 123.5q-32 8 -64 10t-61 17q-6 70 -8 134t-16 125q10 7 37 10.5t54 1.5q14 -1 31.5 -3.5t22.5 -9.5 q2 -3 1.5 -6t1.5 -5q10 -11 24.5 -16.5t23.5 -13.5q-1 -6 1 -10.5t5 -8t6 -7.5t3 -10q1 -8 -4 -16.5t-7 -18.5q-2 -13 1 -22.5t0 -20.5q33 4 64 5t63 -2q8 9 9.5 21.5t0 27.5t-4.5 32.5t-4 36.5q-1 24 1 39t13 30q4 0 5.5 -2.5t3.5 2.5q10 -12 26.5 -11.5t34.5 3t35 3.5 t28 -9q10 -33 31 -66.5t40 -59.5v-2v-1q1 -18 2 -42.5t-1 -47.5q-2 -30 -4 -65.5t0 -74.5zM551 433q5 2 7 1t4 1q2 5 -0.5 8t-0.5 7q-2 -5 -6.5 -7.5t-3.5 -9.5zM485 695q-9 4 -19 3.5t-20 -0.5q-9 8 -22 7.5t-27 3.5q-7 -28 -3.5 -63.5t8.5 -66.5q-7 -4 -7 -13.5t-6 -14.5 q0 -4 3.5 -8t-0.5 -7q-17 5 -29.5 3.5t-34.5 -2.5q-25 0 -51 -1.5t-46 -13.5q-5 6 -13.5 7t-18 0.5t-19 -1.5t-15.5 -1q-8 10 -5 24t3 27q2 29 3.5 58t4.5 58q-16 1 -29.5 3t-26 3.5t-25 0.5t-26.5 -6q17 -54 20 -114.5t4 -119.5q29 -5 51.5 -11t52.5 -8q5 -5 11.5 -7.5 t12 -6t10 -9t4.5 -15.5q-2 -2 -5.5 -2.5t-3.5 -3.5q-11 -47 -14 -92t4 -94q4 -24 11 -48t6 -46q0 -15 -3 -29t0 -30q25 -1 46.5 3t42.5 2q-5 45 -3.5 91t3 91.5t1.5 90.5t-7 87q35 8 80 15t85 11q3 29 4 60t1.5 62.5t1.5 62.5t5 60zM383 -3q1 5 3 12t-1 10q-2 -1 -3 -7.5 t-1 -12.5t1 -8t1 6zM365 82q-2 6 -1 14t-3 12q2 -6 1 -14t3 -12zM188 572q-2 -5 -1.5 -11t-1.5 -11q4 0 12 -1t16 3q-10 2 -15.5 7t-9.5 13zM192 670q2 -3 1 -8t2 -6q2 4 2 8t-5 6zM214 27q4 2 10.5 0.5t5.5 3.5q-5 -1 -10.5 0t-5.5 -4z" />
<glyph unicode="Z" horiz-adv-x="699" d="M652 -26q-36 -5 -66.5 -2.5t-65.5 4.5t-70 -3t-70 -4q-8 0 -15.5 2.5t-15.5 2.5q-29 1 -56.5 -4t-53.5 -3q-12 -10 -22 -11t-19 3t-17 11.5t-16 14.5q-5 4 -12.5 7.5t-15.5 8.5t-14 11t-11 8q-7 2 -12.5 2t-11 0.5t-10.5 3t-10 8.5q-2 11 -4.5 19.5t-2.5 20.5 q0 8 -3.5 13.5t-4.5 12.5q-1 13 2 27t4 28q1 22 -4.5 44t-1.5 43q-6 16 -5 37q35 10 65.5 29t65.5 33q23 16 47.5 29.5t49.5 27.5t48.5 28.5t44.5 32.5q-7 3 -13.5 -0.5t-13.5 -4.5q-13 -1 -28 3t-27 2q-5 -1 -8.5 -3t-8.5 -2q-7 0 -14 4.5t-15 4.5q-17 1 -33.5 -5.5 t-35.5 -3.5q-10 7 -18 16t-16.5 17.5t-19.5 14.5t-26 8q-3 7 -7 11t-4 13q-11 8 -15 23.5t-4 33.5t3.5 35.5t6.5 29.5q-3 6 -2.5 12.5t1.5 13t1 12.5t-4 12q0 3 -1.5 3.5t-3.5 0.5t-3.5 1t-0.5 4q5 4 10 7.5t8 8.5q56 -8 116 -10.5t122 -3.5l124 -2t123 -6q5 -7 13.5 -10.5 t14.5 -9.5q13 -27 22.5 -56.5t31.5 -47.5q7 -13 2 -29.5t-5 -32.5q0 -5 1.5 -8.5t1.5 -7.5q1 -6 -2 -11.5t-3 -12.5q0 -4 2 -8t2 -8q0 -8 -3 -15.5t-3 -15.5q1 -17 1 -35t-5 -33q10 -19 8 -29.5t-11.5 -17.5t-23.5 -11.5t-29 -10.5q-11 -5 -16.5 -11t-14.5 -6 q-11 -12 -27 -19.5t-30 -16.5q-8 -10 -19 -17t-19 -16q22 -11 52.5 -9.5t55.5 9.5q8 -6 9 -15h11q12 -18 29 -31.5t33 -28.5q0 -8 -1 -18.5t-1 -20.5t2.5 -17t8.5 -9q0 -17 1.5 -46t0.5 -53zM606 149q2 -8 6 -9q0 2 1.5 2t1.5 2q-3 0 -3.5 3t-5.5 2zM608 443q-2 -5 -4 -11 t0 -9q5 -1 6.5 1.5t1 6t-1.5 7t-2 5.5zM570 654q1 3 4 4.5t5 -0.5q-3 8 -8 17q1 -6 -1 -11t0 -10zM553 169q-16 2 -39 1t-37 5q-14 -5 -28.5 -2.5t-24.5 4.5q-8 1 -15.5 3.5t-14.5 3.5q-8 1 -17 -2.5t-17 4.5q-12 -7 -28 -5t-27 5q-12 -4 -22 -6t-24 0q-5 14 -5.5 32 t-4.5 36q11 9 24.5 15.5t24.5 15.5q5 -2 7 0.5t7 1.5q21 11 44 19.5t38 25.5q6 -1 8 2t7 2q16 17 41.5 27.5t44.5 27.5q5 5 14 13t11 16q2 7 1 16t-1 17q1 18 4.5 38.5l7 41t6 40t2.5 35.5q0 10 2 21.5t4 22.5t2 20.5t-4 17.5q-14 -3 -28.5 -1.5t-29.5 3.5t-29.5 2.5 t-27.5 -4.5q-46 6 -95.5 4.5t-97.5 -4.5q-18 4 -35.5 4t-34 -0.5t-33.5 -1t-35 4.5q2 -29 1 -53t-4 -53q4 -2 5.5 -6t3.5 -7q62 -1 127 -4t127 -3q15 0 30 0.5t28 -7.5q3 -13 3.5 -25.5t0 -26t-0.5 -27.5t3 -29q-8 -2 -13 -3.5t-15 -3.5q-150 -101 -326 -183q6 -29 11 -56.5 t5 -56.5q-3 0 -4 2t-5 0q8 -16 10.5 -37t9.5 -38q54 -2 102 0.5t95 -0.5q42 -2 83.5 3.5t88.5 2.5q10 5 23 4.5t26.5 -2t26 -3t22.5 2.5q-1 20 -3 46t-6 41zM555 509q0 6 3.5 13t0.5 12q-3 -4 -5 -12t1 -13zM515 20h7q-1 2 0 6t-2 5q-5 -5 -5 -11zM453 332q0 -5 2.5 -5.5 t6.5 -0.5v7q-4 2 -5 0t-4 -1zM327 -2q7 -2 17.5 -3t11.5 3v3q-7 -2 -17 0.5t-12 -3.5zM161 496q5 0 8.5 -6.5t7.5 -2.5q2 2 -4 8t-12 1zM126 532v-3q4 0 2 -2q4 0 4.5 2.5t2.5 4.5q-4 2 -4.5 0t-4.5 -2z" />
<glyph unicode="[" horiz-adv-x="318" d="M275 -47q-9 -2 -19 0.5t-19.5 4.5t-18.5 2.5t-17 -5.5q-9 4 -19 4t-20.5 -1.5t-20 -3t-18.5 0.5q-8 29 -22.5 51.5t-36.5 37.5q3 8 1.5 16l-3 16t-2 16t3.5 15q-7 87 -8 180t-9 187q-2 28 0.5 56t4.5 56q1 14 -0.5 28.5t0.5 28.5q2 17 3.5 37.5t1.5 40.5q19 -2 41.5 -1 t45.5 1t44 -3t38 -12q5 -13 9.5 -25t9.5 -24q5 -11 12 -23.5t8 -24.5q1 -8 -2 -15t-3 -15q0 -5 1.5 -9t1.5 -8q1 -16 -2 -31.5t2 -32.5q-10 -4 -22.5 -5.5t-24.5 -6.5q3 -22 2 -46t-2.5 -49t-2.5 -50t1 -50q3 -28 0.5 -59.5t5.5 -63.5q5 -7 15 -9.5t18 -2.5q2 -15 8.5 -28 t12 -27t8 -30t-1.5 -37q4 -5 7.5 -11t1.5 -14q-1 -2 -3 -4.5t-2 -4.5q-1 -3 0.5 -6t0.5 -6q-2 -18 -10 -35zM245 603q4 -2 4 5t-1 6q-1 -2 -2.5 -4t-0.5 -7zM226 658q0 -5 1 -8t6 -2q-2 9 -7 10zM230 147q-12 13 -32.5 13.5t-33.5 -4.5q-8 11 -9.5 25t-0.5 29t3 30t2 29 q-1 20 -6 39t-6 39q-4 58 -3 115t3 119q13 2 27 3t29 5q0 18 1.5 31.5t3 26t2.5 25t-2 27.5q-33 9 -65.5 8.5t-70.5 -0.5q6 -26 0 -52t-5 -49l2 -38t-5 -33q6 -18 7.5 -36.5t1.5 -37t-0.5 -37.5t1.5 -38q1 -6 4.5 -12.5t3.5 -12.5q1 -8 -1 -14.5t-2 -14.5q1 -19 0.5 -36.5 t1.5 -34.5q2 -23 4 -45t3 -45q1 -34 5 -65t6 -63q31 6 66.5 6t67.5 -1q2 30 -1 51.5t-2 47.5zM167 420q-1 3 0 8t-2 7q0 -2 -1.5 -8.5t3.5 -6.5z" />
<glyph unicode="\" horiz-adv-x="622" d="M587 -32q-17 3 -26.5 2.5t-18 -3t-17.5 -5t-24 -4.5q-9 0 -19 1.5t-20.5 3t-20.5 1.5t-19 -4q-2 5 -6 5t-7 3q-5 17 -15.5 27.5t-15.5 28.5q-1 2 -3 1t-3 1q-11 20 -20 43t-20 43q-8 12 -16 23t-13 28l-10 18t-9 20q-31 56 -60.5 111t-58.5 112q-5 10 -8.5 19t-8.5 18 q-16 28 -30.5 60t-27.5 66q-15 11 -27 33.5t-23 42.5q-5 11 -9.5 18.5t-1.5 19.5q1 2 2.5 2.5t1.5 2.5q19 -2 33 1t28 -2q22 8 48 11q15 2 25 -1t18 -9.5t14.5 -15t14.5 -17.5q5 -6 9.5 -13.5t9.5 -12.5q2 -2 5 -3t5 -3q11 -11 19.5 -26.5t16.5 -27.5q-1 -4 0 -5.5t1 -4.5 q23 -44 46 -86.5t43 -89.5q6 -6 10 -8q0 -5 2 -7t2 -7q26 -34 44.5 -75t41.5 -79q5 -7 10 -13t7 -16l17 -25.5t11 -30.5q7 -4 9 -8q7 -15 16 -28.5t18 -27.5q2 -4 6.5 -6.5t7.5 -6.5q6 -8 10 -18.5t9 -19.5t6 -14t-0.5 -9.5l-4 -12t-4.5 -21.5zM530 26v4q-5 3 -8.5 8.5 t-7 11.5l-7 12t-8.5 10q-7 20 -19 33t-17 35q-11 13 -19.5 29.5t-16.5 33.5t-16.5 33.5t-15.5 33.5q-39 54 -69.5 117t-65.5 120q-26 45 -47 94t-50 90q-12 7 -21.5 2t-17.5 -7q-2 -1 -4 0.5t-3 1.5q-16 0 -31 -2t-32 3q-1 -11 2 -17t7 -12q2 -5 6 -13q10 -18 21 -34.5 t19 -35.5q3 -9 5.5 -14.5t6.5 -13.5q8 -14 14 -28.5t16 -25.5q2 -10 7.5 -15.5t10.5 -13.5q5 -11 10.5 -24t10.5 -25q5 -13 12 -24t12 -22q3 -8 5.5 -15.5t6.5 -14.5q2 -5 5.5 -7.5t5.5 -7.5q5 -11 10.5 -21.5t11.5 -21.5t12.5 -21.5t11.5 -20.5q2 -4 2 -8t2 -8q2 -5 6 -9.5 t6 -9.5q10 -17 18.5 -32.5t18.5 -30.5q0 -2 -0.5 -4.5t0.5 -6.5q14 -21 24 -46t24 -46q39 0 73 -4t73 -10zM410 302l4 -10t6 -9q-2 6 -5 12t-5 7z" />
<glyph unicode="]" horiz-adv-x="350" d="M301 -57q-20 4 -43.5 3t-44.5 -3q-18 -3 -40 0q-6 0 -14 0.5t-12 2.5q-11 4 -16 12t-18 6q-9 12 -21.5 20t-23.5 18q-5 32 -7 67.5t7 66.5q13 2 23.5 1.5t21.5 3.5q6 17 5.5 34t1.5 34q1 7 4 13t3 12q5 42 -0.5 85t-7.5 85q-1 12 1.5 23.5t3.5 22.5q1 32 0.5 64.5 t-2.5 65.5q-23 6 -43 5t-35 11q-4 32 -1 58t8 55q18 2 35.5 3t36.5 -1q17 -2 27.5 -3.5t26.5 -1.5q14 0 31.5 0.5t33.5 -10.5q3 -17 10 -29t15 -22.5t16.5 -21.5t14.5 -24q-5 -34 0 -66.5t5 -65.5q0 -15 1 -30.5t-1 -30.5q-1 -6 -3.5 -11.5t-3.5 -11.5q-2 -14 -2 -29t-2 -29 q-1 -12 2 -24t2 -23q0 -5 -2 -9t-3 -9q-2 -9 -0.5 -18.5t0.5 -18.5q-2 -14 -4 -33.5t-2 -39.5q1 -7 3 -13.5t3 -13.5q1 -15 -1.5 -31t-0.5 -32q1 -8 3.5 -15.5t3.5 -15.5q2 -23 -0.5 -44.5t5.5 -41.5zM275 341q3 11 3 27.5v30.5q-5 -13 -6 -28.5t3 -29.5zM247 499 q-2 -4 4 -5.5t5 3.5q-5 0 -9 2zM227 485q0 -2 1 -3.5t1 -3.5q9 -1 7 7q-4 4 -9 0zM224 388q4 -2 2 -9.5t3 -7.5q0 5 -0.5 13t-4.5 4zM201 136q1 17 3.5 34t3.5 34q2 35 -1 69t-4 66q-2 91 3 178.5t7 160.5q0 3 -3 5q-13 6 -27.5 3t-28.5 -1q-5 1 -10 3.5t-10 3.5 q-20 5 -35.5 2t-35.5 -12q-5 -21 -3.5 -42t3.5 -40q15 -1 25 -2t25 -3q9 -1 17.5 0t14.5 -6q1 -65 -3.5 -123t-1.5 -118q1 -31 5 -65.5t0 -64.5q-1 -9 -2 -22t-3 -26.5t-5 -25t-8 -17.5q-15 -5 -38 -7q-8 -29 -5.5 -56.5t10.5 -54.5q15 4 30 4.5t29 0t28 -0.5t27 5 q1 14 0 28t-3 29t-3.5 30t-0.5 31z" />
<glyph unicode="^" horiz-adv-x="403" d="M190 814q-13 -12 -18 -25.5t-15 -25.5q-2 -4 0.5 -4.5t2.5 -3.5q-12 0 -24.5 0.5t-26.5 -0.5q-10 0 -19.5 -2.5t-18.5 1.5q-4 2 -9.5 7t-10.5 9q-5 5 -10.5 9t-9.5 7q-10 9 -6.5 14t11.5 16q10 15 20 28.5t21 26.5q3 20 15.5 33t24.5 26q8 9 16 17.5t22 13.5 q6 -5 12 -1.5t11 1.5q16 -12 29.5 -26.5t26.5 -29.5t26 -29.5t29 -27.5q-1 -4 1.5 -5.5t3.5 -4.5q24 -14 41.5 -33.5t34.5 -39.5q0 -8 -6 -14q-3 1 -3 -1q-27 4 -50.5 -1.5t-54.5 -3.5q-20 15 -38.5 30t-27.5 39zM295 796q2 0 2 3q-15 14 -30.5 27.5l-31 27t-29 28.5 t-23.5 33q-11 2 -13.5 9t-9.5 11q-18 -13 -33.5 -27.5t-23.5 -36.5q-15 -17 -28 -37t-25 -41q17 3 34 1t34 -2q7 9 10 19.5t7 20.5q2 5 3 9.5t3 8.5q7 13 14 15t13 -2.5t12 -12t12 -14.5q11 -14 17 -25t15 -19q20 1 39 2t32 2z" />
<glyph unicode="_" horiz-adv-x="624" d="M608 -152q-11 -2 -26.5 -3t-26.5 4q-12 -5 -24 -2.5t-26 2.5q-3 0 -6 -1.5t-6 -1.5q-11 -1 -22 1t-22 1q-15 -2 -29.5 -3t-28.5 -1q-8 0 -15.5 1.5t-15.5 1.5q-12 -1 -24 -2.5t-23 -1.5q-8 0 -15 1t-15 1q-33 -2 -64.5 -6.5t-61.5 1.5q-15 -1 -30 -1.5t-30 -4.5 q-14 12 -29 20.5t-27 22.5q-4 1 -8.5 1t-7.5 1q-5 13 -6 27t-1 28.5v28t-3 26.5q3 -3 3.5 -0.5t2.5 2.5q4 2 18.5 3t22.5 1q19 1 38.5 -0.5t38.5 -0.5q8 0 16 1.5t16 2.5q36 4 71 0.5t70 -6.5q2 0 5.5 -0.5t5.5 -0.5q38 3 72 6.5t69 3.5q18 0 36 -3.5t35 -1.5q6 1 12 2.5 t11 3t11 1t12 -4.5q2 -3 0 -5.5t-1 -7.5q5 -10 13 -21.5t15 -22.5q1 -1 1 -5q3 -11 1 -25t1 -25q2 -5 -0.5 -6t-2.5 -5q2 -8 3.5 -15t-3.5 -12zM553 -19q-5 2 -12.5 1.5t-12.5 5.5q-26 0 -52.5 1.5t-52.5 -2.5q-2 0 -5 -1t-5 -1q-13 -2 -26 0.5t-26 1.5q-9 0 -17.5 -2 t-16.5 -3q-9 0 -17 1.5t-17 2.5q-24 2 -49.5 -1t-48.5 -2q-8 1 -15.5 2.5t-16.5 1.5q-9 -1 -17.5 -3t-18.5 -1q-23 2 -47.5 1t-47.5 1q1 -4 -5 -4q0 -16 2 -37t8 -38q44 2 84.5 1t92.5 0q18 6 42 5q35 -2 67 -3t66 -3q42 -2 83 -3.5t84 -3.5q-2 21 -1 42.5t-2 39.5zM94 -144 q2 -5 10 -3q1 1 1 8q-2 -2 -6.5 -1.5t-4.5 -3.5z" />
<glyph unicode="`" horiz-adv-x="405" d="M81 889q-1 6 -6 7.5t-7 6.5q2 4 2 9.5v11.5q18 17 35 34t29 40q8 0 15 2.5t18 -0.5q18 -21 42.5 -38t42.5 -40q3 -4 5.5 -9t6.5 -10q14 -19 30 -35.5t24 -42.5q2 -3 6 -3.5t7 -2.5q4 -11 4.5 -20t-11.5 -13q4 -20 -13 -29t-38 -7q-23 2 -47 10.5t-46.5 20.5t-41.5 24.5 t-33 21.5q-8 6 -10.5 18.5t-9.5 26.5q-2 4 -5 7t-4.5 5t-0.5 3.5t6 1.5zM205 951q-13 4 -21.5 12t-22.5 11q0 7 -4 8q-11 -17 -24.5 -30.5t-20.5 -33.5q6 0 6 -2q-11 0 -15 -6.5t-6 -14.5q5 2 6.5 -1.5t5.5 -4.5q9 -16 24.5 -26t33.5 -17.5t35.5 -14.5t30.5 -17 q15 -1 25.5 -5.5t22.5 -8.5q5 6 12 10t11 11q-17 41 -45 70t-54 60z" />
<glyph unicode="a" horiz-adv-x="519" d="M170 216q16 2 31.5 5t29.5 4.5t27.5 -0.5t24.5 -11q7 -16 6.5 -35t-16.5 -29q-9 2 -21 2.5t-24.5 0.5t-24.5 0.5t-21 2.5q-12 10 -14.5 26t2.5 34zM472 2q6 0 8.5 -4.5t-0.5 -7.5q-31 3 -59 1.5t-60 -7.5q-33 -6 -68 -8t-67 -4q-11 0 -27.5 -1t-28.5 1q-7 2 -14.5 8 t-14.5 13.5t-13 15t-11 12.5t-13 10t-16.5 10.5t-15 12t-9.5 14.5t-1.5 25t1.5 34q-1 23 0.5 43.5t-0.5 41.5q-1 7 -3.5 13t-2.5 11q0 4 1 7.5t1 7.5q-2 11 -7.5 24.5t3.5 28.5q8 1 15.5 2t15.5 -2q-5 9 -13.5 14.5t-16.5 11.5t-12 15t1 24q-6 9 -8.5 23t-3.5 29t-1.5 30 t-2.5 27q4 4 9 11t10.5 12.5t12.5 7t15 -5.5q39 7 78.5 6t78.5 -4t77.5 -6t75.5 2q22 -17 35.5 -42t25.5 -51q10 -6 16 -16t13 -20q-9 -66 -9 -133t3 -130q2 -20 4 -36t-6 -28q1 -11 5 -21.5t-1 -21.5zM316 27q4 -3 6.5 0.5t9.5 1.5q-2 7 -8.5 5t-7.5 -7zM367 203 q-1 34 1 65.5t4 63.5t4 64.5t1 67.5q0 2 -1 2t-1 2q-1 2 -4 2q-36 1 -84.5 0.5t-91.5 7.5q-11 -7 -25 -3.5t-25 5.5q-17 -9 -33.5 -12.5t-33.5 -11.5q-4 -26 -6 -48t-2 -47q17 -5 33.5 -2.5t31.5 0.5q5 -1 8.5 -4t8.5 -4q7 -1 15 0t15.5 1t13.5 -2.5t9 -10.5 q-3 -10 -1.5 -27t-0.5 -29q-11 0 -22 -3t-21 5q-7 -6 -17 -6t-20.5 1.5t-21 2.5t-17.5 -2q-7 -11 -2.5 -22.5t6.5 -22.5q5 -35 0.5 -72t-0.5 -75q31 -2 66 -1.5t71 0.5t72 -1t70 -7q-2 14 -1.5 27t-4.5 25q7 12 7 32.5t-1 38.5zM406 347q-8 0 -8 -10q6 1 8 10zM406 302 q-1 7 2.5 8.5t3.5 7.5h-12q2 -6 -1.5 -6.5t-2.5 -5.5q3 -1 4.5 -2.5t5.5 -1.5zM404 404q2 5 6.5 6.5t3.5 8.5l-4 2l-4 2q1 -3 -2.5 -8.5t0.5 -10.5zM424 390q4 -1 5.5 -1.5t3.5 3.5q-3 0 -3 2.5t-4 1.5q0 -2 -2 -6zM439 205q2 16 2.5 37t-2.5 37q0 -13 -2 -35t2 -39z M439 361q8 -2 6 8q-6 0 -6 -8z" />
<glyph unicode="b" horiz-adv-x="599" d="M555 337q7 -23 3 -45t-8 -47q-2 -10 -0.5 -20t1.5 -20q-1 -30 -3 -61.5t0 -69.5q0 -24 -2 -44t-7 -43q-45 -2 -92.5 -4.5t-100.5 -3.5q-21 0 -42 -3.5t-42 -6t-41.5 -2.5t-39.5 6q-10 -7 -17.5 -6.5t-13.5 4.5t-11 9.5t-11 10.5q-12 8 -22 13.5t-21 17.5q-10 12 -17 20 t-11 24q0 6 -7.5 4.5t-7.5 3.5q1 66 -0.5 128.5t0.5 125.5q0 5 2.5 7.5t3.5 7.5q0 4 -2.5 14t-1.5 21q0 26 2 50l4 48q2 48 2.5 85t0.5 72.5v73t2 85.5q26 -1 53 -6.5t61 -5.5q10 1 18.5 2t16.5 0q11 -1 21 -6t21 0q2 -2 0.5 -7.5t1.5 -10.5q10 -13 22 -24t23 -23.5 t18.5 -28.5t8.5 -38q-9 -19 -11.5 -28t-2 -15.5t2 -16t-1.5 -29.5q7 -17 7 -47q30 -2 58 -5t57 -8q8 -2 17.5 -2t17.5 -3q17 -6 29.5 -26t23.5 -35q10 -14 22.5 -24.5t20.5 -25.5q1 -23 -5 -42zM237 739q0 -5 -1.5 -9t5.5 -5q0 11 -4 14zM233 585q0 -5 -1 -9.5t-3 -9.5 q7 -1 9.5 1.5t2.5 6t-2.5 7t-5.5 4.5zM117 33q1 -5 4 -7.5t7 -4.5q-3 4 -4.5 7.5t-6.5 4.5zM123 70l3.5 -0.5t8 0t7.5 1t2 1.5q-7 -2 -11.5 0.5t-9.5 -2.5zM212 60q3 0 10 0.5t14 2t12.5 3t5.5 4.5q-3 -2 -9.5 -2h-13t-12.5 -1t-7 -7zM337 27q3 0 6 1.5t1 6.5q-3 2 -9.5 3.5 t-13.5 -2.5q2 -5 7.5 -6t8.5 -3zM443 78h-14q2 -3 3.5 -6.5t5.5 -3.5q2 0 2.5 1t2.5 1v8zM454 284q1 24 2 45.5t1 42.5t-0.5 41.5t-2.5 43.5q-18 1 -37.5 6.5t-38.5 6.5q-20 2 -40 0t-39 0q-5 1 -8 2.5t-6 1.5q-8 0 -20.5 -2.5t-24.5 -4.5t-22 -2t-14 5t-2 20t2 26v21.5 t-0.5 4t-0.5 4t2 22.5q2 21 6.5 45.5t2.5 46.5q-2 25 -2.5 53t-2.5 50q-35 1 -65.5 3.5t-65.5 11.5q2 -39 3.5 -64t1.5 -47t-1 -45t-2 -57q-1 -18 -2.5 -31.5t-2.5 -27.5q0 -8 1.5 -17.5t1.5 -18.5q0 -11 -2.5 -21.5t-3.5 -21.5q-2 -47 -2 -90.5v-85.5t-0.5 -83.5 t-3.5 -85.5q22 5 43 7t41 1q76 -5 150.5 -2t151.5 11q-4 13 -4 27t1 28.5t2 28t1 26.5q0 5 -3 10t-3 10q1 14 4.5 27.5t3.5 27.5zM472 254q4 3 6 10t2.5 15.5t0 16t-2.5 10.5q0 2 -2 1.5t-4 -1.5q5 -14 1.5 -26t-1.5 -26zM501 155q4 1 4.5 10.5t-4.5 11.5q-2 -3 -4 -5.5 t-1 -7.5q7 0 7 -3t-2 -6zM506 404q3 1 9 -1t5 4q-5 0 -6.5 4.5t-6.5 6.5q-1 -5 -2 -7t1 -7zM522 129q1 3 2.5 9.5t-2.5 8.5q1 -7 -2 -10.5t2 -7.5zM233 345q20 -1 43.5 3t43.5 -5q6 -13 9 -30t4.5 -35t2 -36t2.5 -33q-26 1 -53 -2t-60 2q-7 12 -8 27t0 30.5t1.5 30.5 t-2.5 28q5 8 9 11t8 9zM320 229q5 7 0.5 16t-0.5 15q-4 4 -5.5 0.5t-6.5 -3.5q2 -7 2 -15t2 -13h8z" />
<glyph unicode="c" horiz-adv-x="532" d="M399 198q-8 0 -2 -11q5 0 4.5 4.5t4.5 4.5q13 -2 24 -8.5t21 -15l20 -17t22 -14.5q-2 -20 -0.5 -40.5t3.5 -40t3 -38.5t-2 -36q-8 -5 -20 -3t-17 7q-32 -1 -69 -10.5t-73 -9.5q-15 0 -34 -3t-38.5 -6t-38.5 -4t-34 4q-22 33 -53.5 56t-66.5 43q4 11 -8 24 q-8 105 -11 201.5t11 192.5q9 2 11.5 5t7.5 8q50 5 101.5 9.5t93.5 -2.5q32 8 71.5 7t77.5 -3q7 -15 18 -27t23 -23t23 -22.5t19 -26.5q0 -13 -2.5 -27t-5 -27.5t-4.5 -27.5t-1 -27q2 -13 2 -28.5t-11 -23.5q-35 3 -72 1t-73 -4q-8 -7 -5.5 -18t1.5 -23q15 -3 36.5 0.5 t42.5 -0.5zM410 56q-1 -3 1.5 -4t0.5 -5q-4 0 -4 -4q10 3 11 12q-4 2 -9 1zM412 180q-6 0 -6 -8q8 0 8 6q-2 0 -2 2zM403 478q3 -2 1.5 -7.5t5.5 -3.5q0 4 -3 8.5t-4 2.5zM388 183q-7 -1 -18 0t-22.5 1.5t-22 -1t-16.5 -7.5q-15 3 -30 1t-30 -5t-31 -6t-33 -1 q-14 17 -18.5 39.5t-6 46t-2 47t-6.5 42.5q26 8 56.5 11.5t62.5 5.5t62.5 6t56.5 14q-1 22 -2.5 42.5t-4.5 43.5q-8 -2 -16.5 -1t-18.5 -1q-11 9 -24.5 9t-25.5 -2q-28 -3 -58 0t-58 0q-30 -3 -59 -4.5t-55 -9.5q-3 -65 -8 -117.5t-2 -110.5q2 -20 5 -39t5 -39 q1 -19 3.5 -38t-2.5 -39q25 4 47 7t42 4q59 2 116.5 9.5t122.5 5.5q2 22 -2 44t-7 42zM366 45v-7q4 0 4.5 2.5t2.5 4.5h-7zM320 66q5 2 9 0t7 3q-6 -1 -10.5 1.5t-5.5 -4.5zM289 307h-9t-4 -4q5 -2 9 -8.5t9 -4.5q0 6 -3 8.5t-2 8.5zM206 231q-5 -3 -3.5 -6.5t1.5 -9.5 q8 0 6.5 6.5t-4.5 9.5z" />
<glyph unicode="d" horiz-adv-x="612" d="M270 344q17 2 35 1t23 -12q1 -3 3 -10t3.5 -16t2.5 -18t1 -16q-1 -12 -4 -27t1 -29q-13 -7 -28 -9t-32 -3q-11 0 -22.5 2.5t-21.5 0.5q-8 -1 -13 -4t-13 -1q-9 3 -16 17t-9 23q-5 24 -3 49t-5 48q4 8 16 8t18 -8q13 -4 30 -1t34 5zM307 232q4 4 4.5 19t-3.5 21 q-3 -2 -5 -7.5t-3 -12t0.5 -12t6.5 -8.5zM574 501q2 -11 2.5 -31.5t0.5 -46v-53.5v-53q0 -29 -7.5 -57t-7.5 -56q-1 -26 1.5 -51.5t2.5 -45.5q0 -7 -2.5 -13.5t-2.5 -14.5q-1 -6 1.5 -17t1.5 -21q-1 -12 -3 -26.5t-3 -28.5q-1 -15 0 -17t-9 -3q-7 -1 -9.5 -6.5t-9.5 -1.5 q-11 6 -32 2.5t-42 -1.5q-26 2 -47 -0.5t-47 -4.5q-16 -1 -31 0.5t-29 9.5q-25 1 -47 3t-43.5 3.5t-43.5 3t-47 0.5q-20 23 -37.5 49t-37.5 50q-4 60 -8.5 115.5t-3.5 121.5q1 15 3 31.5t2 32.5q0 12 -1.5 30t-2.5 36t-0.5 34t3.5 25q27 10 56 10.5t57.5 -2t56.5 -5t52 2.5 q5 7 8 7.5t5 -2t3 -6t1.5 -2.5t0 7.5t-0.5 24.5q-1 32 -5 65t-2 64q2 26 6.5 53.5t12.5 53.5q5 -3 12.5 -3.5t14 1.5t10.5 6t1 10q9 3 19.5 2t22 -2.5t23 -3.5t23.5 0q5 1 10 2.5t10 2.5q9 0 17.5 -3t16.5 4q2 -7 -1 -9t-3 -7q14 -14 23 -29.5t21 -35.5q7 -12 12.5 -22 t12.5 -24q8 -16 18 -29.5t14 -25.5q6 -26 4.5 -52.5t3.5 -50.5zM441 445q2 40 3.5 80t6.5 76q-5 35 -5.5 50t0.5 25.5t3 24t1 46.5q2 0 0 4q-14 -3 -27 -3.5t-27 -0.5q-20 1 -28 4t-21 10q-6 -3 -20 -6.5t-19 -11.5q0 -29 -6 -54t-6 -49q0 -19 1.5 -31t3.5 -22.5t3 -22.5 t1 -30q-1 -26 -0.5 -38t-0.5 -16.5t-5 -4t-13 -0.5q-14 -6 -29.5 -7t-31.5 0.5t-31.5 3.5t-29.5 2q-26 -1 -42.5 1t-39.5 3q-3 -4 -3.5 -5.5t-5.5 -3.5q1 -42 0 -90.5t-1 -98t1.5 -97.5t7.5 -90q94 -7 181.5 -7.5t182.5 1.5q6 23 3.5 45t-4.5 43q-3 34 -4 72.5t1 72.5 q0 11 2 21.5t0 21.5q-1 11 -4 21.5t-3 21.5q0 10 2.5 19.5t2.5 19.5zM469 6q4 0 8.5 -2t8.5 -3.5t7 -0.5t6 7q-8 11 -14 8.5t-16 -9.5zM542 109q-5 -2 -9.5 0t-6.5 -1q1 -3 -0.5 -4t-1.5 -4q5 -2 8.5 -3.5t9.5 -0.5v13zM538 265q5 0 5.5 5.5t-3.5 7.5q-2 -3 -2 -13zM547 310 q-2 6 -0.5 14.5t-2.5 11.5q2 -6 0.5 -14t2.5 -12zM547 387q-1 7 1 10t1 10q-7 0 -10 -3.5t-8 0.5q0 -6 -2 -9t-2 -8q4 -2 8.5 1t11.5 -1zM551 450q-1 4 0.5 9.5t-2.5 7.5q1 -7 -1 -11t3 -6zM553 471q-1 4 0 10t-3 7q1 -8 -0.5 -10t3.5 -7z" />
<glyph unicode="e" d="M528 153q2 -18 0.5 -36.5t-3.5 -37.5t-2.5 -36.5t3.5 -32.5q-9 -2 -11.5 -10t-4.5 -16q-18 0 -36 -3t-36 -7t-37 -8t-40 -6q-23 -2 -54 -3t-62 -3q-26 -1 -50 0t-45 0q-11 0 -21.5 -2t-21.5 6q-6 13 -11.5 27t-11.5 27.5t-14.5 25t-21.5 19.5q4 5 -0.5 10t-5.5 10 q-1 8 1.5 17.5t2.5 17.5q-2 29 -7.5 56t-6.5 56q-2 32 4 67t8 74q1 22 0 44t2 45q2 11 4.5 22.5t1.5 23.5q85 7 179.5 8t182.5 7q7 -4 11 -9.5t7 -11.5t7 -11.5t12 -8.5q-4 -10 0 -17t11.5 -13.5t14.5 -13t9 -15.5q4 -8 12 -11t14 -8q2 -9 1.5 -16t4.5 -15q-11 -44 -8 -83.5 t6 -78.5q-2 -5 -7.5 -7t-10.5 -4q6 -11 14.5 -19.5t15.5 -19.5zM431 452q1 -4 -0.5 -9t2.5 -6q2 3 2 7t-4 8zM138 23q2 4 2 9q-2 1 -6 2.5t-5 -2.5q3 -2 3.5 -5t5.5 -4zM77 90q40 3 81.5 6.5t83 6t83 1.5t81.5 -7q5 -3 11.5 -7.5t15.5 0.5q-3 14 -3.5 29.5t0 31.5t0.5 31 t-3 29q-25 4 -53.5 2t-58.5 -4t-59 -1.5t-55 8.5q-3 13 -5.5 29t-0.5 29q25 7 54.5 7t59.5 -1t58 0t51 10q-3 53 -6 96t-8 99q-35 -6 -73 -3.5t-73 -0.5q-17 -2 -33 -4l-32 -4q-31 -2 -61 0.5t-55 -5.5q-2 -16 -1.5 -30.5t-11.5 -22.5q3 -18 2.5 -36.5t-2 -37t-1.5 -36 t3 -31.5q-5 -47 1 -93.5t10 -90.5zM410 237q-4 -1 -9 -0.5t-5 -3.5q12 0 14 4zM431 16q1 3 2.5 5.5t1.5 7.5q-8 -3 -17 -5t-12 -10q10 1 13.5 0.5t11.5 1.5zM431 64q1 -4 10 -4.5t8 6.5q-5 -3 -9.5 -1t-8.5 -1zM223 355q-17 4 -19 23.5t1 39.5q13 0 28 3t30.5 6.5t30.5 5 t29 -1.5q5 -8 6.5 -18t1 -20t-1.5 -19.5t0 -16.5q-10 3 -23.5 2.5t-28 -2.5t-28.5 -3.5t-26 1.5zM288 383q0 -4 -4 -4t-4 -3q3 1 8 -0.5t6 2.5q-3 0 -2.5 3t-3.5 2z" />
<glyph unicode="f" horiz-adv-x="642" d="M168 314q-27 1 -43 12.5t-29.5 25.5t-28.5 27.5t-38 19.5q-2 30 -5.5 58.5t-3.5 51.5q23 7 57 7.5t64 5.5q2 23 1.5 47.5t-5.5 42.5q1 6 3.5 5t7.5 3q-5 22 -6.5 44.5t8.5 41.5q45 10 92.5 13t94.5 4t93 0.5t89 2.5q2 -3 6.5 -3.5t9.5 -0.5q15 -17 22.5 -38t20.5 -39 q3 -4 9 -8t12 -8.5t11 -9t6 -8.5q2 -5 -1.5 -8t-5.5 -8q-5 -14 -4 -30t3.5 -31.5t5.5 -31t2 -28.5q-26 -9 -56 -5.5t-69 0.5q0 -7 5 -11t10.5 -7t10.5 -7t7 -11q1 -5 -1.5 -9t-3.5 -9q-2 -17 2.5 -34t4.5 -34q-7 -6 -18.5 -8.5t-24.5 -4t-26 -2.5t-24 -4q-10 -17 -11 -40.5 t1 -49t6 -51.5t4 -48q0 -20 -2.5 -39.5t-2.5 -39.5q1 -21 5.5 -40t1.5 -41q-2 -6 3.5 -6t5.5 -5q-8 -6 -16.5 -7t-19 0.5t-22.5 2.5t-25 0q-25 -3 -56.5 -7t-53.5 4q-12 4 -20 14t-15.5 20t-17 17.5t-24.5 6.5q3 15 4 37t-4 36q0 3 1.5 1t3.5 -1q-2 -1 1 5t3 10q0 5 -3 9.5 t-4 10.5q-2 17 0 37.5t0 41.5q-1 13 -4.5 27t2.5 23q-6 6 -7.5 13t-0.5 15t2 15.5t0 14.5zM517 698v-11q8 -1 6.5 5.5t-6.5 5.5zM519 647q-1 4 0.5 9.5t-2.5 7.5q2 -4 0 -9.5t2 -7.5zM486 693q-24 -1 -45.5 0.5t-43.5 2.5q-35 2 -69.5 -3t-67.5 -3q-14 1 -31 -3t-33 -6 q-8 -1 -10.5 0t-10.5 -3q-3 -7 -5.5 -11t8.5 -7q-2 -4 -5.5 -5.5t-1.5 -7.5q3 -23 4 -41t-4 -40q5 0 7 -4q-8 0 -7 -4q1 -12 3 -22.5t6 -16.5q-10 -5 -25 -7.5t-32.5 -4t-36 -3.5t-35.5 -5q2 -26 2 -47.5t7 -41.5q21 0 38.5 3.5t34 7.5t33 6t35.5 -1q-6 -41 -9.5 -73 t2.5 -70q-8 -18 -4.5 -37.5t9.5 -38.5q-2 -2 -3.5 -5.5t-3.5 -5.5q10 -29 8 -68.5t-4 -73.5q11 -1 26 -0.5t31 1.5t31 2t27 1q2 9 -5 16t-9 13q-5 14 -5.5 30t1 32.5t2.5 33t0 32.5q0 3 -2 6.5t-2 7.5q-2 19 3 38.5t6 39.5q1 27 -4.5 55t-0.5 56q9 4 20 3.5t23 -1.5t24 -0.5 t21 6.5q-5 18 -1.5 40.5t1.5 39.5q-17 -3 -34.5 -1.5t-31.5 -1.5q-11 3 -20 9t-17 14q-8 11 -2.5 21.5t8.5 22.5q4 15 3 31t13 27q16 -2 37 -1t35 -6q7 -5 9.5 -11t4 -13t3.5 -13.5t9 -11.5q25 2 45.5 0t40.5 2q0 36 -1 68.5t-1 62.5zM484 357q5 -2 4.5 5t-2.5 8 q-4 -3 -0.5 -6.5t-1.5 -6.5zM459 494q2 -6 14 -6v4q-5 -1 -7.5 2t-6.5 0zM390 260q2 -5 -1 -13.5t5 -9.5q-2 8 -1.5 13.5t-2.5 9.5zM381 389q-1 -2 -5 0q2 -5 -1.5 -9.5t1.5 -8.5q1 4 9 4q-1 4 0 9t-4 5zM378 -11q-3 -2 -8 -3t-5 -6q5 0 8 0.5t8 0.5q0 3 -1.5 4t-1.5 4z M185 143q2 -3 0.5 -6.5t2.5 -4.5q2 3 3 6t-6 5zM165 338q3 2 0.5 8t2.5 11q-7 1 -7.5 -8t4.5 -11z" />
<glyph unicode="g" horiz-adv-x="590" d="M560 -448q-5 -3 -11 -1.5t-11.5 2.5t-10 -0.5t-7.5 -9.5q1 -5 3 -4t4 2.5t3.5 1.5t3.5 -5q-32 -4 -67.5 -6t-74.5 -4t-79.5 -5.5t-81.5 -10.5q-7 11 -18 13t-24 0.5t-27 -4t-26 -0.5q-17 24 -35.5 52.5t-34.5 45.5q-3 16 11 14q-2 6 -5 10.5t-4 12.5q2 31 1 64.5 t-2.5 67.5t-2.5 67.5t2 65.5q18 2 40.5 5.5t44 4t41 -3t32.5 -15.5q4 -3 6 -9t6 -11q16 -19 30.5 -29.5t27.5 -32.5q3 15 3 32.5v36.5v38t2 37q-6 5 -17 6.5t-23 1.5t-24 -1t-20 -1q-14 0 -28.5 -3t-25.5 0q-14 4 -22.5 18.5t-21.5 26.5q-9 7 -21 12.5t-23 12.5t-20.5 16 t-12.5 24q-5 20 -4.5 41.5t2.5 43.5t4 44.5t0 44.5q0 7 -3 13t-4 12q-6 42 -2.5 82.5t-1.5 81.5q26 8 57.5 8h63.5q5 2 5.5 9t6.5 8q56 5 108 8t94 17q62 -5 98 -41t59 -88q12 -11 19 -27.5t15 -31.5q-5 -98 -5 -189.5t1 -182.5q0 -54 -4.5 -110t-0.5 -115q1 -14 2 -26.5 t7 -24.5q2 -26 1 -57.5t2 -54.5zM140 58q8 0 7 12q-7 1 -7 -12zM292 73q1 -5 0.5 -13.5t-1 -17.5t0.5 -16t7 -10q5 11 2.5 29.5t-9.5 27.5zM98 -336q89 1 172.5 -0.5t161.5 -10.5q2 54 -0.5 107.5t0.5 109.5q2 39 10 77.5t11 77.5q2 36 1 70t-1 65q-1 41 2 83.5t3.5 82.5 t-5 76t-24.5 65q-16 4 -31 2.5t-30.5 -5.5t-30.5 -8.5t-31 -5.5q-61 -5 -121.5 -6t-118.5 -14q14 -72 18 -151t0 -156q15 -14 33.5 -15t36.5 -2q20 -1 44 -0.5t45 3.5q18 3 32.5 3.5t25 -3.5t17.5 -14t11 -28q1 -5 -1 -8t-1 -9q0 -6 3 -11.5t4 -11.5q1 -25 -1.5 -53t-5 -57 t-2.5 -58.5t6 -56.5q-15 -9 -34.5 -12.5t-39 -3t-38 6t-32.5 15.5q-1 23 -0.5 46.5t-4.5 40.5q-20 2 -41 -1t-38 -4q-8 -23 -8.5 -53.5t1.5 -62.5t4 -61t-2 -49zM427 -381q3 2 8.5 0.5t3.5 5.5q-4 2 -6 5t-8 1q-1 -5 0.5 -6.5t1.5 -5.5zM457 -271q4 5 2 13t-6 10 q-2 -8 -1.5 -13.5t5.5 -9.5zM471 148q1 14 0 19.5t-1.5 4.5t-1 -7.5t2.5 -16.5zM471 382q6 0 7.5 3.5t0.5 8t-4 8t-6 5.5q0 -7 2 -12t0 -13zM513 -350q0 7 0.5 10.5t1.5 6t2.5 5.5t2.5 9h-11q-1 -9 0 -17.5t4 -13.5zM355 362q1 -17 4.5 -35t4.5 -36t-2 -34.5t-14 -29.5 q0 -10 -0.5 -18t-4.5 -13q-10 -4 -18 -0.5t-19 3.5q-6 12 -19.5 12.5t-29.5 -1.5t-30.5 -2.5t-21.5 8.5q-4 39 -8 70t-8 71q8 8 15.5 4t17.5 -4q15 0 33 4t36.5 7t35 3t28.5 -9zM315 295q2 -4 5 -5.5l7 -3.5q-1 8 -1.5 14.5t-3.5 11.5q-1 -6 -4 -8.5t-3 -8.5zM324 317 q0 6 3 9q-5 4 -10.5 8t-13.5 6q4 -8 11 -11.5t10 -11.5z" />
<glyph unicode="h" horiz-adv-x="629" d="M589 -61q-8 -5 -18.5 -6t-21.5 1t-22 5t-20 5q-27 -5 -50 0t-45 17q-8 9 -13.5 20.5t-11.5 23t-13 22t-17 18.5q-11 38 -11.5 82t4.5 85q-8 5 -16.5 4.5t-17.5 0.5q-8 -26 -12.5 -55.5t-6.5 -60t-1 -61t3 -58.5q-5 -9 -8.5 -19t-11.5 -17q-23 5 -45.5 4.5t-43 -2.5 t-39.5 -2.5t-36 5.5q-15 5 -24 16t-16 24.5t-14.5 26.5t-20.5 22q0 43 -5 81.5t0 76.5q1 7 1.5 16.5t1.5 17.5q1 24 -4.5 51t1.5 53q0 51 -1 88t-2.5 67t-2.5 56.5t-0.5 56.5t3 67t8.5 89q9 2 14 8q11 2 12 -3.5t5 -8.5q21 1 39.5 3.5t36.5 3.5t34.5 -1.5t32.5 -10.5 q14 -31 31.5 -56t33.5 -58q5 -11 15 -19.5t12 -19.5t-2 -24t-5 -24q-2 -18 -2 -24t1 -5.5t2 4t1.5 4t0 -4.5t-2.5 -21q23 -5 46 -5t44.5 0.5t42.5 1.5t39 -2q8 -2 22 -16t23 -25q11 -11 21.5 -22.5t17.5 -19.5q6 -7 18.5 -23.5t15.5 -26.5q6 -16 4.5 -34.5t-5 -37.5 t-7.5 -38t-4 -36q2 -32 9 -59.5t5 -56.5q-1 -21 -8 -41t-6 -41t7 -40.5t5 -41.5zM546 154q2 -2 2 -5.5v-7t0.5 -6.5t4.5 -3q2 3 -1 11.5t-6 10.5zM497 123q3 -8 2 -17t-2.5 -16.5t-1 -14t6.5 -10.5q-2 14 0 31.5t-5 26.5zM458 473q-66 -1 -135.5 3t-139.5 2q-9 4 -11.5 9.5 t-2 12t2 14t1.5 15.5q0 14 -3 29.5t-2 26.5q1 5 2.5 9.5t2.5 9.5q3 24 4 36t0.5 18t-1.5 8.5t-1.5 8.5t0 18.5t3.5 37.5q-17 1 -42 -2t-45 0q-11 2 -17 -1t-11 -5q0 -29 2 -42t4.5 -19t5 -7.5t4.5 -7t2.5 -19t-0.5 -41.5q-2 -37 1.5 -71.5t-1.5 -66.5q-1 -6 -4.5 -12.5 t-5.5 -13.5q-2 -16 -1 -30t1.5 -27t0 -26t-4.5 -26q6 -22 8.5 -46t0.5 -46q-2 -36 0.5 -73.5t-0.5 -74.5q26 1 53 3.5t49 -0.5q7 14 8.5 29.5t1 33t-1.5 35.5t1 37q1 5 4 11t4 11q0 7 -1 20.5t-1 29t1 29t6 20.5q6 9 18.5 9t28.5 -2.5t34 -5.5t35 -1q13 1 25 4t22.5 3.5 t18.5 -1.5t14 -11q-2 -30 -6.5 -65t-8 -70t-3 -69.5t9.5 -63.5q20 -2 38 -5t40 -2q0 51 1.5 105.5t1.5 108.5t-2 106.5t-9 99.5zM323 241h31v10q-9 3 -16 -1.5t-15 -8.5zM265 594q-2 -2 -2.5 -6.5t0.5 -9t2 -7.5t2 -2q-1 9 1.5 14.5t-3.5 10.5zM204 -25q6 0 9.5 2t10.5 1v7 q-4 2 -12 0t-8 -10z" />
<glyph unicode="i" horiz-adv-x="353" d="M320 101q1 -21 -3 -46.5t-2 -56.5q-5 -2 -8.5 -6.5t-12.5 -2.5q1 -7 3 -11t0 -11q-15 -2 -29 -6t-27.5 -6.5t-26.5 -2t-26 6.5q-26 -16 -43 -10.5t-29.5 22t-22 37t-21.5 34.5q-19 8 -25 25.5t-5 38t5 42t5 38.5q2 23 -4 48.5t-6 51.5q-1 52 2 104.5t1 109.5q40 14 87 14 t87 -11v-15q18 2 31 -4.5t23.5 -16.5t20 -21.5t21.5 -18.5q-8 -35 -8 -68.5t2.5 -65.5l5 -64t0.5 -65q-2 -17 0.5 -31.5t4.5 -31.5zM145 -31q2 8 1.5 10t1.5 10q-5 1 -5.5 -2t-4.5 -3q2 -11 7 -15zM148 54q5 -9 12.5 -4.5t5.5 9.5q-1 -2 -3.5 -1.5t-5.5 1t-6 0t-3 -4.5z M181 96q10 48 10.5 95t-3 95t-7.5 97t-3 100q-20 3 -48.5 3.5t-47.5 -10.5q-5 -15 -3 -30.5t3 -32.5q2 -46 -2 -93.5t7 -89.5q-6 -15 -7 -32t0 -36t3 -39t2 -39q14 0 24.5 2l21 4t22 4t28.5 2zM196 6q-2 -4 0 -6t5 -2.5t6 1t2 4.5q-6 -2 -7 1t-6 2zM251 1q7 0 13.5 -0.5 t4.5 7.5q-4 3 -12 2.5t-6 -9.5zM47 559q-2 11 -8.5 19.5t-11.5 16.5q5 21 4.5 40.5t-2.5 38t-3 37t3 38.5q16 4 38 5.5t45.5 2.5t46.5 3t42 6q5 0 6 -3.5t2 -8.5q22 1 29.5 -11t12.5 -28q5 -8 12.5 -9.5t10.5 -7.5q5 -11 3 -26.5t-6 -32t-6 -30.5t4 -21q-5 -11 -8 -22.5 t-10 -21.5q-21 4 -30 -4t-20 -15q-18 6 -39.5 4.5t-41 -2t-34.5 5t-21 26.5q-1 3 -7 0.5t-11 -0.5zM60 734q-3 -32 2 -62t3 -67q32 -5 57 -2.5t51 7.5q2 37 1 66.5t-6 67.5q-23 -5 -54.5 -8.5t-53.5 -1.5z" />
<glyph unicode="j" horiz-adv-x="370" d="M325 -236q3 -19 1 -40.5t-5 -43.5t-4.5 -44t1.5 -41q-14 0 -26.5 -8.5t-26.5 -10.5q-19 -2 -43.5 2t-48.5 1q-7 -2 -14 -5.5t-15 -4.5q-13 -2 -28 -1.5t-30 1.5q-35 2 -68 -1.5t-62 -6.5q-23 -3 -34.5 -1.5t-28.5 6.5q-5 12 -13 19.5t-17.5 13.5t-18.5 12t-16 14 q-8 2 -13 -1t-9 1q-2 9 4 9q-7 4 -10 9.5t-5 11.5t-4.5 12t-6.5 12q2 33 0 65t-4 63.5t-2 63.5t6 64q11 7 26 8t31 -0.5t31.5 -4t27.5 -1.5q7 1 14 5t14.5 8.5t14.5 7.5t14 3q5 0 13 -6.5t16.5 -15t15.5 -17.5t10 -13q13 -15 21 -29t14 -32q1 -4 0 -5.5t-2.5 -2.5t-3 -2.5 t-1.5 -4.5q5 -3 5.5 -3t0.5 1.5t1 3t7 1.5q0 18 2 37.5t3 38t-1 36t-9 32.5q5 58 11.5 106.5t7.5 96.5q-6 16 -10 34.5t-4 38.5q0 12 4 23.5t3 21.5q-1 34 -0.5 73t-4.5 71q0 9 10 11q0 8 -5 9.5t-2 11.5q27 7 69 10t78 6q20 1 33 -4.5t21 -16.5t12.5 -27.5t8.5 -35.5 q2 -6 8 -8.5t10 -7.5q-2 -11 4.5 -21t15 -20t15 -20t6.5 -20q-2 -29 -8.5 -58.5t-8.5 -61.5q-3 -32 -0.5 -65t0.5 -63q-6 -69 -3.5 -142t-1.5 -141q4 -5 5 -7.5t2 -9.5zM-24 -96q2 -6 -0.5 -7.5t-1.5 -6.5q5 0 8.5 0.5t3.5 5.5q-3 1 -4 4t-6 4zM203 229q-2 51 4.5 109.5 t5.5 114.5q-14 5 -21 0t-21 -6t-28 0.5t-25 1.5t-19.5 -2.5t-12.5 -10.5q-3 -7 -1 -16.5t3 -17.5q3 -22 1.5 -36.5t-3.5 -32.5q1 6 1 0t-1 -8v3v-3q1 -20 3.5 -37.5t-5.5 -31.5q9 -14 6 -31t1 -31q3 -12 2.5 -24.5t-2 -25l-3 -25t0.5 -24.5q1 -7 3 -13.5t4 -13.5 q2 -11 0 -22t0 -19q1 -5 3.5 -9t3.5 -9q4 -32 -0.5 -62.5t-6.5 -58.5q-2 -22 0 -41.5t-3 -42.5q-4 -6 -5 -7t-2.5 -0.5t-5.5 2t-15 1.5q-24 -2 -46.5 -8.5t-34.5 -7.5q-26 -3 -34 10t-9 33t0 43.5t-6 43.5q-12 -5 -27 -5.5t-31 0.5t-31 1.5t-26 -1.5q-5 -26 -5 -55t2 -58 t4.5 -57t1.5 -52q46 -11 87 -9t80 7.5t77.5 9t79.5 -3.5q7 4 18.5 6t21.5 2q6 41 3 78.5t-1 75.5q2 48 5 96t1 90q0 34 6 67t7 65q0 14 -2 28.5t-3 29.5zM238 79q-1 -5 -2.5 -8.5t-0.5 -9.5q8 -2 6.5 5.5t-3.5 12.5zM245 -287q2 8 2 18t3 18q-6 0 -8 -3.5t-2 -9.5t2 -12.5 t3 -10.5zM126 509q-25 17 -44.5 39.5t-43.5 42.5q5 16 5.5 36.5t0 42.5t-1 43.5t2.5 39.5q15 2 33.5 2t36.5 1.5t33 5.5t23 13q8 -2 17 0.5t12 -0.5q12 -11 22 -24l20 -26t21 -25.5t25 -21.5q1 -10 -5 -12t-7 -10q4 -19 6 -39.5t1.5 -40t-6 -36.5t-16.5 -29q-16 3 -31.5 2 t-32 -2.5t-34.5 -2.5t-37 1zM239 553q-2 -4 -9 -4.5t-5 -7.5q5 -5 12.5 1t1.5 11zM173 546q-7 5 -15 0t-14 -8q6 -2 12.5 -2t16.5 2v8zM77 603q24 -2 46.5 2.5t49.5 5.5q2 34 2.5 63.5t-4.5 63.5q-13 -5 -25 -6t-23 -0.5t-22.5 0.5t-23.5 -4v-125z" />
<glyph unicode="k" horiz-adv-x="611" d="M338 315q29 -13 59 -24.5t56 -28.5q14 -9 22.5 -21.5t24.5 -20.5q2 -5 -2 -5.5t-3 -5.5q10 -6 14 -14t4.5 -18t-0.5 -21t0 -21q2 -35 6.5 -71.5t-8.5 -67.5q6 -11 0 -23q-47 1 -91 1.5t-95 -9.5q-8 9 -13.5 19t-15.5 18q-14 11 -23 26.5t-12 38.5q-2 20 3 44.5t4 46.5 q0 4 0.5 10t-0.5 12t-4 10.5t-12 6.5q-3 -10 -3 -20t6 -17q-1 -5 -7 -13q1 -18 -0.5 -34t-4 -31.5t-4 -32t1.5 -35.5q4 -6 9 -15t7.5 -18t2.5 -17.5t-5 -14.5q-17 1 -33.5 -1t-32 -5t-30.5 -5.5t-30 -2.5q-18 15 -40 26.5t-44 22.5q-9 15 -12.5 31.5t-4 34t0 35.5t0.5 36 q0 24 5 44.5t4 43.5q-2 60 1.5 126t0.5 132q-2 42 3 81.5t6 80.5q1 25 4 51t5 51q1 7 -6 11q9 0 7 7t1 7q-1 -6 1.5 -4.5t1.5 6.5q7 -1 3.5 -6t-3.5 -7q10 -1 8 9q5 -5 1 -10.5t-9 -7.5q2 4 2 7q-8 -5 -2 -9t8 -8q3 -61 6 -120t1 -117q-1 -22 3.5 -43t3.5 -42 q-1 -8 -4.5 -16.5t-4.5 -16.5q-2 -26 -1.5 -53t0 -54.5t-2.5 -54t-9 -49.5q3 -19 2.5 -36.5t-2 -35t-2 -34.5t3.5 -35q29 5 57.5 4.5t57.5 7.5q1 25 0 52.5t-1.5 54.5t-0.5 52t2 45q24 3 41 -7t36 -17q10 -4 21 -5t18 -9q-2 -7 -1.5 -12.5t2.5 -11.5t4 -12.5t2 -13.5 q1 -14 -2.5 -28t-6 -27.5t-2.5 -25.5t7 -22q2 -2 5 -3.5t4 -3.5q15 2 30.5 1.5t30.5 -0.5t28.5 0.5t24.5 3.5q-3 26 -2 54t2.5 56.5t0.5 56.5t-10 55q-23 13 -51.5 21t-58.5 19q-16 5 -33 14t-35 14q-10 3 -22 3t-16 11q22 14 46.5 24t48.5 20q53 21 98 49t87 60 q-8 14 -16.5 28.5t-13.5 31.5q-12 0 -29 -4t-22 -14q-42 -12 -80.5 -26.5t-69.5 -34.5q-26 -2 -39 -13t-27 -21q-17 5 -17.5 12t3.5 18q10 29 6.5 62.5t-4.5 60.5q0 42 7 80.5t9 76.5q-16 5 -40.5 5t-47.5 -2q-4 0 -9 -1t-9.5 -1.5t-8 0.5t-4.5 6q0 4 3 4.5t7 0.5t8 0.5 t6 3.5q16 -2 33 -1.5l34 1t33 -0.5t28 -6q1 -18 11.5 -30t22.5 -23.5t21 -24t7 -30.5q-1 -5 -3.5 -9.5t-7.5 -9.5q-5 -19 -7.5 -41t-5.5 -43q-2 -10 -6 -20t6 -17q18 8 39.5 16t43.5 15.5t43 15t39 14.5q10 4 20.5 12.5t23.5 7.5q9 -2 17 -15t14 -19t13.5 -9t13.5 -8 q9 -8 14 -15t19 -12q1 -11 5.5 -20t10 -17t11 -16.5t8.5 -18.5q-7 -10 -21.5 -13.5t-29.5 -7.5q-25 -15 -52.5 -27.5t-54 -24.5t-51 -26.5t-43.5 -33.5zM471 459q8 5 17.5 8t19.5 6q2 4 0.5 6.5t-2.5 5.5q-9 -5 -21.5 -11.5t-13.5 -14.5zM466 -9q-2 -2 -2 -4.5t-2 -4.5 q5 1 9.5 2t5.5 5q-5 0 -11 2zM451 213q0 4 4 3q0 5 0.5 9.5t-6.5 2.5q4 -3 1.5 -8t0.5 -7zM347 387q0 1 3 1.5t5.5 1.5t3 2t-2.5 3q0 -2 -2.5 -3t-4.5 -1.5t-3 -1.5t1 -2zM226 198q-3 -2 -2 -6t6 -2q2 8 -4 8zM204 492q4 2 3 6.5t1 11.5q-8 0 -7.5 -8t3.5 -10zM168 7 q-11 1 -12 0t2.5 -1.5t9 0t7.5 3.5q-3 0 -7 -2zM80 0q6 -2 16.5 -2t12.5 5q-8 0 -15.5 -0.5t-13.5 -2.5z" />
<glyph unicode="l" horiz-adv-x="331" d="M47 722q15 4 30 3.5t30.5 -2.5t30 -5t27.5 -4q14 -1 25.5 2t22.5 -2q7 -2 12 -6t9.5 -8.5t9.5 -8t13 -4.5q6 -15 15 -27.5t18 -26.5q-8 -28 -7 -60t5 -65t9 -64.5t6 -59.5q0 -26 -4 -52.5t-2 -53.5q1 -36 2 -77t1 -83.5t-2.5 -85t-8.5 -82.5q-24 -5 -52 -8.5t-56.5 -3.5 t-55 5.5t-46.5 17.5q-4 6 -3.5 12.5t-6.5 12.5q-4 6 -11 8.5t-12 7.5q-4 5 -3.5 12t-0.5 14q0 9 -2.5 17t-2.5 19q-2 39 1 84t4 90q2 45 0.5 88.5t0.5 85.5q0 6 2 11.5t1 11.5q0 11 -5.5 22.5t-7.5 26.5q-2 13 0 26t3 27q0 16 -3 31t-3 27q1 12 7.5 24t6.5 20q0 6 -2.5 13 t-3.5 12q-1 17 4.5 31.5t4.5 26.5zM77 620q-9 -51 -8.5 -100t3.5 -89q9 -12 11.5 -28t2.5 -33.5t-1 -35.5t1 -35q4 -30 3 -62.5t-2.5 -65t-2 -64t2.5 -61.5q4 0 3 -1q12 -3 26 -6t26 -1q7 2 7.5 8t6.5 8q12 -9 22 -19q4 76 12.5 146.5t10.5 152.5q0 17 1 31t0 29 q0 12 -4 24.5t-5 26.5q-2 63 -0.5 125t3.5 121q-14 -1 -28 1.5t-29 4.5t-30 3.5t-29 -1.5q-5 -15 -7 -38.5t4 -40.5zM127 10q-8 0 -10 1t-12 0q0 -3 -1.5 -4t-0.5 -4q5 -2 13.5 0t10.5 7zM206 15q-2 3 -7.5 1.5t-3.5 -5.5q3 1 8 0t3 4zM232 643q0 7 6 12q-3 0 -3.5 3t-5.5 1 q2 -5 -1 -9.5t4 -6.5zM271 92q-2 7 -1 11.5t2 8.5q-5 -2 -5.5 -10t4.5 -10zM271 214q1 6 1.5 9.5t-5.5 5.5v-9t4 -6z" />
<glyph unicode="m" horiz-adv-x="687" d="M39 510q8 6 17 3t20 -4q15 -2 32 0t33 0q14 -2 26.5 -7.5t26.5 -4.5q8 1 14.5 3.5t12.5 2.5q15 0 25 -5t17 -13t13.5 -18.5t15.5 -21.5q17 15 31 32t28 33q27 3 54.5 0t56.5 -3q13 0 27 0.5t27 0t25 -2.5t21 -8q7 -4 17 -16l15 -18q6 -8 12 -17.5t13 -17.5q12 -14 21 -23 t16 -27q-11 -42 -10 -86t2 -84q1 -31 -2 -66t-8 -68q-2 -16 -5.5 -30.5t-6 -28t-2.5 -27t5 -27.5q-8 -6 -18.5 -4.5t-18.5 6.5q-15 0 -38 1.5t-40 4.5q-5 2 -5.5 -1.5t-5.5 -2.5q-20 5 -40.5 7t-46.5 5q-10 25 -22.5 47t-26.5 43q-6 1 -11 -1t-11 -5t-12.5 -5t-13.5 -1 t-16.5 2.5t-18 3.5t-15.5 4.5t-9 4.5q-5 4 -6 9.5t-2.5 10.5t-4 9t-9.5 6q0 -12 0.5 -27t-1 -29.5t-6 -27t-12.5 -20.5q2 -7 0 -11t-2 -10q-8 -5 -14.5 -9t-17.5 -4q-6 0 -9.5 3t-9.5 5q-19 4 -38 -0.5t-39 -7.5q-5 5 -9 11t-14 8q-5 14 -14 22.5t-16 19.5q-9 16 -11 35.5 t0 41t5.5 44t5.5 44.5q3 60 -0.5 123.5t5.5 123.5q-5 8 -5 16.5t1.5 17.5l3 18t-1.5 18zM65 434q-1 -18 3.5 -37t4.5 -38q-1 -9 -4.5 -18t-3.5 -18q0 -14 4 -31.5t4 -31.5q-2 -3 -5 -4t-1 -6q3 -4 3.5 -11t2.5 -12q0 -2 -1.5 -2.5t-3 -0.5t-3 -0.5t-0.5 -3.5q1 -19 -0.5 -40 t-3 -41.5t-3.5 -40.5t-3 -37q23 1 37 -0.5t34 -3.5q9 18 12 41.5t5 48.5t6 49.5t15 44.5q-4 21 1 42t18 30q8 -6 17.5 -11l19 -10t17 -11.5t11.5 -16.5q4 -11 2.5 -27t1.5 -31q2 -14 6.5 -28t2.5 -31q11 -4 20.5 -3t18.5 -1q4 5 8.5 10t8.5 11q1 17 4 32t9 26 q-7 5 -6.5 14.5t-0.5 17.5q18 20 38.5 38.5t43.5 34.5q10 -2 12 -10t0 -18t-6 -19.5t-6 -15.5q-2 -8 -4.5 -17.5t-3.5 -15.5q-2 -16 -4 -25t-3 -21q-4 -32 -4.5 -65.5t0.5 -62.5q8 -1 12.5 1t12.5 1q11 -7 26.5 -11t32 -4.5t33 1.5t28.5 6q1 53 2 109t3 111t4 107.5t5 99.5 q-8 4 -19 5t-20 5q-18 -6 -35 -5.5t-34 2.5t-34 3.5t-36 -2.5q-9 -20 -27 -34t-29 -33q-3 -6 -3 -13t-8 -10q-4 -2 -9.5 -0.5t-8.5 3.5q-5 5 -5 11.5t-4 13.5q-2 4 -6 6.5t-6 5.5q-7 11 -12.5 23.5t-13.5 18.5q-22 -6 -42.5 -5t-40.5 4t-40.5 5t-42.5 -2q5 -12 1 -23.5 t-5 -22.5zM64 28q1 2 4 2v10q-5 -3 -7 -1t-4 -3q4 0 3.5 -4t3.5 -4zM437 -8q-3 0 -3.5 3t0.5 6h-8q-2 -6 3.5 -8.5t7.5 -0.5zM556 206v-18t-2 -16q4 0 5.5 5t1.5 11t-1.5 11t-3.5 7zM594 382q1 6 4.5 8.5t3.5 8.5q-2 4 -10 6q-2 -4 -2.5 -9.5t-2.5 -9.5q2 -1 3.5 -2t3.5 -2z " />
<glyph unicode="n" horiz-adv-x="524" d="M477 -16q-17 1 -33.5 -0.5t-33 -4t-33 -4.5t-32.5 0q-6 9 -11.5 18.5t-16.5 12.5q-1 14 -3.5 28t-15.5 19q1 50 -1 102.5t-4 107.5q-6 -1 -16 0.5t-20 1.5q-9 -19 -5.5 -43.5t2.5 -51.5q-1 -20 -3.5 -42t-2.5 -42q0 -24 -0.5 -48.5t-14.5 -44.5q-21 1 -38 -1.5t-32.5 -5 l-31 -5t-34.5 -1.5q-9 8 -16.5 18.5t-14.5 21t-16 19.5t-21 14q-2 3 -2 7.5t-2 7.5q-4 -1 -6 3q3 45 6 82.5t6 77.5q2 29 2 58t-1 57q0 8 2 15t2 15q0 38 -4.5 77.5t-2.5 76.5q5 5 11 8t9 9q35 2 67 1.5t67 -3.5q34 -17 61 -41q22 2 41.5 2.5t38.5 0t39.5 -1.5t46.5 -1 q18 -13 32 -29t27 -34q-1 -11 3 -16l8 -10q3 -27 6 -54.5t4 -56.5v-22.5t2 -22.5q1 -14 4.5 -27t4.5 -27q0 -12 -4 -24.5t-4 -25.5q0 -10 3.5 -19.5t2.5 -19.5q-1 -8 -3.5 -15t-2.5 -15q0 -13 1.5 -28t1 -29t-4.5 -26t-14 -19zM68 437q3 -54 4 -116.5t-8 -122.5q0 -5 4 -6.5 t2 -8.5q-4 -12 -5 -23.5t-1 -22t-1.5 -21t-5.5 -22.5q24 -5 53.5 -3t48.5 1q6 29 7 60.5t1 64t0.5 65t6.5 62.5q7 3 11.5 10.5t14.5 10.5q8 2 17.5 0.5t19.5 -0.5l38 4t34 -2q6 -34 8 -74t2 -81t0.5 -80t4.5 -70q20 -5 40 -1t36 3q5 12 6.5 26t-0.5 28q-1 10 -2.5 12.5 t-3.5 7.5q1 0 0.5 3.5t-0.5 4.5q-2 43 -1 84t1 82.5t-2 84t-11 87.5q-11 2 -18 -1t-15 -5q-22 7 -43.5 6.5t-43.5 -4t-44.5 -7.5t-46.5 -4q-8 4 -12.5 9.5t-8.5 12.5l4 16t0 16q-12 -2 -24.5 -1.5t-25.5 1t-24.5 -0.5t-20.5 -7q-2 -20 0 -39t4 -39zM73 54q2 6 -3.5 7.5 t-5.5 -3.5q3 -1 3.5 -3t5.5 -1zM109 8q5 4 0 10t-10 1q5 -1 5 -5.5t5 -5.5zM172 12q1 5 -4 5t-4 -5h8zM428 413q2 14 -3 19q-1 -5 -1.5 -11t4.5 -8z" />
<glyph unicode="o" horiz-adv-x="589" d="M308 356q5 -15 -1 -30.5t-5 -31.5q0 -13 4 -25.5t4 -24.5q-1 -11 -3.5 -21.5t-4.5 -20.5q-32 -3 -66 -4t-61 8q-2 15 -5 32t-4 34.5t0.5 33t8.5 27.5v15t2 12q24 4 61.5 2.5t69.5 -6.5zM262 223q5 4 7.5 12.5t2.5 18t-1.5 18.5t-4.5 16q0 -13 -4 -30.5t0 -34.5zM576 25 q-7 -6 -3.5 -17.5t1.5 -21.5q-53 0 -100.5 2.5t-94.5 -4.5q-14 -2 -26 -2.5t-26 -2.5q-11 -1 -24 -4t-29 -4q-14 -1 -23.5 -1t-21.5 -3q-5 -2 -11 -0.5t-10 0.5q-7 -2 -12 -7.5t-13 -7.5q-10 -2 -20 2t-20 0q-12 14 -28 25t-24 30q-20 8 -33.5 22t-30.5 25q-3 35 1 76t1 81 q-2 17 -5.5 31t-3.5 29q1 51 7 105t4 109q0 11 -3 16t1 14q20 4 53.5 -1.5t67.5 -7.5q9 0 18 1.5t17 0.5q12 -1 24 -4t24 -4q60 -3 116.5 -0.5t101.5 0.5q5 -5 3.5 -9t1.5 -10q22 -21 39 -47.5t42 -45.5q3 -52 6 -99t7 -91.5t10 -88t16 -86.5zM147 -10q3 2 3 12q-2 2 -8.5 1 t-8.5 -3q2 -4 6.5 -5.5t7.5 -4.5zM406 56q6 1 11 2t9 3q-2 2 -10.5 1t-9.5 -6zM68 86q96 -5 191 -1.5t192 -0.5q0 26 -6 51t-8 51q-4 37 -5.5 74t-4 72.5t-7 70t-14.5 67.5q-26 1 -57 -0.5t-56 6.5q-29 -5 -54.5 -4t-50 3.5t-50 5t-55.5 1.5q-11 -42 -15.5 -90t-5.5 -99.5 t1.5 -104t4.5 -102.5zM464 277q1 7 3.5 11.5t2.5 11.5q-3 -1 -5.5 -1.5t-4.5 -2.5q5 -2 2 -9.5t2 -9.5zM485 100q-1 6 1 9t1 10q-3 -1 -4.5 0.5t-4.5 1.5q4 -4 2.5 -11.5t4.5 -9.5z" />
<glyph unicode="p" horiz-adv-x="580" d="M555 199q1 -23 -0.5 -45t6.5 -42q-2 -17 -2.5 -28.5t-0.5 -22t-1 -21.5t-5 -27q-34 -11 -72.5 -13t-74.5 -4q-10 -8 -23.5 -9.5t-27.5 -2t-27.5 -1.5t-22.5 -8q2 -35 3 -65.5t1 -61t-0.5 -61.5t-1.5 -66q0 -10 -2 -19.5t-2 -19.5q1 -29 8.5 -54.5t15.5 -52.5 q-13 -10 -31 -13.5t-38.5 -4t-41.5 0.5t-39 0q-9 -1 -17 -3.5t-17 -0.5q-10 2 -17 9t-13 16t-11 18t-11 17q-8 11 -17.5 19.5t-18.5 18.5q0 55 -2 99.5t-15 94.5q5 35 5.5 66t-1.5 61t-5.5 61t-4.5 67q-3 54 -0.5 107.5t-2.5 108.5q-3 42 -1 83.5t-1 85.5q1 1 4 2t6 1 t5.5 -1t1.5 -4q6 2 3.5 7t3.5 8q77 14 163.5 12t174.5 -4q23 0 41.5 -5.5t37.5 -11.5q20 -26 37.5 -54.5t39.5 -52.5q5 -51 6.5 -96t4.5 -88zM223 -117q0 8 3.5 17.5t-5.5 12.5q1 -8 -0.5 -16.5t2.5 -13.5zM266 -10q3 -2 7.5 -5.5t5.5 5.5q-6 0 -7 2v5t-2 3q-1 -3 -3 -4.5 t-1 -5.5zM294 43q8 -2 16.5 0.5t13.5 8.5q-8 3 -17 -0.5t-13 -8.5zM323 96q19 4 35.5 5t30.5 1t27 1.5t27 8.5q1 46 -0.5 89.5t-4.5 86.5t-6 85.5t-4 87.5q-10 2 -21.5 4t-14.5 5q-23 -6 -45.5 -6t-44.5 2q-6 0 -11.5 3t-11.5 3q-7 0 -14.5 -2t-15.5 -2q-17 -1 -32 0.5 t-26 1.5t-24 -4.5t-27 -6.5q-17 -2 -33.5 -2.5t-33.5 -1.5q-2 -4 -2 -5t-1 -1t-2.5 0.5t-4.5 -1.5q-2 -39 2 -83.5t4 -83.5q0 -21 -5.5 -39.5t3.5 -35.5q-4 -18 -4 -37t1.5 -38.5t3 -38.5t1.5 -36q0 -6 -2 -12t-2 -11q-1 -21 1 -36.5t4.5 -30t4 -30t0.5 -36.5q0 -8 -2 -14 t-2 -14q0 -60 8 -110.5t10 -100.5q24 -2 56 -0.5t57 4.5q-6 56 -7.5 107.5t-0.5 102t2.5 102t0.5 107.5q13 7 27 8.5t29.5 1.5h32.5t37 2zM416 73q3 -6 7 -5.5t8.5 3.5t9 7t7.5 6q-9 -2 -16 -5.5t-16 -5.5zM463 441q-2 -4 -3.5 -11t3.5 -10q2 8 6 12.5t-6 8.5zM467 321 q-2 -19 8 -23q1 8 0 15t-8 8zM482 86q-2 6 0 13t3 13t0 10.5t-7 6.5q-2 -11 -0.5 -23t-8.5 -18q4 0 6 -1.5t7 -0.5zM493 394q4 -4 4.5 -10.5t5.5 -8.5q1 7 -2 15t-8 4zM283 379q14 2 27 7t26 -5q2 -21 6 -43t7.5 -43.5t5 -42.5t-0.5 -42q-19 2 -38 -0.5t-38 -6t-37.5 -6 t-36.5 -0.5q-2 4 -4 7t-7 4q1 21 -1 39.5l-4 37t-3 38t2 41.5q8 6 10 11q18 4 40.5 2.5t45.5 1.5zM215 328q-2 -8 -1.5 -12.5t1.5 -5.5t1.5 3t-1.5 15zM225 221q7 0 14.5 -0.5t9.5 4.5q-4 4 -12 2t-12 2v-8zM328 234q4 11 1 23.5t-3 25.5q-11 0 -15.5 -5t-5 -12.5t2 -16.5 t5.5 -15q2 4 7 2t8 -2z" />
<glyph unicode="q" horiz-adv-x="552" d="M165 368q17 1 35.5 4.5t36.5 5t34 -0.5t30 -13q-2 -38 -4.5 -71.5t-6.5 -63.5q-7 -5 -16 -6.5t-19.5 -1t-22 1.5t-23.5 0q-14 -2 -23 -3t-17 12q0 18 -1.5 34.5l-3 33t-1.5 33t2 35.5zM266 308q-4 -4 -5 -11t-1.5 -15t-0.5 -16.5t-1 -15.5q4 4 6.5 12t4 17t1 17t-3.5 12z M667 -131q-1 -12 2.5 -23t8.5 -21.5t9.5 -20.5t4.5 -20q1 -10 -3.5 -17.5t-4.5 -18.5q-7 -5 -12 -11.5t-13 -10.5q-8 -16 -16 -26t-16.5 -18.5t-17 -18t-17.5 -23.5q-4 -23 -15 -37t-25 -25q-2 -12 -7 -21.5t-10 -18.5t-9 -19t-5 -24q-8 -9 -16.5 -5.5t-19.5 5.5 q-10 1 -21 -1.5t-21.5 -4t-21.5 0t-21 9.5q-5 5 -7 13t-7 14q-3 4 -8.5 7.5t-10.5 8.5q-10 9 -18.5 16.5t-19.5 17.5q-11 9 -20 17t-19 18q-3 19 -14 32q3 17 3 31t9 27q-1 34 -2 66t-2 64.5t-1.5 66t-0.5 72.5q-8 6 -19 7.5t-23 1.5t-23.5 1t-21.5 6q-8 -7 -26 -7.5 t-27 4.5q-20 24 -39 47t-48 36q-6 9 -9.5 21t-12.5 17q-5 93 -3.5 187t-4.5 196q22 10 48 13t54 3t56.5 -1t56.5 1q42 2 81 -2.5t73 -4.5q20 0 34.5 -1t28.5 -15q10 -41 26.5 -74t33.5 -65q-2 -56 -1 -117t5 -120q0 -8 -2.5 -17t-1.5 -16q0 -23 4.5 -45.5t2.5 -44.5 q9 0 19.5 9.5t18.5 15.5q8 -1 13.5 -5t12.5 -7q5 -26 18.5 -44t30.5 -32q4 -16 12 -27t18 -22zM495 37q-5 0 -7 -7.5t1 -10.5q0 4 6 2v16zM465 -26q-3 -9 -4.5 -20t-3.5 -22q9 2 14.5 17t-2.5 25h-4zM432 -377q5 -1 11.5 -4.5t11.5 1.5q-5 1 -12 4t-11 -1zM499 -409 q16 -3 18 14q-8 5 -13.5 -0.5t-4.5 -13.5zM552 -236q18 27 38.5 51.5t32.5 55.5q-7 26 -26.5 47.5t-34.5 44.5q-11 -5 -18 -14t-14 -18.5t-14.5 -18.5t-18.5 -14q-12 -17 -22.5 -35t-25.5 -32q-2 -9 -6 -18t-13 -9q-11 0 -15 8.5t-4.5 20.5t0.5 25.5t1 24.5q-1 51 -3.5 106 t5.5 102q4 3 6.5 8t3.5 10q4 17 3 39.5t1 42.5q2 35 -1 68.5t-6 66t-4.5 64.5t3.5 65q-9 3 -19.5 -0.5t-20.5 -1.5q-8 2 -15 9t-14 9q-24 6 -55.5 1.5t-61.5 -6.5q-24 -2 -48.5 0.5t-48 3.5t-45.5 -1t-41 -12q6 -39 7.5 -77t1 -77.5t-0.5 -80.5t4 -84q4 -6 9 -9.5t7 -10.5 q-1 -6 -5 -8t-3 -10q26 -8 52.5 -10t54 -1t56.5 2.5t60 1.5q15 -11 13 -30t-4 -48q0 -11 1.5 -20.5t0.5 -17.5q0 -7 -2.5 -12.5t-2.5 -10.5q-1 -3 1 -7.5t2 -7.5q1 -11 -1.5 -23.5t-1.5 -23.5q1 -33 5 -62.5t4 -52.5q-4 -3 -5 -9t-1 -12.5v-12t-3 -8.5q4 -14 5.5 -23 t1 -17.5t-1 -18t1.5 -24.5q46 1 80 1t72 -4q8 15 17 27.5t19 26.5t26 26t31 35z" />
<glyph unicode="r" horiz-adv-x="482" d="M38 497q45 2 89.5 7.5t89.5 0.5q12 -1 24.5 -4.5t25.5 -3.5q17 0 35.5 5t36.5 3q28 -3 45.5 -16.5t37.5 -26.5q1 -11 7 -19t12.5 -15.5t11.5 -15.5t6 -19q1 -6 -1.5 -8t-4.5 -8q0 -2 1.5 -5.5t0.5 -5.5q-2 -11 -7 -22t-7 -22t-0.5 -21t2.5 -20t1 -19.5t-3 -19.5 q-2 -5 -5.5 -9.5t-5.5 -10.5q-20 -4 -42 1t-43 3q-9 -1 -17 -3.5t-16 -0.5q-14 4 -19.5 15t-16.5 19q-13 -13 -15.5 -29.5t-1.5 -39.5q1 -20 0.5 -41t-0.5 -42q-1 -21 1.5 -42t2.5 -38q-1 -22 0.5 -39.5t-2.5 -37.5q-7 0 -9.5 -3.5t-6.5 -6.5q-11 -2 -15.5 -2t-13.5 3 q-13 4 -27.5 4.5t-29.5 -0.5t-28.5 -2t-25.5 1q-8 11 -14 24t-13 25.5t-16.5 22.5t-23.5 15q-7 26 -6 57.5t-1 61.5q-1 9 -3.5 17.5t-2.5 16.5q-2 39 5 81t10 84q2 32 1 65.5t5 66.5q0 6 -5 8t-3 11zM70 462q8 -17 5 -35.5t-5 -37.5q-1 -10 0 -20t0 -21q-4 -44 -11.5 -88.5 t-2.5 -90.5q3 -29 4.5 -59.5t5.5 -60.5q16 -1 30 0t26.5 2t25.5 1t28 -3q5 27 0.5 51t-6.5 44q-2 39 0.5 74.5t3.5 70.5q2 32 2 61.5t4 54.5q11 5 32 2.5t41 -2.5q9 0 17.5 2t15.5 0q22 -6 22.5 -22t-2.5 -37q13 -3 25.5 -7t27.5 -5q4 19 4.5 34t0.5 30v30.5t3 36.5 q-12 5 -24.5 5t-24.5 -1.5t-24 -3.5t-24 -2q-16 0 -32.5 4t-33.5 6q-34 2 -65 -1t-63 -5q-2 -6 -3 -4t-3 -3zM186 24q0 -5 -3.5 -6t-4.5 -6q5 -1 10.5 3.5t-2.5 8.5zM231 77q-3 2 -6 -1t-4 -7q11 0 10 8z" />
<glyph unicode="s" horiz-adv-x="472" d="M38 488q2 10 -0.5 16t-3.5 14q9 6 19 7.5t21 1t21.5 -2.5t19.5 -2q61 -3 120.5 2.5t130.5 4.5q22 -23 38.5 -49t37.5 -49q5 -11 3.5 -22t-1.5 -22q0 -23 3.5 -46.5t-5.5 -46.5q-16 2 -26 4.5t-28 0.5q4 -10 7 -21.5t10 -20.5q5 -6 11.5 -11.5l13 -11t11 -12.5t5.5 -17 q-6 -15 -5.5 -35t2 -40.5t0.5 -40t-8 -32.5q5 -25 6 -53t-12 -50q-27 2 -54 0.5t-53 -2.5q-6 0 -13 0.5t-12 -0.5q-7 -1 -14 -5t-14 -5q-6 -1 -12 1.5t-14 3.5q-9 1 -18 -2t-17 -3q-5 0 -9 1.5t-8 1.5q-14 2 -27 -1.5t-29 1.5q-4 8 -14 14.5t-19 13t-14.5 14t-0.5 17.5 q-2 5 -7 6t-9 3q-9 14 -6.5 30.5t0.5 31.5t-6.5 28.5t-0.5 27.5q19 3 46.5 0.5t59.5 2.5q-12 3 -21.5 3t-20.5 -1q-17 14 -30.5 31t-31.5 30q-11 60 -19 127.5t-3 136.5q-8 3 -9.5 14t9.5 13zM74 434q-1 -8 -5 -14t-5 -13q-2 -11 1 -24.5t4 -27.5q1 -40 4 -71.5t9 -66.5 q20 -2 42.5 -3.5t51.5 -1.5q13 0 28.5 2t30 2.5t26 -3t14.5 -15.5q-9 -14 -5.5 -33t2.5 -38q-7 0 -11 -2t-9 -4q-15 4 -31 2.5t-33 -5t-34.5 -6t-33.5 -0.5q-7 1 -10.5 2t-6 1.5t-5.5 -0.5t-7 -4q-2 -17 1 -39.5t4 -41.5h62.5h54.5h53h58q12 0 23.5 3t23.5 5q5 17 0 36 t-11 33q-2 6 2 6t3 6q1 20 -3 37.5t-4 36.5q0 11 2 23.5t4 24.5t2.5 24t-3.5 23q-43 -2 -88.5 -1t-93.5 1q-14 14 -20 40.5t-2 51.5q8 0 11.5 4t8.5 6q24 3 47 2t46 -2.5t45 -2t44 4.5q4 27 3 57t-13 49q-11 -4 -22 -7t-23 -1q-7 1 -11.5 4.5t-10.5 3.5q-4 1 -8 -1t-9 -2 q-15 -1 -34 2.5t-30 0.5q-4 -1 -4.5 -3t-4.5 -2q-12 0 -20 4q-12 -5 -27 -5t-29.5 1.5t-27 1t-21.5 -6.5q0 -14 3.5 -27t1.5 -27zM262 360q-3 -1 -8 0.5t-4 -3.5q3 -3 6.5 -1t5.5 4zM338 360q-4 -1 -9.5 0.5t-4.5 -3.5h8.5t5.5 3zM390 444q-2 5 1 5.5t2 4.5q-2 2 -3 6t-5 5 q2 -5 1 -12t4 -9z" />
<glyph unicode="t" horiz-adv-x="532" d="M23 522q8 0 16 -2.5t15.5 -6t15.5 -6.5t17 -4q15 -1 31 2t34 0q3 15 4 35t0.5 41t-2.5 41.5t-5 37.5q13 5 27 1.5t31 -3.5q14 0 28.5 1.5t28.5 3t27 1t24 -5.5q3 -11 11 -18.5t17 -14.5t17 -14.5t12 -18.5q7 -17 6.5 -35t4.5 -38q18 1 30.5 -4t23 -12.5t20.5 -15 t24 -11.5q10 -16 13 -36.5t4 -42.5t3.5 -42.5t11.5 -36.5q-5 -1 -10 -2.5t-8 3.5q-14 -6 -29.5 -6t-31.5 1.5t-32 1.5t-31 -6q7 -38 9.5 -71.5t3 -65.5t0 -63.5t1.5 -65.5q-1 -6 4.5 -5.5t4.5 -5.5q-5 -5 -5 -13.5t1 -18.5t1.5 -19t-3.5 -15q2 -3 5 -0.5t7 -1.5 q2 -9 1.5 -11.5t-2.5 -10.5q-25 1 -45.5 1.5t-40 0.5t-39 -1t-42.5 -3q-19 23 -36 47.5t-31 50.5q0 32 -1 60.5t-2 56.5t-3 57.5t-5 64.5q-9 5 -15.5 3.5t-17.5 -3.5q-27 17 -49 39t-42 48q1 24 2.5 48.5t-2.5 47.5q-1 8 -4.5 16t-5.5 15.5t-2 15t5 14.5zM70 378 q11 4 22.5 3.5t23 -2t22 -1.5t20.5 5q7 -12 8.5 -26t-5.5 -27q16 -60 23.5 -114t6.5 -108q7 -8 9 -16.5t1.5 -18.5t-1 -20.5t1.5 -23.5q14 -2 26.5 -0.5t25 4t25 4t25.5 0.5q-8 43 -9 87t0 88.5t0.5 88.5t-7.5 88q32 3 62.5 2t62.5 -3q3 28 -2.5 51t-9.5 52q-11 2 -30 5 t-36 4q-6 0 -12.5 -1t-13 -1t-11.5 2.5t-7 8.5t0 16.5t2 16.5q0 23 -2.5 48.5t-5.5 51.5q-12 -5 -25.5 -5.5t-27 -0.5h-26t-22.5 -4q1 -35 0 -73.5t0 -69.5q-29 -11 -60 -8t-66 2q3 -21 5 -50.5t7 -54.5zM250 10q-5 0 -7.5 -2t-8.5 -1q2 -5 10 -5t6 8zM308 9q-1 3 -1 10 q-6 -2 -15 -1.5t-15 -4.5q5 -4 13 -4.5t18 0.5zM347 -38q-2 2 -2 4q-5 -3 -7 -1t-7 2q-1 -2 -2.5 -3t-1.5 -3q6 2 12 -0.5t8 1.5zM346 124q0 -10 1 -10.5t1.5 3.5t0.5 10.5t-2 10.5q2 -3 0.5 -6.5t-1.5 -7.5zM436 475q0 4 -2 5t-4 3q1 -2 0 -6.5t2 -3.5q2 2 4 2z" />
<glyph unicode="u" horiz-adv-x="572" d="M34 525q8 3 15.5 -2.5t14.5 -8.5q31 -3 60 0t58 -2q2 -2 2 -4.5t5 -0.5q6 -20 17 -37t22 -37q5 -8 11.5 -15t7.5 -15q2 -11 -0.5 -23.5t-2.5 -24.5q-1 -38 -0.5 -78.5t7.5 -77.5q4 -2 11.5 -1.5t13.5 -0.5q4 20 5 39.5t0 40t-2.5 41t-0.5 42.5q0 14 4 27.5t4 27.5 q0 10 -1.5 21t-2 22t0.5 21.5t7 20.5q13 -1 25 1t23 3.5t22 2t22 -3.5q11 8 26 8t30 5q12 -4 18 -12.5t9.5 -19t6 -22t7.5 -21.5q8 -14 18.5 -26.5t11.5 -29.5q5 -6 9.5 -7.5t8.5 -6.5q1 -2 -0.5 -4.5t0.5 -6.5q1 -2 3 -3.5t2 -3.5q2 -12 0 -26.5t7 -24.5q-5 -20 -5.5 -45.5 t1.5 -51.5t5 -51.5t5 -46.5q1 -17 0 -33.5t-1.5 -33t1.5 -32t8 -28.5q-21 -2 -44 -1t-51 1q-10 0 -20 -1t-19 -1q-24 2 -47.5 6.5t-44.5 4.5q-8 0 -16.5 -3.5t-17.5 -3.5q-3 0 -6.5 1.5t-7.5 1.5q-14 0 -28 -4t-26 1q-4 -4 -8.5 -6t-7.5 -7q-1 -1 1 -1q1 -4 -3.5 -1t0.5 4 q-12 5 -28 4.5t-27 4.5t-20.5 14.5t-20.5 17.5q-2 2 -5 2.5t-5 2.5q-11 9 -24.5 16.5t-27.5 13.5q-1 8 -6.5 12t-8.5 9q-2 32 -0.5 61.5t1.5 55.5q0 50 -5 103t0 111q1 16 0 33t-2 33t-0.5 31t6.5 29zM67 422q1 -26 -1 -60t-4 -57q-1 -15 3 -29t4 -27q0 -6 -2.5 -11.5 t-2.5 -11.5q-1 -8 1 -16t2 -16q2 -30 -0.5 -57.5t-1.5 -55.5q18 -2 36 -2h35q27 0 54.5 1t55.5 -1q15 -1 30.5 -3.5t31.5 -3.5q35 -2 68 -2t66 -7q0 53 -5 103t-9.5 98t-6 95t4.5 95q-3 5 -6 4.5t-5 4.5q4 6 5.5 6.5t3.5 8.5q-26 -5 -56.5 -4t-56.5 -7q-8 -19 -4.5 -32 t2.5 -29q-1 -17 -5 -34.5t-3 -34.5q0 -43 3.5 -84t-5.5 -77q-18 4 -36.5 2.5t-36.5 -3.5t-35 -1.5t-30 8.5q5 17 3.5 32t-0.5 31q1 7 2.5 13.5t1.5 13.5q0 8 -2.5 15t-2.5 15q-1 6 0.5 12.5t0.5 13.5q0 10 -2.5 18.5t-4.5 17.5q-2 20 -0.5 36t4.5 33q-4 6 -4 14t1.5 16 t2 16.5t-1.5 14.5q-20 3 -43.5 -0.5t-46.5 2.5q-3 -6 -11 -7q-2 -21 3 -34t6 -33zM191 236q-2 10 1.5 15t1.5 14q-7 -3 -6.5 -13.5t3.5 -15.5zM385 52q-5 3 -9 3t-12 -1v-5q5 2 11.5 1.5t9.5 1.5zM479 399q0 -4 -3.5 -7.5t0.5 -6.5q2 2 5 6t-2 8z" />
<glyph unicode="v" horiz-adv-x="708" d="M22 497q10 6 23.5 10.5t26.5 6.5q7 2 16.5 2.5t12.5 -5.5q8 8 17 6t17 -2q23 -1 39.5 2t33.5 -3q5 -2 8 -6t8 -6q10 -4 20 -6t21 -6q15 -18 29.5 -36.5t27.5 -38.5q-3 -38 6 -64t21 -49q6 10 3 17t-3 18q1 20 12.5 40.5t22.5 37.5q13 18 27 42.5t28 42.5q17 6 37.5 7 t42 0.5t43 -1.5t41.5 1q4 0 12 2t16 2.5t14 -2.5t7 -13q1 -3 -1 -5.5t-2 -5.5q1 -5 4.5 -12.5t5.5 -14.5q2 -6 1 -12t-1 -8q5 -15 15.5 -25.5t19.5 -21.5q-28 -52 -53.5 -105t-59.5 -98q-3 -11 -8.5 -22t-11.5 -22t-11 -23t-8 -26q-4 -1 -4 -6t-4 0q-5 -25 -14.5 -44.5 t-18.5 -40.5q-3 -4 1 -4.5t2 -7.5q-23 -8 -47.5 -10.5t-49 -4.5t-49.5 -5t-49 -12q-10 14 -20.5 26t-21.5 26q-12 -1 -20.5 5t-14.5 16.5t-10.5 24t-9.5 26.5q-7 17 -15 32.5t-10 23.5q-2 5 -1 10t0 10q-5 17 -15 32.5t-20 32.5q-3 8 -4 16t-4 15q-5 12 -12 21t-12 25 q-8 21 -23 39.5t-25 39.5q-13 27 -29.5 54t-19.5 62zM65 469q11 -21 22.5 -46t23.5 -48q10 -18 21 -36.5t20 -36.5q4 -10 9.5 -18t11.5 -18q4 -8 6.5 -18.5t6.5 -18.5q10 -22 21 -37t16 -39q5 -29 16 -49.5t19 -47.5q22 6 43 6.5t41.5 0.5t40 1t39.5 9q-2 14 2.5 28t10.5 24 q-1 14 3.5 26.5t6.5 29.5q9 6 11 16.5t5 19.5q5 11 10.5 20t10.5 20q17 32 36 59t33 59q-1 5 1 7.5t0 7.5q12 20 24 41.5t21 44.5q-12 -3 -25 -2l-26 2t-25.5 0t-21.5 -8q-5 1 -5.5 5t-4.5 5q-7 -5 -16.5 -4t-14.5 1q-2 -1 -3 -3.5t-6 -0.5q-4 -14 -10 -26t-12.5 -23.5 t-12 -23.5t-8.5 -27q-12 -11 -21 -34t-15 -44q-5 -18 -4.5 -40t-4.5 -39q-8 -7 -7 -16t-4 -17q-23 -10 -36.5 -6t-21 16t-12 28.5t-9.5 31.5q-9 24 -18.5 48.5t-11.5 55.5q-15 24 -21.5 60t-14.5 70q-18 -3 -39 -2t-42.5 2t-41 -2t-34.5 -14h17zM245 467q-3 1 -4 3t-6 0 q0 -1 -1 -5.5t2 -4.5q-1 5 3.5 4t5.5 3zM333 225q2 3 6.5 17.5t1.5 22.5q-5 -6 -7.5 -18.5t-0.5 -21.5zM455 108q-8 -4 -9.5 -18.5t0.5 -22.5q2 11 4.5 20.5t4.5 20.5zM574 259q-9 -2 -8 -11q5 -1 6 2.5t2 8.5zM628 469q-1 -4 -4 -5.5t-2 -6.5q3 1 6 5.5t0 6.5z" />
<glyph unicode="w" horiz-adv-x="779" d="M21 504q14 9 30 9t32.5 -1.5t32 -2.5t29.5 5q-2 -7 3.5 -5.5t10.5 0.5q23 -19 45.5 -38t43.5 -39q20 -3 39.5 -1l39 4t38 1.5t35.5 -7.5q11 -26 27.5 -45t29.5 -42q1 18 0.5 38.5t-1 41.5t-0.5 41t2 38q11 1 25 0t24 7q32 -3 71 -1.5t67 11.5q29 -18 43 -51 q26 -16 39.5 -44t25.5 -58q-5 -23 -4.5 -46.5t1.5 -47t1.5 -46t-4.5 -42.5q4 -26 3 -52t-4 -51.5t-6.5 -50.5t-2.5 -49l-89 -8q-7 5 -16 5t-18.5 -1.5t-18.5 -2.5t-16 3q-12 -5 -26.5 -4t-31.5 1q-15 1 -29 -2.5t-26 -3.5q-11 0 -27.5 1t-32.5 -1q-27 -2 -52.5 -7t-48.5 2 q-11 -3 -26 -5.5t-31 -3.5t-31 0.5t-27 4.5q-17 5 -31.5 20t-30.5 25q-13 8 -25.5 12.5t-21.5 14.5l-12 -1.5t-14 1.5q-5 6 -7 13.5t-7 12.5q-3 38 -7 80t-6.5 84t-1 82t10.5 74q-10 32 -9.5 63t-6.5 65zM67 434q1 -3 -0.5 -3.5l-3 -1t-3 -1.5t0.5 -4q8 -23 8 -44.5 t-3 -42.5t-6.5 -41.5t-2.5 -41.5q2 -45 6 -90t10 -90q24 2 44.5 0t45.5 0q16 1 32 5t33 4q8 0 15.5 -1.5t15.5 -1.5q23 -1 42 -1.5t36 0.5q11 1 21.5 2.5t20.5 0.5q32 -2 73 -2.5t79 -2.5q29 -2 59 -5.5t61 0.5q1 38 -3.5 74t-6.5 65q-1 17 1.5 34.5t1.5 34.5q-2 25 -4.5 51 t-4.5 52.5t-2.5 53.5t3.5 54q-20 -4 -41 -4.5t-41.5 -1t-39.5 -1.5t-35 -6q1 -78 3.5 -148.5t4.5 -142.5q-23 -2 -51 -2t-51 -1q-10 56 -12.5 116.5t-10.5 114.5q-23 -4 -44.5 -5t-49.5 1q-6 -25 -4 -53.5t5 -58t5 -59.5t-4 -59q-23 -4 -44.5 -5.5t-41.5 -5.5q-9 9 -12 22.5 t-4 29t-1 32.5t-2 33q-7 51 -9 104.5t-14 99.5q-26 -3 -48 1t-40 -1q-3 -14 3.5 -28.5t9.5 -28.5zM224 414q-1 7 0.5 9.5t-4.5 3.5q0 -4 -0.5 -8.5t4.5 -4.5zM328 45q-1 1 -6 1.5t-11 0t-12 -0.5t-9 2v-6q4 1 10 -0.5t12 -2.5t10.5 -0.5t5.5 6.5zM395 42q-9 -1 -16 2t-10 -3 q6 -1 14.5 -2t11.5 3zM515 -4q0 9 -7 10.5t-14 2.5q-1 -3 -2 -5.5t0 -7.5q8 1 11 0.5t12 -0.5z" />
<glyph unicode="x" horiz-adv-x="714" d="M241 295q-2 8 -7.5 11.5t-7.5 11.5q-36 19 -61 53q-5 7 -11 12t-10 11t-6 13.5t-6 13.5q-10 14 -21.5 26t-22.5 25q-4 0 -4 1.5t0.5 2.5t0.5 2t-4 1q-5 9 -7.5 18.5t5.5 17.5q6 -2 9 -1.5t5 1.5t4 2.5t8 1.5q11 0 19 -1t17 -2q17 -2 32 -1t31 5q18 -1 28.5 -3.5 t24.5 -8.5q14 -5 22.5 -7t18.5 -8q5 -3 12 -4.5t11 -4.5q10 -7 15.5 -17t9.5 -20.5l8 -21t11 -18.5q7 17 18 30t22.5 25.5l23 25t19.5 27.5q21 2 42 2.5t43 -1.5q7 0 13.5 -2.5t13.5 -2.5q22 0 41.5 6t39.5 3q18 -25 32 -53.5t25 -59.5q-11 -15 -23 -28.5t-27 -24.5 q-18 -24 -40.5 -42.5t-45.5 -37.5q-7 -8 -13 -16.5t-17 -11.5q-8 -16 -21.5 -26.5t-26.5 -21.5q8 -12 17.5 -22t19.5 -20.5t18.5 -21.5t13.5 -26q4 -4 8.5 -11t9.5 -14.5t10.5 -13.5t10.5 -9q0 -5 2.5 -7t0.5 -7q16 -8 24.5 -24.5t19.5 -34.5q3 -4 8 -10t5 -11 q-1 -9 -9.5 -12.5t-19.5 -4.5t-24 -0.5t-23 0.5q-32 -2 -57 -3t-49 13q-4 13 -12 22t-18.5 16t-22.5 12.5t-22 11.5q-6 2 -4 9.5t1 11.5q-2 5 -6.5 14.5t-10.5 19.5t-11.5 17.5t-8.5 7.5q-4 0 -11 -5t-14 -12.5t-13.5 -14.5t-9.5 -11q-9 -10 -17.5 -22t-18 -24t-19.5 -22.5 t-21 -17.5q0 -11 -5 -16q-15 3 -30 1.5t-29.5 -4.5t-28 -6.5t-26.5 -4.5q-10 5 -14 14.5t-12 16.5q-13 3 -21.5 10.5t-15.5 16t-15 16t-21 10.5q-2 5 -1.5 13t-3.5 12q5 8 11 14.5t7 19.5q27 41 57 78.5t67 69.5q19 11 37 22t32 26q8 2 11 7t11 7zM139 51q41 28 76 57t68 65 q3 10 12 18t15 14q15 -7 21 -22t13 -29q11 -22 28 -49t30 -45q15 3 34 2t39.5 -2.5t41.5 -1.5t39 5q-11 21 -29 46t-31 45q-3 2 -6.5 2.5t-5.5 2.5q-8 12 -17.5 22t-18.5 20.5t-17.5 22t-13.5 25.5q-8 5 -13 12t-2 20q5 1 8 2t7 3q2 3 1.5 7.5t1.5 7.5q44 47 86.5 94.5 t88.5 92.5q-2 2 -3.5 1.5t-2.5 -2.5t-2 -3.5t-4 -0.5q-12 -2 -26 0t-29 3.5t-31 1.5t-31 -5q-10 -15 -22 -27t-24 -24.5t-21.5 -27t-13.5 -34.5q-6 -5 -11 -14.5t-11.5 -17.5t-14.5 -11.5t-20 4.5q-2 4 -0.5 5.5t0.5 6.5q-23 40 -46.5 76.5t-52.5 68.5q-11 4 -25.5 3 t-30.5 -3q-10 -2 -19.5 -0.5t-19 3.5t-19 2.5t-19.5 -5.5q1 -7 5 -10.5t8 -3.5q25 -22 42 -51.5t41 -51.5q10 -10 21 -19t21 -18.5t17.5 -21.5t11.5 -27q-21 -18 -44 -34t-45.5 -32.5t-43 -35t-37.5 -40.5q-14 -17 -25 -37.5t-23 -40.5v-3q23 4 45.5 -1.5t48.5 -9.5zM183 51 q-4 -5 -10 -7t-8 -9q7 2 12.5 7.5t5.5 8.5zM337 129q1 8 -4 10.5t-5 10.5q-4 -1 -7 -2.5t-2 -6.5q6 -1 8.5 -6t9.5 -6zM443 255q-1 2 -1.5 6t-5.5 2q2 -8 7 -8zM464 9q3 5 -2.5 5.5t-6.5 -2.5q3 -1 4.5 -2.5t4.5 -0.5zM466 230q-3 2 -2 6.5t-3 5.5q3 -7 0.5 -11t-2.5 -6 q1 2 4.5 1.5t2.5 3.5zM524 21q7 -1 8 4.5t3 9.5q-3 -1 -4 1t-5 1q-2 -4 -3 -7.5t1 -8.5zM583 35v5q-5 2 -5.5 -0.5t-1.5 -4.5h7z" />
<glyph unicode="y" d="M20 489q3 3 6 5.5t3 7.5q21 1 43.5 5t44 6t42 0t38.5 -13q9 -11 13.5 -27t13.5 -32q4 -8 9.5 -14.5t11 -14t9.5 -17t4 -21.5q2 -12 -1 -25t-3 -27q-1 -28 1.5 -54.5t-3.5 -48.5q18 -3 28.5 -4t24.5 -9q2 81 4.5 151.5t7.5 133.5q17 4 38 8t42 4.5t39.5 -5t30.5 -18.5 q6 -22 14.5 -41t17.5 -37t18 -35.5t17 -36.5q6 -118 0 -237q0 -18 -2 -35.5t4 -32.5q1 -5 -0.5 -8l-3.5 -7q8 -17 6.5 -35.5t-2.5 -38.5q-1 -26 1.5 -55t0.5 -62q0 -13 1 -25.5t2 -26.5q2 -19 0.5 -37t-2.5 -35q0 -11 4.5 -21t6.5 -18q-2 -5 -6.5 -5t-4.5 -8q-25 -10 -50 -9 t-54 -2q-18 -2 -36 -7t-35 -10.5t-33.5 -9t-31.5 -2.5q-10 1 -14 6t-13 12q-21 17 -48 32.5t-53 23.5q-4 1 -6 5t-3.5 7.5t-3.5 6t-6 1.5q-5 26 -14.5 57.5t-14.5 57.5q38 -2 74.5 5t74.5 6h37t35 9q-2 31 -8 44.5t-11.5 25t-9 28t-1.5 52.5q-30 3 -58.5 2.5t-65.5 -2.5 q-7 -7 -18.5 -9.5t-19.5 -1.5q-12 1 -21.5 7t-18 14t-15.5 16.5t-14 14.5q-5 3 -8.5 0.5t-8.5 1.5q-3 7 -8 8.5t-11 7.5q0 19 -0.5 42t-1.5 48t-2 49.5t-2 47.5q0 26 -5 51.5t-9 55.5q-4 43 -3 80t-4 74zM52 361q-2 -33 5 -64t9 -63q3 -45 1 -82.5t5 -80.5q16 7 34.5 8 t37.5 0t37 -3t34 0q13 1 25.5 4.5t24 7t23 5.5t22.5 0q7 -8 11 -18t6.5 -21.5t4.5 -23.5t5 -24q-5 -35 -3 -57.5t7.5 -42t13 -41t12.5 -55.5q-18 0 -35 -6t-35 -7q-8 0 -17.5 3.5t-19.5 3.5q-18 -2 -38 -7t-40 -6q-8 -1 -17 0t-17 0q0 -22 8.5 -38.5t7.5 -33.5 q18 -1 34.5 -5t31.5 -7t29.5 -4t29.5 5q20 -3 41.5 -0.5t44 6t45 6.5t44.5 1q0 -5 -3 -10t4 -5q4 4 3.5 0t4.5 -3q4 3 4.5 10t-1.5 12q-11 -3 -16.5 1.5t-8 13t-2.5 20.5v24q-2 35 -1.5 69.5t-1.5 69.5q-2 19 -3 43.5t-2 51.5t-2 55t-2 53q-3 52 -4.5 102t0.5 98 q1 18 2.5 36t2 35t-1 33.5t-6.5 32.5q-18 4 -41 2t-42 -9q4 -36 -2 -69t-8 -65q-2 -34 -1.5 -63.5t-7.5 -56.5q-11 0 -15 -7t-12 -11q-20 0 -37 3t-32.5 7.5t-29.5 8.5t-28 7q-5 72 -7.5 141.5t-7.5 135.5q-32 -5 -56 -5.5t-54 -5.5q-1 -26 2 -54.5t1 -60.5zM100 41 q1 2 2 3.5t0 4.5q-4 -3 -6.5 -1t-4.5 -3q3 -1 4.5 -3t4.5 -1zM195 267q2 5 1 12.5t-5 11.5q1 -10 1 -13.5t3 -10.5zM458 -301q-2 1 -9.5 0.5t-9.5 -2.5q4 -2 9.5 -1t9.5 3zM469 154q1 5 2.5 14.5t2.5 20t0 18.5t-5 10q-7 -29 0 -63zM478 -220q0 6 2 16.5t3.5 22.5t1 22.5 t-6.5 16.5q3 -20 1 -41t-1 -37zM515 -275q2 3 0.5 4.5t-0.5 6.5q-5 2 -5.5 -1t-1.5 -5q2 -2 3.5 -3t3.5 -2z" />
<glyph unicode="z" horiz-adv-x="564" d="M24 536q11 1 21 -3t21 -6q37 -7 76 -7.5t78.5 0.5t77.5 1t72 -5q15 6 39 4t36 -13q1 -8 0.5 -11t-0.5 -11q25 -53 65 -92q-4 -19 -3.5 -39t1.5 -40t1 -39t-6 -37q-25 -11 -48.5 -23t-42.5 -29q7 -2 19.5 2t20.5 2q5 -2 6 -5t3 -8q20 -6 30 -23t22 -35q6 -8 16.5 -15.5 t12.5 -13.5q5 -10 3 -21t-1 -21q2 -17 1 -33.5t-7 -33.5q-2 1 0 1.5t-8 -1.5q-60 -1 -133 -6t-145 -5q-8 0 -19.5 -1.5t-20.5 -3.5t-17.5 -0.5t-16.5 2.5q-12 1 -21 4.5t-19 5.5q-3 3 -5 11q-14 8 -26 19.5t-29 16.5q-8 3 -16 3t-13 10q5 19 4.5 42t-3.5 47.5t-7.5 49 t-7.5 46.5q22 13 47 24t50.5 21.5t50.5 21.5t46 26q-6 2 -12 3t-14 0q-10 -1 -20 -7.5t-18 -4.5q-7 1 -9.5 6t-8.5 10q-13 11 -32 18.5t-35 17.5q-11 -2 -17 1l-12 6q1 8 -4 15q-1 3 -6 2t-6 2q-8 13 -7 31t-8 32q1 12 -0.5 23.5t-2.5 23t0 22t7 20.5zM55 400q63 1 128 -0.5 t135 -1.5q6 -6 6.5 -13.5t-2 -16t-4.5 -18t0 -19.5q-15 -12 -32.5 -17t-31.5 -12q-5 -2 -8 -7t-8 -8q-11 -7 -23.5 -12.5t-27.5 -7.5q-12 -12 -29 -19.5t-35 -13.5t-35.5 -12.5t-29.5 -15.5q8 -26 11.5 -50t5.5 -57q0 -5 4.5 -6t4.5 -7q-3 -7 -6 -13t0 -16q48 -9 96 -11 t95.5 -0.5t94 4.5t90.5 5q-5 12 -6 25.5t-1 28t-1 29t-5 28.5q-27 1 -58.5 -7t-66.5 -6q-8 1 -20.5 4t-21.5 3t-23.5 -1.5t-27 -1.5t-20 4t-3.5 16q10 2 18 8t22 8q38 35 85 60t91 54q2 53 -2.5 99.5t-12.5 91.5q-31 -7 -63.5 -5t-67.5 -1h-32q-20 1 -40 -1t-40 -2 q-31 0 -59 7t-57 5q-3 -14 0 -26t7 -24t6.5 -24t-0.5 -27zM133 26q-4 2 -11 3t-9 -1q9 -9 20 -2zM241 -8q-3 -1 -8 0t-6 -2q2 -2 8 -2.5t6 4.5zM272 -8q-5 1 -13.5 1t-11.5 -3q1 5 -1.5 3.5t-2.5 -3.5q6 -2 14.5 -1t14.5 3z" />
<glyph unicode="{" horiz-adv-x="398" d="M343 509q-5 -3 -13.5 -4t-16.5 -2t-15 -3t-10 -7q-1 -27 -1 -57t-9 -53q2 -15 2.5 -34.5t-0.5 -39.5t-2.5 -39.5t-4.5 -34.5q3 -23 2.5 -46.5t1.5 -49.5q8 -5 18 -6.5t18 -6.5q8 -17 18.5 -32t21.5 -29q2 -26 1 -48.5t1 -42.5q-6 -2 -7 -7t-4 -10q-8 -7 -16 -8t-17 0.5 t-18.5 4.5t-19.5 4q-16 2 -31.5 -2.5t-28.5 -2.5q-11 1 -19.5 9.5t-17.5 18.5t-18.5 18.5t-20.5 10.5q-1 28 -7.5 53t-8.5 51q-2 33 2.5 67.5t5.5 69.5q-21 16 -41.5 32.5t-44.5 29.5q-2 27 -7 48.5t-5 50.5q20 8 42.5 13t42.5 13q-2 33 -4 68.5t-2 70t2.5 67.5t11.5 62 q48 12 87.5 12.5t81.5 4.5q11 -23 23 -42t20 -45q12 -5 14.5 -15t1 -22.5t-4.5 -26.5t-3 -27q0 -10 3 -19t-4 -17zM267 688q-16 -5 -37.5 -8t-41.5 -3q-5 0 -9.5 2t-8.5 0q-14 -3 -20.5 -17.5t-9 -33t-3 -38.5t-0.5 -35q0 -5 -1 -9.5t-1 -9.5q2 -33 4.5 -63.5t0.5 -54.5 q-21 -2 -46 -10t-39 -17q1 -16 5 -29.5t4 -33.5q10 -2 23.5 -2t26 -1t23 -3.5t14.5 -9.5q7 -12 3.5 -27.5t3.5 -32.5q-7 -8 -9.5 -20.5t-3 -26t-2 -27.5t-5.5 -24q6 -11 3 -24t-1 -27q2 -21 9 -42.5t6 -41.5q38 0 74 -3.5t69 -6.5q-2 28 2.5 55t-1.5 51q-6 8 -14.5 7 t-18.5 1q-7 2 -13.5 6.5t-12.5 4.5q-4 0 -9 -2.5t-9.5 -4t-9 -0.5t-7.5 7q-2 52 -2 110t2 114q1 20 4 40.5t2 40.5q-2 38 -3.5 76t8.5 72q11 7 28 6.5t26 3.5q-2 22 1 47t-4 44zM244 143q5 1 9 -1v7q-5 1 -6 -1.5t-3 -4.5z" />
<glyph unicode="|" horiz-adv-x="488" d="M146 760q7 5 17 7t20 2t19 -1.5t15 -3.5q16 3 37 5.5t36 -2.5q3 -7 2 -9.5l-3 -7.5q11 -29 24 -57.5t31 -50.5q-5 -69 1.5 -136t8.5 -136q-4 -16 -4.5 -35t0.5 -38.5t1 -38.5t-4 -34q8 -18 5 -37t-2 -41q1 -26 -1.5 -53t-0.5 -50q1 -7 4 -13.5t4 -14.5q2 -14 0 -28.5 t0 -28.5q2 -12 4 -19.5t0 -19.5q-1 -9 -1 -19.5t-5 -18.5q-26 -3 -55.5 0.5t-53.5 -0.5q-7 -1 -10.5 -3t-11.5 0q-5 2 -5.5 4t-4.5 6q-3 3 -6.5 4t-5.5 3q-9 8 -16 16t-21 10q-4 8 -7.5 16t-9.5 14q-3 52 -4 100t-3 107q-2 48 1.5 92.5t1.5 92.5q-5 106 -4 207.5t7 209.5z M167 682q-7 -21 -8 -52.5t0 -60.5q1 -5 3 -18.5t2 -23.5q0 -38 -3 -75t2 -76q2 -14 2.5 -25.5t0.5 -25.5q-1 -23 0.5 -43.5t-0.5 -39.5q-4 -35 0 -66t6 -60q0 -11 -1.5 -21t-0.5 -21q2 -29 8.5 -57t0.5 -57q24 -3 49.5 -6.5t51.5 4.5q-8 32 -9.5 64t0 64t3.5 65t1 68 q-1 20 -3.5 40t-4.5 40q-1 22 -1 44t-2 43q-3 46 -1.5 92t4.5 92t4.5 91t-2.5 89q-11 2 -23 -1.5t-24 -3.5q-7 0 -14.5 1.5t-15 2t-14 -0.5t-12.5 -7q-1 -19 -1.5 -30.5t2.5 -28.5zM333 407q1 6 1.5 12t-3.5 11q-1 -6 -0.5 -12t2.5 -11z" />
<glyph unicode="}" horiz-adv-x="420" d="M387 228q-4 -8 -12 -7t-16 -1q-5 -2 -9.5 -5.5t-9.5 -3.5q-8 -2 -15.5 2t-15.5 0q6 -28 7 -57.5t0.5 -60t-1.5 -61t-1 -60.5q-14 -8 -31 -8.5t-32 -2.5q-8 -1 -15 -4.5t-15 -5.5q-5 -1 -10.5 0t-10.5 0q-4 -1 -7.5 -3t-6.5 -3q-28 -4 -48 8.5t-33 30.5q-6 -2 -8.5 0.5 t-6.5 4.5q4 27 -1.5 59.5t-1.5 65.5q12 5 22.5 1t21.5 1q-4 30 0 67.5t8 74.5q-8 37 -4.5 76.5t2.5 74.5q-1 16 -5.5 36t-3.5 43q0 9 1.5 17t-1.5 17q-9 1 -15.5 5t-12.5 9t-12 9t-15 5q-13 25 -35 38q-5 31 -2 63.5t-2 61.5q12 5 28.5 3t30.5 0q5 1 10.5 3.5t10.5 2.5 q7 -1 13 -6t14 -7q9 -2 21 -1t23 0q7 -1 14 -3t15 -3q6 -1 12 -0.5t11 -0.5q8 -3 11.5 -9t10.5 -10q5 -18 11.5 -32t14.5 -31q3 -6 8 -11.5t7 -11.5q4 -14 -1 -32t-4 -37q0 -5 2 -8t2 -6q0 -11 -1.5 -22t-2 -21.5t1 -20t6.5 -16.5q-2 -5 -1.5 -10.5t0.5 -10.5q7 -5 17 -6.5 t20 -3.5q11 -20 22.5 -42.5t19.5 -41.5q-9 -20 -3.5 -46.5t9.5 -45.5zM314 378q-17 3 -35 9t-33 -2q-12 2 -15.5 11t-3 20t3 23.5t2.5 21.5q-1 22 -1.5 43t-0.5 44q-1 33 -1.5 63.5t-2.5 64.5q-12 6 -27.5 8.5t-27.5 2.5q-8 -1 -18 -1t-16 1q-8 2 -13.5 7t-11.5 5 q-14 1 -22.5 -7t-12.5 -21t-5.5 -27.5t-1.5 -27.5q7 -5 11 -12q11 3 20 -2t19 -11q14 0 21 -2t15 -9q0 -16 4 -25q-4 -21 -7 -54.5t0 -61.5q4 -34 2 -68.5t-2 -67.5q0 -20 1 -39t0 -39q-2 -23 3.5 -45t2.5 -44q-1 -6 -4.5 -12t-2.5 -13q-10 -5 -20.5 -9.5t-26.5 -0.5 q-1 -12 0.5 -24.5t3 -24.5t2.5 -24t-2 -24q16 -2 25.5 -3t26.5 0q5 6 16 8t23 2.5t24 0.5t20 1q-4 32 -3.5 66t1 67.5t-1.5 67.5t-11 66q18 6 40.5 13t42.5 2q1 18 0.5 40t-0.5 43z" />
<glyph unicode="~" horiz-adv-x="448" d="M367 184q-7 2 -13 7.5t-12.5 10t-13 6.5t-13.5 -3q-2 6 -5.5 8.5t-6.5 7.5q-25 1 -47 -9t-44.5 -22t-46 -19.5t-50.5 0.5q-5 2 -10 6t-13 2q-5 14 -17 19t-22 13q-2 13 -7 25t-10 23.5t-8.5 23.5t-1.5 26q3 29 18.5 52.5t28.5 43.5q15 -11 28 -24t27 -23t29.5 -15 t35.5 -2q17 3 32 14.5t30.5 23.5t32.5 20t39 4q10 -2 17.5 -8t14.5 -13t14.5 -14t17.5 -11q0 -10 3.5 -14.5t7.5 -9.5q0 -19 7 -31.5t7 -26.5q0 -15 -6 -26.5t-14.5 -22t-16.5 -20.5t-12 -22zM377 344q-11 9 -22 17t-24 13t-27.5 5.5t-31.5 -6.5q-17 -11 -33 -29t-36 -24 q-18 -6 -35.5 -2t-34 13t-31.5 22t-29 26q-13 -12 -19 -32l-12 -40q7 2 8.5 -3t1.5 -13q9 -11 21 -21t26.5 -15.5t30 -6t32.5 7.5q15 -12 32 -5t34 20t33.5 25.5t30.5 12.5q9 0 16.5 -4.5t14.5 -11.5l14 -14t15 -12q3 10 7 18t8.5 16t7 18t2.5 25z" />
<glyph unicode="&#xa1;" horiz-adv-x="289" d="M239 11q5 -8 5.5 -17t-1 -18l-3 -18t-1.5 -19q-33 -4 -62.5 -4.5t-64.5 2.5q-11 7 -18 16.5t-19 14.5q-6 3 -9.5 0t-12.5 -1q-4 24 -4.5 56t-0.5 66q-1 32 3.5 64t7.5 65q3 36 1.5 72.5t-3.5 73.5t-3 73t3 71q17 5 37.5 -0.5t39.5 -6.5q8 0 15 2t14 0q19 -4 28.5 -19.5 t21.5 -28.5q5 -6 12.5 -12.5t9.5 -11.5q2 -11 -0.5 -23t-3.5 -24q-1 -34 4.5 -68.5t7.5 -64.5q1 -40 -3.5 -78.5t-2.5 -74.5q1 -12 2 -23l2 -22q0 -10 2 -21t-4 -21zM127 -11q6 2 10 0t6 3q-4 -1 -10.5 0.5t-5.5 -3.5zM73 1q10 -4 22 -2l24 4t23 2.5t21 -6.5q-3 65 -4 126.5 t-2 122t-2 120.5t-4 123q-19 -2 -36 2.5t-38 4.5q-2 -42 -0.5 -76t-1.5 -73q8 -12 6.5 -26.5t1.5 -28.5q1 -5 3 -8.5t2 -8.5q1 -12 -2.5 -25.5t-2.5 -26.5q0 -4 1.5 -7t1.5 -7q0 -6 -3 -12t-4 -13q-1 -10 1 -19.5t1 -18.5q-1 -6 -4 -11t-4 -10q-2 -18 1 -36t3 -35 q0 -14 -2.5 -27.5t-1.5 -27.5zM182 248q2 11 2 23v25q-7 0 -5 -11t3 -17q-7 -10 0 -20zM184 455q3 3 0.5 6t-6.5 4q-1 -8 6 -10zM187 23q8 3 8.5 9t-10.5 7q2 -4 0.5 -9t1.5 -7zM51 574q1 11 0 23t-2 23.5t0 22.5t6 19q0 2 -2 7t0 6q3 8 13.5 13t24.5 8t27.5 5t22.5 4 q5 1 9.5 3t7.5 2q5 -1 14 -8.5t13 -12.5q5 -5 6 -12t4 -15q5 -12 12.5 -21t11.5 -16q-2 -6 -3.5 -12t-4.5 -12q4 -11 4 -27t-2 -30q-9 -2 -18 1.5t-17 5.5q-16 -5 -35 -9.5t-38 1.5q-7 2 -13.5 7t-13 10.5t-13 9.5t-14.5 4zM167 675q-1 -6 1 -9.5t1 -9.5q8 1 4.5 9t-6.5 10z M77 660q-5 1 -6 -0.5t-3 0.5q3 -20 2 -39.5t1 -36.5q14 2 38 1t43 1q2 31 -2 58t-3 49q-18 -2 -37 -5.5t-35 -13.5q-1 -5 1 -7t1 -7z" />
<glyph unicode="&#xa2;" horiz-adv-x="488" d="M50 498q13 6 29.5 6.5t33.5 0t33 0t28 5.5q-8 29 -7.5 62t9.5 62q15 -2 30.5 0t30.5 4.5t29.5 3t27.5 -2.5q8 -7 9.5 -16t6.5 -20q2 -6 7 -10t9 -9q2 -3 1.5 -7.5t1.5 -8.5t5 -6.5t4 -4.5q4 -14 1 -27t-5 -25q11 -3 23.5 -2t24.5 1.5t22 -0.5t16 -8q1 -5 -1 -6t-1 -6 q8 -14 21.5 -26.5t14.5 -30.5q1 -7 -2.5 -12t-7.5 -14q-5 -14 -7 -26t-10 -21q-23 -8 -42.5 -7t-39.5 -5q-5 -1 -7.5 1t-4.5 4q-21 -9 -37 0q-7 -5 -14.5 -5.5t-14 0t-13 0t-10.5 -6.5q-2 -23 -2 -36.5t-2 -33.5q42 -10 83 -5t83 10q2 -11 11.5 -19t14.5 -19q3 -6 4 -14.5 t4 -16.5q4 -8 8.5 -13t5.5 -10q4 -20 0.5 -42t-3.5 -45q-12 1 -20.5 -4.5t-16.5 -7.5q-10 -3 -17 -1t-21 4q-20 3 -38.5 -2.5t-36.5 -6.5q-10 -11 -11 -29.5t1 -36.5q0 -4 2 -8t1 -7q-2 -11 -8.5 -16t-3.5 -14q-15 1 -31 0t-31 -0.5t-29 4t-26 13.5q3 34 -15 47 q-2 12 0 21.5t1 20.5q-8 1 -13.5 0t-10.5 -3q-18 14 -33 26t-38 19q-2 9 -8 14.5t-8 16.5q-2 20 -1 39.5t3.5 39t4 40.5t0.5 45q-1 14 -4 27t-5 25q-5 38 1 71.5t11 69.5zM66 289q1 -14 0.5 -22.5t-2.5 -22.5q-3 -26 -2 -51t-1 -48q17 0 32 1.5t32 1.5q10 1 24.5 1.5 t19.5 -6.5t4.5 -21t-2 -30t-3 -31.5t0.5 -25.5q15 -3 36.5 -3.5t38.5 -5.5q4 12 3.5 27.5t-1 31.5t-0.5 31t5 27q33 7 70.5 6t66.5 1q8 11 9 22.5t0 24.5t-2 26.5t2 27.5q-12 1 -25.5 -1.5t-27.5 -5t-28 -2.5t-27 6q-8 -4 -14.5 -3t-13.5 -1q-4 -1 -4 2t-3 3 q-20 -2 -41.5 -1.5t-47.5 -1.5q-1 5 -5.5 5t-6.5 5q2 30 1.5 68.5t5.5 72.5q30 -4 59.5 -1t59 7.5t58 8.5t56.5 4q4 15 5.5 35.5t-1.5 38.5q-30 -4 -53 -5.5t-57 -1.5q-5 6 -5.5 13t1 14.5t3.5 15.5t3 16q2 17 -3 36t0 37q-12 6 -24 6t-24.5 -2.5t-26 -4.5t-26.5 1 q-6 -14 -6.5 -29t1.5 -30t4.5 -30.5t1.5 -30.5q-28 -8 -56.5 -7.5t-58.5 -4.5q-7 -25 -9 -49t-1.5 -47.5t2.5 -48t3 -49.5z" />
<glyph unicode="&#xa3;" horiz-adv-x="599" d="M46 34q0 17 -0.5 33.5t-4.5 31.5q-3 10 -7.5 25.5t-1.5 32.5q27 5 50.5 2.5t54.5 2.5q0 26 -1 48.5t0 45.5q-6 3 -12.5 0.5t-11.5 -4.5q-15 11 -32 21.5t-29 27.5q-2 35 -5 69t-4 70q22 2 42 6.5t46 3.5q-3 24 -0.5 55.5t0.5 55.5q0 6 -2.5 11t-5.5 10q0 14 0.5 26.5 t0.5 26.5q0 18 -2 37.5t9 28.5q2 2 7 2.5t10 2.5q2 1 4.5 3t4.5 3t4 0t3 0q3 1 5 3.5t4 3.5q8 3 15.5 -0.5t15.5 -5.5q11 -2 21.5 0.5t21.5 0.5q2 -1 4.5 -2.5t5.5 -2.5q10 -2 20.5 0.5t19.5 3.5t15 -2.5t6 -17.5q7 -1 10.5 -8t5.5 -17t2.5 -21t2.5 -20q2 -4 4 -9t2 -8 q0 -7 -3.5 -15.5t-4.5 -16.5q-2 -8 -1 -14t-1 -15q-14 -11 -31 -10t-33 -4q-2 -6 -5.5 -11.5t-4.5 -13.5q-1 -4 0.5 -9.5t2.5 -12.5q0 -9 -1.5 -13.5t1.5 -9.5q25 -1 46 -2t47 -1q9 -15 16 -33.5t16 -34.5q-1 -14 0.5 -29t2.5 -30t0 -29t-5 -27q-17 1 -32.5 3.5t-37.5 -1.5 q-4 -1 -4 2.5t-3 2.5q-8 -1 -12.5 -5.5t-12.5 -2.5q-3 -28 -2 -55.5t3 -51.5q35 1 70 2.5t67 -0.5q3 17 3.5 38.5t4.5 39.5q23 -1 40 0t40 -3q7 -8 11.5 -17t10.5 -20q3 -5 4.5 -12.5t4.5 -15.5q4 -9 7 -13.5t3 -17.5q0 -30 -3.5 -65.5t-5.5 -67.5q0 -4 -3 -3.5t-1 -4.5 q-20 -2 -37.5 -6.5t-39.5 -7.5q-20 -2 -42.5 -6t-44.5 -4q-31 0 -61.5 2.5t-61.5 -2.5q-4 -2 -3 1t-1 4q-11 -7 -21 -5t-20 0q-2 0 -4 -1.5t-4 -1.5q-3 -1 -6.5 0.5t-6.5 1.5q-6 -1 -12.5 -3.5t-13.5 -2.5q-3 0 -5.5 1t-4.5 1q-8 -1 -16 -6t-14 -4q-8 1 -15 13t-14 16 q-2 1 -6 0.5t-6 1.5q-3 2 -4.5 5.5t-3.5 5.5q-5 6 -12.5 9t-11.5 11zM504 226q-14 3 -32 5t-34 -2q1 -17 -2 -34t-2 -36q-4 -2 -6.5 -4.5t-7.5 -4.5q-9 5 -22.5 5t-21.5 -4q-29 4 -62 0.5t-65 -0.5q-2 18 -0.5 34.5t-0.5 33.5q-3 29 -7.5 59.5t5.5 56.5q10 -6 14 3 q20 -2 44.5 -1t49.5 -1q4 26 -2 51t-5 54q-13 -2 -26.5 -0.5t-27 2.5t-27.5 0t-28 -7q-4 3 -8.5 6t-6.5 9q-1 32 0.5 63t-3.5 65q5 4 3 12t0 14q18 5 39 1.5t38 -3.5q-3 21 0.5 45.5t-1.5 42.5q-12 1 -27.5 -1t-25.5 7q-2 -1 -2 -4t-3 -1q-12 -2 -22.5 -2.5t-21.5 -0.5 q-2 0 -2.5 2.5t-3.5 1.5q-12 -5 -23 -9t-22 -9q-7 -19 -4 -41t1 -42q0 -4 -1.5 -7.5t-1.5 -6.5t1 -5.5t2 -5.5q1 -22 -1 -52t0 -52q1 -13 4 -23.5t-6 -15.5q-6 5 -13.5 5.5t-14.5 -0.5t-14.5 -1.5t-13.5 2.5q-6 -8 -13 -8t-17 -2q2 -26 4 -52.5t5 -52.5q13 -2 25 -1.5 t23.5 2t22 2t20.5 -0.5q-4 -14 -1.5 -28t3.5 -28q1 -15 -1 -30t2 -29q-2 -2 -2.5 -5t-2.5 -6q5 -8 4 -20t1 -24q-3 -4 -5.5 -7.5t-7.5 -5.5q-6 3 -12.5 3t-13 -1t-12.5 -0.5t-10 4.5q-11 -6 -23.5 -5.5t-24.5 -0.5q2 -21 6 -38.5t5 -39.5q5 -3 11 -1.5t12 1.5q23 2 47 0.5 t48 -4.5q29 -3 60 0t61 3h8.5t8.5 -1q23 -4 46 0t47 10q24 5 46.5 7.5t44.5 9.5q3 35 3.5 74t1.5 71z" />
<glyph unicode="&#xa4;" horiz-adv-x="530" d="M302 347q-2 -9 -2.5 -20.5t2.5 -20.5q2 -5 -1.5 -5.5t-4.5 -3.5q2 -12 -2.5 -21t-16.5 -11q-13 -2 -31 -0.5t-27 0.5q-6 23 -7 43.5t0 42.5q-2 3 -4 4.5t-4 3.5q4 8 10.5 9.5t17.5 1.5q17 0 32.5 4.5t26.5 -7.5q2 -7 5 -11t6 -9zM409 267q23 -20 42 -44.5t36 -52.5 q-14 -18 -28 -36.5t-30 -35.5q-2 -8 -3 -16t-8 -10q-11 -1 -15 6t-10 12q-15 15 -35 27t-31 31q-7 10 -18.5 14t-24.5 3.5t-25.5 -5.5t-20.5 -12q-11 -16 -25.5 -28t-25.5 -26q-4 -2 -5 0t-5 1q-1 -2 -1 -5.5t-5 -5.5q-13 9 -25.5 17t-15.5 27q-12 10 -20.5 23t-16.5 27 q-5 2 -8 0.5t-6 0.5q2 4 1 8t-1.5 7t-0.5 5.5t5 3.5q-2 4 -2.5 6.5t1.5 7.5q15 17 28 37t33 32q-5 7 -6 17t-2 20.5t-2.5 21t-5.5 20.5q-12 5 -22 10.5t-26 5.5q-11 18 -20 38.5t-26 33.5v25q9 6 16 13.5t13 16l12 17t14 14.5q17 -5 28.5 -15t21.5 -21q14 -6 24 -16t22 -18 q28 5 58.5 3.5t58.5 0.5q20 26 37 49.5t42 43.5q18 -16 36 -30.5t32 -34.5q-3 -7 0 -13t7 -12t8 -11.5t3 -11.5q0 -5 -5 -8.5t-10 -8.5q-11 -11 -22 -30.5t-24 -30.5q-1 -29 -0.5 -58.5t4.5 -49.5zM448 451q4 3 2 8t-5 7q0 -11 3 -15zM438 480q0 -8 7 -13q-2 9 -7 13z M387 142q8 21 22 35.5t26 31.5q-18 18 -35.5 37t-42.5 30q-2 5 -1 8t-1 10q-10 9 -8.5 21t-0.5 29q-2 14 -6 25.5t0 25.5q26 22 47 48.5t45 50.5q-2 1 -3 4t1 5q-9 3 -15.5 8.5t-12 12t-11.5 13t-14 10.5q-17 -19 -33 -39.5t-34 -38.5q-2 -5 -0.5 -8.5t-2.5 -7.5 q-10 2 -20.5 1.5t-21 -2t-21 -1.5t-20.5 4q-4 -5 -12 -5t-14 -2q-5 5 -10 5.5t-11 1.5q-5 7 -13.5 11.5t-17 8t-16 8.5t-11.5 14q-6 2 -10.5 4.5t-12.5 3.5q-9 -8 -16 -17.5t-15 -17.5v-3q17 -13 35 -20.5t32 -20.5q13 -12 12 -27t2 -34q2 -9 4.5 -16t3.5 -15q0 -5 -1 -10.5 t-1 -11.5q0 -4 3.5 -8.5t6.5 -10t5 -11t-1 -12.5q-5 -2 -8 -6t-6 -7.5t-7.5 -6.5t-12.5 -2q-7 -11 -13 -21t-14 -21q11 -11 19 -23.5t13 -29.5q15 13 29.5 26.5t35.5 20.5q3 6 14 11q3 -1 4.5 -3t5.5 -2q20 6 45 10.5t48 0.5q17 -20 31.5 -40.5t36.5 -34.5zM463 172 q-5 -11 -15.5 -20.5t-12.5 -20.5q7 10 16 20.5t12 20.5z" />
<glyph unicode="&#xa5;" horiz-adv-x="636" d="M600 654q-4 -11 -12 -17t-12 -17q-5 2 -6 -3t-6 -3q1 -8 -2.5 -14t-7.5 -11t-7.5 -10t-2.5 -11q-2 -4 -5 -6t-6 -5q-7 -17 -18 -31t-17 -33q-2 2 -2 1t-2 -1q-7 -13 -15 -24.5t-16 -22.5q-1 -7 -3.5 -12t-4.5 -10t-3.5 -10.5t-0.5 -14.5q9 0 20 1t24 2q10 -11 16.5 -24 t14.5 -25q-2 -7 -1.5 -15t1 -16.5t-0.5 -17t-5 -14.5q-25 5 -42 -1.5t-36 -15.5q-1 -7 -0.5 -13.5t1.5 -13.5q18 -2 33 0t35 1q15 -16 28.5 -34.5t9.5 -44.5q1 -2 3.5 -2t3.5 -2q1 -5 -1.5 -10t-1.5 -11q-9 -5 -20.5 -6.5t-24 -2.5t-25 -1.5t-23.5 -4.5q-1 -30 -1 -61.5 t-4 -57.5q0 -6 3.5 -7t0.5 -7q-20 -7 -43.5 -8t-40.5 -4q-7 -1 -14 -5t-13 -3q-13 2 -22 15.5t-18 22.5q-5 5 -10.5 6.5t-10.5 6.5q2 8 1.5 16.5t-5.5 11.5q0 5 1 6.5t3 3.5q-5 14 -5.5 32.5t-3.5 35.5q-6 3 -12 2t-12 -2.5t-11.5 -3t-11.5 -0.5q-13 2 -23 11.5t-24 11.5 q-4 8 -12 13t-12 15t-3.5 21.5t-3.5 21.5q-2 6 -5 10t-3 10q16 2 31 0.5t30 -2.5t29 -0.5t28 5.5q2 2 0.5 6.5t-0.5 9.5q-12 -2 -26.5 -2t-25.5 -6q-11 8 -23 14t-17 19q-10 -1 -13 5t-13 5q-5 20 -7 42.5t-8 41.5q10 3 23 3h27.5t28.5 0.5t26 2.5q-2 13 -12.5 24t-16.5 24 q-22 24 -41 49.5t-41 48.5q-4 1 -5.5 2.5t-5.5 1.5q-3 11 -8.5 19t-11.5 16q-5 18 -12.5 33t-15.5 29t-16 28.5t-14 31.5q2 4 5 6.5t6 5.5q48 1 95.5 6.5t92.5 -1.5q9 -15 26.5 -21.5t30.5 -18.5q11 -32 24 -61t21 -64q10 19 20.5 38.5t19.5 39.5q10 23 19 47t24 43 q30 -11 67 -8.5t71 5.5q0 -8 1 -12q19 -27 42 -44zM380 392q1 5 -2 6t-2 6q4 14 10.5 23.5t10.5 22.5q4 2 6 4.5t5 4.5q9 26 22.5 49.5t24.5 48.5q5 13 10.5 26t12.5 24q12 20 22 41t24 38v3q-24 -5 -46.5 -4.5t-51.5 2.5q-3 -3 -5 -7t-6 -6q1 -17 -7.5 -28.5t-14.5 -27.5 q-1 -2 -0.5 -5t-0.5 -5q-2 -5 -6 -8.5t-6 -8.5t-2.5 -10t-2.5 -9q-5 -9 -10.5 -16.5t-8.5 -16.5q-2 -7 -2 -12t-2 -10q-5 -9 -11.5 -17.5t-12.5 -15.5q0 -13 -4 -15.5t-8.5 1t-8.5 10t-6 10.5q-13 30 -27 56.5t-26 57.5q-7 20 -11.5 40t-16.5 34q-5 0 -10.5 1t-9.5 6 q-8 -3 -20 -5t-17 7q-27 -2 -53 -1t-49 -5q6 -20 20.5 -37.5t19.5 -41.5q5 -3 7 -9t4 -14q17 -28 37.5 -52.5t40.5 -49t38.5 -51t32.5 -58.5q-5 -6 -12.5 -3.5t-9.5 7.5q-19 -6 -45 -4t-45 0q1 -14 5.5 -28.5t4.5 -28.5q29 3 56.5 6t57.5 2q8 -6 8.5 -14.5t-0.5 -19.5 q-2 -15 -0.5 -29.5t-1.5 -25.5q-6 -1 -13.5 -1t-12.5 -4q-11 3 -21 1t-21 -1t-22 4t-22 -2q4 -8 5.5 -19.5t4.5 -21.5q27 0 57.5 -2t55.5 0q-1 0 -2.5 -2t1.5 -3q4 2 9 -1.5t7 -11.5q1 -4 -0.5 -7t-2.5 -7q-4 -31 0 -57.5t11 -49.5q28 -2 56 -2t55 5q-11 9 -10 23.5t0 29.5 q-2 14 -5.5 32t-0.5 35q3 3 7 5t5 7q8 -6 18.5 -3t20.5 3q14 1 27.5 -0.5t26.5 0.5q1 11 -1 24t-6 25q-29 -4 -52.5 -4t-49.5 -2q-7 18 -4.5 46.5t-0.5 54.5q19 8 45.5 7.5t45.5 3.5q-2 8 -2.5 23.5t-1.5 21.5q-14 2 -29 -2t-30 -4q-3 -1 -6.5 0.5t-6.5 0.5q-5 -1 -10 -3.5 l-10 -5t-9 -3t-8 2.5q-2 5 -2.5 14.5t5.5 11.5zM247 675q5 1 7.5 -2.5t6.5 -1.5q-4 1 -7 4t-7 0z" />
<glyph unicode="&#xa6;" horiz-adv-x="278" d="M42 693q29 -2 63 -4.5t59 -5.5q4 -5 5.5 -11t5.5 -13q5 -8 9.5 -15.5l10.5 -17.5q7 -11 11 -19.5t-7 -19.5q4 -23 1 -48t5 -46q-7 -13 -4.5 -28t1.5 -29q0 -5 -2.5 -10t-4.5 -12q-2 -8 -2 -15.5t-5 -10.5q-5 -4 -10 -1t-12 4q-17 1 -27.5 -5.5t-23.5 -6.5q-12 1 -23 11 t-25 11q-6 11 -8 22t-12 17q2 24 -3 45.5t-5 42.5q-1 22 4 44t-1 46q-3 -2 -3 -3q-1 -2 -1.5 -1t-0.5 2q5 9 6 18.5t0 19.5l-2 20t1 19zM132 619q-2 2 -2.5 0.5t-1.5 1.5q5 12 3.5 23t-4.5 22q-27 4 -61 3q-2 -26 -1 -48t11 -43q-5 -5 -3.5 -16t-3.5 -15q3 -13 3 -28.5 t0.5 -30.5t1.5 -29t6 -24q15 0 26 2.5t25 -1.5q1 27 0.5 49.5t-1.5 44t-1 43t3 46.5zM90 416q3 0 4 -2t4 -2q2 4 2 6q-2 -1 -6 0t-4 -2zM223 8l-57 -27q-14 6 -24 15t-25 13q-5 2 -9.5 1t-9.5 1q-8 2 -11.5 9t-10.5 10q1 14 0 32t-3 32q6 7 5 14.5t-2 16.5q-2 20 -2 45 t-1 48q-2 29 -3.5 59t4.5 47q10 -1 18.5 -4.5t20.5 -3.5q12 -1 24 1t21 -6q16 -18 31.5 -36.5t32.5 -35.5q0 -11 0.5 -23.5t-2.5 -20.5q5 -23 5 -47t-1.5 -48t-2.5 -47.5t2 -44.5zM155 43q-4 69 -6 133t-9 128q-18 -1 -27 -1t-23 3q2 -49 5 -108t6 -112q-1 -2 -2.5 -3.5 t-2.5 -3.5q4 -3 4.5 -7t-1 -9t-2.5 -11t1 -12q16 1 31.5 -1.5t29.5 3.5q-1 0 -1.5 1t-2.5 0z" />
<glyph unicode="&#xa7;" horiz-adv-x="666" d="M195 399q30 -7 61.5 -9t63 -2t62.5 0.5t59 -0.5q4 -8 6.5 -22.5t-7.5 -19.5q-19 -1 -33.5 -3t-28.5 4q-45 -8 -92 -3t-91 3q-1 6 -2.5 13.5t-2 14.5t0 13.5t4.5 10.5zM604 77q-1 -20 2 -40t0 -40q-13 0 -25.5 1.5t-26.5 0.5q-5 -1 -10.5 -2.5t-10.5 -1.5q-1 0 -3 2t-4 2 q-7 -1 -13 -3.5t-13 -3.5q-15 -2 -33 0.5t-38 1.5q-8 -1 -16.5 -4.5t-17.5 2.5q-19 -6 -38.5 -7.5t-39 -1.5t-39.5 -0.5t-39 -5.5q-25 13 -54.5 24.5t-61.5 20.5q-3 7 -9.5 10t-11.5 8q-5 26 -6.5 58.5t1.5 56.5q8 2 16.5 1.5t9.5 7.5q29 -5 59.5 -7t62.5 -5 q20 -2 40.5 -0.5t40.5 3t41 2.5t43 -3q-1 14 0 24.5t-1 24.5q-37 2 -84 1.5t-89 -2.5q-8 0 -15 0.5t-14 1.5q-6 0 -12.5 -1t-12 -1t-10 2.5t-7.5 9.5q-8 -1 -13 1t-8.5 5t-7.5 5.5t-10 2.5q-10 9 -20 17t-24 13q-2 6 -5 11l-6 10q0 10 1 20t-1 20q0 4 -2 6.5t-3 6.5 q-5 17 -1.5 36t-0.5 35q-1 6 -4.5 11t-4.5 10q-2 15 0.5 32.5t0.5 34.5q-2 20 -4 37.5t0 36.5q1 16 -3 31t-5 30q-2 21 -4 39t5 38q7 3 14 4.5t12 5.5q42 -5 80 -7t84 -2q16 1 31 3t30 1q4 0 7.5 -1.5t7.5 -2.5q23 -1 44.5 2t45.5 -5q11 3 24.5 3t27 -1t26 -1.5t21.5 2.5 q6 0 8.5 -3t7.5 -5q4 -6 5 -12.5t4 -13.5q6 -13 16.5 -25.5t12.5 -26.5q1 -9 -2 -18.5t-4 -19.5q-1 -20 0 -39t-4 -38q-5 -3 -10.5 -4.5t-9.5 -5.5q-17 2 -38.5 -0.5t-37.5 2.5q-17 -6 -38 -9t-43 2q-33 -5 -61.5 -2.5t-63.5 1.5q1 -7 1.5 -13t1.5 -13q37 -9 74 -8t74 4 t72.5 3.5t70.5 -8.5q10 -18 22 -34t18 -37q6 -11 17 -18t13 -19q0 -5 -2 -11t-2 -11q-3 -30 -2.5 -60t1.5 -58q1 -11 0.5 -22.5t0.5 -22.5q1 -9 3.5 -18.5t2.5 -18.5q1 -11 -1.5 -22.5t-2.5 -22.5zM518 642q1 -2 0 -5t1 -4q4 2 3 5t-4 4zM331 510q2 -5 9 -4.5t14 -1.5 q1 9 -8 11q-4 -2 -6.5 -5.5t-8.5 0.5zM120 265q0 2 1 2.5t0 2.5q-2 2 -3 0.5t-5 -0.5q-1 -3 1.5 -3.5t5.5 -1.5zM239 259q-2 -5 2.5 -4.5t4.5 4.5h-7zM300 15h10t8 2q-3 1 -8.5 1.5t-9.5 -3.5zM520 81q-8 68 -8.5 138.5t-2.5 137.5q-1 23 -2.5 45t3.5 42q-12 -2 -24 0.5 t-24 1.5q-1 0 -2 -2t-2 -2q-7 0 -13.5 2t-13.5 1q-14 -2 -28.5 -3.5t-29.5 -3.5q-34 -3 -69.5 -0.5t-64.5 3.5q-4 2 -9.5 2.5t-8.5 3.5q-4 -3 -15.5 -1t-17.5 -5q-2 8 -5.5 14.5t-5.5 15.5q-2 19 2 40.5t0 34.5q-2 6 -5.5 8t-4.5 7q0 3 1.5 7t2.5 6q46 -5 82 -2t77 2 q40 -2 77 -6t79 -2q3 33 9 62.5t-2 59.5q-11 0 -20 -1t-18 2q-35 -3 -66.5 -6t-66.5 -3q-43 0 -88 -3.5t-89 4.5q-11 -3 -21.5 -2t-21 3t-20 2.5t-17.5 -2.5q-5 -29 0 -57t6 -57q0 -34 3.5 -69.5t-0.5 -70.5q8 -30 9 -66.5t5 -68.5q40 2 84 3.5t88 1t87 -2t82 -5.5 q-1 -6 -1.5 -7.5t4.5 -6.5q-5 -4 -2 -8.5t3 -10.5q0 -3 -1.5 -6.5t-1.5 -6.5q-3 -16 -2.5 -34.5t0.5 -35.5q0 -10 0.5 -20.5t-7.5 -15.5q-3 0 -3.5 1t-0.5 2.5v2.5t-3 1q-2 -4 -1.5 -8.5t-3.5 -6.5q-20 1 -41 -1.5t-42 -5.5t-42.5 -4.5t-43.5 1.5q-5 1 -10.5 3t-10.5 3 q-8 0 -17.5 -2t-19.5 0q-9 2 -19 5t-18 3q-7 -1 -14 -6t-15 -4q-3 -14 -1 -28t2 -31q44 -2 87 -2.5t87 4.5q29 3 58.5 2t59 -1t57 1.5t52.5 8.5v5z" />
<glyph unicode="&#xa8;" horiz-adv-x="483" d="M274 898q2 2 3 0.5t5 -0.5q2 9 7 12q8 1 12 -3q23 5 47 0.5t50 -9.5q1 -2 3 -4.5t3.5 -4.5t3 -2.5t2.5 3.5q8 -16 20 -30t10 -36q-2 -9 -6 -18.5t1 -18.5q-2 -7 -3 -15.5t-4 -13.5q-7 -3 -12 -8q-17 -1 -31 5q-24 -8 -49.5 -6t-42.5 16q-1 3 -3 5t-1 7q-10 2 -14 10 t-5.5 18t-1.5 21t-1 20q2 12 4.5 24.5t2.5 27.5zM388 885q-22 11 -46 10t-48 4q-5 -10 -4.5 -21t2.5 -22.5t3 -24t-2 -25.5q3 -7 9 -8.5t14 -0.5t17 3t18 2q10 0 18.5 -1.5t12.5 5.5q-1 23 2 38.5t4 40.5zM200 758q-23 2 -50.5 -2.5t-56.5 0.5q-4 6 -10.5 10l-13 8 t-12.5 8.5t-9 11.5q-5 30 -2.5 61t-0.5 60q4 1 6 6q28 -5 54 -4t56 3q11 -8 18 -18t19 -17q7 -17 10.5 -34t-4.5 -36q-2 -5 1 -6t2 -6q-7 -8 -6 -22.5t-1 -22.5zM60 899q2 -23 -1 -48.5t2 -50.5q19 -3 45.5 0t43.5 2q4 23 6 49.5t2 50.5q-29 -4 -52.5 -0.5t-45.5 -2.5z" />
<glyph unicode="&#xa9;" horiz-adv-x="661" d="M417 312q7 -4 12.5 -12t7 -16.5t-2 -16.5t-14.5 -12q-8 5 -17 2t-19 -3q-5 0 -10.5 2t-11.5 1q-8 -1 -15.5 -3t-19.5 -4q-21 -2 -38.5 -7t-31.5 0q-4 11 -10.5 17.5t-10.5 16.5q-4 11 -1.5 20t1.5 20q0 8 -4.5 14t-6.5 13q-3 14 -1 30t1 32q-1 8 -2 16.5t0 16.5q4 4 7 3 t8 -3q1 5 -2 7.5t0 5.5q32 5 73.5 6.5t74.5 1.5q11 0 19.5 0.5t15.5 -5.5q6 -12 3.5 -24t-0.5 -25q2 -6 6 -11t2 -13q-15 -11 -35.5 -13t-39.5 -7q-7 -2 -12.5 -5.5t-12.5 -1.5q-2 -3 -4 -6.5t-1 -9.5q15 -2 31 -1t29 0.5t22 -6t10 -20.5zM257 287q34 1 69 7t66 6 q-2 6 -3.5 11t-1.5 13q-26 -1 -49.5 -3t-44.5 -1q-8 17 -9 36.5t3 38.5q24 3 51 7.5t55 6.5q-7 8 -6 17.5t-2 17.5q-38 0 -70 -2.5t-71 -8.5q3 -23 1.5 -45t1.5 -44q2 -14 8 -27t2 -30zM472 316q-4 -14 -1 -28.5t0 -25.5q6 -8 5.5 -21.5t-4.5 -23.5q-20 4 -41 -2.5t-43 -6.5 q-2 0 -4.5 1.5t-4.5 1.5q-4 -1 -5.5 -3t-5.5 -2q-5 0 -9 2t-9 3q-14 2 -30 -0.5t-30 -1.5q-28 2 -59 2t-62 -5q-7 22 -5.5 47.5t-0.5 46.5q-1 5 2.5 5.5t1.5 5.5q-5 10 -6 21.5t0 23.5t2.5 23.5t0.5 23.5q-2 30 -4.5 60t3.5 61q19 5 38.5 7t37.5 2q40 2 98 0.5t115 -3.5 q5 -1 5.5 -5.5t3.5 -6.5q1 -5 -3.5 -5t-2.5 -7q5 -16 5 -33.5t1 -32.5q1 -12 3 -26.5t4 -30.5q1 -16 -0.5 -34.5t4.5 -32.5zM450 236q0 35 -0.5 66t-2.5 60t-4.5 58.5t-5.5 62.5q-6 -5 -17 -5.5t-16 3.5q-23 -4 -47 -5t-48.5 -1.5t-48 -2t-45.5 -5.5q-9 -49 -5.5 -104 t3.5 -111q10 -9 18 -25q59 2 114 0.5t105 8.5zM595 200q2 -3 3.5 -6t2.5 -7q-1 -34 -2.5 -59.5t-5.5 -53.5q-31 -9 -69 -8t-71 1q-27 -5 -49.5 -5t-43.5 1.5t-41.5 2t-43.5 -3.5q-15 2 -34 5.5t-39 0.5q-11 -2 -21 -6t-20 -2q-12 2 -19.5 11t-13.5 18q-14 4 -24 10.5 t-21 6.5q-3 1 -3 2t1.5 2t3 3t0.5 4q-5 9 -8 23.5t-4.5 31t-2.5 33.5t-1 30q-1 20 1.5 41t0.5 41q-2 30 -8 59t-8 57q-2 23 -1 46t3 45t3 44t-1 43q11 2 21 5t24 3q37 1 82.5 1t85.5 -1q5 0 20 -0.5t32.5 -1.5l35 -2t27.5 -2q40 -2 83 1.5t80 -3.5q2 -16 11 -29.5t16 -30.5 q2 -5 2.5 -10.5t2.5 -10.5q4 -10 10 -19t7 -17q2 -9 -1.5 -18t-2.5 -17q0 -8 0.5 -19.5t0.5 -23.5q2 -51 0 -106.5t-1 -109.5zM374 130q22 3 43.5 3t42 -1.5t40 -2t37.5 2.5q-2 123 -2 237.5t-2 225.5q-20 6 -41 1t-42 -2q-2 0 -9.5 0.5t-16 0.5t-17.5 0.5t-14 1.5 q-2 0 -12.5 0.5t-23.5 1t-26 0.5h-22q-4 0 -15.5 0.5t-14.5 0.5h-11t-16.5 -0.5t-16.5 -0.5h-12q-38 -2 -74 0t-71 -7q1 -46 -2.5 -101.5t2.5 -109.5q1 -6 3.5 -12t3.5 -12q4 -28 4.5 -56t0 -56.5t-0.5 -56t5 -53.5q29 -4 55.5 -4.5t49.5 -5.5q37 5 74 8.5t71 2.5q7 0 15 -1 t15 -5z" />
<glyph unicode="&#xaa;" horiz-adv-x="321" d="M111 590q13 1 31 5t28 -7l-2 -16l-2 -16q-15 1 -27.5 -0.5t-22.5 3.5q-2 7 -3 15zM266 518q0 -9 -1 -18t2 -15q-16 -2 -35 -1.5t-33 -1.5q-6 -1 -6.5 -0.5t-4.5 0.5q-2 0 -5.5 -2.5t-5.5 -2.5q-8 1 -21.5 0t-27.5 -3q-8 -1 -14.5 -3.5t-10.5 -0.5q-3 1 -8.5 6.5 t-11.5 10.5q-8 6 -13.5 11.5t-14.5 10.5q-2 14 -4 31t-4 33.5t-6 31.5t-11 27q-1 2 0 2.5t1 2.5q16 3 30 9q-11 6 -16.5 17t-7.5 24.5t0 27.5t7 27q19 -1 36.5 0.5t35.5 4t37 3.5t42 -2q8 -1 14 -2.5t15 0.5q2 -4 3 -8t0 -11q1 -10 6.5 -18t12 -15.5t12 -14.5t6.5 -16 q5 -26 1 -54t-4 -61q0 -8 2 -15t3 -15zM197 543q7 -2 12.5 -1.5t10.5 1.5q-1 11 -3 18.5t-3 22.5q-1 20 -3 42.5t-1 39.5q0 10 -2 15t-3 12q-1 3 1 6t2 5q-1 7 -3.5 11.5t-2.5 10.5q-16 3 -33.5 1t-35 -4.5t-34.5 -3.5t-32 4q-8 -4 -9.5 -14t-1.5 -19q30 -1 45 0.5t35 2.5 q8 -12 10.5 -32.5t-1.5 -34.5q-22 -1 -45.5 1t-43.5 -11q11 -21 9.5 -41.5t3.5 -45.5q34 1 59.5 2.5t57.5 3.5q4 1 5 4.5t6 3.5z" />
<glyph unicode="&#xab;" horiz-adv-x="761" d="M310 302q7 4 12 9t11 10q-1 2 -2 4.5t-1 6.5q27 23 56.5 44t52.5 47q18 11 33.5 23.5t29.5 26.5q25 11 45.5 25.5t40.5 28.5q3 8 11 12.5t12 12.5q8 -1 12.5 5t11.5 6q10 1 18 -8.5t6 -21.5q12 -12 23.5 -26.5t16.5 -31.5q-2 -15 -0.5 -28t3.5 -28q-30 -17 -59 -35.5 t-58 -37.5q-26 -17 -47.5 -35t-47.5 -31q20 -19 41 -35.5t46 -30.5q9 -5 18 -11t17 -11q12 -6 25 -9.5t19 -17.5q5 0 8 -2t7 -4q13 -17 30 -30t24 -38q-6 -17 -11.5 -33t-4.5 -37q-9 -7 -17.5 -7t-16 3t-15.5 6.5t-15 5.5q-3 2 -3 6.5t-2 6.5q-6 5 -13.5 8l-15 6t-14 6.5 t-10.5 10.5q-3 -1 -5.5 -2t-4.5 1q-14 19 -32 30.5t-33 28.5q-9 5 -17 10.5t-13 15.5q-7 2 -11.5 5.5t-10.5 5.5q-6 9 -14.5 15t-17.5 11.5t-18 10.5t-16 13q-30 9 -52 29t-32 55zM565 475q-17 -7 -29.5 -17.5t-23.5 -22t-23 -22.5t-28 -18q-3 -8 -8.5 -13t-12.5 -9 t-14 -7.5t-13 -8.5q-8 -8 -11 -17t-13 -13q-6 0 -9.5 -2t-8.5 -2q-1 -7 -6 -11t-11 -7t-11.5 -6t-7.5 -9v-3q11 -18 23 -26t30 -18q15 -8 25 -15.5t24 -11.5q23 -22 48 -41t47 -42q20 -5 30.5 -20t24.5 -28q14 -3 25 -10.5t27 -9.5q0 27 -3.5 47.5t-0.5 47.5 q-55 23 -100 57.5t-92 67.5q-2 6 -6 9.5t-5 11.5q45 38 88.5 75.5t98.5 67.5q2 4 5 7t5 7q-3 17 -2 29.5t-1 28.5q-17 -11 -30.5 -23.5t-30.5 -22.5zM656 456q-2 3 -1.5 8t-2.5 6q2 -5 0 -9t4 -5zM377 589q8 -8 14.5 -16.5t12.5 -17.5l13.5 -18t12.5 -19q4 -9 2.5 -19 l-3 -20t-1.5 -19.5t7 -17.5q-1 -6 -3 -12t1 -15q-14 -8 -24 -24q-5 -2 -7 1t-8 1q-9 -2 -13.5 -8t-15.5 -6q-18 -14 -38 -26.5t-40.5 -24.5t-39.5 -25.5t-34 -29.5q28 -14 53 -29.5t49 -32.5q35 -12 66 -29t57 -42q6 -32 8.5 -55t-0.5 -53q-16 -6 -27 -3t-21.5 8.5 t-21.5 10.5t-26 3q-14 16 -33 26.5t-33 27.5q-28 14 -53 31.5t-54 30.5q-8 10 -18.5 16t-18.5 17q-8 4 -15 8.5t-10 13.5q-14 5 -24.5 13t-21.5 16q-2 10 -12 20.5t-20.5 20.5t-16 20t3.5 21q12 15 37 26.5t43 27.5q17 15 36 35t39 36q9 7 17 13t16 14t14 16t13 14 q16 14 34 24.5t33 21.5q15 12 30.5 22.5t40.5 5.5zM194 186q22 -1 33 -21q22 -5 38 -18t32 -26.5t33.5 -24.5t42.5 -12q-5 17 -4 38.5t-6 38.5q-5 12 -15 15t-18 10q-29 6 -53 25t-50 33q-3 1 -11 3t-17 3.5t-16.5 3.5t-9.5 4q-7 7 -15.5 13t-16 12t-14 13.5t-9.5 17.5 q55 51 114.5 97.5t122.5 91.5q2 8 -1 18.5t-5 18.5q-22 -8 -35.5 -21.5t-34.5 -21.5q1 -5 -1.5 -7t-4.5 -5q-12 -8 -21.5 -18t-18.5 -20.5t-19.5 -20t-24.5 -15.5q-5 -8 -13.5 -17.5t-19.5 -9.5q-8 -12 -19.5 -21t-24 -17l-25 -16t-22.5 -18q9 -25 25 -40.5t34 -28.5 t36.5 -25.5t33.5 -31.5z" />
<glyph unicode="&#xac;" horiz-adv-x="657" d="M37 411q2 2 5.5 0.5t5.5 -3.5q1 8 9 14q60 -4 123 -4h126.5t127 -0.5t125.5 -4.5q6 -10 7 -22t6 -23q4 -10 9.5 -16t8.5 -14q11 -26 11.5 -57t4.5 -63q2 -19 5.5 -39t3.5 -40q1 -16 -1 -30.5t3 -28.5q-28 -3 -59.5 0.5t-63.5 -0.5q-4 8 -10.5 13.5t-11.5 13.5 q-2 3 -2.5 6.5t-2.5 7.5q-4 6 -11 11t-9 12q-3 8 -0.5 17t0.5 18q-2 8 -6.5 15t-3.5 16q-33 3 -63 -1t-65 -5q-5 8 -13 6.5t-17 -2.5q-4 0 -7 1.5t-8 1.5q-14 0 -31 -2t-32 -4q-5 -1 -10 1t-10 2q-3 0 -6 -1.5t-7 -1.5q-3 0 -6.5 2t-7.5 1q-9 0 -17.5 -4t-16.5 -2 q-10 1 -16.5 7.5t-13 14t-13 14.5t-16.5 9q-4 7 -9 11.5t-10 9.5q-8 35 -11.5 71t6.5 72zM57 293q82 8 161 7t157 -3q18 0 37.5 1.5t37.5 -5.5q2 -34 4.5 -62.5t9.5 -56.5q22 -1 46.5 -2t42.5 -1q-8 25 -10 51.5t-2 54.5v55.5t-2 53.5q-35 2 -72 2t-66 8q-18 -5 -39.5 -7 t-44.5 5q-17 -4 -30 -3.5t-28 2.5q-38 -5 -77.5 -2t-78.5 5q-7 -3 -13.5 -2.5t-13.5 1t-13 0t-12 -4.5q-2 -28 0.5 -49.5t5.5 -47.5zM81 269q-5 0 -8.5 -0.5t-5.5 -2.5q4 -5 7 -2t7 5zM178 227q1 9 -6 11q0 -10 6 -11zM514 144q6 0 15.5 1t10.5 5q-6 -1 -17 -2t-19 4 q-3 -2 -8.5 -2h-11t-10 -0.5t-5.5 -3.5q8 3 21 0.5t24 -2.5zM562 308q0 8 0.5 14t1.5 11q-5 -3 -4.5 -13.5t2.5 -11.5zM592 152q0 -8 0.5 -5.5t0.5 8v9t-1 -0.5q-1 -6 -0.5 -8t0.5 -3z" />
<glyph unicode="&#xad;" horiz-adv-x="495" d="M36 369q30 0 63.5 1.5t69 3t71.5 2t69 -1.5q14 -1 28 -2.5t27 -0.5q5 0 9.5 2.5t9.5 2.5q11 0 20.5 -5t18.5 -9q0 -10 4 -18.5t9 -16.5t9.5 -15.5t6.5 -16.5q4 -14 1 -29.5t-4 -29.5q1 -6 4 -9.5t3 -10.5q-12 -8 -26 -10t-29.5 -2t-31.5 1.5t-31 0.5q-29 -2 -59.5 -6 t-59.5 -3q-29 2 -55 3.5t-50 -6.5q-15 6 -26 17t-26 18q-7 10 -12.5 21.5t-10.5 22.5q0 27 -0.5 48.5t-1.5 47.5zM388 355q-43 0 -86 -1.5t-85 -2t-81.5 -0.5t-73.5 2q0 -24 4 -43t0 -43q76 -2 155.5 -2t168.5 4q4 20 1.5 40.5t-3.5 45.5z" />
<glyph unicode="&#xae;" horiz-adv-x="641" d="M316 426q7 -4 15 -13t-2 -16q2 -2 3.5 -5.5t-0.5 -7.5q-11 -6 -23.5 -2.5t-25.5 -0.5q-10 5 -13.5 15.5t-4.5 24.5q13 4 24 3.5t27 1.5zM463 311q-4 -14 -1 -28.5t0 -25.5q6 -8 5.5 -21.5t-4.5 -23.5q-20 4 -41 -2.5t-43 -6.5q-2 0 -4.5 1.5t-4.5 1.5q-4 -1 -5.5 -3 t-5.5 -2q-5 0 -9 2t-9 3q-14 2 -30 -0.5t-30 -0.5q-28 2 -59 1.5t-62 -5.5q-7 22 -5.5 47.5t-0.5 46.5q-1 5 2.5 5.5t1.5 5.5q-5 10 -6 21.5t0 23.5t2.5 23.5t0.5 23.5q-2 30 -4.5 60t3.5 61q19 5 38.5 7t37.5 3q40 1 98 -0.5t115 -3.5q5 -1 5.5 -5.5t3.5 -6.5q1 -5 -3.5 -5 t-2.5 -6q5 -17 5 -34.5t1 -32.5q1 -12 3 -26.5t4 -30.5q1 -16 -0.5 -34.5t4.5 -32.5zM441 232q0 35 -0.5 65.5t-2.5 59.5t-4.5 58.5t-5.5 62.5q-6 -5 -17 -5.5t-16 3.5q-23 -4 -47 -5t-48.5 -1.5t-48 -2t-45.5 -5.5q-9 -49 -5.5 -104t3.5 -111q10 -9 18 -25q59 2 114 0.5 t105 9.5zM420 390q-1 -8 0.5 -18t2.5 -20.5t0.5 -20.5t-6.5 -17q-5 -1 -13 3t-14 0q-2 -11 -1.5 -21t3 -20.5t4.5 -20.5t3 -19q-1 1 -3 -3q-8 0 -21.5 1.5t-20.5 1.5q-3 5 -9 5.5t-12 3.5q-3 2 -6 8.5t-13 3.5q-5 4 -7.5 11t-4 14.5t-2.5 15.5t-4 15q-4 -2 -4.5 -6.5 t0.5 -8.5q0 -10 2.5 -21.5t4.5 -20.5q-3 -4 -3.5 -10t-2.5 -11q-5 -1 -13 -2t-14 -4q-11 9 -20 20t-17 22q-8 21 -8.5 42t-0.5 47q-1 18 -6 37.5t-5 43.5q6 4 6 10q21 -1 42.5 1t43 3.5t43.5 1.5t43 -4q8 -17 17 -31.5t16 -31.5zM375 363q1 19 -0.5 40.5t-8.5 38.5 q-22 2 -39.5 2t-34 -1t-33 -2.5t-35.5 -1.5q-2 -25 4 -49t7 -47q0 -19 -1 -35.5t5 -30.5q10 -1 15.5 -0.5t13.5 -1.5q-2 9 -4.5 20t-3 23t0.5 23t5 19q8 -2 15.5 -0.5t14.5 -1.5q6 -3 11 -13t8 -22.5t4 -25t-1 -20.5q8 1 13.5 -1t13.5 -1q3 21 -1.5 43.5t-4.5 42.5 q11 1 18.5 1t17.5 1zM586 195q2 -3 3.5 -6t2.5 -7q-1 -34 -2.5 -59.5t-5.5 -52.5q-31 -10 -69 -9t-71 1q-27 -5 -49.5 -5t-43.5 1.5t-41.5 2t-43.5 -3.5q-15 2 -34 5.5t-39 0.5q-11 -2 -21 -6t-20 -2q-12 2 -19.5 11t-13.5 18q-14 4 -24 10.5t-21 6.5q-3 1 -3 2t1.5 2t3 3 t0.5 4q-5 9 -8 23.5t-4.5 31t-2.5 33.5t-1 30q-1 20 1.5 41t0.5 42q-2 29 -8 58t-8 57q-2 23 -1 46t3 45.5t3 44t-1 42.5q11 2 21 5t24 3q37 1 82.5 1t85.5 -1q5 0 20 -0.5t32.5 -1.5l35 -2t27.5 -2q40 -2 83 1.5t80 -3.5q2 -16 11 -29.5t16 -30.5q2 -5 2.5 -10t2.5 -11 q4 -10 10 -19t7 -17q2 -8 -1.5 -17.5t-2.5 -17.5q0 -8 0.5 -19.5t0.5 -23.5q2 -51 0 -106.5t-1 -109.5zM365 125q22 4 43.5 3.5t42 -2t40 -2t37.5 2.5q-2 124 -2 238t-2 225q-20 6 -41 1.5t-42 -2.5q-2 0 -9.5 0.5t-16 0.5t-17.5 0.5t-14 1.5q-2 0 -12.5 0.5t-23.5 1 t-26 0.5h-22q-4 0 -15.5 0.5t-14.5 0.5h-11t-16.5 -0.5t-16.5 -0.5h-12q-38 -2 -74 0t-71 -7q1 -46 -2.5 -101.5t2.5 -109.5q1 -6 3.5 -12t3.5 -12q4 -28 4.5 -56t0 -56.5t-0.5 -56t5 -53.5q29 -4 55.5 -4t49.5 -6q37 5 74 8.5t71 2.5q7 0 15 -0.5t15 -5.5z" />
<glyph unicode="&#xb0;" horiz-adv-x="408" d="M142 768q9 -2 19.5 -0.5t22 3.5t22.5 3t20 -1q9 -19 10 -47t1 -52q-22 -6 -42.5 -10.5t-42.5 -2.5q-5 9 -6 24t-1 30.5v29.5t-3 23zM217 697q-1 11 0 18.5t0 15.5q-8 1 -11.5 -1t-8.5 -4q-5 -14 -1.5 -22.5t21.5 -6.5zM327 744q2 -20 1.5 -45.5t-1.5 -48.5q0 -9 -0.5 -22 t-3.5 -20q-3 -8 -11 -13t-5 -15q-32 2 -72.5 0.5t-77.5 -15.5q-10 8 -19 16t-23 15q-7 4 -14.5 5t-12.5 7q-2 3 -4 13t-4 22t-3 24.5t-1 20.5q0 35 1.5 66t5.5 59q-5 6 -6 19t4 21q26 -5 54 -5t56.5 1.5t55.5 3.5t51 0q8 -21 17 -50t12 -59zM222 607q11 -2 16 3 q-5 1 -9.5 1.5t-6.5 -4.5zM274 632q1 59 4.5 106t5.5 89q-48 2 -95.5 -1.5t-91.5 -3.5q4 -25 3 -49t-2.5 -48t-1 -48t8.5 -49q46 -5 86.5 -1.5t82.5 5.5z" />
<glyph unicode="&#xb1;" horiz-adv-x="557" d="M54 447h59.5t48.5 8q1 17 -1.5 33.5t-2.5 33.5q-1 14 4.5 32t6.5 35q0 12 -0.5 20.5t6.5 15.5q26 -7 60.5 -9t61.5 -9q8 -15 15 -30.5t24 -21.5q-3 -8 1 -12t5 -12t-2 -17.5t-7 -19t-6.5 -20t-0.5 -21.5q32 1 63.5 -0.5t58.5 -8.5q1 -3 3.5 -6t-0.5 -5q12 -11 24.5 -33 t15.5 -45q2 -23 2.5 -46t-7.5 -40q-18 -3 -37.5 -3t-39 0.5t-38 0t-34.5 -3.5q-3 -11 -2.5 -24.5l1 -27t0 -26.5t-5.5 -24q-27 2 -53.5 2.5t-53.5 6.5q-8 -4 -21 -5t-21 1q-3 11 -7.5 19t-6.5 20q2 1 4.5 2.5t4.5 -1.5q-5 8 -6 24t0 31q-14 -3 -28.5 -4t-22.5 -7 q-16 14 -33 25.5t-27 30.5q-5 1 -6 -1.5t-6 -1.5q-5 20 -2 47.5t5 54.5q0 11 -0.5 22t4.5 20zM62 328q15 2 30.5 0.5t32.5 -1.5q14 -1 28.5 1.5t22.5 -0.5q14 -5 14 -15t-1 -21q-2 -15 -1.5 -31.5t-0.5 -33.5q17 0 36.5 -3t35.5 3t16 21.5t1 35.5q1 16 1 28.5t1 23.5 q38 4 72.5 3.5t72.5 2.5q2 25 3 44.5t-3 37.5q-6 2 -12 1.5t-13 -1t-13 0.5t-12 5q-27 -4 -48 -7t-45 -3q-8 17 -9 36.5t-0.5 39.5t2 40.5t0.5 40.5q-11 5 -22 7t-28 4q-13 14 -39 19q-3 -9 -2 -17t3.5 -15.5t4.5 -15.5t2 -17q0 -5 -2 -10.5t-3 -12.5q-1 -14 0 -29.5 t0.5 -29.5t-4.5 -25t-14 -16q-8 2 -11 6.5t-8 7.5q-19 -6 -39 -5t-43 -4q-3 -26 -4.5 -48t-1.5 -48zM305 450q-2 5 0.5 8.5t-0.5 5.5q-2 -1 -8 -2t-5 -9q3 -3 6 -2t7 -1zM297 550q5 2 8 -3.5t7 -0.5q-5 4 -8 9.5t-10 7.5q0 -4 2 -6t1 -7zM298 286l-0.5 -3.5t-1 -7.5 t-0.5 -6.5t1 0.5q2 5 3.5 9.5t-2.5 7.5zM390 297q-8 -3 -15.5 -1t-13.5 -5q7 2 17 0.5t12 5.5zM445 342q2 6 4.5 16.5t3 21t-1 19.5t-6.5 14v-71zM469 335q0 -5 -1.5 -7.5t-1.5 -7.5q3 -1 4 1t1 5t-0.5 5.5t-1.5 3.5zM420 158q-1 -4 -1 -5t3 -3q2 -2 4 2.5t7 2.5 q17 -9 29.5 -24t23.5 -31q-4 -28 0 -53.5t5 -48.5q-9 0 -22 -0.5t-25.5 0t-24 2t-18.5 3.5q-11 -8 -29 -5.5t-35 4.5q-17 1 -35 0t-38 4q-10 -4 -26.5 -4.5t-28.5 4.5q-25 -5 -46.5 -5t-45.5 1q-6 12 -15 20.5t-15 21.5q-3 0 -6 -0.5t-5 1.5q-8 8 -8 24.5t-4 38.5 q-3 16 -4.5 27.5t8.5 19.5q16 -3 28 -2t26 -4q26 5 49 5t52 -1q8 0 21 1t15 -4q4 0 4.5 2.5t3.5 2.5q38 -1 77 1t76 2zM84 78q32 -2 64.5 -2t63.5 -4q19 -2 36.5 -3t35.5 -3q39 -4 81.5 -4t70.5 2q-3 21 -7 40t-4 40q-8 1 -11 1.5t-9 3.5q-2 -5 -10.5 -6.5t-13.5 -1.5 q-18 -1 -36 0t-34 1q-10 0 -16.5 -2t-14.5 -2q-8 -1 -16 2t-16 2q-22 -1 -36.5 -3t-30.5 -3q-23 -2 -50.5 2t-55.5 -2q0 -19 2.5 -31.5t6.5 -26.5zM117 34q-1 7 -1 10t3 8q-3 -2 -6 -2t-4 -3q3 -2 4 -6.5t4 -6.5zM150 28q-2 0 -9.5 1t-7.5 -2q5 2 10 -1.5t7 2.5zM451 86 q0 8 0.5 17.5t-1.5 15.5q-2 0 -3 1t-2 -1q3 -7 3 -17t3 -16zM469 38q0 -1 -7 -1.5t-6 -5.5q3 2 7 2.5t6 4.5z" />
<glyph unicode="&#xb2;" horiz-adv-x="330" d="M54 858q21 6 45 11.5t48 2.5q16 -2 28 -8t26 -4q7 0 16 1.5t15 -3.5q3 -3 5 -9t3.5 -12t4 -11.5t7.5 -6.5q4 -25 3.5 -55t1.5 -56q1 -7 5 -10.5t8.5 -6t8.5 -5.5t6 -9q-2 -9 -4.5 -20.5t-3.5 -23.5t0 -23t4 -18q-3 -14 -18.5 -14t-29.5 -1q-6 -1 -13.5 -1.5t-13.5 -0.5 q-8 -1 -15.5 -1.5t-15.5 -1.5q-14 -1 -26 0.5t-22 -6.5q-20 8 -34.5 23t-33.5 20q-4 15 -3 35t-1 37q2 6 6 7.5t3 9.5q10 5 20.5 7.5t21.5 5.5q-1 5 -4 7.5t-6.5 4.5t-5.5 5.5t-2 9.5q-8 4 -18 4.5t-19 6.5q-2 11 -6.5 23.5t-3.5 27.5q2 15 6 30t7 28zM62 770q13 2 26 1 t22 1q1 11 2.5 19.5t6.5 16.5q11 -2 21.5 -4.5t22.5 -1.5q8 -11 8 -24.5t2 -27.5q1 -11 6.5 -19.5t3.5 -19.5q-11 -10 -23.5 -16t-26 -11t-27.5 -9.5t-27 -10.5q-5 -4 -5 -12t1 -16q19 -1 40 0.5t41.5 3.5t40.5 2.5t39 -1.5q2 14 -1 22t-2 23q-9 0 -17.5 -0.5t-11.5 8.5 q0 8 5 10t9 7q-2 32 -2.5 65t1.5 65q-8 6 -17.5 3.5t-18.5 -2.5q-8 1 -15 4t-15 4q-19 2 -39 -4t-40 -4q-3 -16 -9 -34t-1 -38zM107 605q1 4 -1 4.5t-4 1.5q0 -6 5 -6z" />
<glyph unicode="&#xb3;" horiz-adv-x="370" d="M67 852q2 3 7.5 3h10.5q34 5 71 2q5 0 10 -2t10 -2q10 0 21.5 1t23 1t21.5 -2.5t16 -9.5q3 -12 11.5 -21t12.5 -20q3 -8 5 -15.5t10 -12.5q-3 -10 0.5 -19t4.5 -18q1 -11 -3 -21t-2 -21l3 -7.5t0 -8.5q-1 -9 1 -18t4.5 -18.5t4 -20t-0.5 -20.5q-5 0 -7.5 -1.5t-4.5 -3.5 t-4.5 -3.5t-7.5 -0.5q-2 0 -1.5 -3.5t-1.5 -4.5q-20 -4 -38.5 -4t-40.5 -3l-5 -2.5t-5 -1.5q-6 -1 -13.5 0t-15.5 0q-9 -2 -20 -6.5t-16 -4.5q-9 1 -15 9t-13 13q-9 7 -14 10.5t-2 17.5q2 12 -2 24.5t-6 21.5q8 14 25 15t36 5q-3 6 -3 14t-5 13q-3 0 -5 -1.5t-5 -1.5 q-13 8 -26 19t-9 25q-2 2 -4.5 4t-4.5 4q-3 24 -4 50t-4 47zM93 764q11 -2 24 -3t24 3q8 5 8 15.5t6 15.5q7 -3 14.5 -5.5t17.5 -0.5q15 -5 17 -22t2 -31q-19 -11 -51 -9q-7 -5 -6 -14t3 -16q13 0 24 -1t26 1q5 -2 6.5 -7t1.5 -11v-12.5t2 -12.5q-6 -4 -13.5 -5.5t-16 -3 t-16.5 -3.5t-14 -6q-16 7 -15 23q-9 2 -16 -1t-15 -3q-5 1 -7.5 3t-7.5 1q-2 -8 2.5 -18.5t3.5 -18.5q8 -2 9.5 2t7.5 3q7 -10 16 -8t23 3q29 1 56.5 5t56.5 5q-2 48 -9.5 96.5t-12.5 102.5q-2 2 -7.5 1.5t-7.5 2.5q-3 -3 -10 -3t-14.5 0.5t-15.5 0t-13 -3.5q-22 6 -45.5 4 t-43.5 -2q-2 -19 1 -32.5t5 -34.5z" />
<glyph unicode="&#xb4;" horiz-adv-x="361" d="M292 859q-5 -2 -5.5 -1t-4.5 -1q-11 -13 -24 -23t-26.5 -19.5t-26.5 -19.5t-23 -23q-8 1 -9.5 -3t-8.5 -3q-1 -4 -2 -7.5t0 -8.5q-32 2 -49 11.5t-36 23.5q-1 9 -3 17t-11 10q2 5 2.5 12.5t-4.5 9.5q9 2 6 4.5t0 10.5q3 1 4.5 0t3.5 -2q1 7 4.5 10.5t3.5 11.5h6 q14 48 37.5 87t47.5 77q5 0 6 2q29 -14 50 -34t47 -38q2 -4 2.5 -9t2.5 -10q4 -2 7 -4t7 -4q-2 -10 -1.5 -20t1.5 -19.5t0.5 -19t-4.5 -18.5zM277 929q-2 -5 -5 -9t-5 -9q5 -1 7.5 1.5t5.5 -1.5q-1 4 -1 9.5t-2 8.5zM242 977q-9 3 -15 8t-12 10.5t-13 10t-17 6.5 q-5 -6 -7.5 -12t-5.5 -11.5t-7 -10t-11 -7.5q-2 -3 -0.5 -4.5t-0.5 -6.5q-8 0 -8.5 -7t-7.5 -7q-9 -32 -24 -58.5t-26 -55.5q9 -5 17.5 -10.5t11.5 -16.5q18 8 32 19.5t26.5 24l25.5 25.5t28 24q8 15 19 26t16 28q-5 8 -10.5 13t-10.5 12z" />
<glyph unicode="&#xb6;" horiz-adv-x="639" d="M261 64q6 -2 4 -8q-4 0 -4 2.5v5.5zM246 619q10 -15 6.5 -33.5t-3.5 -36.5q0 -29 2 -61.5t1 -58.5q-16 -5 -23 4q-18 4 -38.5 1.5t-34.5 5.5q0 17 -1 36t-3 41q-2 16 -2.5 30t0.5 31q1 13 2 29t9 22q5 4 17.5 5.5t22.5 2.5q14 1 27 -0.5t24 -3.5q-2 -8 -6 -14zM224 448 q6 2 5 7.5t0 8.5v59.5t3 63.5q-1 1 -3 1t-2 1q-5 -6 -5 -14t1.5 -17.5t2 -19.5t-2.5 -18q3 -12 -0.5 -27.5t-2.5 -29.5q0 -3 -1 -8.5t5 -6.5zM412 441q2 -2 5.5 -2t1.5 -5q-6 -5 -14 -4t-16 2.5t-16 2t-15 -4.5q-5 3 -13.5 2.5t-15.5 3.5q1 23 0 48t-1.5 50.5t-0.5 49.5 t3 45q22 2 43 4.5t39 -3.5q-2 -22 1.5 -45t1.5 -46q-1 -4 -2 -2.5t-1 -0.5v-34t3 -39q1 -6 2.5 -11.5t-5.5 -10.5zM390 584q-1 -23 -1 -45.5t8 -44.5q1 8 -0.5 17t-2.5 20q-1 14 0 29t-4 24zM398 444q0 7 2 11t-3 9q2 -6 -1 -12t2 -8zM592 638q2 -9 -1.5 -17t-3.5 -17 q0 -7 2.5 -13t0.5 -13q-2 -9 -11.5 -14.5t-11.5 -16.5q-4 1 -8 1t-9 2q3 -17 0 -37t-3 -36q2 -20 5 -38t1 -37q-2 -26 -5.5 -50.5t1.5 -46.5q-3 -2 -2.5 -6.5t-3.5 -6.5q6 -48 4.5 -93t1.5 -95q2 -25 -0.5 -49.5t-2.5 -49.5q0 -13 3.5 -25t0.5 -23q-6 -5 -14 -5.5t-17 0.5 l-18 2t-18 -1q-11 10 -25 16t-29 17q-3 2 -5 5.5t-5 5.5q-5 3 -9.5 3t-6.5 5q-3 5 -4 12t-1.5 14.5t-1.5 15t-5 12.5q-1 -20 -1.5 -39.5t-7.5 -37.5q-6 -5 -13.5 -3t-15.5 1q-11 0 -21 -3.5t-19 -4.5q-8 -1 -17 0.5t-14 -1.5q-10 3 -16.5 9.5t-12.5 13.5t-11 14.5t-12 13.5 q-2 2 -2.5 8.5t-4.5 9.5q-2 31 -1.5 64t1 67t0 69t-4.5 72q-16 3 -34.5 1.5t-33.5 -5.5q-11 4 -20 10.5t-17 13.5t-17.5 13t-21.5 9q-6 14 -9.5 26.5t-5.5 29.5q-4 40 -4 79t2 81q2 32 0 65.5t3 64.5q7 1 12.5 1.5t12.5 3.5q14 -3 38 -4t44 3q5 1 8.5 2.5t8.5 2.5 q17 2 35 -2t38 -2q15 2 33 2t35 2q42 4 82 3t78 2q37 -7 61.5 -29t45.5 -47zM304 21q0 2 2.5 3t1.5 4q-2 -1 -3 0t-3 1q-1 -1 -0.5 -3.5t2.5 -4.5zM388 89q0 48 4 89.5t3 83.5q0 5 -1 10l-2 10q0 5 1.5 11t-3.5 9q-6 -6 -3.5 -13.5t3.5 -14.5q0 -19 -4.5 -38.5t-4.5 -39.5 q-1 -8 0.5 -17.5t2.5 -18.5q0 -20 0.5 -38.5t3.5 -32.5zM497 633q5 11 5.5 26.5t-6.5 29.5q-10 1 -19.5 -1t-20.5 -2q-23 -1 -48.5 2.5t-50.5 1.5q-11 -1 -22 -3.5t-22 -3.5q-14 -1 -27 0.5t-23 -3.5q-5 -1 -6 1.5t-3 3.5q-5 -5 -11.5 -4.5t-12.5 1.5q-10 0 -16.5 1t-11.5 2 t-10 1.5t-12 -0.5q-14 -2 -32 -3.5t-29 3.5q-8 -6 -19.5 -5t-20.5 -1q-4 -17 -3 -37.5t2 -43.5q1 -15 0.5 -30.5t-2.5 -30.5q-3 -60 0 -108q2 -14 3.5 -25t4.5 -24q36 1 69 2.5t65 -3.5q8 4 16.5 4.5t13.5 -7.5q-2 -14 -2.5 -26.5t0.5 -26.5q2 -18 0 -38t0 -38 q2 -15 3.5 -30.5t1.5 -30.5q-1 -8 -3 -16.5t-2 -16.5q0 -3 1.5 -6t1.5 -6q0 -2 -2 -4.5t-2 -5.5q-3 -20 1 -43t0 -46q22 -1 40.5 2t39.5 3q2 18 -0.5 32t-2.5 31q0 21 3.5 43.5t5.5 45.5q2 22 0.5 45.5t-3 46t-1.5 44t4 40.5q11 -5 24 -4.5t25 0.5t23 -2t19 -10 q0 -73 -5 -145t-8 -142q3 -15 8 -28.5t5 -30.5q17 0 31 1t29 1q-5 28 0.5 55.5t3.5 55.5q-3 47 -4 96.5t-5 99.5q-2 20 -4 39.5t-3 39.5q-1 11 0.5 23t-0.5 23q-4 28 -5.5 57.5t3.5 56.5q1 4 2.5 7t2.5 7q1 14 -2 28t-4 26q5 3 14.5 1.5t14.5 1.5z" />
<glyph unicode="&#xb7;" horiz-adv-x="411" d="M121 365q2 2 3.5 0.5t5.5 -0.5q2 4 3 8t5 6q7 0 12 -5q24 5 49.5 0.5t52.5 -9.5q1 -1 3 -4t4 -5.5t3.5 -2.5t2.5 4q4 -8 9.5 -15.5t11 -15.5t8.5 -17.5t2 -20.5q-2 -10 -6 -19.5t1 -19.5q-3 -7 -3.5 -16t-4.5 -15q-7 -3 -12 -8q-19 -1 -33 5q-25 -8 -52.5 -6t-44.5 17 q-1 3 -3 5t0 7q-11 2 -15.5 10.5t-6 19.5t-1 22.5t-0.5 20.5l4 26t2 28zM241 351q-23 11 -48 11t-51 4q-5 -10 -4.5 -21.5t2.5 -23.5t3.5 -25t-2.5 -27q3 -7 10 -8.5t15 -1t18 2.5t19 2q10 0 19 -1.5t13 6.5q0 12 1 22t2 19t2 18.5t1 22.5z" />
<glyph unicode="&#xb8;" horiz-adv-x="472" d="M110 -135q24 -3 48 -5t46 6q2 29 1.5 53t4.5 52q8 -1 11 5.5t11 8.5q5 1 8.5 -2t8.5 -4q4 -1 11 0t15.5 2.5t16.5 2t15 -1.5q4 -1 4 3t5 2q8 -7 6 -13t-1 -14q1 -7 4.5 -12t6.5 -13q2 -5 2.5 -11t2.5 -11q3 -9 8 -16.5t6 -19.5q0 -11 -2.5 -22t-5.5 -22t-5 -23t0 -25 q2 -14 1 -30t-10 -29q-2 -11 -3.5 -23t-9.5 -17q-7 2 -14 3.5t-12 4.5q-15 -3 -29.5 -3t-28.5 0.5t-28.5 -0.5t-27.5 -5q-19 17 -35.5 35.5t-33.5 35.5q2 22 -1.5 42t-5.5 45q5 5 6.5 10t3.5 11zM127 -213q38 -2 77 -3.5t83 -9.5q3 48 11 96t6 99q-8 4 -10 0.5t-7 -4.5 q-13 2 -28.5 1.5t-26.5 -1.5q3 -23 1 -45t-4 -37q-2 -14 0 -29t-8 -25q-22 -3 -46.5 0.5t-41.5 2.5q-8 -8 -8 -19.5t2 -25.5zM172 -264q1 2 2 3t0 4q-6 0 -6 -3q2 -1 2 -2t2 -2z" />
<glyph unicode="&#xb9;" horiz-adv-x="278" d="M29 849q31 3 64.5 6t62.5 0q3 0 6.5 -1.5t7.5 -1.5q2 1 6.5 2t7.5 1q12 -2 18 -11.5t11 -15.5q6 -7 12 -12t9 -12q-5 -24 -10 -53t-4 -55q0 -21 -2.5 -44t-2.5 -44q0 -8 -1.5 -14.5t1.5 -14.5q-5 -5 -9 -5t-11 2q-14 1 -21.5 -4.5t-17.5 -5.5q-7 0 -14 5t-14 11 t-14.5 11.5t-14.5 7.5q0 7 -3 11t-6 9q1 23 3.5 46.5t-6.5 40.5q2 12 5 25t-5 21q-8 -1 -13.5 0.5t-13.5 0.5q-5 9 -10.5 18t-18.5 12q-4 17 -1.5 27.5t7.5 26.5q2 5 -3.5 5t-4.5 5zM112 794q4 -11 4 -22t-0.5 -22.5t0 -22t5.5 -19.5q-1 -23 -3 -40t-1 -40q13 -3 22 -4t23 1 q5 9 -2.5 16.5t-7.5 15.5q1 5 3.5 11t3.5 11q2 18 -0.5 38t1.5 37q1 5 3 8.5t4 7.5q3 14 1.5 27.5t-0.5 27.5q-6 6 -17 8t-17 8q-12 -2 -19 1t-13 7q-12 -3 -27 -3t-29 -2q-2 -11 -4 -22.5t0 -20.5q15 1 37.5 0.5t32.5 -7.5zM179 717q0 -2 1 -8.5t2 -4.5q2 11 1 22.5 t-1 20.5q0 -8 -1.5 -15.5t-1.5 -14.5z" />
<glyph unicode="&#xba;" horiz-adv-x="408" d="M142 768q9 -2 19.5 -0.5t22 3.5t22.5 3t20 -1q9 -19 10 -47t1 -52q-22 -6 -42.5 -10.5t-42.5 -2.5q-5 9 -6 24t-1 30.5v29.5t-3 23zM217 697q-1 11 0 18.5t0 15.5q-8 1 -11.5 -1t-8.5 -4q-5 -14 -1.5 -22.5t21.5 -6.5zM327 744q2 -20 1.5 -45.5t-1.5 -48.5q0 -9 -0.5 -22 t-3.5 -20q-3 -8 -11 -13t-5 -15q-32 2 -72.5 0.5t-77.5 -15.5q-10 8 -19 16t-23 15q-7 4 -14.5 5t-12.5 7q-2 3 -4 13t-4 22t-3 24.5t-1 20.5q0 35 1.5 66t5.5 59q-5 6 -6 19t4 21q26 -5 54 -5t56.5 1.5t55.5 3.5t51 0q8 -21 17 -50t12 -59zM222 607q11 -2 16 3 q-5 1 -9.5 1.5t-6.5 -4.5zM274 632q1 59 4.5 106t5.5 89q-48 2 -95.5 -1.5t-91.5 -3.5q4 -25 3 -49t-2.5 -48t-1 -48t8.5 -49q46 -5 86.5 -1.5t82.5 5.5z" />
<glyph unicode="&#xbb;" horiz-adv-x="781" d="M320 548q8 2 15.5 -3.5t15.5 -7.5q24 -17 52 -33t58 -31t59.5 -30t56.5 -31q12 -7 22 -15t20.5 -16t22 -15.5t25.5 -11.5q9 -8 18.5 -13.5t18.5 -12.5t17 -15.5t13 -20.5q3 -6 6 -14.5t3 -13.5q-1 -9 -9.5 -13.5t-16.5 -9.5q-9 -5 -18.5 -13t-20.5 -16q-10 -8 -22 -13 t-20 -11q-4 -3 -6.5 -8.5t-5.5 -8.5q-14 -17 -29.5 -28.5t-30.5 -21.5q-2 -2 -3.5 -5.5t-3.5 -5.5q-6 -2 -11 -2.5t-8 -1.5q-4 1 -4 -2.5t-2 -5.5q-13 -4 -20.5 -13.5t-19.5 -14.5q-22 -27 -52.5 -45t-55.5 -42q-7 -2 -12 -1t-9 4t-8 6.5t-9 5.5q-6 19 -10.5 41t-3.5 46 q1 14 4.5 27.5t0.5 25.5q15 11 31.5 21t32.5 20t31 21t27 25q14 7 23.5 17.5t25.5 14.5q8 8 18.5 14t18.5 14q-20 9 -40 19l-40 20q-2 6 -5 8q-22 11 -42 23t-40 25q-11 19 -25.5 32.5t-27.5 28.5q-14 42 -11 92q6 5 6 15zM335 468q28 -8 49 -23t40 -33l66 -38t62 -42 q11 -1 26 -8t23 -15t1.5 -17t-18.5 -17t-23.5 -14t-14.5 -9q-4 1 -6 0t-5 -2q-2 -3 -3 -7t-9 -2q-6 -18 -28 -23q-2 -5 -5.5 -7t-6.5 -6q-18 -8 -33.5 -19.5t-31 -22.5t-31.5 -21t-34 -16q2 -17 7 -30t2 -27q63 38 122 79t116 86q11 6 24 11.5t24 13.5q4 8 10.5 14t14 11 l15 10t12.5 13q-35 21 -68 41.5t-61 46.5q-17 4 -29 12t-23 18q-29 9 -52.5 22t-48.5 29q-15 4 -25.5 10t-20.5 13t-20.5 14t-23.5 13q-1 -18 2 -29.5t5 -28.5zM245 271q-4 5 -10 6.5l-14 3.5q-1 8 -4.5 11.5t-6.5 8.5q-13 2 -22.5 8t-18.5 12t-18.5 11.5t-22.5 7.5 q-5 3 -7.5 8t-13.5 3q-7 11 -18.5 18t-25.5 11q-7 8 -13.5 18t-12.5 20q-12 23 -10.5 50.5t-2.5 62.5q6 5 10.5 5.5t11.5 3.5q62 -27 117.5 -61t117.5 -62q9 -10 22 -16.5t26.5 -12t26.5 -12t23 -15.5q19 -8 37 -17t24 -30q9 -8 20 -18.5t10 -24.5t-18.5 -24t-32.5 -18 q-2 -1 -2 -3t-2 -3q-10 -7 -21 -10.5t-21 -9.5q-4 -3 -7 -7t-7 -6q-7 -5 -14.5 -6.5t-13.5 -4.5q-14 -8 -30 -20.5t-27 -21.5q-25 -8 -41 -26q-3 -3 -5 -6.5t-4 -6.5q-4 -2 -8.5 -4t-9.5 -5q-17 -14 -31 -29.5t-36 -23.5q-3 -8 -8 -12t-9 -10q-9 -2 -19.5 -3.5t-20 0 t-17.5 6.5t-11 17q-3 -2 -7.5 -4t-9.5 1q-2 23 -4.5 51t-2.5 53q19 9 31 24.5t31 23.5q6 11 16 18.5t21.5 13.5t24.5 11t25 12q4 2 6.5 5.5t6.5 5.5q13 8 27.5 10t25.5 12zM51 61q42 30 85.5 58t80.5 64q47 35 94 68t91 70q-26 16 -54 29t-58 25q-2 6 -6.5 8.5t-7.5 6.5 q-16 4 -29 15t-30 17q-11 4 -20 6t-18 7q-13 8 -25 16.5t-24 15.5q-11 1 -22.5 8t-18.5 15q-10 2 -17.5 6t-20.5 2q-3 -13 -0.5 -27t0.5 -27q22 -13 50 -21q30 -23 62.5 -46t67.5 -41q14 -6 26 -10.5t19 -16.5q4 -1 14 -3q6 -7 5 -12.5t-4.5 -10t-9 -8t-9.5 -5.5 q-8 -5 -15 -13t-15 -11q-11 -5 -22.5 -7t-17.5 -10q-2 1 -3 2t-3 1q-3 -4 -6.5 -7t-5.5 -7q-41 -14 -73.5 -43t-64.5 -55q2 -7 1.5 -14.5l-1 -15t0 -15t4.5 -14.5z" />
</font>
</defs>
</svg>
